<svg width="216" height="251" viewBox="0 0 216 251" fill="none" xmlns="http://www.w3.org/2000/svg">
<path d="M149.361 207.566C135.647 216.035 119.848 220.52 103.731 220.52C87.6134 220.52 71.8141 216.035 58.1009 207.566C42.0441 197.639 29.6626 182.746 22.8343 165.147C16.006 147.548 15.1035 128.201 20.2635 110.043C25.4235 91.8838 36.3646 75.9031 51.4274 64.5242C66.4902 53.1453 84.853 46.989 103.731 46.989C122.608 46.989 140.971 53.1453 156.034 64.5242C171.097 75.9031 182.038 91.8838 187.198 110.043C192.358 128.201 191.455 147.548 184.627 165.147C177.799 182.746 165.417 197.639 149.361 207.566Z" fill="#A6A6A6"/>
<path d="M100.222 113.719C132.41 132.657 174.545 144.949 185.007 138.332C195.47 131.714 212.164 78.2159 210.849 65.5096C210.306 60.0212 173.016 57.0912 169.3 61.6506C165.584 66.21 161.61 98.6546 159.595 101.67C158.166 103.843 125.221 98.5975 104.61 96.525C91.461 95.1815 83.2426 103.729 100.222 113.719Z" fill="#AD6359"/>
<path d="M210.434 72.7561C211.707 67.2676 216.152 38.8821 215.523 31.5213C214.894 24.1605 211.678 3.10717 206.004 2.93566C200.329 2.76414 200.773 9.05298 200.773 9.05298C200.773 9.05298 198 0.377245 192.268 0.791736C186.537 1.20623 187.566 10.7967 187.566 10.7967C187.566 10.7967 184.064 2.10668 178.376 2.90708C172.687 3.70748 175.36 13.2837 175.36 13.2837C175.36 13.2837 172.501 5.17963 168.128 7.8238C162.825 10.9968 169.729 25.3468 169.786 33.5509C169.786 35.4089 167.313 71.1839 167.313 71.1839L210.434 72.7561Z" fill="#AD6359"/>
<path d="M175.216 12.5979C180.276 23.1603 180.662 28.6487 179.318 40.0972C179.318 40.3259 179.618 40.4117 179.661 40.183C182.005 29.0918 182.52 22.1312 175.717 12.3263C175.316 11.8403 174.902 12.0833 175.216 12.5979Z" fill="#263238"/>
<path d="M187.151 10.1393C191.438 21.5735 191.91 27.5336 191.438 39.6253C191.438 39.667 191.455 39.707 191.484 39.7365C191.514 39.766 191.554 39.7826 191.596 39.7826C191.637 39.7826 191.677 39.766 191.707 39.7365C191.736 39.707 191.753 39.667 191.753 39.6253C193.254 27.8052 193.611 20.8446 187.822 9.98205C187.494 9.4818 186.95 9.58186 187.151 10.1393Z" fill="#263238"/>
<path d="M200.729 9.72499C204.088 21.1592 204.888 27.6053 202.859 39.2825C202.846 39.3394 202.855 39.3992 202.886 39.4488C202.917 39.4984 202.966 39.5337 203.023 39.5469C203.08 39.5602 203.14 39.5504 203.189 39.5195C203.239 39.4887 203.274 39.4394 203.288 39.3826C206.503 27.6768 205.574 19.5442 201.086 9.66782C200.786 8.98177 200.515 9.01035 200.729 9.72499Z" fill="#263238"/>
<path d="M166.327 78.5878C166.327 78.5878 157.651 66.7533 154.992 60.7075C152.334 54.6616 150.705 28.5058 156.322 27.834C163.597 26.9621 167.513 41.8696 168.471 49.4305C168.471 49.4305 185.293 47.4009 190.424 57.5059C195.555 67.6109 166.327 78.5878 166.327 78.5878Z" fill="#AD6359"/>
<path d="M158.394 28.2482C165.54 32.2359 166.226 42.2408 167.713 49.5016C167.731 49.6085 167.775 49.7095 167.841 49.7962C167.906 49.8829 167.991 49.9529 168.089 50.0003C168.186 50.0478 168.294 50.0713 168.402 50.0691C168.511 50.0669 168.617 50.0389 168.713 49.9876C175.86 49.6016 185.95 51.131 190.567 57.134C190.594 57.1666 190.631 57.1882 190.673 57.1947C190.715 57.2011 190.758 57.192 190.793 57.169C190.828 57.146 190.854 57.1107 190.865 57.07C190.876 57.0292 190.872 56.9859 190.853 56.9481C186.765 49.9161 176.931 47.6007 169.185 48.5154C167.755 41.0403 166.698 31.0353 158.437 28.2482C158.379 28.1624 158.351 28.2196 158.394 28.2482Z" fill="#263238"/>
<path d="M150.061 142.277L158.851 99.3981C158.851 99.3981 125.377 93.8668 104.838 94.1955C84.2997 94.5242 77.5106 102.442 103.295 117.85C118.374 126.933 133.991 135.09 150.061 142.277Z" fill="#455A64"/>
<path d="M150.547 100.055C148.813 105.954 147.231 111.899 145.802 117.893C145.102 120.837 144.373 123.782 143.701 126.754C143.029 129.727 142.572 132.929 141.886 135.988C141.886 136.202 142.172 136.302 142.229 136.088C142.986 133.158 143.944 130.27 144.73 127.34C145.516 124.41 146.159 121.266 146.945 118.236C148.384 112.233 149.675 106.197 150.819 100.127C150.821 100.094 150.812 100.061 150.792 100.034C150.773 100.007 150.745 99.9873 150.713 99.9788C150.68 99.9704 150.646 99.9734 150.616 99.9874C150.586 100.001 150.562 100.025 150.547 100.055Z" fill="#263238"/>
<path d="M142.601 211.239C137.113 214.018 131.338 216.189 125.378 217.714L124.149 218.028C123.377 218.228 122.576 218.4 121.805 218.571C109.725 221.195 97.2232 221.195 85.1436 218.571C83.9716 218.314 82.7996 218.028 81.6419 217.714C74.6915 215.904 67.9973 213.224 61.7177 209.738C61.2174 209.481 60.7315 209.21 60.2884 208.91C59.5166 208.466 58.7448 207.995 57.9587 207.48C54.7499 205.492 51.6751 203.296 48.7541 200.906C48.3968 200.648 48.0538 200.362 47.7107 200.062C44.7798 197.594 42.0153 194.934 39.4352 192.101L38.6634 191.258C37.2055 189.609 35.8096 187.909 34.4756 186.155C34.7043 185.212 34.9473 184.269 35.1759 183.297C35.2617 183.025 35.3189 182.739 35.3903 182.468C36.0621 179.867 36.8196 177.222 37.5342 174.492C37.6057 174.207 37.7058 173.935 37.7772 173.635C38.5204 171.048 39.3066 168.375 40.1784 165.702C40.2451 165.416 40.3309 165.131 40.4357 164.845C41.279 162.229 42.1651 159.556 43.1085 156.869C43.1942 156.612 43.3085 156.326 43.4086 156.04C44.3519 153.411 45.3238 150.752 46.3672 148.079C46.4673 147.822 46.5673 147.55 46.6817 147.279C47.725 144.62 48.8399 141.991 49.9976 139.332C50.1119 139.032 50.2406 138.76 50.3692 138.474C51.5555 135.802 52.799 133.158 54.0996 130.513C54.214 130.256 54.3426 129.985 54.4712 129.742C55.8052 127.055 57.2012 124.401 58.659 121.781C58.7171 121.652 58.784 121.528 58.8591 121.409L59.145 120.909C60.66 118.222 62.2465 115.563 63.9188 112.976C64.0903 112.69 64.2761 112.404 64.4619 112.119C66.2199 109.403 68.078 106.744 70.0075 104.172C70.1436 103.959 70.2915 103.754 70.4506 103.557L70.6364 103.328C72.3373 101.07 74.1238 98.8548 75.9676 96.7395C76.4105 96.2307 76.8881 95.7531 77.3969 95.3102L77.6113 95.1387C77.8686 94.9386 78.1115 94.7528 78.3974 94.567C78.4441 94.5255 78.4972 94.4917 78.5546 94.4669C87.3018 88.6355 103.967 90.9795 106.097 94.081C106.192 94.2029 106.278 94.3319 106.354 94.4669L106.64 94.8814C108.404 97.5865 110.007 100.393 111.442 103.286C112.872 106.001 114.158 109.003 115.473 112.076C116.659 114.863 117.803 117.793 118.932 120.837C118.932 120.994 119.046 121.137 119.089 121.28C119.156 121.417 119.209 121.561 119.246 121.709C120.304 124.568 121.333 127.426 122.348 130.485C123.205 133.1 124.077 135.759 124.892 138.446C124.978 138.746 125.078 139.003 125.164 139.303C126.021 142.062 126.864 144.863 127.665 147.665C127.694 147.81 127.733 147.953 127.779 148.094C128.565 150.752 129.294 153.41 130.023 156.055C130.023 156.298 130.123 156.512 130.195 156.741C130.938 159.471 131.624 162.186 132.324 164.859L132.553 165.717C133.239 168.389 133.896 171.048 134.525 173.649C134.525 173.735 134.525 173.806 134.525 173.878C134.525 173.949 134.625 174.292 134.668 174.507C135.326 177.222 135.955 179.881 136.555 182.482C137.241 185.512 137.898 188.456 138.499 191.272C138.57 191.572 138.627 191.844 138.684 192.115C139.299 194.974 139.885 197.718 140.414 200.32C140.414 200.52 140.414 200.72 140.528 200.92C141.143 203.964 141.686 206.78 142.158 209.31C142.158 209.453 142.158 209.581 142.229 209.71L142.601 211.239Z" fill="#407BFF"/>
<path opacity="0.1" d="M81.6411 217.714C82.7988 218.028 83.9708 218.314 85.1428 218.571H121.804C122.576 218.4 123.376 218.228 124.148 218.028L125.377 217.714H81.6411ZM142.343 209.338C142.343 209.195 142.271 209.052 142.243 208.909H60.2305C60.7307 209.21 61.2167 209.481 61.6598 209.738H142.343C142.343 209.61 142.343 209.481 142.343 209.338ZM140.599 200.348C140.57 200.269 140.547 200.187 140.528 200.105H47.6528C47.9958 200.405 48.3388 200.691 48.6962 200.948H140.642C140.599 200.748 140.556 200.548 140.528 200.348H140.599ZM138.684 191.301H38.634L39.4058 192.144H138.827C138.741 191.872 138.684 191.658 138.612 191.301H138.684ZM33.2742 191.301C33.2608 191.446 33.2321 191.59 33.1885 191.73C33.1885 191.587 33.1885 191.444 33.2885 191.301H33.2742ZM136.626 182.511H35.3181C35.3181 182.782 35.1895 183.068 35.118 183.34H136.84L136.626 182.511ZM134.596 173.935C134.596 173.864 134.596 173.792 134.596 173.706H37.7193C37.6478 174.006 37.5478 174.278 37.4763 174.564H134.796C134.739 174.335 134.696 174.135 134.639 173.906L134.596 173.935ZM132.338 164.888H40.392C40.2842 165.168 40.1935 165.454 40.1205 165.745H132.609L132.338 164.888ZM130.208 156.769C130.137 156.541 130.094 156.326 130.037 156.083H43.365C43.2649 156.369 43.1506 156.655 43.0505 156.912H130.237C130.235 156.864 130.24 156.816 130.251 156.769H130.208ZM127.678 147.693L127.55 147.279H46.6666C46.5522 147.55 46.4522 147.822 46.3379 148.079H127.807C127.772 147.952 127.743 147.823 127.721 147.693H127.678ZM124.905 138.474H50.3541C50.2255 138.76 50.0969 139.032 49.9825 139.332H125.191C125.191 139.032 125.034 138.775 124.948 138.474H124.905ZM122.047 129.684H54.4848C54.3561 129.927 54.2275 130.199 54.1132 130.456H122.433C122.308 130.206 122.198 129.948 122.104 129.684H122.047ZM119.088 121.295C119.088 121.152 118.988 121.009 118.931 120.851H59.1585L58.8869 121.352C58.8118 121.471 58.745 121.595 58.6868 121.723H119.303C119.265 121.575 119.213 121.432 119.145 121.295H119.088ZM115.472 112.09H64.4611C64.2896 112.376 64.1038 112.662 63.9466 112.948H115.858C115.758 112.647 115.629 112.362 115.529 112.09H115.472ZM111.427 103.271H70.6642L70.4784 103.5C70.3194 103.696 70.1714 103.902 70.0353 104.115H111.885C111.742 103.829 111.613 103.543 111.484 103.271H111.427ZM106.625 94.8671L106.339 94.4526H78.5824C78.525 94.4774 78.472 94.5112 78.4252 94.5527C78.1394 94.7385 77.8964 94.9243 77.6391 95.1244L77.4247 95.2959H106.954C106.852 95.1605 106.761 95.0171 106.682 94.8671H106.625Z" fill="black"/>
<path d="M104.481 117.007C97.735 118.222 86.8438 107.431 82.7561 98.9406C82.4845 98.3689 83.6709 92.4517 84.7571 85.1909C85.4146 80.7887 86.0292 75.8577 86.2721 71.3269L114.329 79.7454C112.404 85.3242 111.171 91.1179 110.656 96.9968C110.638 97.6226 110.671 98.2488 110.756 98.8692C110.764 98.969 110.764 99.0694 110.756 99.1693C111.17 102.743 110.999 115.82 104.481 117.007Z" fill="#AD6359"/>
<path d="M110.8 99.1693C110.8 99.3694 110.8 99.5838 110.8 99.8268C93.7482 96.225 88.4884 87.5921 85.4727 79.6453C85.8157 76.8582 86.1015 74.0282 86.2302 71.3269L114.287 79.7311C112.364 85.3144 111.135 91.1133 110.628 96.9968C110.596 97.6227 110.629 98.2503 110.728 98.8692C110.739 98.9718 110.763 99.0726 110.8 99.1693Z" fill="#263238"/>
<path d="M79.8406 38.868C76.7104 48.9444 81.913 78.1304 89.0737 84.605C99.436 94.0668 116.473 95.0387 124.534 82.5754C132.352 70.4837 124.892 32.5506 116.902 26.6333C105.182 17.929 84.4571 23.9749 79.8406 38.868Z" fill="#AD6359"/>
<path d="M103.752 57.3057C103.752 57.3057 103.609 57.4343 103.623 57.5058C104.023 59.4639 104.166 61.7936 102.494 62.7369C102.494 62.7369 102.494 62.8656 102.494 62.837C104.71 62.0937 104.495 59.0208 103.752 57.3057Z" fill="#263238"/>
<path d="M101.694 55.4905C98.4785 55.7906 99.3361 62.1795 102.309 61.8937C105.282 61.6078 104.381 55.2332 101.694 55.4905Z" fill="#263238"/>
<path d="M116.044 55.419C116.044 55.3332 116.215 55.419 116.23 55.5619C116.43 57.5486 116.987 59.8498 118.874 60.2214C118.874 60.2214 118.874 60.3357 118.874 60.3214C116.616 60.3071 115.915 57.3056 116.044 55.419Z" fill="#263238"/>
<path d="M117.545 53.1178C120.689 52.446 121.833 58.8349 118.874 59.4066C115.916 59.9783 114.901 53.6752 117.545 53.1178Z" fill="#263238"/>
<path d="M98.7783 52.9034C99.5857 52.5464 100.373 52.1456 101.137 51.7028C102.026 51.3944 102.79 50.8018 103.309 50.0163C103.413 49.738 103.427 49.4343 103.35 49.1474C103.274 48.8605 103.109 48.6047 102.88 48.4155C102.352 48.1222 101.755 47.9767 101.151 47.9943C100.548 48.012 99.9601 48.192 99.4501 48.5155C98.3227 49.0071 97.4167 49.8979 96.906 51.0168C96.7911 51.2793 96.7578 51.5703 96.8104 51.852C96.863 52.1337 96.9991 52.3931 97.2009 52.5965C97.4028 52.7999 97.6611 52.9379 97.9424 52.9926C98.2237 53.0474 98.5149 53.0163 98.7783 52.9034Z" fill="#263238"/>
<path d="M119.588 49.5589C118.706 49.5051 117.828 49.4002 116.958 49.2444C116.016 49.2701 115.093 48.9725 114.343 48.4012C114.149 48.1743 114.031 47.8925 114.005 47.5951C113.98 47.2978 114.048 46.9999 114.2 46.7432C114.595 46.2906 115.105 45.9524 115.676 45.7638C116.246 45.5753 116.857 45.5433 117.444 45.6712C118.67 45.7295 119.83 46.2385 120.703 47.1005C120.918 47.3051 121.064 47.5715 121.12 47.8627C121.177 48.1539 121.142 48.4555 121.019 48.7257C120.897 48.9959 120.693 49.2213 120.437 49.3706C120.18 49.5198 119.884 49.5857 119.588 49.5589Z" fill="#263238"/>
<path d="M107.126 69.1401C107.732 69.8554 108.478 70.438 109.319 70.8512C110.161 71.2643 111.078 71.4993 112.014 71.5413C112.835 71.5915 113.659 71.5192 114.458 71.3269C114.614 71.304 114.767 71.2657 114.916 71.2125L115.33 71.0839C115.432 71.0503 115.52 70.9849 115.582 70.8975C115.643 70.81 115.676 70.705 115.673 70.598C115.683 70.5316 115.683 70.4642 115.673 70.3979V70.2263C115.502 68.697 115.044 66.4102 115.044 66.4102C115.645 66.6103 118.646 67.5107 118.503 66.7246C117.231 60.1785 115.816 52.9177 113.172 46.7147C113.157 46.6697 113.125 46.6322 113.083 46.6101C113.041 46.5879 112.992 46.5827 112.946 46.5955C112.9 46.6083 112.861 46.6382 112.837 46.679C112.812 46.7197 112.804 46.7683 112.815 46.8147C113.787 53.1464 115.873 59.2638 116.945 65.6098C115.876 65.275 114.764 65.0921 113.644 65.0666C113.429 65.1524 114.601 69.4974 114.616 70.1835C114.624 70.2065 114.624 70.2319 114.616 70.2549C112.1 70.9267 110.07 70.4122 107.355 69.0257C107.112 68.8399 106.983 68.9972 107.126 69.1401Z" fill="#263238"/>
<path d="M113.257 70.7552C112.608 71.8559 111.688 72.7714 110.584 73.4136C109.971 73.7402 109.271 73.8652 108.583 73.771C107.068 73.5709 106.868 72.2416 106.996 71.0553C107.079 70.4315 107.227 69.8182 107.439 69.2258C109.163 70.3481 111.203 70.8844 113.257 70.7552Z" fill="#263238"/>
<path d="M110.584 73.4135C109.971 73.7401 109.271 73.8651 108.583 73.7708C107.068 73.5707 106.868 72.2415 106.996 71.0552C107.772 70.9893 108.548 71.186 109.198 71.6137C109.849 72.0413 110.337 72.6752 110.584 73.4135Z" fill="#FF9CBD"/>
<path opacity="0.2" d="M79.8974 58.8777C81.7268 57.7915 84.8284 51.2739 86.2005 48.6012C87.5726 45.9284 86.5007 33.508 86.0719 29.8347C83.1606 32.2233 80.9974 35.3986 79.8402 38.9821C78.4967 43.1699 78.6825 50.9881 79.8974 58.8777Z" fill="#263238"/>
<path d="M110.999 37.0956C110.105 38.471 108.874 39.5949 107.423 40.3604C105.972 41.1259 104.349 41.5076 102.709 41.4692C101.039 41.4306 99.4069 40.9667 97.9663 40.1214C96.5257 39.2761 95.3246 38.0772 94.4765 36.6382C94.4765 36.5525 94.2907 36.6382 94.3336 36.6382C95.0919 38.2309 96.2695 39.5871 97.7399 40.5615C99.2104 41.536 100.918 42.0918 102.681 42.1695C104.425 42.1627 106.137 41.6951 107.643 40.8141C109.149 39.9332 110.395 38.6701 111.256 37.1528C111.271 37.0956 111.085 36.9669 110.999 37.0956Z" fill="#263238"/>
<path d="M98.0355 14.8561C92.5185 15.6993 87.8448 19.4155 86.3154 23.4318C85.4608 25.7299 85.4155 28.2507 86.1868 30.5782C86.1868 30.6782 86.4155 30.5782 86.3869 30.5782C86.0003 28.4917 86.1824 26.3396 86.9142 24.3479C87.6461 22.3561 88.9006 20.598 90.5461 19.2582C92.3324 17.7052 94.4557 16.5894 96.7479 15.9989C99.0402 15.4085 101.438 15.3598 103.753 15.8566C106.008 16.2964 108.034 17.5221 109.47 19.3154C109.598 19.5012 109.999 19.3154 109.884 19.1296C107.912 15.8566 103.052 14.0985 98.0355 14.8561Z" fill="#263238"/>
<path d="M131.709 22.66C130.446 20.0526 128.306 17.973 125.663 16.7856C122.004 15.1277 118.217 15.9424 114.458 16.7856C114.442 16.7923 114.429 16.8033 114.42 16.8173C114.411 16.8312 114.406 16.8476 114.406 16.8642C114.406 16.8809 114.411 16.8973 114.42 16.9112C114.429 16.9252 114.442 16.9362 114.458 16.9429C117.645 16.2139 120.932 15.6422 124.105 16.7856C126.732 17.7081 128.959 19.5109 130.409 21.8882C131.817 24.343 132.293 27.2234 131.75 30.0009C131.206 32.7785 129.68 35.267 127.45 37.01C126.143 37.982 124.651 38.6763 123.065 39.0499C121.48 39.4235 119.835 39.4686 118.231 39.1825C118.102 39.1825 118.045 39.3397 118.231 39.3683C121.125 39.9715 124.14 39.4987 126.711 38.0385C129.281 36.5782 131.231 34.2307 132.195 31.4358C133.119 28.5504 132.946 25.4257 131.709 22.66Z" fill="#263238"/>
<path d="M78.8821 44.7707C78.8821 44.7707 72.3932 35.5376 76.0235 29.263C78.1103 25.7184 86.4144 25.1038 86.4144 25.1038C88.202 21.5496 91.3276 18.8506 95.1044 17.6001C101.822 15.156 110.526 18.1575 110.526 18.1575C110.526 18.1575 116.615 13.5838 123.19 16.328C132.366 20.1442 132.938 33.3222 124.848 38.5962C119.131 42.2981 110.269 37.9816 110.269 37.9816C109.497 38.1817 102.008 44.0704 94.9901 37.6243C94.9901 37.6243 90.5736 42.6697 85.7141 40.1256C85.1824 41.5025 84.2437 42.6846 83.0231 43.5145C81.8026 44.3444 80.358 44.7826 78.8821 44.7707Z" fill="#263238"/>
<path d="M85.9726 62.6511C85.9726 62.6511 79.2263 53.3322 74.9814 55.7477C70.7364 58.1632 75.9247 71.7556 80.9701 73.5422C81.6025 73.8175 82.2842 73.9617 82.974 73.9662C83.6637 73.9706 84.3472 73.8351 84.9831 73.5679C85.619 73.3007 86.1941 72.9073 86.6737 72.4116C87.1533 71.9159 87.5274 71.3281 87.7735 70.6837L85.9726 62.6511Z" fill="#AD6359"/>
<path d="M76.5959 59.6069C76.5769 59.6069 76.5588 59.6145 76.5454 59.6279C76.5319 59.6413 76.5244 59.6594 76.5244 59.6784C76.5244 59.6974 76.5319 59.7155 76.5454 59.7289C76.5588 59.7423 76.5769 59.7499 76.5959 59.7499C80.1405 61.1792 82.0557 64.3521 83.3993 67.711C83.185 67.358 82.8968 67.0558 82.5545 66.8249C82.2123 66.5939 81.8241 66.4399 81.4166 66.3734C81.0091 66.3068 80.5921 66.3293 80.1942 66.4393C79.7962 66.5493 79.4268 66.7442 79.1114 67.0106C79.0972 67.0281 79.0885 67.0495 79.0864 67.0719C79.0843 67.0944 79.0889 67.117 79.0995 67.1368C79.1102 67.1567 79.1266 67.173 79.1465 67.1836C79.1664 67.1942 79.189 67.1986 79.2115 67.1964C79.8271 66.9883 80.4922 66.9769 81.1145 67.1639C81.7369 67.3508 82.2856 67.7269 82.6846 68.2398C83.3459 69.1028 83.9159 70.032 84.3855 71.0126C84.557 71.327 85.1144 71.1412 85.0001 70.7839C84.9939 70.7557 84.9939 70.7264 85.0001 70.6981C84.9858 66.2102 81.3983 59.9785 76.5959 59.6069Z" fill="#263238"/>
<path d="M64.39 102.271C33.8462 130.671 -5.64484 191.472 0.672588 204.422C7.70465 218.843 50.2401 179.009 50.1829 176.579C50.1829 174.735 66.1194 141.204 78.1682 114.105C90.2171 87.0061 71.9366 95.2531 64.39 102.271Z" fill="#AD6359"/>
<path d="M0.672727 204.421C6.84722 214.126 24.699 216.699 69.0353 227.376C75.1669 228.805 97.2635 188.371 90.7889 186.455C82.642 184.04 50.4832 176.45 48.0677 176.179C27.6433 173.992 -3.52936 197.832 0.672727 204.421Z" fill="#AD6359"/>
<path d="M76.0672 184.855C76.0672 184.855 94.0618 184.64 103.552 187.47C116.259 191.244 125.678 199.734 129.408 203.521C137.198 211.454 150.561 235.994 144.158 241.068C138.441 245.671 125.992 219.886 125.992 219.886C125.992 219.886 142.943 244.098 134.954 248.343C126.964 252.588 114.286 221.859 114.286 221.859C114.286 221.859 131.166 247.114 122.233 250.202C115.472 252.531 102.423 225.332 102.423 225.332C102.423 225.332 116.787 247.143 109.941 249.83C102.38 252.817 88.7592 228.462 88.7592 228.462C70.1785 232.393 59.7877 226.676 52.8414 221.73C51.1691 220.53 76.0672 184.855 76.0672 184.855Z" fill="#AD6359"/>
<path d="M120.661 211.154C122.748 213.912 124.949 216.713 126.736 219.729C128.522 222.745 130.309 225.689 131.881 228.791C133.988 232.815 135.637 237.063 136.798 241.454C134.182 233.808 127.75 223.16 125.907 220.201C124.063 217.242 122.376 214.227 120.547 211.282C120.49 211.139 120.604 211.082 120.661 211.154Z" fill="#263238"/>
<path d="M109.884 217.599C112.414 221.258 115.058 224.746 117.417 228.562C119.775 232.378 121.705 236.066 123.748 239.996C123.92 240.296 123.748 240.282 123.52 239.996C121.29 236.18 118.917 232.85 116.631 229.034C114.344 225.217 112.214 221.373 109.799 217.685C109.756 217.599 109.856 217.556 109.884 217.599Z" fill="#263238"/>
<path d="M99.6497 221.487C103.656 227 107.085 232.91 109.883 239.124C110.026 239.425 109.755 239.382 109.583 239.124C106.296 233.107 103.752 228.476 99.4639 221.673C99.4639 221.53 99.5639 221.373 99.6497 221.487Z" fill="#263238"/>
<path d="M22.8552 182.325C30.8692 177.072 40.5332 174.946 50.0116 176.35C50.1259 176.35 50.1259 176.565 50.0116 176.55C40.1924 175.85 26.7143 180.424 22.8552 182.496C22.8266 182.553 22.7552 182.396 22.8552 182.325Z" fill="#263238"/>
<path d="M20.5537 142.162L58.5154 163.859C58.5154 163.859 74.2375 133.772 80.2834 114.148C86.3293 94.5242 80.9552 85.5626 58.2868 105.33C44.9736 116.83 32.3726 129.131 20.5537 142.162Z" fill="#455A64"/>
<path d="M60.5309 155.797C55.4617 152.31 50.3068 148.975 45.0661 145.792C42.4791 144.206 39.9064 142.577 37.2908 141.033C34.6752 139.489 31.788 138.031 29.0867 136.445C28.9009 136.331 28.7008 136.602 28.8866 136.731C31.4307 138.36 33.8748 140.175 36.4189 141.819C38.963 143.463 41.7216 145.121 44.38 146.764C49.6398 150.014 54.971 153.125 60.3737 156.098C60.5309 156.112 60.6881 155.926 60.5309 155.797Z" fill="#263238"/>
<path d="M56.915 162.944C57.4868 163.201 58.0442 163.444 58.6016 163.716L58.3586 163.787C59.4306 161.014 60.6455 158.327 61.8175 155.612C62.9895 152.896 64.3044 150.266 65.6194 147.622C66.9343 144.978 68.2635 142.348 69.7071 139.761C71.1507 137.174 72.5657 134.587 74.1522 132.072C73.1374 134.859 71.9797 137.574 70.7791 140.276C69.5785 142.977 68.335 145.65 67.0487 148.322C65.7623 150.995 64.4188 153.597 63.0324 156.212C61.646 158.828 60.1738 161.415 58.7445 163.945L58.6445 164.102L58.5015 164.016C57.9155 163.673 57.4153 163.301 56.915 162.944Z" fill="#263238"/>
<path d="M74.8947 137.345C73.3018 139.925 71.1102 142.082 68.5059 143.634C69.297 142.335 70.2584 141.148 71.3644 140.104C72.4175 139.036 73.6041 138.109 74.8947 137.345Z" fill="#263238"/>
</svg>
