<svg xmlns="http://www.w3.org/2000/svg" viewBox="0 0 500 500"><g id="freepik--background-simple--inject-62"><circle cx="250" cy="215.66" r="132.59" style="fill:#407BFF"></circle><circle cx="250" cy="215.66" r="132.59" style="fill:#fff;opacity:0.9"></circle></g><g id="freepik--Shadow--inject-62"><ellipse id="freepik--path--inject-62" cx="250" cy="421.69" rx="193.89" ry="11.32" style="fill:#f5f5f5"></ellipse></g><g id="freepik--Circles--inject-62"><path d="M244.76,212.29a.93.93,0,0,0-.13.15h-.17Z" style="fill:#263238"></path><path d="M262.43,226.59s-.06,0-.07,0a0,0,0,0,1,0,0S262.42,226.56,262.43,226.59Z" style="fill:#263238"></path><circle cx="348.88" cy="117.15" r="53.49" style="fill:#407BFF"></circle><circle cx="349.17" cy="117.15" r="8.91" transform="translate(19.43 281.21) rotate(-45)" style="fill:#fff"></circle><path d="M348.88,63.66a53.49,53.49,0,1,0,53.5,53.49A53.49,53.49,0,0,0,348.88,63.66Zm6.81,60c-9.53,7.27-20.32-3.52-13.05-13C352.17,103.35,363,114.14,355.69,123.67Z" style="fill:#fff;opacity:0.5"></path><circle cx="116.62" cy="217.8" r="8.28" transform="translate(-119.85 146.26) rotate(-45)" style="fill:#407BFF"></circle><circle cx="116.62" cy="217.8" r="8.28" transform="translate(-119.85 146.26) rotate(-45)" style="fill:#fff;opacity:0.4"></circle><circle cx="429.79" cy="335.05" r="0.67" style="fill:#e0e0e0"></circle><path d="M389.87,75.31a59.81,59.81,0,0,0-20.52-13l.35-.94a61.26,61.26,0,0,1,20.87,13.17Z" style="fill:#407BFF"></path><path d="M364.63,60.83c-.95-.27-1.93-.51-2.9-.72l.21-1c1,.22,2,.47,3,.73Z" style="fill:#407BFF"></path><path d="M97.69,300.13a17.8,17.8,0,0,0-7-7.88l.52-.86a18.84,18.84,0,0,1,7.39,8.32Z" style="fill:#407BFF"></path><path d="M87.62,290.79a18.37,18.37,0,0,0-3.08-.83l.18-1a19.58,19.58,0,0,1,3.24.87Z" style="fill:#407BFF"></path><path d="M49,402.48l-.41-.91c14.33-7.72,27.8-10.21,42.73-14.34l.27,1C76.73,392.31,64.62,394.68,49,402.48Z" style="fill:#407BFF"></path><path d="M38.69,408.14l-.52-.86c1.53-.92,3.09-1.82,4.64-2.68l.48.88C41.76,406.33,40.21,407.22,38.69,408.14Z" style="fill:#407BFF"></path><path d="M80.26,326.53a17.33,17.33,0,1,1,17.33-17.32A17.34,17.34,0,0,1,80.26,326.53Zm0-33.15a15.83,15.83,0,1,0,15.83,15.83A15.84,15.84,0,0,0,80.26,293.38Z" style="fill:#407BFF"></path><path d="M410.8,242.88a24,24,0,1,1,24-24A24,24,0,0,1,410.8,242.88Zm0-46.45a22.48,22.48,0,1,0,22.48,22.48A22.5,22.5,0,0,0,410.8,196.43Z" style="fill:#407BFF"></path><path d="M250.3,469.14c-56.18,0-109-4.48-148.75-12.61-40.08-8.19-62.15-19.24-62.15-31.12s22.07-22.92,62.15-31.12c39.74-8.13,92.57-12.6,148.75-12.6s109,4.47,148.76,12.6c40.08,8.2,62.15,19.25,62.15,31.12s-22.07,22.93-62.15,31.12C359.31,464.66,306.49,469.14,250.3,469.14Zm0-85.95c-56.08,0-108.81,4.46-148.45,12.57-38.74,7.92-60.95,18.73-60.95,29.65s22.21,21.73,61,29.66c39.64,8.1,92.37,12.57,148.45,12.57s108.81-4.47,148.45-12.57c38.74-7.93,61-18.73,61-29.66s-22.22-21.73-61-29.65C359.11,387.65,306.39,383.19,250.3,383.19Z" style="fill:#407BFF"></path></g><g id="freepik--character-1--inject-62"><g id="freepik--circle-ruler--inject-62"><path d="M206.6,115.22a36.1,36.1,0,0,0-51.06,51.06Zm-47.2,34.5c-7.08-7.08-6-19.68,2.5-28.14s21-9.58,28.13-2.5Z" style="fill:#407BFF"></path><g style="opacity:0.4"><path d="M206.63,115.23a36.1,36.1,0,0,0-51.06,51.06Zm-47.2,34.5c-7.08-7.08-6-19.68,2.5-28.14s21-9.58,28.13-2.5Zm0,0c-7.08-7.08-6-19.68,2.5-28.14s21-9.58,28.13-2.5Zm0,0c-7.08-7.08-6-19.68,2.5-28.14s21-9.58,28.13-2.5Z" style="fill:#fff"></path></g><path d="M181,176.82a36.63,36.63,0,0,1-36.8-35.7,5.15,5.15,0,0,1,0-.57c0-.21,0-.41,0-.61A36.63,36.63,0,0,1,181,104.27a.75.75,0,0,1,0,1.5A35.14,35.14,0,0,0,145.73,140a5.06,5.06,0,0,0,0,.54c0,.16,0,.34,0,.5A35.16,35.16,0,0,0,181,175.32a.75.75,0,1,1,0,1.5Z" style="fill:#407BFF"></path></g><g id="freepik--Character--inject-68--inject-62"><path d="M295.73,381.56a1.42,1.42,0,0,1-.51-1.19.74.74,0,0,1,.38-.65c1.19-.74,5.46,1.27,5.93,1.49a.25.25,0,0,1,.14.25.23.23,0,0,1-.19.21,17.92,17.92,0,0,1-3.26.47A4,4,0,0,1,295.73,381.56Zm4.91-.19c-1.75-.77-4.16-1.61-4.84-1.23a.32.32,0,0,0-.14.27.93.93,0,0,0,.34.79c.66.54,2.36.59,4.63.15Z" style="fill:#407BFF"></path><path d="M301.32,381.73c-1.27-.53-3.86-2.72-3.7-3.88,0-.28.22-.62.89-.7l.19,0c2.32-.05,2.91,4.18,2.95,4.36a.21.21,0,0,1-.08.22.25.25,0,0,1-.15,0Zm-2.71-4.15c-.44.06-.48.28-.48.28-.12.72,1.67,2.42,3,3.16-.22-1-.89-3.48-2.38-3.45Z" style="fill:#407BFF"></path><polygon points="300.69 357.06 290.56 360.2 301.53 381.34 311.65 378.2 300.69 357.06" style="fill:#b55b52"></polygon><path d="M299.07,381c-2.09,2.83-2.31,5.35-9.79,8.82-1.66.78-.37,4.89,3.88,3.94s8.21-2.19,11.28-2.88c5-1.12,7-1.32,10.94-2.15a.88.88,0,0,0,.23-.07,1.6,1.6,0,0,0,.93-2.07l-3.63-8.62a.85.85,0,0,0-1-.51L300.57,380A2.7,2.7,0,0,0,299.07,381Z" style="fill:#263238"></path><polygon points="300.7 357.06 306.36 367.97 296.66 371.95 290.57 360.2 300.7 357.06" style="opacity:0.2;isolation:isolate"></polygon><path d="M306.78,364,293,369.07s-28.9-33.53-44.76-63.92c-4.19-8-6.54-20.53-7.77-34.11v0a383.65,383.65,0,0,1-1-43.25c.39-14.69,1.28-25.32,1.28-25.32S251.49,198,262,194.29c31.92,38.34-8.86,68.41,6.48,101.45C282.56,326.05,306.78,364,306.78,364Z" style="fill:#407BFF"></path><path d="M306.78,364,293,369.07s-28.9-33.53-44.76-63.92c-4.19-8-6.54-20.53-7.77-34.11v0a383.65,383.65,0,0,1-1-43.25c.39-14.69,1.28-25.32,1.28-25.32S251.49,198,262,194.29c31.92,38.34-8.86,68.41,6.48,101.45C282.56,326.05,306.78,364,306.78,364Z" style="fill:#fff;opacity:0.30000000000000004"></path><polygon points="287.83 364.49 306.29 359.29 308.19 363.99 291.84 370.48 287.83 364.49" style="fill:#407BFF"></polygon><path d="M224.64,138.46a11.29,11.29,0,0,1-2-1.73c-1.61-1.73-17.2-27.37-18.08-28-1.76-1.2-3.06,1-4.46,2.61a1.63,1.63,0,0,0-.48.89,1.54,1.54,0,0,0,.18.69q5.49,12.85,11,25.7c1.53,3.57,3.26,7.4,6.66,9.29,8.27,4.6,27.69,1.93,32.36,0,2.78-1.12,5.56-2.67,7.12-5.23s1.43-6.34-1-8.13C251.87,131.54,229.55,141.7,224.64,138.46Z" style="fill:#b55b52"></path><path d="M204.57,108.76l-4.41-8.29-8,7s4.51,7.06,10.66,4.83Z" style="fill:#b55b52"></path><polygon points="194.97 99.25 187.48 102.92 192.18 107.46 200.17 100.49 194.97 99.25" style="fill:#b55b52"></polygon><path d="M205.81,102.24l-22.42,2.82a1,1,0,0,1-.35,0l-1.92-.52,1.58-1a1.06,1.06,0,0,1,.34-.12l22.41-3.46a.89.89,0,0,1,1,.7l.11.53A.89.89,0,0,1,205.81,102.24Z" style="fill:#263238"></path><polygon points="197.78 103.86 192.55 101.9 190.57 103.43 194.7 106.83 197.78 103.86" style="fill:#b55b52"></polygon><g style="opacity:0.1"><path d="M256.94,142.74c-1.56,2.56-4.34,4.11-7.12,5.23-4.67,1.9-24.09,4.57-32.36,0-3.4-1.89-5.13-5.72-6.66-9.29q-5.49-12.85-11-25.7c0-.09-.08-.19-.11-.28-4.34-.45-7.33-4.93-7.52-5.21l-4.7-4.54L195,99.25l5.17,1.23h0l4.4,8.27c.88.6,16.47,26.24,18.08,28a11.29,11.29,0,0,0,2,1.73c4.91,3.24,27.23-6.92,31.33-3.85C258.37,136.4,258.5,140.18,256.94,142.74Z"></path><polygon points="200.17 100.49 200.14 100.48 200.16 100.47 200.17 100.49"></polygon></g><path d="M207.32,111.41c-.55.15-.81.94-.55,1.73s.78,1.34,1.34,1.17.78-.94.56-1.75S207.88,111.25,207.32,111.41Z" style="fill:#263238"></path><path d="M205.44,111.7l2-.63C207.16,112.45,205.44,111.7,205.44,111.7Z" style="fill:#263238"></path><path d="M209.87,119.26a3.59,3.59,0,0,1-3,.21,23.06,23.06,0,0,0,1.7-5.92Z" style="fill:#a02724"></path><path d="M205.64,107.31a.5.5,0,0,1,.16-.66,5,5,0,0,1,4.48-.69.49.49,0,0,1-.36.91,4.09,4.09,0,0,0-3.57.59.42.42,0,0,1-.22.08A.49.49,0,0,1,205.64,107.31Z" style="fill:#263238"></path><path d="M224.59,125.71c2.08,4.4,3.23,9.33-3.18,12.44,0,0-5.24,7.53,7.09,4.76,11.24-2.53,14.2-9.38,14.2-9.38-5-3.06-8-13.07-8-19.34Z" style="fill:#b55b52"></path><path d="M208.39,151c.78,3.91,2,9.54,4,17.3a24.27,24.27,0,0,0,4.15-6.13C220.2,154.37,213.54,150.43,208.39,151Z" style="opacity:0.2;isolation:isolate"></path><path d="M232,96.07a13.71,13.71,0,0,0-19.32-1.69c-8.6,6.84-6,21.88-1.44,30.08,5,9.13,17.79,8.37,23.25-1.46,3.62-6.56,2.52-10.72.46-20.76A13.78,13.78,0,0,0,232,96.07Z" style="fill:#b55b52"></path><path d="M208.22,150.14c1.54,8,6.76,22.52,13.62,51.8l42-5.52c-2.23-15.29-5.05-26.33-3.55-55.06,0-.17,0-.35,0-.52a9.44,9.44,0,0,0-9.46-9.42,92.32,92.32,0,0,0-37.72,9A8.87,8.87,0,0,0,208.22,150.14Z" style="fill:#263238"></path><path d="M214.83,109.62c-1.8,2.2-1.27,5.87-.33,7.71,1,2,3.24,2.16,4.39-.63a10.5,10.5,0,0,0,.57-6.31C218.86,108.05,216.63,107.41,214.83,109.62Z" style="fill:#b55b52"></path><path d="M243.51,291.36c-.85-7.47-1.95-14.22-3-20.32v0a383.65,383.65,0,0,1-1-43.25l0,0,.33-.08c1.52-.72,3.23,0,5.12,2.39C259.3,237.71,248.21,272.55,243.51,291.36Z" style="opacity:0.2;isolation:isolate"></path><path d="M209.81,386.53a1.41,1.41,0,0,1-.53-1.16.77.77,0,0,1,.36-.68c1.2-.77,5.51,1.12,6,1.33a.25.25,0,0,1,.14.24.22.22,0,0,1-.19.22,18.37,18.37,0,0,1-3.22.55A4,4,0,0,1,209.81,386.53Zm.09-1.39a.28.28,0,0,0-.13.26.92.92,0,0,0,.35.78c.68.49,2.38.5,4.64,0C213,385.46,210.57,384.68,209.9,385.14Z" style="fill:#407BFF"></path><path d="M215.45,386.45c-1.29-.5-3.91-2.6-3.79-3.78,0-.27.21-.62.86-.72h.21c2.32-.11,3.05,4.07,3.05,4.26a.25.25,0,0,1-.09.23.24.24,0,0,1-.14.05Zm-2.85-4c-.45.07-.45.3-.45.3-.07.71,1.72,2.37,3,3.07-.27-1-1-3.47-2.46-3.38Z" style="fill:#407BFF"></path><polygon points="222.28 363.29 212.1 363.25 216.92 387.69 227.1 387.71 222.28 363.29" style="fill:#b55b52"></polygon><path d="M214.07,386.12c-2.67,2.31-5.8,4.71-13.87,6.46-1.8.39-1.47,4.69,2.88,4.69s10.85-.33,14-.33c5.11,0,7.08.24,11.13.31l.26,0a1.6,1.6,0,0,0,1.36-1.82l-1.56-9.21a.86.86,0,0,0-.84-.71H215.79A2.72,2.72,0,0,0,214.07,386.12Z" style="fill:#263238"></path><polygon points="222.29 363.3 224.77 375.9 214.77 376.83 212.11 363.26 222.29 363.3" style="opacity:0.2;isolation:isolate"></polygon><path d="M253.19,198c10.6,48-43,65.74-38.63,100.52,4,31.92,11,74.4,11,74.4l-15,1.16s-11.46-41.32-17.49-73.45c-5.79-30.91,29.4-98.65,29.4-98.65S241.72,199.24,253.19,198Z" style="fill:#407BFF"></path><path d="M253.19,198c10.6,48-43,65.74-38.63,100.52,4,31.92,11,74.4,11,74.4l-15,1.16s-11.46-41.32-17.49-73.45c-5.79-30.91,29.4-98.65,29.4-98.65S241.72,199.24,253.19,198Z" style="fill:#fff;opacity:0.30000000000000004"></path><polygon points="207.02 367.91 227.45 367.97 227.31 373 208.39 374.75 207.02 367.91" style="fill:#407BFF"></polygon><path d="M263.61,193.58l-42.67,5.69c-.42.06-.78.31-.78.56v3.62c0,.23.28.33.67.33L265,197.89c.48-.07.87-.41.76-.67l-1.47-3.42A.64.64,0,0,0,263.61,193.58Z" style="fill:#fff"></path><path d="M263.61,193.58l-42.67,5.69c-.42.06-.78.31-.78.56v3.62c0,.23.28.33.67.33L265,197.89c.48-.07.87-.41.76-.67l-1.47-3.42A.64.64,0,0,0,263.61,193.58Z" style="fill:#407BFF"></path><path d="M226.71,87.23c-6,1.16-3.73,3.47-7,3-8.66-1.25-12.17,2.3-13,8.7-.86,6.7,2.25,7.66,2.79,16.14a5.06,5.06,0,0,0,1.83,3.17,3,3,0,0,0,3.39.64c.79,4.12,4.75,7.75,8.94,7.42,5.13-.4.89,5.12,7,7.18a7.9,7.9,0,0,0,8.2-2.62c6.91,4.29,17.91-.12,21.27-7.52,3.7-8.13-3.87-6-4.18-6.75,3.21-.91,6.78-4.63,4.22-7.79s-7.66.28-9.88.55a8.48,8.48,0,0,0,5.42-4.11,4.9,4.9,0,0,0,.7-2.8c-.35-3.72-4.61-.63-9-2C239.71,98.19,239.13,84.85,226.71,87.23Z" style="fill:#263238"></path></g><path d="M212,159.79a14.58,14.58,0,0,1-.56,1.47l-.56,1.25c-.39.8-.8,1.59-1.21,2.36-.83,1.56-1.72,3.07-2.65,4.52a72.87,72.87,0,0,1-6.18,8.32,82.56,82.56,0,0,1-7.22,7.39c-1.32,1.11-2.59,2.27-4,3.29l-2,1.56a10.72,10.72,0,0,1-2.24,1.32,5.6,5.6,0,0,1-.81.3,8.72,8.72,0,0,1-1,.24,9.89,9.89,0,0,1-1.21.11,6.92,6.92,0,0,1-5.62-2.91,8.78,8.78,0,0,1-1.38-2.51,15.3,15.3,0,0,1-.78-3.47,37,37,0,0,1-.16-5.57,93.44,93.44,0,0,1,1-10c1-6.47,1.86-14.11,3.61-20.41l6-.73c-.42,6.29-.33,15.73-.5,21.94-.08,3.11-.13,6.21,0,9.13a26.92,26.92,0,0,0,.47,4,3.42,3.42,0,0,0,.36,1.12c0,.06,0-.06-.24-.42a3.32,3.32,0,0,0-.75-.7,3.91,3.91,0,0,0-1.49-.62,3,3,0,0,0-.79-.08,2.76,2.76,0,0,0-.64,0,1.49,1.49,0,0,0-.4.15l-.26.1c-.29.11-.28.11-.2.07l1.66-1.48c1.13-1,2.13-2.06,3.21-3.07a79.65,79.65,0,0,0,10.91-13.86c.78-1.24,1.53-2.49,2.2-3.76.35-.62.67-1.27,1-1.89l.45-.93.37-.78Z" style="fill:#b55b52"></path><path d="M185,146.31l1-9.33-10.52,1.33s-.19,8.37,6.16,9.95Z" style="fill:#b55b52"></path><polygon points="182.37 133.06 174.1 131.94 175.47 138.33 185.99 137 182.37 133.06" style="fill:#b55b52"></polygon><path d="M222.4,157.72c-.05,5.48-6.89,16.31-7.58,17.38-3.49-12.89-6.09-21.07-7.31-26.55a16.7,16.7,0,0,1,4.27-3.2C214.57,144,222.49,149,222.4,157.72Z" style="opacity:0.30000000000000004"></path><path d="M220.61,155.11c-.57,5.74-9.16,16.73-9.16,16.73l-14.19-12.52c2.24-5.44,6.21-14.34,13.86-17.47C214,140.7,221.48,146.39,220.61,155.11Z" style="fill:#263238"></path></g><g id="freepik--character-2--inject-62"><path d="M287,364.48c1.74-1.25,31.36,2.3,48.25-8.47s10.74,25.64,10.95,26.34c.12.42.76,12.57-13.71,18.75-10,4.26-26.89,11.3-46.72,3.63C276,401,287,364.48,287,364.48Z" style="fill:#263238"></path><path d="M256.21,316.4A13.36,13.36,0,0,0,236.86,326a50.61,50.61,0,0,0,.13,13.36,224.71,224.71,0,0,0,5.71,31.73c2.91,11.49,4.58,20.25,9.26,34.74,5-.52,12.75-2.57,15.19-2.91,0,0-1.2-18.46-1.14-20.61.41-14.33-1.13-18.84-5.57-32,4.3,12.43,10.08,45.55,23.23,53.42,8.87,5.3,21,3.16,25.38-4,5.7-9.33,3.22-13.86-1.43-23.42C304.17,369.24,285.07,331.69,256.21,316.4Z" style="fill:#263238"></path><path d="M257.2,407.37l10.52-2a.93.93,0,0,1,1.09.61l5.9,13.88a1.92,1.92,0,0,1-1.3,2.4,1.41,1.41,0,0,1-.22.06c-4.57.83-6.83,1-12.61,2.16-3.54.71-14,4.54-19,4.56s-5.28-4.92-3.21-5.38c6.7-1.44,13.36-7.6,16-13.59C254.82,409.48,256.47,407.5,257.2,407.37Z" style="fill:#263238"></path><path d="M249.42,420.21a1.56,1.56,0,0,0,1.45-.15,4.41,4.41,0,0,0,1.41-2.62v0a21.16,21.16,0,0,0,.5-3.62v0s0-.05,0-.07a.17.17,0,0,0,0-.1.28.28,0,0,0-.48-.09c-.12.13-.53.6-1,1.24-.22.27-.46.59-.71.92-1,1.35-2,3-1.75,3.91A.88.88,0,0,0,249.42,420.21Zm.2-.57a.31.31,0,0,1-.24-.26.87.87,0,0,1,0-.53,14.55,14.55,0,0,1,2.11-3.54c.22-.29.45-.57.69-.83-.06.7-.15,1.34-.25,1.91h0c-.3,1.64-.77,2.76-1.37,3.16A1,1,0,0,1,249.62,419.64Z" style="fill:#407BFF"></path><path d="M247.34,416.61c.71.32,2-.21,3.22-.95.29-.19.58-.39.85-.59a7.8,7.8,0,0,0,1.33-1.21l0-.07v0s0-.05,0-.07a.17.17,0,0,0,0-.1s0,0,0-.07a.27.27,0,0,0-.25-.14,11.37,11.37,0,0,0-2-.14,5.36,5.36,0,0,0-2.88.74,1.94,1.94,0,0,0-.82,1.42A1,1,0,0,0,247.34,416.61Zm.19-.57c-.06,0-.25-.08-.19-.61l.08-.12v0a1.29,1.29,0,0,1,.51-.88,6.32,6.32,0,0,1,2.85-.67h0a7.6,7.6,0,0,1,1.06.1,7.67,7.67,0,0,1-.72.65C249.9,415.47,248.14,416.33,247.53,416Z" style="fill:#407BFF"></path><polygon points="249.08 402.56 270.61 400.11 270.39 407.53 251.07 409.32 249.08 402.56" style="fill:#407BFF"></polygon><g id="freepik--Character--inject-2--inject-62"><path d="M290.87,299.34c-1.06,1.87-2,3.57-3.07,5.27s-2.13,3.38-3.23,5c-2.22,3.32-4.54,6.58-7,9.74a120.75,120.75,0,0,1-8,9.21,73.79,73.79,0,0,1-9.48,8.44l-.71.53-.39.2c-3.48,1.62-6.72,2.79-10,4s-6.55,2.25-9.83,3.27-6.56,2-9.87,2.9-6.63,1.8-10,2.55l-2.64-7.18c6-3.18,12.16-6.14,18.25-9.09l9.08-4.39c3-1.45,6-3,8.6-4.43l-1.1.71a72.78,72.78,0,0,0,7.21-7.38c2.31-2.72,4.57-5.52,6.68-8.52s4.21-6,6.23-9.12c1-1.55,2-3.13,3-4.66s2-3.17,2.84-4.61Z" style="fill:#ffc3bd"></path><path d="M277.65,324.14,262.7,307.88c18-23.09,26.38-26.89,28-20.11C295.65,308.45,277.65,324.14,277.65,324.14Z" style="fill:#407BFF"></path><path d="M278.36,323.4l.23-.2.12-.06c3-2.93,11.15-12.09,12.62-24.33-2.6-1.15-5.23-1.57-7.22-.55C278.7,301.17,275.6,309.19,278.36,323.4Z" style="opacity:0.2;isolation:isolate"></path><path d="M220.37,349.61c-3.32,6.28-12.62,4.88-12.62,4.88l1.86-11.12,9.09.16Z" style="fill:#ffc3bd"></path><polygon points="209.61 343.37 207.75 354.49 198.87 355.23 199.82 347.24 209.61 343.37" style="fill:#ffc3bd"></polygon><path d="M313.34,365.12c-1.85,1.82-4.64,2.26-7.23,2.22a16.31,16.31,0,0,1-9.49-2.81c-3.3-2.45-4.14-3.8-8.46-12.21-1,4,1,11.54,3.23,15s4.68,6.76,8.33,8.39a12.27,12.27,0,0,0,9.57.05,14.57,14.57,0,0,0,7.14-6.5,5.62,5.62,0,0,0,.86-3.31,2.48,2.48,0,0,0-2.23-2.26c-1.36,0-2.25,1.37-2.88,2.57Z" style="opacity:0.30000000000000004"></path><path d="M286.18,349.87c1.94-29.75-5-34.12-7.84-48.13a16.24,16.24,0,0,1,8.44-17.6c6.39-3.34,14.32-7.3,22-10.76a17.11,17.11,0,0,1,2.27-.82,16.32,16.32,0,0,1,20.17,11.26c11.34,40.63,6.33,71.13,6.33,71.13l-21,6.14C315.08,370.88,292.4,381.32,286.18,349.87Z" style="fill:#407BFF"></path><path d="M287.73,267.34c3.08,5.11,5.58,11.86-1.3,17-1.12,4.06-1.1,8,6.78,4.23a26.49,26.49,0,0,0,13.85-14.39c-6.23-2.85-9.28-16.4-10.26-24.26Z" style="fill:#ffc3bd"></path><path d="M295,269.6a7.19,7.19,0,0,1-4.86,2.83,25.2,25.2,0,0,0-1.49-3.93l6.48-9.6a19.92,19.92,0,0,1,1.19,2.67A8.19,8.19,0,0,1,295,269.6Z" style="opacity:0.2;isolation:isolate"></path><path d="M262,244.05c-4.05,6.31-1.14,7.23,2.28,9s6,6.74,6,6.74l3.32-3C274.54,238,266,237.73,262,244.05Z" style="fill:#263238"></path><path d="M271.2,236.66c-7.54,7.82-3.32,22.34,2,29.88a13.1,13.1,0,0,0,23.09-2.86c2.76-6.92.44-12.39-2.67-22.05S278.75,228.83,271.2,236.66Z" style="fill:#ffc3bd"></path><path d="M268.53,247.39c2.44,2.12,8.44,4,11.68,4.14a16.47,16.47,0,0,1-8.48-10.73c1.41,2.41,11.36,4,15.63,4a47.26,47.26,0,0,1-6.81-4.06c2,1.73,5.06,1.32,7.33,2.62a10.81,10.81,0,0,1,3.36,3.71,38.62,38.62,0,0,0-2.83-7.38A20.91,20.91,0,0,1,293.73,252c-.15-1.6,3.64,7,4.63,5.72,1.36-1.72,2.58-15.29-1-20.23-3-4.11-4.71-5.24-8.83-5.17a9.54,9.54,0,0,0,5.07-6.74c-1.44,2.48-12.9,3.9-14.8,3.87-5-.09-7.66,2.83-10.75,6.68-1.18,1.47-5.36,2.68-4.78,4.61C264,243.15,266.69,245.78,268.53,247.39Z" style="fill:#263238"></path><path d="M297.17,244.52c-2.79.81-3.74,4.95-3.5,7.56.2,2.95,2.49,4.75,4.84,2.81A9.1,9.1,0,0,0,301.7,249C302,246.15,300,243.7,297.17,244.52Z" style="fill:#ffc3bd"></path><path d="M279.77,260.39s-1.85,1.8-3.74,1.32c.73-3.07.15-8.22.15-8.22Z" style="fill:#ed847e"></path><path d="M280.9,246.29c-1-.63-3.26-.34-4.36.18h0a.46.46,0,0,1-.61-.22.51.51,0,0,1,.23-.66c1.38-.66,3.93-.94,5.23-.14h0a.48.48,0,0,1,.15.66.61.61,0,0,1-.17.19A.47.47,0,0,1,280.9,246.29Z" style="fill:#263238"></path><path d="M268.09,252.28h0a.46.46,0,0,1-.3-.58,5.06,5.06,0,0,1,2.83-3.5h0a.45.45,0,0,1,.56.3.5.5,0,0,1-.3.64,4.06,4.06,0,0,0-2.21,2.79.5.5,0,0,1-.3.35A.42.42,0,0,1,268.09,252.28Z" style="fill:#263238"></path><path d="M280.73,264.55a36.55,36.55,0,0,1,3.44,2.78l.5-.41c2.23-1.87,2.49-3.62,2.12-5a6,6,0,0,0-1.88-2.77c-.45,1.85-2.36,3.78-3.43,4.76C281,264.32,280.73,264.55,280.73,264.55Z" style="fill:#2e353a"></path><path d="M281.48,263.9l.51.4a.8.8,0,0,0,1,0c1.63-1.46,2.6-2.78,2.75-3.92a.75.75,0,0,0-.21-.6,5.6,5.6,0,0,0-.63-.61C284.46,261,282.55,262.92,281.48,263.9Z" style="fill:#fff"></path><path d="M284.67,266.92c2.23-1.87,2.49-3.62,2.12-5a7.91,7.91,0,0,0-2,2.67A3.82,3.82,0,0,0,284.67,266.92Z" style="fill:#de5753"></path><path d="M272.4,254.57c-.48.24-.56,1.05-.17,1.78s1.09,1.13,1.56.88.55-1.05.17-1.78S272.88,254.32,272.4,254.57Z" style="fill:#263238"></path><path d="M280.85,250.45c-.48.24-.56,1.05-.17,1.78s1.09,1.13,1.56.88.55-1.05.17-1.79S281.32,250.2,280.85,250.45Z" style="fill:#263238"></path><path d="M333.41,288.22c2.55,9.11,2.93,17-.87,23a3.29,3.29,0,0,1-5.1.56c-7-7-22.25-26.1-13.61-34.67C314.94,276,317.3,270.06,333.41,288.22Z" style="opacity:0.2;isolation:isolate"></path><path d="M314.73,361.19a71.92,71.92,0,0,0-1.51,21.75c.69,5.82,3.44,11.62,8.33,14.85,5.69,3.75,14,4.49,19.58.55C351.7,390.89,359,372,355.05,321c-.39-5.06-6.61-8.07-11.53-9.3C325.88,307.31,318,349.15,314.73,361.19Z" style="fill:#263238"></path><path d="M334,396c3.49,1.52,5.61-4.61,6.14-8.37.91-6.4-.78-46.56-2-54.16-1.78-10.78-6.66-2.56-8.9,3.09C323.76,350.2,324,391.61,334,396Z" style="opacity:0.30000000000000004"></path><path d="M332.35,328.59c-2.17,6.46-2.28,13.4-2.19,20.21.25,18.36,2.33,31.81,5.2,49.94,3.78,2.52.54,1.15,5,1.8s9.61,1.24,10.21-3.27c2.69-20.39,8.12-43,6.83-63.49-.25-4.1-1.08-10.78-2.77-14.53-2.19-4.86-6.47-6.91-11.79-4.2C337.72,317.68,334.14,323.25,332.35,328.59Z" style="fill:#263238"></path><path d="M319.65,276.15c8,2.29,29.63,20.83,30.73,22.63,13.29,11.3-.55,20.81-2.06,22.4-2.63,2.77-6.43,5.1-9.35,7.55-5.61,4.78-10.5,9.49-16.67,13.53l-4.92-5.87c4.76-5.28,16.78-20.86,18.72-23.44.87-1.12,5.52-4.9,2.12-6.29-.89-1.26-20.82-15.22-25.68-20.17Z" style="fill:#ffc3bd"></path><path d="M324.14,304.7l16.26-18.42c-16.69-17.61-25.81-14.51-27.94-14C291.88,276.72,324.14,304.7,324.14,304.7Z" style="fill:#407BFF"></path><path d="M320.47,335l3.87.86c3.46,3.36-1.54,12-1.54,12l-10.6-4.52,5.3-7.24A2.92,2.92,0,0,1,320.47,335Z" style="fill:#ffc3bd"></path><polygon points="312.2 343.3 322.84 347.8 319.58 355.96 309.45 353.81 312.2 343.3" style="fill:#ffc3bd"></polygon></g><path d="M208.79,468.59q-.64-7.15-1.3-14.3a7.47,7.47,0,0,1,.25-3.49c.26-.64.71-1.2.93-1.86a5.81,5.81,0,0,0,.08-2.56,145.53,145.53,0,0,1-1.19-20.32c.09-2.93.32-5.85.4-8.77.09-3.8-.09-7.6-.27-11.39q-.72-14.85-1.42-29.69c-.57-11.87-1.14-23.78-3.05-35.51A59.52,59.52,0,0,1,202,332c-.15-5.48,1.17-11.93.7-17.38l4.59,4.38c-.46,8.84-.79,15.44,1.28,24,.75,3.1.43,3.78.9,6.93.38,2.56,1.77,42.48,3.24,57.83.19,2,4.18,4.25,6.12,4.65.09,2.13-2.63,2.48-2.81,4.61l-2.74-2.16c-1.89,8.59-1.48,20-.23,28.76a31.47,31.47,0,0,0,2.35,7.72c.88,1.79,1.86,4.09,2.54,5.73a1.13,1.13,0,0,1-2,1,25.47,25.47,0,0,1-1.27-2.46,7,7,0,0,0-2.05-2.57,1.18,1.18,0,0,0-1.85,1.17,32,32,0,0,1,.33,6.79,58.78,58.78,0,0,0,.4,7.26Z" style="fill:#407BFF"></path><g style="opacity:0.5"><path d="M208.79,468.59q-.64-7.15-1.3-14.3a7.47,7.47,0,0,1,.25-3.49c.26-.64.71-1.2.93-1.86a5.81,5.81,0,0,0,.08-2.56,145.53,145.53,0,0,1-1.19-20.32c.09-2.93.32-5.85.4-8.77.09-3.8-.09-7.6-.27-11.39q-.72-14.85-1.42-29.69c-.57-11.87-1.14-23.78-3.05-35.51A59.52,59.52,0,0,1,202,332c-.15-5.48,1.17-11.93.7-17.38l4.59,4.38c-.46,8.84-.79,15.44,1.28,24,.75,3.1.43,3.78.9,6.93.38,2.56,1.77,42.48,3.24,57.83.19,2,4.18,4.25,6.12,4.65.09,2.13-2.63,2.48-2.81,4.61l-2.74-2.16c-1.89,8.59-1.48,20-.23,28.76a31.47,31.47,0,0,0,2.35,7.72c.88,1.79,1.86,4.09,2.54,5.73a1.13,1.13,0,0,1-2,1,25.47,25.47,0,0,1-1.27-2.46,7,7,0,0,0-2.05-2.57,1.18,1.18,0,0,0-1.85,1.17,32,32,0,0,1,.33,6.79,58.78,58.78,0,0,0,.4,7.26Z"></path></g><path d="M208.18,344.41l-3.59,2.45c-.61.41-1.29,1-1.1,1.73s1.17.9,1.87.65,1.29-.75,2-.93c1.28-.33,2.74.42,3.9-.21a2.82,2.82,0,0,0,1.15-1.39C213.87,343.39,210.24,343,208.18,344.41Z" style="fill:#ffc3bd"></path><path d="M345.56,403.81l-9.23-1.24c-.37-.06-.68.25-.72.71l-2.19,14.22a2.16,2.16,0,0,0,1.37,2.25l.17,0c2.5.28,2.73.21,4.19.36a9.74,9.74,0,0,1,4.25,1.41c4.55,2.88,14.18,5,17.54,4.6,3.77-.43,4.64-5.52,1.48-8-5.55-2.31-11.3-6.27-14.28-11.92C347.7,405.67,346.13,403.86,345.56,403.81Z" style="fill:#263238"></path><path d="M353.22,415.47c.38-.85-.35-2.64-1.12-4.13-.19-.37-.38-.72-.56-1-.39-.71-.72-1.24-.82-1.39a.29.29,0,0,0-.3-.12.35.35,0,0,0-.2.14.17.17,0,0,0,0,.1s0,0,0,.07v0a20.33,20.33,0,0,0-.07,3.66v0a4.45,4.45,0,0,0,1,2.8,1.53,1.53,0,0,0,1.41.38A.87.87,0,0,0,353.22,415.47Zm-1.74-.29c-.53-.48-.82-1.65-.86-3.33h0c0-.57,0-1.22,0-1.92a10.74,10.74,0,0,1,.56.92,14.82,14.82,0,0,1,1.53,3.83.88.88,0,0,1-.06.53.34.34,0,0,1-.28.22A1,1,0,0,1,351.48,415.18Z" style="fill:#407BFF"></path><path d="M355.83,411.66a2,2,0,0,0-.59-1.53A5.45,5.45,0,0,0,352.5,409a11.68,11.68,0,0,0-2-.17.31.31,0,0,0-.27.1s0,0,0,.07a.17.17,0,0,0,0,.1s0,0,0,.07v0l0,.08a7.17,7.17,0,0,0,1.12,1.4c.23.24.49.48.75.72,1.06.91,2.28,1.64,3,1.44A1,1,0,0,0,355.83,411.66Zm-4.13-1.58a9.59,9.59,0,0,1-.61-.75,6.41,6.41,0,0,1,1.07.07h0a6.07,6.07,0,0,1,2.71,1.1,1.3,1.3,0,0,1,.37.95v0l.05.14c0,.53-.21.57-.28.57C354.39,412.37,352.79,411.25,351.7,410.08Z" style="fill:#407BFF"></path><polygon points="352.19 405.06 332.87 403.27 332.65 395.85 354.19 398.3 352.19 405.06" style="fill:#407BFF"></polygon></g></svg>