<svg xmlns="http://www.w3.org/2000/svg" xmlns:xlink="http://www.w3.org/1999/xlink" viewBox="0 0 500 500"><defs><clipPath id="freepik--clip-path--inject-94"><path d="M225.81,287.15H205a4.77,4.77,0,0,1-4.76-4.76h0a4.77,4.77,0,0,1,4.76-4.76h20.83a4.77,4.77,0,0,1,4.76,4.76h0A4.77,4.77,0,0,1,225.81,287.15Z" style="fill:none"></path></clipPath></defs><g id="freepik--background-complete--inject-94"><path d="M237,337.8H43.91a5.71,5.71,0,0,1-5.7-5.71V60.66A5.71,5.71,0,0,1,43.91,55H237a5.71,5.71,0,0,1,5.71,5.71V332.09A5.71,5.71,0,0,1,237,337.8ZM43.91,55.2a5.46,5.46,0,0,0-5.45,5.46V332.09a5.46,5.46,0,0,0,5.45,5.46H237a5.47,5.47,0,0,0,5.46-5.46V60.66A5.47,5.47,0,0,0,237,55.2Z" style="fill:#ebebeb"></path><path d="M453.31,337.8H260.21a5.72,5.72,0,0,1-5.71-5.71V60.66A5.72,5.72,0,0,1,260.21,55h193.1A5.71,5.71,0,0,1,459,60.66V332.09A5.71,5.71,0,0,1,453.31,337.8ZM260.21,55.2a5.47,5.47,0,0,0-5.46,5.46V332.09a5.47,5.47,0,0,0,5.46,5.46h193.1a5.47,5.47,0,0,0,5.46-5.46V60.66a5.47,5.47,0,0,0-5.46-5.46Z" style="fill:#ebebeb"></path><rect y="382.4" width="500" height="0.25" style="fill:#ebebeb"></rect><path d="M237,337.8H43.91a5.71,5.71,0,0,1-5.7-5.71V60.66A5.71,5.71,0,0,1,43.91,55H237a5.71,5.71,0,0,1,5.71,5.71V332.09A5.71,5.71,0,0,1,237,337.8ZM43.91,55.2a5.46,5.46,0,0,0-5.45,5.46V332.09a5.46,5.46,0,0,0,5.45,5.46H237a5.47,5.47,0,0,0,5.46-5.46V60.66A5.47,5.47,0,0,0,237,55.2Z" style="fill:#ebebeb"></path><path d="M453.31,337.8H260.21a5.72,5.72,0,0,1-5.71-5.71V60.66A5.72,5.72,0,0,1,260.21,55h193.1A5.71,5.71,0,0,1,459,60.66V332.09A5.71,5.71,0,0,1,453.31,337.8ZM260.21,55.2a5.47,5.47,0,0,0-5.46,5.46V332.09a5.47,5.47,0,0,0,5.46,5.46h193.1a5.47,5.47,0,0,0,5.46-5.46V60.66a5.47,5.47,0,0,0-5.46-5.46Z" style="fill:#ebebeb"></path><rect y="382.4" width="500" height="0.25" style="fill:#ebebeb"></rect><rect x="416.78" y="398.49" width="33.12" height="0.25" style="fill:#ebebeb"></rect><rect x="322.53" y="401.21" width="8.69" height="0.25" style="fill:#ebebeb"></rect><rect x="396.59" y="389.21" width="19.19" height="0.25" style="fill:#ebebeb"></rect><rect x="52.46" y="390.89" width="43.19" height="0.25" style="fill:#ebebeb"></rect><rect x="131.47" y="395.11" width="93.68" height="0.25" style="fill:#ebebeb"></rect><rect x="270.82" y="307.15" width="182.7" height="82.01" rx="19.67" style="fill:#e0e0e0"></rect><rect x="261.19" y="307.76" width="182.7" height="82.01" rx="19.67" style="fill:#f5f5f5"></rect><path d="M284.38,315.49h137.4a13.74,13.74,0,0,1,13.74,13.74v16.86a0,0,0,0,1,0,0H270.64a0,0,0,0,1,0,0V329.23A13.74,13.74,0,0,1,284.38,315.49Z" style="fill:#e0e0e0"></path><path d="M270.64,350.22H435.51a0,0,0,0,1,0,0v16.86a13.74,13.74,0,0,1-13.74,13.74H284.38a13.74,13.74,0,0,1-13.74-13.74V350.22A0,0,0,0,1,270.64,350.22Z" style="fill:#e0e0e0"></path><rect x="368.36" y="321.41" width="23.37" height="24.87" style="fill:#e6e6e6"></rect><rect x="362.37" y="321.41" width="5.99" height="24.87" style="fill:#f5f5f5"></rect><rect x="380.3" y="317.58" width="17.55" height="28.71" style="fill:#e6e6e6"></rect><rect x="375.23" y="317.58" width="5.08" height="28.71" style="fill:#f5f5f5"></rect><rect x="385.47" y="321.41" width="14.8" height="24.87" style="fill:#ebebeb"></rect><rect x="382.09" y="321.41" width="3.38" height="24.87" style="fill:#f5f5f5"></rect><rect x="397.58" y="325.62" width="19.41" height="20.67" style="fill:#e6e6e6"></rect><rect x="392.61" y="325.62" width="4.97" height="20.67" style="fill:#f5f5f5"></rect><rect x="407.5" y="322.43" width="14.58" height="23.85" style="fill:#e6e6e6"></rect><rect x="403.29" y="322.43" width="4.22" height="23.85" style="fill:#f5f5f5"></rect><rect x="411.8" y="325.62" width="14.17" height="20.67" style="fill:#e6e6e6"></rect><rect x="408.99" y="325.62" width="2.81" height="20.67" style="fill:#f0f0f0"></rect><rect x="295.64" y="355" width="23.37" height="24.87" style="fill:#e6e6e6"></rect><rect x="289.65" y="355" width="5.99" height="24.87" style="fill:#f5f5f5"></rect><rect x="307.58" y="351.17" width="17.55" height="28.71" style="fill:#e6e6e6"></rect><rect x="302.51" y="351.17" width="5.07" height="28.71" style="fill:#f5f5f5"></rect><rect x="375.36" y="355" width="23.37" height="24.87" style="fill:#e6e6e6"></rect><rect x="369.37" y="355" width="5.99" height="24.87" style="fill:#f5f5f5"></rect><rect x="387.3" y="351.17" width="17.55" height="28.71" style="fill:#e6e6e6"></rect><rect x="382.23" y="351.17" width="5.07" height="28.71" style="fill:#f5f5f5"></rect><rect x="312.75" y="355" width="14.8" height="24.87" style="fill:#ebebeb"></rect><rect x="309.37" y="355" width="3.38" height="24.87" style="fill:#f5f5f5"></rect><rect x="324.87" y="359.21" width="19.41" height="20.67" style="fill:#e6e6e6"></rect><rect x="319.9" y="359.21" width="4.97" height="20.67" style="fill:#f5f5f5"></rect><rect x="334.78" y="356.03" width="14.58" height="23.85" style="fill:#e6e6e6"></rect><rect x="330.58" y="356.03" width="4.22" height="23.85" style="fill:#f5f5f5"></rect><rect x="339.08" y="359.21" width="14.17" height="20.67" style="fill:#e6e6e6"></rect><rect x="336.27" y="359.21" width="2.81" height="20.67" style="fill:#f0f0f0"></rect><rect x="182.56" y="376.38" width="43.53" height="10.82" transform="translate(408.66 763.58) rotate(180)" style="fill:#ebebeb"></rect><rect x="182.71" y="376.43" width="43.53" height="10.82" transform="translate(408.94 763.67) rotate(180)" style="fill:#fff;opacity:0.1;isolation:isolate"></rect><rect x="182.56" y="376.43" width="33.41" height="10.82" transform="translate(398.54 763.67) rotate(180)" style="fill:#fff;opacity:0.6000000000000001;isolation:isolate"></rect><polygon points="182.78 385.83 226.1 387.17 226.05 386.07 182.75 385.51 182.78 385.83" style="fill:#e0e0e0;isolation:isolate"></polygon><polygon points="226.1 380.82 182.84 378.39 182.84 378.75 226.1 381.64 226.1 380.82" style="fill:#e0e0e0;isolation:isolate"></polygon><polygon points="226.1 377.55 182.84 378.54 182.84 378.9 226.1 378.37 226.1 377.55" style="fill:#e0e0e0;isolation:isolate"></polygon><polygon points="226.22 382.95 182.96 385.05 182.96 384.74 226.22 382.23 226.22 382.95" style="fill:#e0e0e0;isolation:isolate"></polygon><polygon points="182.67 376.52 225.93 376.56 225.93 376.91 182.67 376.91 182.67 376.52" style="fill:#e0e0e0;isolation:isolate"></polygon><rect x="185.69" y="344.14" width="43.53" height="10.82" transform="translate(414.9 699.11) rotate(180)" style="fill:#e0e0e0"></rect><rect x="185.94" y="344.58" width="43.53" height="10.82" transform="translate(415.42 699.98) rotate(180)" style="fill:#fff;opacity:0.5;isolation:isolate"></rect><rect x="185.69" y="344.19" width="33.41" height="10.82" transform="translate(404.79 699.2) rotate(180)" style="fill:#fff;opacity:0.6000000000000001;isolation:isolate"></rect><polygon points="185.9 353.59 229.22 354.93 229.17 353.84 185.87 353.27 185.9 353.59" style="fill:#e0e0e0;isolation:isolate"></polygon><polygon points="229.22 348.58 185.97 346.15 185.97 346.51 229.22 349.41 229.22 348.58" style="fill:#e0e0e0;isolation:isolate"></polygon><polygon points="229.22 345.31 185.97 346.3 185.97 346.66 229.22 346.14 229.22 345.31" style="fill:#e0e0e0;isolation:isolate"></polygon><polygon points="229.34 350.71 186.08 352.82 186.08 352.5 229.34 349.99 229.34 350.71" style="fill:#e0e0e0;isolation:isolate"></polygon><rect x="185.14" y="365.41" width="43.53" height="10.82" transform="translate(413.82 741.63) rotate(180)" style="fill:#e0e0e0"></rect><rect x="185.29" y="365.45" width="43.53" height="10.82" transform="translate(414.1 741.73) rotate(180)" style="fill:#fff;opacity:0.5;isolation:isolate"></rect><rect x="185.24" y="365.45" width="33.41" height="10.82" style="fill:#fff;opacity:0.6000000000000001;isolation:isolate"></rect><polygon points="228.49 374.54 185.19 375.1 185.15 376.2 228.47 374.85 228.49 374.54" style="fill:#e0e0e0;isolation:isolate"></polygon><polygon points="185.42 365.55 228.68 365.58 228.68 365.94 185.42 365.94 185.42 365.55" style="fill:#e0e0e0;isolation:isolate"></polygon><polygon points="185.15 370.67 228.4 367.78 228.4 367.41 185.15 369.85 185.15 370.67" style="fill:#e0e0e0;isolation:isolate"></polygon><polygon points="228.68 366.58 185.42 367.57 185.42 367.92 228.68 367.4 228.68 366.58" style="fill:#e0e0e0;isolation:isolate"></polygon><polygon points="228.8 371.97 185.54 374.08 185.54 373.76 228.8 371.25 228.8 371.97" style="fill:#e0e0e0;isolation:isolate"></polygon><polygon points="227.17 355.2 183.66 355.42 183.59 366.02 227.17 366.02 227.17 355.2" style="fill:#e0e0e0"></polygon><rect x="183.64" y="355.2" width="43.53" height="10.82" transform="translate(410.81 721.23) rotate(180)" style="fill:#fff;opacity:0.5;isolation:isolate"></rect><rect x="183.59" y="355.2" width="33.41" height="10.82" style="fill:#fff;opacity:0.6000000000000001;isolation:isolate"></rect><polygon points="218.31 355.42 183.66 355.42 183.66 356.52 217.57 356.52 218.31 355.42" style="fill:#e0e0e0;isolation:isolate"></polygon><polygon points="226.92 359.85 183.66 360.26 183.66 360.57 226.92 360.57 226.92 359.85" style="fill:#e0e0e0;isolation:isolate"></polygon><polygon points="183.66 364.86 226.92 362.75 226.92 363.07 183.66 365.58 183.66 364.86" style="fill:#e0e0e0;isolation:isolate"></polygon><polygon points="183.66 360.79 226.92 361.66 226.92 361.96 183.66 361.51 183.66 360.79" style="fill:#e0e0e0;isolation:isolate"></polygon><rect x="195.03" y="331.66" width="43.25" height="5.45" style="fill:#e0e0e0"></rect><rect x="195.03" y="331.66" width="43.25" height="5.45" style="fill:#fff;opacity:0.5;isolation:isolate"></rect><rect x="195.03" y="331.66" width="34.47" height="5.45" style="fill:#fff;opacity:0.6000000000000001;isolation:isolate"></rect><polygon points="238.31 335.52 195.05 335.74 195.05 335.89 238.31 335.89 238.31 335.52" style="fill:#e0e0e0;isolation:isolate"></polygon><polygon points="195.05 333.48 238.31 332.38 238.31 332.55 195.05 333.86 195.05 333.48" style="fill:#e0e0e0;isolation:isolate"></polygon><polygon points="194.91 333.19 238.17 333.63 238.17 333.8 194.91 333.56 194.91 333.19" style="fill:#e0e0e0;isolation:isolate"></polygon><rect x="188.98" y="329.26" width="43.25" height="2.63" style="fill:#e0e0e0"></rect><rect x="188.98" y="329.28" width="43.25" height="2.6" style="fill:#fff;opacity:0.5;isolation:isolate"></rect><rect x="188.98" y="329.11" width="34.47" height="2.77" style="fill:#fff;opacity:0.6000000000000001;isolation:isolate"></rect><polygon points="189 331.26 232.25 330.15 232.25 330.32 189 331.63 189 331.26" style="fill:#e0e0e0;isolation:isolate"></polygon><polygon points="189 329.94 232.25 330.38 232.25 330.55 189 330.31 189 329.94" style="fill:#e0e0e0;isolation:isolate"></polygon><rect x="193.01" y="326.57" width="43.25" height="2.63" style="fill:#e0e0e0"></rect><rect x="193.01" y="326.6" width="43.25" height="2.6" style="fill:#fff;opacity:0.5;isolation:isolate"></rect><rect x="193.01" y="326.43" width="34.47" height="2.77" style="fill:#fff;opacity:0.6000000000000001;isolation:isolate"></rect><polygon points="193.03 327.76 236.3 328.29 236.29 328.45 193.02 328.13 193.03 327.76" style="fill:#e0e0e0;isolation:isolate"></polygon><polygon points="193.03 327.25 236.28 327.7 236.28 327.87 193.03 327.63 193.03 327.25" style="fill:#e0e0e0;isolation:isolate"></polygon><rect x="192.1" y="337.11" width="43.25" height="7.02" style="fill:#e0e0e0"></rect><rect x="192.1" y="337.11" width="43.25" height="7.02" style="fill:#fff;opacity:0.5;isolation:isolate"></rect><rect x="192.1" y="337.11" width="33.38" height="7.02" style="fill:#fff;opacity:0.6000000000000001;isolation:isolate"></rect><polygon points="235.08 339.29 191.83 339.04 191.83 338.85 235.08 338.85 235.08 339.29" style="fill:#e0e0e0;isolation:isolate"></polygon><polygon points="192.13 340.31 235.38 341.57 235.38 341.38 192.13 339.88 192.13 340.31" style="fill:#e0e0e0;isolation:isolate"></polygon><polygon points="235.38 337.11 194.58 337.11 195.49 337.98 235.38 337.98 235.38 337.11" style="fill:#e0e0e0;isolation:isolate"></polygon><polygon points="192.28 343.04 235.53 342.52 235.53 342.33 192.28 342.6 192.28 343.04" style="fill:#e0e0e0;isolation:isolate"></polygon><path d="M318.82,322.17a2.51,2.51,0,0,0-2.67-1.33,2.65,2.65,0,0,0-2,2.3,2.23,2.23,0,0,0-2.53-.06,2.51,2.51,0,0,0-1,2.45,1.86,1.86,0,0,0-2.71.55,2.08,2.08,0,0,0,.83,2.77,1.34,1.34,0,0,0,.06,2.67,1.46,1.46,0,0,0-1.33,1.27,1.52,1.52,0,0,0,1,1.58,1.21,1.21,0,0,0-.29,1.88,1.09,1.09,0,0,0,1.72-.55.36.36,0,0,0,.57.09.4.4,0,0,0-.11-.6.67.67,0,0,0,1.15-.29,1.64,1.64,0,0,0,2.22,1.76,1,1,0,0,0,.66,1.35,2.3,2.3,0,0,0,1.62-.31,3.54,3.54,0,0,1,1.58-.53,4.79,4.79,0,0,1,1.41.39,4.25,4.25,0,0,0,4.31-1.14,1.83,1.83,0,0,0,3.07-.47,1.39,1.39,0,0,0,1.21,1.1,1.36,1.36,0,0,0,1.31-.95c0,.27,0,.53,0,.79a13.38,13.38,0,0,1,3.26-3.63,1.73,1.73,0,0,0-1.19-1.84,3.23,3.23,0,0,0,.07-6.13,1.53,1.53,0,0,0-1.47.2.93.93,0,0,0,0,1.4,3,3,0,0,0-1.27-3.34,2.63,2.63,0,0,0-3.33.72,1.68,1.68,0,0,0,0-1.85,1.47,1.47,0,0,0-1.66-.56,1.67,1.67,0,0,0-1.81-1.36,1.73,1.73,0,0,0-1.35,1.85.85.85,0,0,0-1.53-.29C318.23,321.94,318.82,322.17,318.82,322.17Z" style="fill:#ebebeb"></path><path d="M319.12,330.15a1.53,1.53,0,0,0-1.15-.27,1.05,1.05,0,0,0-.83.78.82.82,0,0,0,.55.94c.48.11,1-.28,1.44-.21a3.65,3.65,0,0,1,.5.15,2.45,2.45,0,0,0,2-.7,2.27,2.27,0,0,0,.55-.52.72.72,0,0,0,.06-.72.93.93,0,0,0-.95-.31,3.73,3.73,0,0,0-1.94.81l.05-.34Z" style="fill:#fafafa"></path><path d="M329.25,329.55a2.1,2.1,0,0,0-.61-.32.63.63,0,0,0-.63.18.64.64,0,0,0,.17.84,1.85,1.85,0,0,0,.89.3c.32.05.73.06.89-.22a.58.58,0,0,0-.15-.65,1.85,1.85,0,0,0-.63-.31Z" style="fill:#fafafa"></path><path d="M313.24,324.28a2.22,2.22,0,0,0-1.29,1.55.53.53,0,0,0,.14.58.58.58,0,0,0,.43,0l1.86-.44a2.6,2.6,0,0,0-.84.44.9.9,0,0,0-.31.85.86.86,0,0,0,.86.58,1.86,1.86,0,0,0,1-.41,1.28,1.28,0,0,0,.64-.95c0-.4-.49-.76-.8-.51a6.54,6.54,0,0,0,2-.91,1.76,1.76,0,0,0,.58-.54.75.75,0,0,0,.06-.75c-.64-1.15-1.44.54-1.83.69C315,324.75,314.18,323.89,313.24,324.28Z" style="fill:#fafafa"></path><path d="M310.36,329.2a.6.6,0,0,0,.16.64.39.39,0,0,0,.59-.12,2.1,2.1,0,0,0-1.11.63c-.26.35-.2,1,.22,1.09a1,1,0,0,0,.77-.17A14.33,14.33,0,0,0,312.9,330c-.18.42.26.9.72.94a2.24,2.24,0,0,0,1.29-.45c.49-.29,1-.74.91-1.29a.94.94,0,0,0-1.2-.56,2.79,2.79,0,0,0-1.16.89c.26-.38-.11-.94-.56-1a1.37,1.37,0,0,0-1.16.53c.51-.28.63-1-.06-1.1C311.23,327.91,310.47,328.83,310.36,329.2Z" style="fill:#fafafa"></path><path d="M324.51,327.55a.77.77,0,0,0-1,.51.78.78,0,0,0,.61.92,1.22,1.22,0,0,0-.79.41.62.62,0,0,0-.16.46.56.56,0,0,0,.55.43,1.71,1.71,0,0,0,.72-.21,1.47,1.47,0,0,0-.71.21.46.46,0,0,0-.1.65.59.59,0,0,0,.59.07,3.07,3.07,0,0,0,1.22-.68,1.16,1.16,0,0,0,1,.42.7.7,0,0,0,.58-.83.74.74,0,0,0-.63-.45,1.88,1.88,0,0,0-.81.12,1.53,1.53,0,0,0,.65-.71c.1-.31-.11-.73-.44-.71s-.55.53-.84.71C324.63,328.54,325.3,327.84,324.51,327.55Z" style="fill:#fafafa"></path><path d="M317.9,326a1.5,1.5,0,0,0-.53,1.34,1.54,1.54,0,0,0,.8,1.37,1.26,1.26,0,0,0,1.63-1,1.79,1.79,0,0,0-1-1.79A1,1,0,0,0,317.9,326Z" style="fill:#fafafa"></path><path d="M322.59,325.42l.17.15a.84.84,0,1,0-1.23,1.13.88.88,0,0,0,1.23-.09,1.24,1.24,0,0,0,1.46-.27A1,1,0,0,0,324,325a.77.77,0,0,0-1.12.66l-.2-.22Z" style="fill:#fafafa"></path><path d="M327.75,326.25a2.68,2.68,0,0,0-.79,1.13.91.91,0,0,0,.53,1.13c.44.12.87-.25,1.12-.64a1.4,1.4,0,0,0,.28-1.17c-.13-.4-.7-.63-1-.33Z" style="fill:#fafafa"></path><path d="M320.31,323.54a.77.77,0,0,0-1.06-.29.91.91,0,0,0-.32,1.09,1.14,1.14,0,0,0,.95.69c.51.06,1.11-.35,1-.85a1.1,1.1,0,0,0,1,.37,2.64,2.64,0,0,0,1-.38c.43-.25.88-.63.84-1.12a.87.87,0,0,0-.81-.72,1.45,1.45,0,0,0-1.07.4c-.23.2-.43.44-.68.62a.87.87,0,0,1-.87.12Z" style="fill:#fafafa"></path><polygon points="326.67 346.28 313.86 346.28 312.61 333.38 327.92 333.38 326.67 346.28" style="fill:#f0f0f0"></polygon><polygon points="328.91 334.04 311.49 334.04 311.18 332.32 329.23 332.32 328.91 334.04" style="fill:#fafafa"></polygon><polygon points="429.53 306.84 414.83 306.84 419.44 292 420.11 289.83 423.44 289.83 429.53 306.84" style="fill:#e0e0e0"></polygon><polygon points="420.11 289.83 419.44 292 414.83 306.84 401.24 306.64 396.87 292 396.2 289.83 420.11 289.83" style="fill:#e0e0e0"></polygon><polygon points="420.11 289.83 419.44 292 414.83 306.84 386.92 306.43 392.87 289.83 420.11 289.83" style="fill:#fafafa"></polygon><polygon points="420.11 289.83 419.44 292 392.1 292 392.87 289.83 420.11 289.83" style="fill:#ebebeb"></polygon><path d="M396.3,299.05h-6.13l2.14-6,5.86.07Zm-5.42-.5h5.05l1.56-5-4.83-.05Z" style="fill:#ebebeb"></path><path d="M403.15,299.05H397l2.13-6,5.87.07Zm-5.42-.5h5.06l1.56-5-4.83-.05Z" style="fill:#ebebeb"></path><path d="M410,299.05h-6.13l2.14-6,5.86.07Zm-5.42-.5h5.05l1.56-5-4.83-.05Z" style="fill:#ebebeb"></path><path d="M416.87,299.05h-6.13l2.14-6,5.86.07Zm-5.42-.5h5.05l1.56-5-4.83-.05Z" style="fill:#ebebeb"></path><path d="M394.16,305.46H388l2.14-6,5.86.07Zm-5.42-.5h5.05l1.56-5-4.83-.06Z" style="fill:#ebebeb"></path><path d="M401,305.46h-6.13l2.14-6,5.86.07Zm-5.43-.5h5.06l1.56-5-4.83-.06Z" style="fill:#ebebeb"></path><path d="M407.87,305.46h-6.13l2.14-6,5.86.07Zm-5.42-.5h5.06l1.55-5-4.83-.06Z" style="fill:#ebebeb"></path><path d="M414.73,305.46H408.6l2.14-6,5.86.07Zm-5.42-.5h5.05l1.56-5-4.83-.06Z" style="fill:#ebebeb"></path><path d="M359.94,307.15H342.79v-9.84a8.57,8.57,0,0,1,8.57-8.57h0a8.58,8.58,0,0,1,8.58,8.57Z" style="fill:#f0f0f0"></path><circle cx="351.26" cy="297.77" r="7.23" style="fill:#fff"></circle><path d="M357,297.77a5.8,5.8,0,1,1-5.8-5.81A5.8,5.8,0,0,1,357,297.77Z" style="fill:#ebebeb"></path><path d="M351.84,297.9a.63.63,0,1,1-.63-.63A.63.63,0,0,1,351.84,297.9Z" style="fill:#fafafa"></path><polygon points="351.14 298.13 348.49 295.63 348.75 295.36 351.15 297.62 355.46 293.81 355.71 294.09 351.14 298.13" style="fill:#fafafa"></polygon></g><g id="freepik--Shadow--inject-94"><rect x="104.56" y="390.89" width="6.33" height="0.25" style="fill:#ebebeb"></rect><ellipse id="freepik--path--inject-94" cx="250" cy="415.69" rx="193.89" ry="11.32" style="fill:#f5f5f5"></ellipse></g><g id="freepik--Projection--inject-94"><polygon points="448.49 265.52 51.45 265.52 50.33 63.75 447.37 63.75 448.49 265.52" style="fill:#407BFF"></polygon><polygon points="448.49 265.52 51.45 265.52 50.33 63.75 447.37 63.75 448.49 265.52" style="opacity:0.7000000000000001"></polygon><rect x="56.09" y="69.92" width="384.16" height="152.35" style="fill:#fff"></rect><polygon points="56.09 222.27 440.24 222.27 236.75 263.77 56.09 222.27" style="fill:#fff;opacity:0.5"></polygon><polygon points="215.12 205.25 151.52 122.96 89.1 152.78 88.24 150.97 152.12 120.46 215.67 202.69 277.93 169.6 341.4 178.79 341.12 180.77 278.29 171.68 215.12 205.25" style="fill:#263238"></polygon><circle cx="88.67" cy="151.87" r="5.3" style="fill:#407BFF"></circle><path d="M157.12,122.26a5.3,5.3,0,1,1-5.3-5.3A5.3,5.3,0,0,1,157.12,122.26Z" style="fill:#407BFF"></path><path d="M220.26,203.37a5.3,5.3,0,1,1-5.29-5.3A5.29,5.29,0,0,1,220.26,203.37Z" style="fill:#407BFF"></path><path d="M283.41,171.71a5.3,5.3,0,1,1-5.3-5.3A5.29,5.29,0,0,1,283.41,171.71Z" style="fill:#407BFF"></path><path d="M346.56,180.31a5.3,5.3,0,1,1-5.3-5.3A5.3,5.3,0,0,1,346.56,180.31Z" style="fill:#407BFF"></path><path d="M409.7,112.49a5.3,5.3,0,1,1-5.29-5.3A5.29,5.29,0,0,1,409.7,112.49Z" style="fill:#407BFF"></path><polygon points="390.93 144.24 386.17 139.24 341.26 180.3 377.37 130.02 372.61 125.02 398.42 118.76 390.93 144.24" style="fill:#263238"></polygon><path d="M81.31,77.88c1.32,0,1.88.78,1.88,2.05v1c0,1.34-.62,2-2,2h-.82v3.31h-.94V77.88Zm-.08,4.24c.7,0,1-.32,1-1.13V79.88c0-.77-.28-1.15-1-1.15h-.9v3.39Z" style="fill:#407BFF"></path><path d="M84.75,84.58l-.32,1.69h-.87l1.61-8.39h1.36l1.6,8.39H87.2l-.33-1.69Zm.12-.8h1.87l-.95-4.85Z" style="fill:#407BFF"></path><path d="M92.5,79.89v.23h-.89v-.28c0-.75-.28-1.2-1-1.2s-1,.45-1,1.19c0,1.88,2.82,2.06,2.82,4.43,0,1.27-.61,2.09-1.89,2.09s-1.88-.82-1.88-2.09v-.48h.87v.52c0,.76.31,1.2,1,1.2s1-.44,1-1.2c0-1.87-2.81-2-2.81-4.41,0-1.29.6-2.1,1.86-2.1S92.5,78.62,92.5,79.89Z" style="fill:#407BFF"></path><path d="M94.54,86.27V78.73H93v-.85h4v.85H95.47v7.54Z" style="fill:#407BFF"></path><path d="M239.7,86.27h-.84V77.88h1.19L242,83.94V77.88h.83v8.39h-1l-2.15-6.79Z" style="fill:#407BFF"></path><path d="M243.71,79.9c0-1.28.63-2.11,1.92-2.11s1.93.83,1.93,2.11v4.34c0,1.28-.64,2.11-1.93,2.11s-1.92-.83-1.92-2.11Zm.92,4.39c0,.77.33,1.21,1,1.21s1-.44,1-1.21V79.85c0-.75-.31-1.21-1-1.21s-1,.46-1,1.21Z" style="fill:#407BFF"></path><path d="M250.68,86.27H249.4l-1.16-8.39h.92l1,7.14.94-7.13H252l.92,7.15,1-7.16h.82l-1.14,8.39h-1.24l-.8-5.7Z" style="fill:#407BFF"></path><path d="M395.61,81.41v.85h-1.93V85.9h-.94V77.5h3.34v.85h-2.4v3.06Z" style="fill:#407BFF"></path><path d="M397.71,83.92c0,.75.3,1.21,1,1.21s1-.46,1-1.21V77.5h.87v6.37c0,1.27-.59,2.12-1.88,2.12s-1.87-.85-1.87-2.12V77.5h.92Z" style="fill:#407BFF"></path><path d="M402.68,85.9V78.35h-1.55V77.5h4v.85H403.6V85.9Z" style="fill:#407BFF"></path><path d="M406.68,83.92c0,.75.3,1.21,1,1.21s1-.46,1-1.21V77.5h.88v6.37c0,1.27-.59,2.12-1.89,2.12s-1.87-.85-1.87-2.12V77.5h.93Z" style="fill:#407BFF"></path><path d="M412.3,77.5c1.32,0,1.87.67,1.87,1.92v.68c0,.93-.32,1.5-1,1.73.77.23,1.06.85,1.06,1.75v1.31a2.2,2.2,0,0,0,.16,1h-.94a2.17,2.17,0,0,1-.16-1V83.56c0-1-.44-1.25-1.22-1.25h-.66V85.9h-.94V77.5Zm-.24,4c.75,0,1.19-.24,1.19-1.15V79.5c0-.75-.28-1.15-1-1.15h-.91v3.11Z" style="fill:#407BFF"></path><path d="M418.15,81.22v.84h-2v3h2.51v.85h-3.45V77.5h3.45v.85H416.1v2.87Z" style="fill:#407BFF"></path></g><g id="freepik--Table--inject-94"><g id="freepik--monitor-screen--inject-94"><g id="freepik--PC--inject-94"><polygon points="126.57 284.48 67.64 284.75 70.74 247.37 129.68 247.11 126.57 284.48" style="fill:#407BFF"></polygon><path d="M125.77,287.41l-58.07.26a2.69,2.69,0,0,1-2.74-3l3.09-37.14a3.32,3.32,0,0,1,3.23-3l58.07-.26a2.69,2.69,0,0,1,2.74,3L129,284.41A3.33,3.33,0,0,1,125.77,287.41Z" style="fill:#407BFF"></path><g style="opacity:0.7000000000000001"><polygon points="126.57 284.48 67.64 284.75 70.74 247.37 129.68 247.11 126.57 284.48" style="fill:#407BFF"></polygon><path d="M123.92,284.49l-53.12.24a2.9,2.9,0,0,1-2.9-3.14L70.52,250a2.9,2.9,0,0,1,2.88-2.66l53.11-.24a2.9,2.9,0,0,1,2.9,3.14l-2.62,31.58A2.89,2.89,0,0,1,123.92,284.49Z" style="fill:#fff;opacity:0.9"></path></g><polygon points="116.76 244.29 105.44 287.4 109.31 287.38 120.5 244.28 116.76 244.29" style="fill:#fff;opacity:0.1;isolation:isolate"></polygon><polygon points="122.73 244.27 111.42 287.37 119.1 287.34 130.29 244.24 122.73 244.27" style="fill:#fff;opacity:0.1;isolation:isolate"></polygon></g></g><path d="M107.35,287.2l19.6.17c.25,2.28-.75,3.1-2,3.09l-71.74-.11a2.85,2.85,0,0,1-2.85-2.86h0Z" style="fill:#407BFF"></path><path d="M127,287.37c.25,2.28-.75,3.1-2,3.09l-24.84,0c1.64,0,3.71-1.59,3.71-3.22Z" style="fill:#fff;opacity:0.2"></path><path d="M107.35,287.2l19.6.17c.25,2.28-.75,3.1-2,3.09l-71.74-.11a2.85,2.85,0,0,1-2.85-2.86h0Z" style="fill:#fff;opacity:0.2"></path><g id="freepik--Group--inject-94"><polygon points="60.87 294.04 60.87 416.38 64.05 416.38 68.05 294.04 60.87 294.04" style="fill:#407BFF"></polygon><polygon points="98.41 298.04 98.41 411.38 101.59 411.38 105.59 298.04 98.41 298.04" style="fill:#407BFF"></polygon><polygon points="98.41 298.04 98.41 411.38 101.59 411.38 105.59 298.04 98.41 298.04" style="opacity:0.5"></polygon><polygon points="251.57 294.04 251.57 411.38 248.39 411.38 244.39 294.04 251.57 294.04" style="fill:#407BFF"></polygon><polygon points="251.57 294.04 251.57 411.38 248.39 411.38 244.39 294.04 251.57 294.04" style="opacity:0.5"></polygon><polygon points="214.03 298.04 214.03 415.64 210.85 415.64 206.85 298.04 214.03 298.04" style="fill:#407BFF"></polygon><rect x="36.59" y="290.36" width="236.94" height="5.13" style="fill:#407BFF"></rect><polygon points="257.95 300.98 53.37 300.98 45.07 295.49 266.25 295.49 257.95 300.98" style="fill:#407BFF"></polygon><polygon points="257.95 300.98 53.37 300.98 45.07 295.49 266.25 295.49 257.95 300.98" style="opacity:0.5"></polygon></g><rect x="244.13" y="288.74" width="5.28" height="2.09" style="fill:#263238"></rect><path d="M249.07,289.77l-39.91-.43c-4.91,0-6.51-9.27-6.51-12.85h0a11,11,0,0,1,11-11H252a6.53,6.53,0,0,1,6.51,6.5S257.7,289.77,249.07,289.77Z" style="fill:#407BFF"></path><g style="opacity:0.5"><g style="opacity:0.7000000000000001"><path d="M249.07,289.77l-39.91-.43c-4.91,0-6.51-9.27-6.51-12.85h0a11,11,0,0,1,11-11H252a6.53,6.53,0,0,1,6.51,6.5S257.7,289.77,249.07,289.77Z" style="fill:#fff"></path></g></g><path d="M253.08,265.6l-38.83-.08a25.11,25.11,0,0,0-15.14,5L194.42,274a1.38,1.38,0,0,0,.86,2.48l38.9-1Z" style="fill:#407BFF"></path><path d="M253.08,265.6l-38-.08c-6.23,0-11.4,1.25-16.67,5.52L193.2,275a.9.9,0,0,0,.56,1.62l39.77-.71Z" style="fill:#fff;opacity:0.5"></path><rect x="195.4" y="288.74" width="5.28" height="2.09" style="fill:#263238"></rect><rect x="230.5" y="288.74" width="5.28" height="2.09" style="fill:#263238"></rect><rect x="210.12" y="288.74" width="5.28" height="2.09" style="fill:#263238"></rect><path d="M233.18,289.77H197.62a8.14,8.14,0,0,1-8.12-8.12h0a8.14,8.14,0,0,1,8.12-8.11h35.56a8.13,8.13,0,0,1,8.11,8.11h0A8.14,8.14,0,0,1,233.18,289.77Z" style="fill:#407BFF"></path><g style="clip-path:url(#freepik--clip-path--inject-94)"><rect x="198.73" y="278.58" width="34.56" height="1.36" style="fill:#263238"></rect><rect x="198.73" y="280.71" width="34.56" height="1.36" style="fill:#263238"></rect><rect x="198.73" y="282.83" width="34.56" height="1.36" style="fill:#263238"></rect><rect x="198.73" y="284.96" width="34.56" height="1.36" style="fill:#263238"></rect></g><path d="M243.71,265.38l-.22.22-6.4,2.88c-6.19,2.87-9.57,2.58-8.52,0,0,0,1.11-10.3,7.94-10.3A7.21,7.21,0,0,1,243.71,265.38Z" style="fill:#407BFF"></path><g style="opacity:0.7000000000000001"><path d="M243.71,265.38l-.22.22-6.4,2.88c-6.19,2.87-9.57,2.58-8.52,0,0,0,1.11-10.3,7.94-10.3A7.21,7.21,0,0,1,243.71,265.38Z" style="fill:#fff"></path></g></g><g id="freepik--Character--inject-94"><rect x="201.14" y="145.02" width="27.5" height="3.39" transform="translate(-28.36 54.35) rotate(-13.53)" style="fill:#407BFF"></rect><rect x="201.14" y="145.02" width="27.5" height="3.39" transform="translate(-28.36 54.35) rotate(-13.53)" style="fill:#fff;opacity:0.30000000000000004"></rect><rect x="217.48" y="138.63" width="41.19" height="5.39" transform="translate(-26.46 59.63) rotate(-13.53)" style="fill:#407BFF"></rect><rect x="217.48" y="138.63" width="41.19" height="5.39" transform="translate(-26.46 59.63) rotate(-13.53)" style="fill:#fff;opacity:0.2"></rect><path d="M285.08,137.91l-43.83,6.22-1.65-6.86,41.86-14.4,1.7,2.67a14.41,14.41,0,0,1,2.21,9Z" style="fill:#407BFF"></path><path d="M285.08,137.91l-43.83,6.22-1.65-6.86,41.86-14.4,1.7,2.67a14.41,14.41,0,0,1,2.21,9Z" style="fill:#fff;opacity:0.2"></path><g id="freepik--character-2--inject-170--inject-94"><path d="M170.83,182.13c-6.71,4.63-16.41,11.12-21.07,14.92l-.06,0a85.07,85.07,0,0,0-6.17,7.48l-.85,1.2-.08.11-.1.2a3.82,3.82,0,0,0-.21.46,14.17,14.17,0,0,0-.7,2.65c-.32,2-.33,9.84.46,18.72a2.38,2.38,0,0,1-2,2.56l-2.17.36a2.36,2.36,0,0,1-2.66-1.64,80.61,80.61,0,0,1-2.69-13,45.46,45.46,0,0,1-.32-8.08,21.89,21.89,0,0,1,.79-4.89,7.24,7.24,0,0,1,.31-.93l.26-.66.34-.71c.27-.54.4-.74.57-1L135,199a35.05,35.05,0,0,1,2.15-3.4c.77-1,1.54-2.1,2.35-3.16,1.65-2.2,3.46-4.24,5.29-6.24.78-.85,1.57-1.67,2.38-2.49l0,0c6.17-7.61,15.26-17.76,19.69-17.52C174.08,166.52,177.08,175,170.83,182.13Z" style="fill:#407BFF"></path><path d="M137.46,229.5c-2.08,2.25,0,5.93,0,5.93l6.77-1.69-3.68-4.62Z" style="fill:#ff8b7b"></path><polygon points="144.23 233.74 137.5 235.45 139.92 240.91 144.94 239.79 144.23 233.74" style="fill:#ff8b7b"></polygon><path d="M201,148.31c.42.11.64.7.47,1.37s-.61,1.11-1.07,1-.63-.72-.46-1.37S200.55,148.2,201,148.31Z" style="fill:#263238"></path><path d="M198.34,156.67a3.87,3.87,0,0,0,3.24.21,23.42,23.42,0,0,1-1.67-6.32Z" style="fill:#ff5652"></path><path d="M198.29,144.92h0a.39.39,0,0,1,.22-.51,3.87,3.87,0,0,1,3.56.29l.08.06a.39.39,0,0,1-.53.57,3.14,3.14,0,0,0-2.83-.19.33.33,0,0,1-.24,0A.36.36,0,0,1,198.29,144.92Z" style="fill:#263238"></path><path d="M188.28,162.83c-2.7,4-4.56,8.68,1.25,12.49,0,0,4,8-7.64,3.77-10.59-3.81-10.07-10.15-10.07-10.15,5.36-2.36,6.67-11.71,7.6-17.81Z" style="fill:#ff8b7b"></path><path d="M189.58,175.74s1.76-5.06-1.34-7.52-13-3.37-15.1-3.37c-1.9,0-1.75,2.11-1.59,4Z" style="fill:#407BFF"></path><path d="M189.58,175.74s1.76-5.06-1.34-7.52-13-3.37-15.1-3.37c-1.9,0-1.75,2.11-1.59,4Z" style="fill:#fff;opacity:0.5"></path><path d="M166,187.19c-4.42,4.34-8.24,7.34-8.24,7.34l-.5-.61L168.31,179Z" style="opacity:0.30000000000000004;isolation:isolate"></path><path d="M186,235.38l-12.41-2.21-15.56-2.74-10.24-1.81v0c.28-5.23,3.15-27,8.31-51.6,1.43-6.8,6.7-12,13.51-10.67h.19a143.81,143.81,0,0,1,16.09,4.14,69.84,69.84,0,0,1,8.76,3.88,4,4,0,0,1,2.24,3.13C197.49,182.62,188,208.31,186,235.38Z" style="fill:#407BFF"></path><path d="M185.09,188.17a35,35,0,0,0,5.82,17.12c.65-3.17,4.13-16.93,4.79-19.68Z" style="opacity:0.30000000000000004;isolation:isolate"></path><path d="M226.1,154.93l1.87.22c3.24-4.28,1.2-10,1.2-10L220,147.34l1.67,4.21A5.42,5.42,0,0,0,226.1,154.93Z" style="fill:#ff8b7b"></path><polygon points="220.05 147.34 229.17 145.16 228.41 140.29 220.31 139.33 220.05 147.34" style="fill:#ff8b7b"></polygon><path d="M244.78,174.77a12.49,12.49,0,0,0-1.1-2.68,21.84,21.84,0,0,0-1.15-2c-.58-.9-6.53-9.81-11.06-15.63a5.42,5.42,0,0,0-7.89-.69c2.84,4,7.88,16.16,9.1,18.19l.62,1a7.92,7.92,0,0,1,1.67,0c1.17.24,2.34-.7,3.46-.49l.44.09.22,0,.11,0a3.38,3.38,0,0,0-.45,0,4.06,4.06,0,0,0-1.22.35,4.24,4.24,0,0,0-1.74,1.54,4,4,0,0,0-.58,1.64,4.22,4.22,0,0,0,0,.6,2.13,2.13,0,0,0-.2-.55,14.5,14.5,0,0,0-.64-1.34c-.31-.62-.67-1.26-1.06-1.91l-.33,0-.29-1.07s-52.79,2.11-51.68,9.71c-6.63,19.62,52.33,2.56,54.71,1.86l.07,0a68.53,68.53,0,0,0,7-2.09,5.78,5.78,0,0,0,2.27-4.32A7.1,7.1,0,0,0,244.78,174.77Zm-9.53,2.31a.68.68,0,0,1-.05-.21A.8.8,0,0,1,235.25,177.08Z" style="fill:#407BFF"></path><path d="M239.2,172.71a3.38,3.38,0,0,0-.45,0,4.06,4.06,0,0,0-1.22.35,4.24,4.24,0,0,0-1.74,1.54,4,4,0,0,0-.58,1.64,4.22,4.22,0,0,0,0,.6,2.13,2.13,0,0,0-.2-.55,14.5,14.5,0,0,0-.64-1.34c-.31-.62-.67-1.26-1.06-1.91a7.92,7.92,0,0,1,1.67,0c1.17.24,2.34-.7,3.46-.49l.44.09.22,0Z" style="fill:#407BFF"></path><path d="M180.76,137.69a11.2,11.2,0,0,1,15.68-2.27c7,5.16,5,17.22,1.5,23.92-3.93,7.44-14.67,8.57-19.13.89-3-5.1-1.65-9.75-.1-17.81A11.26,11.26,0,0,1,180.76,137.69Z" style="fill:#ff8b7b"></path><path d="M181.89,131.12c-4.17,2.4-7,6.65-8.52,11.23-1.41,4.29-1.55,22.29,15.51,18.07A24.27,24.27,0,0,1,194,147c1.67,6.53,1.61-3.66,4.45-5.67,2.13-1.51,5-1.44,7.33-2.66a7.48,7.48,0,0,0,2.7-10.18c.19.92-1.24,3.61-2.12,3.93a9.33,9.33,0,0,0,.29-5.32c-.29,1.41-1.48,4.54-2.79,4.69.45-.87,0-3.69-.72-4.92.6,1.11-1.28,4.22-2,4.92C199,133.74,191.92,125.34,181.89,131.12Z" style="fill:#263238"></path><path d="M193.14,144.8c2,1.4,2.09,5.11,1.49,7.22-.66,2.35-2.71,3.31-4.21,1.08a9.33,9.33,0,0,1-1.51-5.77C189.13,144.88,191.11,143.4,193.14,144.8Z" style="fill:#ff8b7b"></path><path d="M105.79,397.31a.17.17,0,0,1,0-.19.2.2,0,0,1,.18-.07c.08,0,2.51.51,3.08,1.46a.76.76,0,0,1,.08.67c-.13.44-.39.58-.58.58-.47.07-1.06-.39-1.58-.93A8.71,8.71,0,0,1,105.79,397.31Zm.52.18c.63.93,1.68,2,2.2,1.93,0,0,.2,0,.29-.34a.45.45,0,0,0,0-.39,1.15,1.15,0,0,0-.14-.17A5.77,5.77,0,0,0,106.31,397.49Z" style="fill:#407BFF"></path><path d="M105.76,397.21a.19.19,0,0,1,.06-.17c.07-.06,1.72-1.41,2.81-1.28a.93.93,0,0,1,.68.38.59.59,0,0,1,.06.71c-.49.68-2.66.75-3.49.49h-.07A.19.19,0,0,1,105.76,397.21Zm2.83-1.08a4.12,4.12,0,0,0-2.25,1c.93.15,2.46,0,2.74-.43,0,0,.09-.12,0-.3l0-.06A.61.61,0,0,0,108.59,396.13Z" style="fill:#407BFF"></path><polygon points="106.93 379.2 113.73 381.67 105.1 396.91 98.3 394.44 106.93 379.2" style="fill:#ff8b7b"></polygon><path d="M106.65,397.46c.11,2.38,1.95,7.07,5,12,.68,1.1-1.8,3-3.94.72s-6.76-7.66-8.31-9.26c-2.53-2.61-3.66-3.54-5.66-5.54a.9.9,0,0,1-.15-.19,1.07,1.07,0,0,1,.34-1.49l5.7-3.5a.65.65,0,0,1,.8.11l5.74,5.93A1.79,1.79,0,0,1,106.65,397.46Z" style="fill:#263238"></path><polygon points="102.47 387.06 108.95 390.11 113.73 381.67 106.93 379.2 102.47 387.06" style="opacity:0.2;isolation:isolate"></polygon><path d="M173.61,233.17s-14.42,52.94-21,73.43c-7.25,22.43-38.67,81.26-38.67,81.26l-12.33-5.37s23.78-53.56,28.86-76c5.47-24.3.74-66.78,17.32-77.87l.05,0v0l10.24,1.81Z" style="fill:#407BFF"></path><path d="M173.61,233.17s-6.94,25.48-13.4,47.93c-2.85,9.91-5.61,19.23-7.63,25.5-7.25,22.43-38.67,81.26-38.67,81.26l-12.33-5.37s23.78-53.56,28.86-76c5.47-24.3.74-66.78,17.32-77.87l.05,0v0l10.24,1.81Z" style="fill:#fff;opacity:0.5"></path><path d="M101.83,379.36l-2.12,4.11,13.84,6.12,3.36-4.16Z" style="fill:#263238"></path><path d="M167.91,250.92c-4.51,17.49-11,42.12-15.07,54.86.66-18.52,3.17-54.4,12.95-55.33A3.28,3.28,0,0,1,167.91,250.92Z" style="opacity:0.30000000000000004;isolation:isolate"></path><path d="M175.65,416.19a.18.18,0,0,1-.15-.13.19.19,0,0,1,.07-.19c.11-.07,2.58-1.69,3.82-1.44a.94.94,0,0,1,.59.38.66.66,0,0,1,0,.76c-.28.43-1.18.62-2.12.68A14.1,14.1,0,0,1,175.65,416.19Zm3.33-1.43a7.89,7.89,0,0,0-2.84,1.1c1.38.1,3.24,0,3.55-.51.07-.07.12-.18,0-.39a.51.51,0,0,0-.35-.22,1.22,1.22,0,0,0-.33,0Z" style="fill:#407BFF"></path><path d="M175.53,416.18a.21.21,0,0,1-.08-.16c0-.08.07-2.07,1-2.9a1.33,1.33,0,0,1,1-.36c.49,0,.67.25.68.45.19.81-1.46,2.52-2.33,3h-.07A.23.23,0,0,1,175.53,416.18Zm1.74-3.08a.94.94,0,0,0-.53.23,4.1,4.1,0,0,0-.86,2.32c.84-.59,2-1.91,1.85-2.41,0,0,0-.18-.35-.17h-.11Z" style="fill:#407BFF"></path><polygon points="167.28 399.49 174.61 399.04 174.93 416.06 167.6 416.52 167.28 399.49" style="fill:#ff8b7b"></polygon><path d="M176.65,415.67c5.15,2.75,8,2.71,13.84,3.6,1.28.21.62,3.3-2.38,3.49-5,.31-6.84.19-11.09.46-3.63.22-7.79.69-10.68.87a1,1,0,0,1-.24,0,1.06,1.06,0,0,1-.89-1.22l1-6.61a.65.65,0,0,1,.6-.54l8-.49A3.4,3.4,0,0,1,176.65,415.67Z" style="fill:#263238"></path><polygon points="167.27 399.5 167.46 409.06 174.79 408.61 174.61 399.04 167.27 399.5" style="opacity:0.2;isolation:isolate"></polygon><path d="M186,235.38s1.81,53.44.21,75.8c-1.68,23.26-8.42,93.25-8.42,93.25l-12.42.77s-1.91-70.19-1.64-93.08c.1-7.8-.53-18.51-1.41-29.57-2-24.39-5.3-50.44-5.3-50.44l16.57,1.06Z" style="fill:#407BFF"></path><path d="M186,235.38s1.81,53.44.21,75.8c-1.68,23.26-8.42,93.25-8.42,93.25l-12.42.77s-1.91-70.19-1.64-93.08c.1-7.8-.53-18.51-1.41-29.57-2-24.39-5.3-50.44-5.3-50.44l16.57,1.06Z" style="fill:#fff;opacity:0.5"></path><path d="M163.31,402.42,164,407l15.1-.94s.44-5.2.39-5.2Z" style="fill:#263238"></path></g></g></svg>