<svg xmlns="http://www.w3.org/2000/svg" viewBox="0 0 500 500"><g id="freepik--background-simple--inject-143"><path d="M270.77,85c36.71-6.43,101,12.63,120.72,47.35,13.53,23.77,17.15,44.87,4.57,71.9-32.28,69.36-123,17.07-154.72,101.89-36.77,98.41-126.71,86.33-142.62,1.72C82.53,221.65,144.67,107,270.77,85Z" style="fill:#407BFF"></path><path d="M270.77,85c36.71-6.43,101,12.63,120.72,47.35,13.53,23.77,17.15,44.87,4.57,71.9-32.28,69.36-123,17.07-154.72,101.89-36.77,98.41-126.71,86.33-142.62,1.72C82.53,221.65,144.67,107,270.77,85Z" style="fill:#fff;opacity:0.9"></path></g><g id="freepik--Shadow--inject-143"><ellipse cx="258.35" cy="435.46" rx="214.67" ry="19.61" style="fill:#f0f0f0"></ellipse></g><g id="freepik--speech-bubble-3--inject-143"><path d="M321.08,438.47l12.65,6.2-35.36-4.39c-12.1.68-25.67,1.06-40,1.06-50.73,0-91.85-4.76-91.85-10.64s41.12-10.63,91.85-10.63,91.85,4.76,91.85,10.63C350.2,433.77,339,436.53,321.08,438.47Z" style="fill:#263238"></path><path d="M350.2,430.7a2.27,2.27,0,0,1-1.17,1.71c-7-5.06-45-8.93-90.68-8.93s-83.61,3.87-90.67,8.93a2.26,2.26,0,0,1-1.19-1.71c0-5.87,41.13-10.63,91.86-10.63S350.2,424.83,350.2,430.7Z" style="fill:#407BFF"></path></g><g id="freepik--speech-bubble-2--inject-143"><path d="M331.12,120.09v20.75a7.34,7.34,0,0,0,7.33,7.34h23.84a7.44,7.44,0,0,0,3.45-.86l5.83,3.46-2.86-6.41a7.24,7.24,0,0,0,.91-3.53V120.09a7.33,7.33,0,0,0-7.33-7.33H338.45A7.33,7.33,0,0,0,331.12,120.09Z" style="fill:#407BFF"></path><path d="M331.12,120.09v20.75a7.34,7.34,0,0,0,7.33,7.34h23.84a7.44,7.44,0,0,0,3.45-.86l5.83,3.46-2.86-6.41a7.24,7.24,0,0,0,.91-3.53V120.09a7.33,7.33,0,0,0-7.33-7.33H338.45A7.33,7.33,0,0,0,331.12,120.09Z" style="fill:#fff;opacity:0.7000000000000001"></path><path d="M361.73,124.69l-13.87,13.87-.14.14a1.49,1.49,0,0,1-.63.42,2.79,2.79,0,0,1-.35.11,2.19,2.19,0,0,1-.36,0,2,2,0,0,1-.71-.14,2.06,2.06,0,0,1-.33-.17,2.48,2.48,0,0,1-.3-.25L341,134.63a1.85,1.85,0,0,1-.56-1.33,1.9,1.9,0,0,1,1.91-1.92,1.88,1.88,0,0,1,1.34.56l2.73,2.72L359,122a2,2,0,0,1,1.35-.55,1.9,1.9,0,0,1,1.34,3.25Z" style="fill:#407BFF"></path></g><g id="freepik--speech-bubble-1--inject-143"><path d="M196.11,120.09v20.75a7.34,7.34,0,0,1-7.33,7.34H165a7.45,7.45,0,0,1-3.46-.86l-5.82,3.46,2.85-6.41a7.24,7.24,0,0,1-.91-3.53V120.09a7.33,7.33,0,0,1,7.34-7.33h23.83A7.33,7.33,0,0,1,196.11,120.09Z" style="fill:#407BFF"></path><path d="M196.11,120.09v20.75a7.34,7.34,0,0,1-7.33,7.34H165a7.45,7.45,0,0,1-3.46-.86l-5.82,3.46,2.85-6.41a7.24,7.24,0,0,1-.91-3.53V120.09a7.33,7.33,0,0,1,7.34-7.33h23.83A7.33,7.33,0,0,1,196.11,120.09Z" style="fill:#fff;opacity:0.7000000000000001"></path><path d="M182.66,138.7l-14-14a1.91,1.91,0,0,1,0-2.69h0a1.91,1.91,0,0,1,2.69,0l14,14a1.88,1.88,0,0,1,0,2.68h0A1.88,1.88,0,0,1,182.66,138.7Z" style="fill:#407BFF"></path><path d="M171.33,138.7l14-14a1.89,1.89,0,0,0,0-2.69h0a1.9,1.9,0,0,0-2.68,0l-14,14a1.9,1.9,0,0,0,0,2.68h0A1.89,1.89,0,0,0,171.33,138.7Z" style="fill:#407BFF"></path></g><g id="freepik--character-2--inject-143"><path d="M397.65,136.62s-8-1-9.34,10.07-5.11,12.18-3.83,18.1c1.58,7.36,9.62,6.9,14,4.68,1.72-.87,12.88,1.92,19.83-.36s7.34-9.36,2.65-15.64c-6-8.05-4.59-10.15-8.16-14.85C408.64,133.19,399.51,133,397.65,136.62Z" style="fill:#263238"></path><polygon points="387.17 420.11 384.55 430.88 378.88 430.88 378.63 420.11 387.17 420.11" style="fill:#ffb573"></polygon><path d="M362.42,438.49c.31-3.5,1.85-4.55,3.75-4.67s9.05-2.49,9.05-2.49,1.47-2.23,2.77-2.68,2.56.87,2.56.87l3.56-.43s1.07-1.6,1.8-.2c1.14,2.17,1,8.19.9,9.6Z" style="fill:#407BFF"></path><path d="M362.88,437.58l4.42,0,19.34-.1c.25,0,.2-.38-.05-.37h-1.3l0,0a3.58,3.58,0,0,1,1.32-5.09c.2-.12,0-.45-.23-.33a3.91,3.91,0,0,0-1.46,5.47l-2.72,0-19.34.1C362.59,437.21,362.64,437.58,362.88,437.58Z"></path><path d="M376.28,432.85c-1-1.19-2.47-1.52-3.54-.63-.17.14-.41-.18-.23-.32,1.22-1,2.93-.58,4.07.76.17.19-.13.38-.3.19Z" style="fill:#fff"></path><path d="M374.29,433.47c-1-1.18-2.48-1.51-3.55-.62-.17.14-.4-.18-.23-.32,1.23-1,2.93-.58,4.07.75.17.2-.13.39-.29.19Z" style="fill:#fff"></path><path d="M372.22,434.1c-1-1.18-2.48-1.51-3.55-.62-.17.14-.4-.18-.23-.33,1.23-1,2.94-.57,4.08.76.16.2-.14.39-.3.19Z" style="fill:#fff"></path><path d="M410.62,279.09A373.13,373.13,0,0,1,403.09,322q-1.79,7.88-4.06,16.79c4.17,34.46-12.16,84.25-12.16,84.25l-8.75-.2s-1.09-55.63-.06-84.76c1.68-47.72,7.31-95.78,7.31-95.78l24,2.5S413.49,252,410.62,279.09Z" style="fill:#263238"></path><path d="M410.62,279.09A373.13,373.13,0,0,1,403.09,322q-1.79,7.88-4.06,16.79c4.17,34.46-12.16,84.25-12.16,84.25l-8.75-.2s-1.09-55.63-.06-84.76c1.68-47.72,7.31-95.78,7.31-95.78l24,2.5S413.49,252,410.62,279.09Z" style="fill:#fff;opacity:0.1"></path><path d="M410.62,279.09A373.13,373.13,0,0,1,403.09,322c-5-19.08,4.06-59.82,4.06-59.82Z" style="opacity:0.2"></path><polygon points="377.12 424.93 376.84 421.19 388.51 421.19 387.85 424.93 377.12 424.93" style="fill:#263238"></polygon><polygon points="423.43 420.11 420.82 430.88 415.15 430.88 414.89 420.11 423.43 420.11" style="fill:#ffb573"></polygon><polygon points="413.18 424.93 412.9 421.19 424.57 421.19 423.91 424.93 413.18 424.93" style="fill:#263238"></polygon><path d="M398.69,438.49c.31-3.5,1.85-4.55,3.75-4.67s9-2.49,9-2.49,1.48-2.23,2.78-2.68,2.56.87,2.56.87l3.56-.43s1.06-1.6,1.8-.2c1.14,2.17,1,8.19.89,9.6Z" style="fill:#407BFF"></path><path d="M399.15,437.58l4.42,0,19.34-.1c.25,0,.2-.38-.05-.37h-1.31l0,0a3.57,3.57,0,0,1,1.32-5.09c.2-.12,0-.45-.23-.33a3.91,3.91,0,0,0-1.46,5.47l-2.73,0-19.33.1C398.85,437.21,398.9,437.58,399.15,437.58Z"></path><path d="M412.55,432.85c-1-1.19-2.47-1.52-3.54-.63-.18.14-.41-.18-.24-.32,1.23-1,2.94-.58,4.08.76.17.19-.13.38-.3.19Z" style="fill:#fff"></path><path d="M410.55,433.47a2.48,2.48,0,0,0-3.54-.62c-.18.14-.41-.18-.24-.32,1.23-1,2.94-.58,4.08.75.17.2-.13.39-.3.19Z" style="fill:#fff"></path><path d="M408.49,434.1c-1-1.18-2.48-1.51-3.55-.62-.17.14-.41-.18-.23-.33,1.23-1,2.93-.57,4.07.76.17.2-.13.39-.29.19Z" style="fill:#fff"></path><path d="M403.2,244.17s3.67,68.47,5.13,94.65c1.66,29.92,5.4,80.9,5.91,84.24h9c-1,1,11.61-44.76,6.51-82,4.78-35.63,6-66.85,1.24-101.21Z" style="fill:#263238"></path><path d="M403.2,244.17s3.67,68.47,5.13,94.65c1.66,29.92,5.4,80.9,5.91,84.24h9c-1,1,11.61-44.76,6.51-82,4.78-35.63,6-66.85,1.24-101.21Z" style="fill:#fff;opacity:0.1"></path><path d="M394.35,188.09c-5.45,4.37-11,8.58-16.66,12.65-2.83,2-5.71,4-8.67,6-1.51,1-2.95,1.94-4.74,3-.25.14-.43.26-.73.41l-.44.23-.21.11-.35.15-.36.16-.18.07-.24.09a7.24,7.24,0,0,1-1.3.31,5,5,0,0,1-1.4,0,6.44,6.44,0,0,1-1.55-.35l-.37-.14-.17-.07-.11-.05-.18-.1-.69-.4c-.67-.45-1.09-.78-1.49-1.1s-.76-.64-1.13-1c-2.79-2.49-5.27-4.9-7.76-7.39s-5-5.52-7.16-7.86c-4.7-5.16-8.73-9.9-13.32-15.16l3.35-4.35q8.1,6.52,16.07,13.19l7.95,6.6c2.41,2,4.83,4,7.18,5.79.82-.59,1.67-1.23,2.5-1.86,2.71-2,5.4-4.14,8.13-6.23,5.41-4.22,10.9-8.44,16.4-12.56Z" style="fill:#ffb573"></path><path d="M321.39,165.94s-1.52,2.67-1.23,4.34,3.17,3.12,3.17,3.12S322.68,168.33,321.39,165.94Z" style="fill:#ffb573"></path><path d="M321.39,165.94s-1.52,2.67-1.23,4.34,3.17,3.12,3.17,3.12S322.68,168.33,321.39,165.94Z" style="opacity:0.2"></path><path d="M321.08,168.76A12.72,12.72,0,0,1,323,173c-1.55.15-3.62-1.56-4.29-1.09s.58,1.79,2.71,3.51c.86.69.65,1.35,1.3,2.32a3.73,3.73,0,0,0,1.83,1.37,9,9,0,0,0,2.25.53c2-.27,4.33-4.09,4.33-4.09l-3.58-4.31s-3.29-3.93-4.84-4.92-5.29-4.86-5.76-4.2C316.27,163,318.73,166,321.08,168.76Z" style="fill:#ffb573"></path><path d="M387.27,175.58,372,187.26l9.54,14.16,11.09-6.55S390.26,178.8,387.27,175.58Z" style="fill:#407BFF"></path><path d="M387.27,175.58,372,187.26l9.54,14.16,11.09-6.55S390.26,178.8,387.27,175.58Z" style="opacity:0.2"></path><path d="M382.72,186.18c.34,9.23-6.86,14.53,1.73,21.15.75,7.7-2.81,22.16-.43,34.75a2.82,2.82,0,0,0,1.88,2.16c6.41,2.1,28.5,1.12,45.25-3a3,3,0,0,0,2.24-3.6c-2.52-11.51-3.85-30.23-.78-54a10.12,10.12,0,0,0-8.83-11.38c-1.58-.18-3.26-.34-5-.45a128.18,128.18,0,0,0-18.15-.29c-2,.15-4,.37-5.94.61a13.66,13.66,0,0,0-12,14" style="fill:#407BFF"></path><path d="M440.82,223.07c-3.05,4.14-6.41,8.29-9.71,12.38l4.27,4.47a123.58,123.58,0,0,0,12.42-10.84,63,63,0,0,0,5.74-6.47c.46-.61.92-1.25,1.36-2a16.49,16.49,0,0,0,1.31-2.47,10.7,10.7,0,0,0,.58-1.74,8.07,8.07,0,0,0,.23-2.71,9.93,9.93,0,0,0-.53-2.37,13.93,13.93,0,0,0-.6-1.49,33.94,33.94,0,0,0-2.45-4.23c-.82-1.24-1.66-2.41-2.5-3.54-1.72-2.25-3.45-4.41-5.25-6.49-3.59-4.17-7.27-8.11-11.25-11.93l-8.81,8.85,10.83,11.36c1.77,1.92,3.55,3.79,5.19,5.71.84.94,1.65,1.88,2.39,2.82a29,29,0,0,1,1.84,2.53l0,0c-.07.15-.13.31-.21.47-.21.44-.47.93-.74,1.43A70.26,70.26,0,0,1,440.82,223.07Z" style="fill:#ffb573"></path><path d="M433.46,232.41s-5.06.45-6.13,1.61,2,9.85,4.32,11S433,243.2,433,243.2a11.25,11.25,0,0,0,4.67-3.37C439.29,237.57,439.29,233.26,433.46,232.41Z" style="fill:#ffb573"></path><path d="M430.45,176l10.89,12.48L428,199.84l-9.7-10.51a9,9,0,0,1-1.71-9.22,8.7,8.7,0,0,1,2.41-3.34C423.57,172.82,430.45,176,430.45,176Z" style="fill:#407BFF"></path><path d="M430.45,176l10.89,12.48L428,199.84l-9.7-10.51a9,9,0,0,1-1.71-9.22,8.7,8.7,0,0,1,2.41-3.34C423.57,172.82,430.45,176,430.45,176Z" style="opacity:0.2"></path><path d="M399.46,172.18c0,.08-.08.17-.12.25-1.55,6.95,7.89,5.2,11.72-.83-2.54-3.39-3-9.3-2.45-13.58l-7.7,6.36-1.5,1.43a13.83,13.83,0,0,1,.67,3.25A5.43,5.43,0,0,1,399.46,172.18Z" style="fill:#ffb573"></path><g style="opacity:0.2"><path d="M400.08,169.06a13.83,13.83,0,0,0-.67-3.25l1.5-1.43,4-.09S403,168.15,400.08,169.06Z"></path></g><path d="M411.51,150c-1.05,7.72-1.39,9.7-5.53,13.39-6.23,5.55-15.24,3.89-16.47-4-1.11-7.09.79-18.52,8.47-21s14.58,3.92,13.53,11.64" style="fill:#ffb573"></path><path d="M399.87,141.79s-2.31,5.53-9.48,3.41c0,0,2.91-6.34,8.73-7.36s10.76,2.67,11.94,5.56a16.9,16.9,0,0,1,1,6.56,7.9,7.9,0,0,1-1,3.79h0S402.53,149.83,399.87,141.79Z" style="fill:#263238"></path><path d="M395.84,160.75c.66,0,1.19-.72,1.19-1.61s-.53-1.61-1.18-1.61-1.19.72-1.19,1.61S395.19,160.75,395.84,160.75Z" style="fill:#fff"></path><path d="M399.87,151.1c-.05.63-.42,1.12-.84,1.09s-.71-.57-.66-1.2.42-1.12.84-1.09.7.57.66,1.2" style="fill:#263238"></path><path d="M393.27,150.77c0,.63-.42,1.12-.83,1.09s-.71-.57-.66-1.2.42-1.12.83-1.09.71.57.66,1.2" style="fill:#263238"></path><path d="M392.79,149.62l-1.49-.55s.69,1.24,1.49.55" style="fill:#263238"></path><path d="M395.32,151.06s-1.22,1.6-2.51,3a1,1,0,0,0,.19,1.47,9.63,9.63,0,0,0,1.92.82Z" style="fill:#ed893e"></path><path d="M401.1,148.09a.36.36,0,0,1-.29,0,3,3,0,0,0-2.61.61.37.37,0,0,1-.53-.53,3.71,3.71,0,0,1,3.3-.8.38.38,0,0,1,.29.44.35.35,0,0,1-.16.23" style="fill:#263238"></path><path d="M390.88,147.15a.33.33,0,0,1-.11-.25.36.36,0,0,1,.36-.38,3.66,3.66,0,0,1,3.08,1.42.37.37,0,0,1-.09.52.38.38,0,0,1-.52-.1,3,3,0,0,0-2.45-1.1.32.32,0,0,1-.27-.11" style="fill:#263238"></path><path d="M399.39,150l-1.49-.55s.69,1.24,1.49.55" style="fill:#263238"></path><path d="M413.86,155.61a5,5,0,0,1-3.26,2.51c-1.76.35-2.47-1.6-1.84-3.49.56-1.69,2.16-3.91,3.86-3.41s2.16,2.76,1.24,4.39" style="fill:#ffb573"></path><path d="M410.26,158.9a1.28,1.28,0,1,0-.29-1.78A1.28,1.28,0,0,0,410.26,158.9Z" style="fill:#fff"></path></g><g id="freepik--character-1--inject-143"><polygon points="84.7 415.1 83.73 430.62 90.35 431.15 94.79 415.88 84.7 415.1" style="fill:#b55b52"></polygon><path d="M88.81,429.6a2.31,2.31,0,0,1,2.3-.82c1.28.42,3,2.53,3,2.53s7,2.24,8.86,2.36,3.12,1.32,3.27,4.82H82.49s0-8.23.8-9.65c.7-1.24,2.1.35,2.1.35Z" style="fill:#263238"></path><path d="M105.67,437.41l-4.11-.05-18-.18a.18.18,0,0,1,0-.36h1.21a.08.08,0,0,1,0,0A3.75,3.75,0,0,0,82.93,432a.18.18,0,0,1,.17-.31,4.12,4.12,0,0,1,2,5.18l2.54,0,18,.19A.18.18,0,0,1,105.67,437.41Z" style="fill:#fff"></path><path d="M93.27,432.75a2.21,2.21,0,0,1,3.26-.6c.18.14.36-.17.18-.3a2.56,2.56,0,0,0-3.75.72c-.13.18.18.36.31.18Z" style="fill:#fff"></path><path d="M95.24,433.34a2.21,2.21,0,0,1,3.26-.59c.18.13.36-.17.18-.31a2.58,2.58,0,0,0-3.75.72c-.13.19.18.36.31.18Z" style="fill:#fff"></path><path d="M97.27,433.93a2.22,2.22,0,0,1,3.26-.59c.18.14.36-.17.18-.3a2.57,2.57,0,0,0-3.75.71c-.13.19.18.37.31.18Z" style="fill:#fff"></path><polygon points="132.75 414.94 133.67 430.62 140.35 431.15 142.93 415.73 132.75 414.94" style="fill:#b55b52"></polygon><path d="M138.81,429.6a2.31,2.31,0,0,1,2.3-.82c1.29.42,3,2.53,3,2.53s7,2.24,8.86,2.36,3.53,1.17,4.24,4.82H134.33s-.9-8.24-1-9.65,2.09.35,2.09.35Z" style="fill:#263238"></path><path d="M156.5,437.41l-4.11-.05-18-.18a.18.18,0,0,1,0-.36h1.22a.08.08,0,0,1,0,0,3.75,3.75,0,0,0-1.85-4.82.18.18,0,0,1,.17-.31,4.12,4.12,0,0,1,2,5.18l2.54,0,18,.19A.18.18,0,0,1,156.5,437.41Z" style="fill:#fff"></path><path d="M143.27,432.75a2.22,2.22,0,0,1,3.26-.6c.19.14.36-.17.18-.3a2.56,2.56,0,0,0-3.75.72c-.13.18.18.36.31.18Z" style="fill:#fff"></path><path d="M145.24,433.34a2.21,2.21,0,0,1,3.26-.59c.18.13.36-.17.18-.31a2.58,2.58,0,0,0-3.75.72c-.13.19.18.36.31.18Z" style="fill:#fff"></path><path d="M147.27,433.93a2.22,2.22,0,0,1,3.26-.59c.19.14.36-.17.18-.3a2.56,2.56,0,0,0-3.74.71c-.14.19.17.37.3.18Z" style="fill:#fff"></path><path d="M152,327c-.27,23.93-8.07,93.59-8.07,93.59H131.1s-2.35-68.43-3.5-91.94c-.21-4.32-.6-9.49-1.11-15.11-1.15-12.7-2.88-27.68-4.43-40.16,0-.3-.07-.58-.1-.85-1.77-14.3-3.26-25.14-3.26-25.14l29.62,4.2S152.22,304,152,327Z" style="fill:#407BFF"></path><path d="M126.49,313.51c-1.15-12.7-2.88-27.68-4.43-40.16,0-.3-.07-.58-.1-.85l4.5-1.33A107.35,107.35,0,0,1,126.49,313.51Z" style="opacity:0.2"></path><path d="M130.14,416.69c0,1.38.12,4.13.12,4.13H145l.44-4.13Z" style="fill:#263238"></path><path d="M129.19,247.36s-3.88,57.71-8.06,79.31c-4.56,23.66-25.3,93.89-25.3,93.89H83.73S92.54,354.42,94.9,331c2.56-25.42,2-78.76,2-78.76Z" style="fill:#407BFF"></path><path d="M81.39,416.59c-.13,1.41-.35,4.23-.35,4.23H97.23l1-4.23Z" style="fill:#263238"></path><path d="M151.3,262.71c-11,4.15-39.84,4.62-59.24-.86,1.12-11.85,3.18-24.8,4.56-50.88q.33-6.14.49-12.49c0-.22,0-.44,0-.66.06-2.5.09-5,.09-7.56,0-4.66-.08-9.35-.29-14-.16-3.85,2.34-7.27,6.16-7.66,3.09-.31,6.82-.59,10.46-.6,6.64,0,16.22.23,22,1.09a27.93,27.93,0,0,1,8.71,2.7,7.68,7.68,0,0,1,3.83,4.6C150.37,183.79,152.07,214.06,151.3,262.71Z" style="fill:#263238"></path><path d="M105.84,186.08l-8.72,11.74c.06-2.5.09-5,.09-7.56Z" style="opacity:0.2"></path><path d="M128.75,130.69A14.54,14.54,0,0,0,117.66,134c-2,1.71-4.59,3.25-2.74,9.19a118,118,0,0,0,5.74,13.94l19.07-14.66s.1-6.12-3-9.15C135.16,131.74,131.7,131,128.75,130.69Z" style="fill:#263238"></path><path d="M125.14,131.12s4.13-4.87,5.8-4.5.5,1.94.5,1.94,2.93-3.18,4.89-2.37.28,2.62.28,2.62,3.87-1.81,4.53,0a1.82,1.82,0,0,1-1.3,2.38s4.77.81,4.27,2.69-2.84,1.68-2.84,1.68,2.45,2,1.15,3.06-4.31-1.56-4.31-1.56Z" style="fill:#263238"></path><path d="M131.83,162.8h0s0,.05,0,.08l-.52,3.81a11.91,11.91,0,0,0,.24,2.24,12.18,12.18,0,0,0,.49,1.75c.95,1,1.65,3.49-1.23,3.86-3.64.47-11-4-11.42-5.6,1.07-5.19,1.76-11.18.9-15.9l4.71,4Z" style="fill:#b55b52"></path><g style="opacity:0.2"><path d="M131.82,162.89l-.52,3.81c-2.41-.76-5.07-2.71-5.92-5.06-.59-1.71,0-3.44.69-3.62Z"></path></g><path d="M140.08,154q-.18,1.24-.42,2.46c-1.45,7.17-9.87,8.84-15.78,4.42,0,0,0,0,0,0a13.21,13.21,0,0,1-1.51-1.32c-3.9-4-3.48-7.51-3.92-15.28a10.6,10.6,0,0,1,14.67-10.51C140,136.61,141.26,145.72,140.08,154Z" style="fill:#b55b52"></path><path d="M133.37,157.13c.65,0,1.22-.65,1.27-1.54s-.43-1.64-1.08-1.67-1.23.65-1.28,1.53S132.71,157.09,133.37,157.13Z" style="fill:#fff"></path><path d="M130.77,147.69c0,.63.32,1.14.73,1.15s.74-.5.75-1.13-.31-1.14-.72-1.14-.75.49-.76,1.12" style="fill:#263238"></path><path d="M137.59,147.76c0,.63.32,1.14.73,1.14s.75-.49.76-1.12-.32-1.14-.73-1.15-.75.5-.76,1.13" style="fill:#263238"></path><path d="M118.43,145a6.69,6.69,0,0,1,2.34,3.41c.12.59.52.65.52.65l2.82.23s-1.72-7.49.29-7.65-.58-3.29.56-3.94c2.69-1.52,10.41-2.56,14,1.72a11.86,11.86,0,0,0-5.35-6.51c-4-2-11.43-1.6-14,2.4S118.43,145,118.43,145Z" style="fill:#263238"></path><path d="M115.07,149.45a7.38,7.38,0,0,0,3.52,4.41c2.28,1.24,4-.66,3.85-3.11-.14-2.21-1.49-5.51-4-5.74s-4,2.13-3.36,4.44" style="fill:#b55b52"></path><path d="M139.54,144.49a.33.33,0,0,1-.3.08,1.56,1.56,0,0,0-1.27.08,1.8,1.8,0,0,0-.76,1,.3.3,0,0,1-.37.22.31.31,0,0,1-.23-.37,2.46,2.46,0,0,1,1.06-1.4,2.19,2.19,0,0,1,1.74-.14.31.31,0,0,1,.21.38A.25.25,0,0,1,139.54,144.49Z" style="fill:#263238"></path><path d="M130.46,144.59a.31.31,0,0,0,.31,0,1.64,1.64,0,0,1,1.27,0,1.81,1.81,0,0,1,.83,1,.3.3,0,0,0,.39.19.31.31,0,0,0,.2-.39,2.54,2.54,0,0,0-1.16-1.32,2.23,2.23,0,0,0-1.74,0,.31.31,0,0,0-.19.4A.3.3,0,0,0,130.46,144.59Z" style="fill:#263238"></path><path d="M134.51,147.16a6.84,6.84,0,0,0,2,3.34C138.12,151.84,135,153,135,153Z" style="fill:#a02724"></path><path d="M134.19,184c2.6,6.95,5.45,13.67,8.51,20.41,1.54,3.36,3.12,6.72,4.85,10.07.86,1.67,1.75,3.35,2.69,5.05.41.71.81,1.41,1.26,2.14.6,1,1.23,2,2,3.08.43.61.86,1.21,1.45,1.92a15.67,15.67,0,0,0,1.1,1.23,12.43,12.43,0,0,0,1.32,1.15c.12.09.32.24.52.36s.4.25.61.38l.52.24,1,.43.25.11.55.2,1.46.51,1.37.43,2.7.82c3.57,1.07,7.11,2,10.65,2.93,7.11,1.8,14.24,3.42,21.45,4.79l2.34-7.28c-6.62-3.09-13.3-6-20-8.83l-9.94-4.21-2.41-1-1.18-.54-1.07-.51h0a9.66,9.66,0,0,1-.64-1c-.73-1.22-1.49-2.71-2.23-4.22s-1.49-3.09-2.2-4.69c-1.44-3.19-2.86-6.46-4.25-9.74l-8.29-19.84Zm31.46,33.55.08.05.1.07,0,0-.06,0Z" style="fill:#263238"></path><path d="M149.31,190.47c.81,5.75,2.18,31.12,2.18,31.12a.42.42,0,0,0,0,.07c.6,1,1.23,2,2,3.08.43.61.86,1.21,1.45,1.92C154.38,214.48,149.31,190.47,149.31,190.47Z" style="opacity:0.2"></path><path d="M198.94,233.77a7.29,7.29,0,0,1,4.42-2.2c2.42,0,4.34-.74,6.14-.66s-.11,1.59-1.29,2.19-2.52,1.28-1.93,2.09,8.48,4.38,9.17,5.6-.77,1.05-.77,1.05,1.76.81,1.74,1.76-1.29.78-1.29.78,1.16.58.65,1.36-7.3-1.09-7.65-1c0,0,4,.23,4.2,1.41s-2.43.8-4.51.53a9.32,9.32,0,0,1-5.66-2.79c-1.45-1.59-4.72-3.48-4.34-5.94A19.67,19.67,0,0,1,198.94,233.77Z" style="fill:#b55b52"></path><g style="opacity:0.2"><path d="M214.79,244.44c-2-.91-4.07-1.76-6.13-2.52a12.41,12.41,0,0,1-.77,1.55c-.15.24-.46-.08-.32-.32a12.28,12.28,0,0,0,1.61-5.09c0-.3.43-.2.4.1a11.53,11.53,0,0,1-.21,1.35.13.13,0,0,1,.12,0,21.54,21.54,0,0,1,4.79,2c.24.14.08.56-.16.42a21.32,21.32,0,0,0-4.69-2,.22.22,0,0,1-.13-.12,11.2,11.2,0,0,1-.48,1.65c2.06.77,4.1,1.6,6.13,2.53C215.2,244.14,215,244.55,214.79,244.44Z"></path></g><g style="opacity:0.2"><path d="M207.05,239.77a5.25,5.25,0,0,0-6.11-2.11c-.25.1-.4-.35-.15-.44a5.66,5.66,0,0,1,6.59,2.29C207.54,239.75,207.22,240,207.05,239.77Z"></path></g><path d="M131.22,167.46s3.76-.41,5.77,1.88c.8,2.81-1,6.16-2.89,9.53l-4.16-4.3C129.66,174.57,131.81,170.91,131.22,167.46Z" style="fill:#407BFF"></path><path d="M120,165.41c1.79,4.11,5.59,6.82,9.92,9.16l-2.35,4.3A34.14,34.14,0,0,1,113.07,168S117.26,164.31,120,165.41Z" style="fill:#407BFF"></path><path d="M129.83,180.79a.74.74,0,1,0,.73-.76A.74.74,0,0,0,129.83,180.79Z" style="fill:#407BFF"></path><path d="M129.91,185.64a.75.75,0,0,0,.76.72.73.73,0,0,0,.72-.75.74.74,0,0,0-.75-.73A.75.75,0,0,0,129.91,185.64Z" style="fill:#407BFF"></path><path d="M130,190.48a.75.75,0,1,0,.73-.75A.75.75,0,0,0,130,190.48Z" style="fill:#407BFF"></path><path d="M96.08,231.78l-4.7,6.46A158.18,158.18,0,0,1,73,226c-1.48-1.16-3-2.36-4.42-3.71a36.42,36.42,0,0,1-4.44-4.7A16.05,16.05,0,0,1,63,215.81,11.62,11.62,0,0,1,61.81,213a6.88,6.88,0,0,1-.22-1.1,7.79,7.79,0,0,1-.1-1.36c0-.22,0-.53,0-.82a8.74,8.74,0,0,1,.14-.87,8.05,8.05,0,0,1,.27-1l.16-.47.12-.26.24-.51.21-.37.2-.35.17-.28c.23-.38.42-.65.61-.94.76-1.05,1.4-1.86,2.06-2.64s1.29-1.51,1.92-2.23c2.56-2.82,5.13-5.42,7.71-8s5.2-5.08,7.87-7.51c5.31-4.92,10.69-9.68,16.33-14.23L110,182.44c-5.26,4.71-10.71,9.33-16.1,13.9l-8.06,6.87c-2.68,2.26-5.34,4.57-7.81,6.83-.6.55-1.19,1.1-1.73,1.62.43.58.92,1.18,1.41,1.76,1,1.22,2.17,2.47,3.34,3.71C85.72,222.08,91,227,96.08,231.78Z" style="fill:#263238"></path><path d="M92.49,228.39s7.62.44,9,1.42-3.06,9.81-5.24,11.47-1.72-1.64-1.72-1.64-3.78.36-5.9-1.64S86.68,230.39,92.49,228.39Z" style="fill:#b55b52"></path></g></svg>
