<svg version="1.1" id="Layer_1" xmlns="http://www.w3.org/2000/svg" xmlns:xlink="http://www.w3.org/1999/xlink" x="0px" y="0px"
	 width="100%" viewBox="0 0 666 375" enable-background="new 0 0 666 375" xml:space="preserve">
<path fill="#000000" opacity="1.000000" stroke="none" 
	d="
M385.000000,376.000000 
	C256.697357,376.000000 128.894684,376.000000 1.046014,376.000000 
	C1.046014,251.060684 1.046014,126.121353 1.046014,1.091008 
	C222.886017,1.091008 444.772064,1.091008 666.829102,1.091008 
	C666.829102,125.999817 666.829102,250.999878 666.829102,376.000000 
	C573.121277,376.000000 479.310638,376.000000 385.000000,376.000000 
M436.998932,255.992004 
	C436.998932,255.992004 436.970245,255.930054 436.217926,255.982925 
	C434.802063,256.366058 433.386169,256.749176 431.338257,257.001862 
	C430.912964,257.048065 430.487671,257.094238 429.345245,257.033844 
	C428.234222,257.400482 427.123199,257.767090 425.071991,258.020050 
	C402.044983,258.065521 379.018005,258.110992 355.063538,258.020782 
	C264.148834,258.014038 173.234161,258.002136 82.319489,258.049561 
	C80.942322,258.050293 79.565529,258.785583 78.018089,260.062439 
	C78.067223,268.650909 78.116364,277.239349 78.233910,286.720703 
	C80.052628,286.813416 81.871330,286.987000 83.690063,286.987305 
	C165.982834,287.000702 248.275589,286.988220 330.568359,287.002014 
	C403.364746,287.014221 476.161133,287.053741 548.989258,287.008789 
	C548.989258,287.008789 548.919434,287.045990 548.976501,287.931641 
	C548.977539,290.078033 548.911377,292.229584 549.075134,294.363464 
	C549.093079,294.597565 550.431641,294.730347 551.742188,294.703644 
	C552.839294,293.479309 553.936401,292.254944 555.000000,291.000000 
	C555.000000,291.000000 555.030518,291.033447 555.654602,290.811615 
	C557.383423,288.862183 559.112183,286.912750 561.144775,284.348724 
	C564.335754,281.815338 567.560425,279.322784 570.703979,276.731934 
	C572.356262,275.370087 574.375549,273.998749 571.949036,271.548553 
	C564.849304,264.379578 557.779846,257.180664 549.590698,248.869049 
	C549.295593,252.934708 549.112427,255.457764 548.005310,258.005920 
	C526.688477,257.967041 505.371643,257.928192 484.290985,257.241669 
	C484.876923,256.286285 485.362518,255.249146 486.064178,254.388077 
	C493.667480,245.057388 498.990173,234.355545 501.707275,222.856628 
	C505.402802,207.216995 505.485382,191.353531 499.980377,175.816605 
	C492.164368,153.757126 478.312286,136.970764 457.425140,126.150360 
	C454.185638,124.472145 451.015839,122.659416 447.959961,120.018684 
	C447.235596,105.280388 452.819519,92.838196 464.449768,84.473778 
	C478.915710,74.069939 494.839569,74.090584 510.365234,83.085136 
	C524.619873,91.343323 532.277222,113.957115 526.234680,129.288177 
	C525.978027,129.939270 525.495911,130.501495 524.953369,131.369888 
	C523.687073,130.008163 522.764282,129.015930 521.409790,127.559402 
	C520.813904,129.050354 520.204468,130.005585 520.061951,131.026031 
	C519.248108,136.853897 518.414673,142.686340 517.924011,148.545380 
	C517.834229,149.617462 519.278625,151.797287 520.039856,151.808792 
	C527.102356,151.915619 534.170349,151.659241 541.236755,151.508270 
	C537.994507,146.666687 538.220093,143.380463 540.241150,138.847473 
	C542.777771,133.158096 544.493652,126.699890 544.788452,120.489220 
	C545.684387,101.611473 538.835510,85.846695 524.124084,73.551094 
	C510.511383,62.173767 494.538971,59.210098 477.744965,61.215588 
	C465.858826,62.634987 455.681549,68.984421 447.161774,77.451103 
	C436.288849,88.256256 432.351318,102.026550 430.327454,117.190735 
	C427.998962,117.143578 425.667511,117.155067 423.342438,117.039497 
	C410.590271,116.405670 398.272858,117.813354 386.322510,122.908516 
	C373.552826,128.352997 362.046173,135.617294 353.430328,146.369919 
	C340.907471,161.998505 333.092133,179.712585 334.041626,200.995590 
	C329.993652,201.537750 326.080200,202.061890 322.166748,202.586029 
	C321.774261,203.085175 321.381805,203.584335 320.989319,204.083481 
	C330.530426,212.240128 340.071564,220.396774 349.767670,228.685928 
	C356.918640,221.019440 365.335663,211.995621 374.764984,201.886520 
	C369.516510,201.886520 365.835236,201.886520 361.827728,201.886520 
	C363.655457,188.385971 366.489685,176.360092 375.359589,165.707336 
	C384.388763,154.863312 395.705688,149.327942 408.652802,146.014069 
	C419.361206,143.273209 429.766724,145.112610 439.792175,149.347473 
	C452.121429,154.555527 461.786682,162.693527 468.317780,174.615265 
	C475.938843,188.526550 477.324127,203.018204 472.842865,217.988846 
	C470.156464,226.963501 465.798096,235.491577 458.647278,241.590256 
	C452.428467,246.894104 444.944611,250.714706 437.494049,255.106079 
	C437.308258,255.392059 437.122437,255.678040 436.998932,255.992004 
M622.625427,256.151703 
	C612.550903,256.101318 602.476257,256.027832 592.401855,256.045380 
	C591.614868,256.046753 590.828918,256.684052 589.203857,257.316193 
	C589.135925,266.062500 589.023071,274.808899 589.043457,283.555023 
	C589.046936,285.038788 589.622437,286.521210 590.194580,288.702423 
	C590.785950,288.965668 591.380981,289.465942 591.968140,289.456909 
	C602.288269,289.297729 612.607422,289.076355 623.807129,288.703186 
	C623.876404,278.756805 623.965149,268.810425 623.969543,258.864014 
	C623.969849,258.229156 623.316467,257.594025 622.625427,256.151703 
M399.581329,306.115021 
	C389.535583,306.076843 379.489746,306.016449 369.444183,306.042297 
	C368.634155,306.044403 367.825653,306.639404 366.210205,307.329803 
	C366.134003,317.094879 366.013153,326.860229 366.069702,336.624542 
	C366.074036,337.374969 367.329010,338.118164 368.724670,339.043854 
	C376.801208,339.191315 384.878510,339.461731 392.953888,339.414520 
	C395.516449,339.399536 398.074066,338.538116 401.018799,337.179932 
	C401.032196,328.393433 401.089386,319.606506 401.011902,310.820831 
	C401.000244,309.502197 400.358276,308.189117 399.581329,306.115021 
M26.008131,257.942230 
	C26.001881,267.003387 25.956179,276.064880 26.034840,285.125305 
	C26.045776,286.384949 26.669744,287.639282 27.938337,289.023712 
	C37.505314,289.214417 47.071712,289.468872 56.639633,289.555939 
	C59.410698,289.581177 61.229168,288.389648 61.003902,285.069550 
	C60.548874,278.363037 60.282623,271.643219 59.981873,264.926971 
	C59.864155,262.298126 59.862942,259.664093 59.630180,256.168335 
	C49.069660,256.113129 38.509132,256.041260 27.948641,256.046722 
	C27.353540,256.047028 26.758768,256.683411 26.008131,257.942230 
z"/>
<path fill="#5472FC" opacity="1.000000" stroke="none" 
	d="
M447.813782,120.908905 
	C451.015839,122.659416 454.185638,124.472145 457.425140,126.150360 
	C478.312286,136.970764 492.164368,153.757126 499.980377,175.816605 
	C505.485382,191.353531 505.402802,207.216995 501.707275,222.856628 
	C498.990173,234.355545 493.667480,245.057388 486.064178,254.388077 
	C485.362518,255.249146 484.876923,256.286285 483.879272,257.614716 
	C483.179474,258.096069 482.891388,258.204407 482.603333,258.312744 
	C483.084808,258.592438 483.566315,258.872101 484.359009,259.416840 
	C505.398102,259.781982 526.125977,259.892487 546.854004,259.938263 
	C547.566345,259.939850 548.280151,259.293060 548.984009,258.706116 
	C548.974792,258.463776 548.929321,257.980835 548.929321,257.980835 
	C549.112427,255.457764 549.295593,252.934708 549.590698,248.869049 
	C557.779846,257.180664 564.849304,264.379578 571.949036,271.548553 
	C574.375549,273.998749 572.356262,275.370087 570.703979,276.731934 
	C567.560425,279.322784 564.335754,281.815338 560.632080,284.671387 
	C556.922241,285.742523 554.919250,287.497253 555.030518,291.033447 
	C555.030518,291.033447 555.000000,291.000000 554.663208,290.998291 
	C553.298279,291.062256 552.270264,291.127930 551.542969,291.174408 
	C550.994995,289.552094 550.558044,288.258698 549.816406,286.921051 
	C549.314209,286.933197 549.116821,286.989594 548.919434,287.045990 
	C548.919434,287.045990 548.989258,287.008789 549.041504,286.747620 
	C549.063293,286.285370 549.032776,286.084259 548.690674,285.612030 
	C546.396851,285.226044 544.414795,285.010834 542.432678,285.010620 
	C390.495605,284.995026 238.558502,284.996735 86.621422,284.992920 
	C84.123032,284.992859 81.624641,284.941223 79.098480,284.592285 
	C79.069908,283.840851 79.069099,283.410858 79.348312,282.678406 
	C79.446045,275.921356 79.263741,269.466827 79.061989,262.644958 
	C79.078491,261.546234 79.114441,260.814819 79.609146,260.062378 
	C170.850952,260.027039 261.634003,260.011902 352.417053,259.999023 
	C376.070679,259.995636 399.724915,260.075806 423.376831,259.875092 
	C425.612915,259.856140 427.834198,258.093506 430.062378,257.140442 
	C430.487671,257.094238 430.912964,257.048065 431.897949,257.307556 
	C433.961853,257.052185 435.466064,256.491119 436.970245,255.930054 
	C436.970245,255.930054 436.998932,255.992004 437.191040,255.918182 
	C437.666901,255.696152 437.879120,255.478287 438.019806,255.190765 
	C444.944611,250.714706 452.428467,246.894104 458.647278,241.590256 
	C465.798096,235.491577 470.156464,226.963501 472.842865,217.988846 
	C477.324127,203.018204 475.938843,188.526550 468.317780,174.615265 
	C461.786682,162.693527 452.121429,154.555527 439.792175,149.347473 
	C429.766724,145.112610 419.361206,143.273209 408.652802,146.014069 
	C395.705688,149.327942 384.388763,154.863312 375.359589,165.707336 
	C366.489685,176.360092 363.655457,188.385971 361.827728,201.886520 
	C365.835236,201.886520 369.516510,201.886520 374.764984,201.886520 
	C365.335663,211.995621 356.918640,221.019440 349.767670,228.685928 
	C340.071564,220.396774 330.530426,212.240128 320.989319,204.083481 
	C321.381805,203.584335 321.774261,203.085175 322.166748,202.586029 
	C326.080200,202.061890 329.993652,201.537750 334.041626,200.995590 
	C333.092133,179.712585 340.907471,161.998505 353.430328,146.369919 
	C362.046173,135.617294 373.552826,128.352997 386.322510,122.908516 
	C398.272858,117.813354 410.590271,116.405670 423.342438,117.039497 
	C425.667511,117.155067 427.998962,117.143578 431.052521,117.093323 
	C437.122986,118.300240 442.468384,119.604576 447.813782,120.908905 
z"/>
<path fill="#15BEDB" opacity="1.000000" stroke="none" 
	d="
M447.886871,120.463791 
	C442.468384,119.604576 437.122986,118.300240 431.408325,116.904175 
	C432.351318,102.026550 436.288849,88.256256 447.161774,77.451103 
	C455.681549,68.984421 465.858826,62.634987 477.744965,61.215588 
	C494.538971,59.210098 510.511383,62.173767 524.124084,73.551094 
	C538.835510,85.846695 545.684387,101.611473 544.788452,120.489220 
	C544.493652,126.699890 542.777771,133.158096 540.241150,138.847473 
	C538.220093,143.380463 537.994507,146.666687 541.236755,151.508270 
	C534.170349,151.659241 527.102356,151.915619 520.039856,151.808792 
	C519.278625,151.797287 517.834229,149.617462 517.924011,148.545380 
	C518.414673,142.686340 519.248108,136.853897 520.061951,131.026031 
	C520.204468,130.005585 520.813904,129.050354 521.409790,127.559402 
	C522.764282,129.015930 523.687073,130.008163 524.953369,131.369888 
	C525.495911,130.501495 525.978027,129.939270 526.234680,129.288177 
	C532.277222,113.957115 524.619873,91.343323 510.365234,83.085136 
	C494.839569,74.090584 478.915710,74.069939 464.449768,84.473778 
	C452.819519,92.838196 447.235596,105.280388 447.886871,120.463791 
z"/>
<path fill="#B1C2FA" opacity="1.000000" stroke="none" 
	d="
M549.002319,285.883148 
	C549.032776,286.084259 549.063293,286.285370 549.025635,286.783813 
	C476.161133,287.053741 403.364746,287.014221 330.568359,287.002014 
	C248.275589,286.988220 165.982834,287.000702 83.690063,286.987305 
	C81.871330,286.987000 80.052628,286.813416 78.421165,286.268555 
	C78.608421,285.816437 79.049110,285.763306 79.507751,285.853943 
	C82.130493,285.964325 84.294609,286.001404 86.458717,286.001282 
	C195.185730,285.995239 303.912750,285.993927 412.639771,285.973328 
	C458.093964,285.964722 503.548126,285.914459 549.002319,285.883148 
z"/>
<path fill="#5972E1" opacity="1.000000" stroke="none" 
	d="
M429.703796,257.087128 
	C427.834198,258.093506 425.612915,259.856140 423.376831,259.875092 
	C399.724915,260.075806 376.070679,259.995636 352.417053,259.999023 
	C261.634003,260.011902 170.850952,260.027039 79.566498,259.857239 
	C79.065086,259.673157 79.029869,259.257812 79.487686,259.162476 
	C148.659073,259.046021 217.372650,259.032471 286.086212,258.999634 
	C309.377808,258.988495 332.669373,258.928650 356.430054,258.946716 
	C377.695099,259.022644 398.491089,259.071289 419.286865,259.022095 
	C421.529297,259.016785 423.770447,258.443512 426.012177,258.133728 
	C427.123199,257.767090 428.234222,257.400482 429.703796,257.087128 
z"/>
<path fill="#D0DCFF" opacity="1.000000" stroke="none" 
	d="
M355.960968,258.891052 
	C332.669373,258.928650 309.377808,258.988495 286.086212,258.999634 
	C217.372650,259.032471 148.659073,259.046021 79.280472,259.111511 
	C78.615433,259.155945 78.188553,259.178040 78.188553,259.178040 
	C79.565529,258.785583 80.942322,258.050293 82.319489,258.049561 
	C173.234161,258.002136 264.148834,258.014038 355.524078,258.272461 
	C355.984619,258.524139 355.960968,258.891052 355.960968,258.891052 
z"/>
<path fill="#76D2E5" opacity="1.000000" stroke="none" 
	d="
M59.808670,257.032410 
	C59.862942,259.664093 59.864155,262.298126 59.981873,264.926971 
	C60.282623,271.643219 60.548874,278.363037 61.003902,285.069550 
	C61.229168,288.389648 59.410698,289.581177 56.639633,289.555939 
	C47.071712,289.468872 37.505314,289.214417 27.522236,288.669922 
	C27.145611,288.124176 27.185087,287.932220 27.672329,287.799713 
	C36.882557,287.876038 45.651474,287.701782 54.404530,287.997284 
	C58.278446,288.128113 59.208248,286.720520 59.061363,283.139984 
	C58.810822,277.032745 59.094917,270.905304 58.945457,264.791443 
	C58.882610,262.220490 58.287811,259.662598 58.241367,257.020386 
	C58.968159,256.972107 59.388416,257.002258 59.808670,257.032410 
z"/>
<path fill="#B1C2FA" opacity="1.000000" stroke="none" 
	d="
M356.430054,258.946716 
	C355.960968,258.891052 355.984619,258.524139 355.987793,258.340332 
	C379.018005,258.110992 402.044983,258.065521 425.542084,258.076904 
	C423.770447,258.443512 421.529297,259.016785 419.286865,259.022095 
	C398.491089,259.071289 377.695099,259.022644 356.430054,258.946716 
z"/>
<path fill="#D0DCFF" opacity="1.000000" stroke="none" 
	d="
M548.467285,257.993378 
	C548.929321,257.980835 548.974792,258.463776 548.516113,258.725830 
	C526.720947,259.042511 505.384369,259.097137 484.047791,259.151794 
	C483.566315,258.872101 483.084808,258.592438 482.603333,258.312744 
	C482.891388,258.204407 483.179474,258.096069 483.761169,257.938538 
	C505.371643,257.928192 526.688477,257.967041 548.467285,257.993378 
z"/>
<path fill="#6EA8F0" opacity="1.000000" stroke="none" 
	d="
M400.633942,338.064026 
	C398.074066,338.538116 395.516449,339.399536 392.953888,339.414520 
	C384.878510,339.461731 376.801208,339.191315 368.387177,338.761810 
	C368.049683,338.479767 368.070892,338.092468 368.527466,338.035034 
	C379.222137,337.930847 389.460236,337.884125 399.933136,337.890442 
	C400.167908,337.943420 400.633942,338.064026 400.633942,338.064026 
z"/>
<path fill="#FFFFFF" opacity="1.000000" stroke="none" 
	d="
M59.719425,256.600372 
	C59.388416,257.002258 58.968159,256.972107 57.778412,257.000488 
	C47.052368,257.097870 37.095818,257.136780 26.898224,257.119690 
	C26.657179,257.063660 26.163849,257.023743 26.163847,257.023743 
	C26.758768,256.683411 27.353540,256.047028 27.948641,256.046722 
	C38.509132,256.041260 49.069660,256.113129 59.719425,256.600372 
z"/>
<path fill="#76D2E5" opacity="1.000000" stroke="none" 
	d="
M622.926819,288.868500 
	C612.607422,289.076355 602.288269,289.297729 591.968140,289.456909 
	C591.380981,289.465942 590.785950,288.965668 590.072021,288.328064 
	C589.949524,287.953674 589.998108,287.932312 590.466248,287.902161 
	C601.527100,287.840454 612.119873,287.808868 622.777100,288.047943 
	C622.870117,288.501892 622.898499,288.685181 622.926819,288.868500 
z"/>
<path fill="#FFFFFF" opacity="1.000000" stroke="none" 
	d="
M367.016449,306.958923 
	C367.825653,306.639404 368.634155,306.044403 369.444183,306.042297 
	C379.489746,306.016449 389.535583,306.076843 399.767151,306.517059 
	C399.952942,306.919098 399.937042,306.988312 399.473816,307.027039 
	C388.356598,307.038818 377.702576,307.011902 367.038666,306.981567 
	C367.028748,306.978149 367.016449,306.958923 367.016449,306.958923 
z"/>
<path fill="#B1C2FA" opacity="1.000000" stroke="none" 
	d="
M368.070862,338.092468 
	C368.070892,338.092468 368.049683,338.479767 368.026184,338.672241 
	C367.329010,338.118164 366.074036,337.374969 366.069702,336.624542 
	C366.013153,326.860229 366.134003,317.094879 366.613342,307.144348 
	C367.016449,306.958923 367.028748,306.978149 367.035492,307.451294 
	C367.036560,316.294098 366.974091,324.664368 367.072693,333.032776 
	C367.092621,334.723022 367.722321,336.406097 368.070862,338.092468 
z"/>
<path fill="#FFFFFF" opacity="1.000000" stroke="none" 
	d="
M590.042480,257.025818 
	C590.828918,256.684052 591.614868,256.046753 592.401855,256.045380 
	C602.476257,256.027832 612.550903,256.101318 622.803467,256.568542 
	C622.981506,256.985382 622.963440,256.984070 622.498230,257.018799 
	C611.360107,257.040741 600.687195,257.027954 590.019043,257.012817 
	C590.023804,257.010468 590.042480,257.025787 590.042480,257.025818 
z"/>
<path fill="#D0DCFF" opacity="1.000000" stroke="none" 
	d="
M623.366943,288.785828 
	C622.898499,288.685181 622.870117,288.501892 622.858459,287.602722 
	C622.904663,276.919281 622.934082,266.951660 622.963501,256.984070 
	C622.963440,256.984070 622.981506,256.985382 622.974365,256.972198 
	C623.316467,257.594025 623.969849,258.229156 623.969543,258.864014 
	C623.965149,268.810425 623.876404,278.756805 623.366943,288.785828 
z"/>
<path fill="#B1C2FA" opacity="1.000000" stroke="none" 
	d="
M26.085991,257.482971 
	C26.163849,257.023743 26.657179,257.063660 26.857758,257.573669 
	C27.113745,267.969177 27.169155,277.854706 27.224566,287.740234 
	C27.185087,287.932220 27.145611,288.124176 27.058031,288.606079 
	C26.669744,287.639282 26.045776,286.384949 26.034840,285.125305 
	C25.956179,276.064880 26.001881,267.003387 26.085991,257.482971 
z"/>
<path fill="#FFFFFF" opacity="1.000000" stroke="none" 
	d="
M589.941589,287.978973 
	C589.622437,286.521210 589.046936,285.038788 589.043457,283.555023 
	C589.023071,274.808899 589.135925,266.062500 589.623169,257.170990 
	C590.042480,257.025787 590.023804,257.010468 590.014526,257.480591 
	C590.002869,267.944580 590.000488,277.938446 589.998108,287.932312 
	C589.998108,287.932312 589.949524,287.953674 589.941589,287.978973 
z"/>
<path fill="#76D2E5" opacity="1.000000" stroke="none" 
	d="
M400.826355,337.621979 
	C400.633942,338.064026 400.167908,337.943420 399.996521,337.441528 
	C399.862457,326.955872 399.899750,316.972076 399.937042,306.988312 
	C399.937042,306.988312 399.952942,306.919098 399.980408,306.896271 
	C400.358276,308.189117 401.000244,309.502197 401.011902,310.820831 
	C401.089386,319.606506 401.032196,328.393433 400.826355,337.621979 
z"/>
<path fill="#6EA8F0" opacity="1.000000" stroke="none" 
	d="
M78.103317,259.620239 
	C78.188553,259.178040 78.615433,259.155945 78.822647,259.206879 
	C79.029869,259.257812 79.065086,259.673157 79.107742,259.878296 
	C79.114441,260.814819 79.078491,261.546234 79.035233,263.110870 
	C79.041382,270.289703 79.054840,276.635284 79.068283,282.980865 
	C79.069099,283.410858 79.069908,283.840851 79.063362,284.803802 
	C79.056007,285.336761 79.049110,285.763306 79.049110,285.763306 
	C79.049110,285.763306 78.608421,285.816437 78.386963,285.822144 
	C78.116364,277.239349 78.067223,268.650909 78.103317,259.620239 
z"/>
<path fill="#5972E1" opacity="1.000000" stroke="none" 
	d="
M550.121155,286.965302 
	C550.558044,288.258698 550.994995,289.552094 551.542969,291.174408 
	C552.270264,291.127930 553.298279,291.062256 554.679932,291.013611 
	C553.936401,292.254944 552.839294,293.479309 551.109741,294.592102 
	C550.358582,291.975464 550.239868,289.470367 550.121155,286.965302 
z"/>
<path fill="#5972E1" opacity="1.000000" stroke="none" 
	d="
M555.342529,290.922546 
	C554.919250,287.497253 556.922241,285.742523 560.480225,284.978668 
	C559.112183,286.912750 557.383423,288.862183 555.342529,290.922546 
z"/>
<path fill="#B1C2FA" opacity="1.000000" stroke="none" 
	d="
M549.816406,286.921051 
	C550.239868,289.470367 550.358582,291.975464 550.817505,294.695312 
	C550.431641,294.730347 549.093079,294.597565 549.075134,294.363464 
	C548.911377,292.229584 548.977539,290.078033 548.947998,287.488831 
	C549.116821,286.989594 549.314209,286.933197 549.816406,286.921051 
z"/>
<path fill="#5972E1" opacity="1.000000" stroke="none" 
	d="
M436.594086,255.956497 
	C435.466064,256.491119 433.961853,257.052185 432.213989,257.372803 
	C433.386169,256.749176 434.802063,256.366058 436.594086,255.956497 
z"/>
<path fill="#5972E1" opacity="1.000000" stroke="none" 
	d="
M437.756927,255.148422 
	C437.879120,255.478287 437.666901,255.696152 437.159912,255.904190 
	C437.122437,255.678040 437.308258,255.392059 437.756927,255.148422 
z"/>
<path fill="#5972E1" opacity="1.000000" stroke="none" 
	d="
M79.507751,285.853943 
	C79.049110,285.763306 79.056007,285.336761 79.091125,285.125244 
	C81.624641,284.941223 84.123032,284.992859 86.621422,284.992920 
	C238.558502,284.996735 390.495605,284.995026 542.432678,285.010620 
	C544.414795,285.010834 546.396851,285.226044 548.690674,285.612030 
	C503.548126,285.914459 458.093964,285.964722 412.639771,285.973328 
	C303.912750,285.993927 195.185730,285.995239 86.458717,286.001282 
	C84.294609,286.001404 82.130493,285.964325 79.507751,285.853943 
z"/>
<path fill="#5972E1" opacity="1.000000" stroke="none" 
	d="
M484.359009,259.416840 
	C505.384369,259.097137 526.720947,259.042511 548.525391,258.968170 
	C548.280151,259.293060 547.566345,259.939850 546.854004,259.938263 
	C526.125977,259.892487 505.398102,259.781982 484.359009,259.416840 
z"/>
<path fill="#5972E1" opacity="1.000000" stroke="none" 
	d="
M79.348312,282.678406 
	C79.054840,276.635284 79.041382,270.289703 79.054688,263.478210 
	C79.263741,269.466827 79.446045,275.921356 79.348312,282.678406 
z"/>
<path fill="#0FBFDD" opacity="1.000000" stroke="none" 
	d="
M27.672329,287.799713 
	C27.169155,277.854706 27.113745,267.969177 27.098801,257.629700 
	C37.095818,257.136780 47.052368,257.097870 57.471878,257.078857 
	C58.287811,259.662598 58.882610,262.220490 58.945457,264.791443 
	C59.094917,270.905304 58.810822,277.032745 59.061363,283.139984 
	C59.208248,286.720520 58.278446,288.128113 54.404530,287.997284 
	C45.651474,287.701782 36.882557,287.876038 27.672329,287.799713 
z"/>
<path fill="#11BFDD" opacity="1.000000" stroke="none" 
	d="
M399.473816,307.027039 
	C399.899750,316.972076 399.862457,326.955872 399.761749,337.388550 
	C389.460236,337.884125 379.222137,337.930847 368.527435,338.035034 
	C367.722321,336.406097 367.092621,334.723022 367.072693,333.032776 
	C366.974091,324.664368 367.036560,316.294098 367.045410,307.454742 
	C377.702576,307.011902 388.356598,307.038818 399.473816,307.027039 
z"/>
<path fill="#11BFDD" opacity="1.000000" stroke="none" 
	d="
M590.466248,287.902161 
	C590.000488,277.938446 590.002869,267.944580 590.009766,257.482910 
	C600.687195,257.027954 611.360107,257.040741 622.498291,257.018799 
	C622.934082,266.951660 622.904663,276.919281 622.793945,287.332092 
	C612.119873,287.808868 601.527100,287.840454 590.466248,287.902161 
z"/>
</svg>