<svg xmlns="http://www.w3.org/2000/svg" viewBox="0 0 750 500"><g id="freepik--Floor--inject-64"><path d="M701.47,460.68s.87,0,2.67,0l8.32,0v.13l-333.12.19L136,460.87l-73.74-.08-20-.05-5.22,0-1.77,0,1.77,0,5.22,0,20-.05L136,460.5l243.35-.08,333.12.2v.13l-8.32,0C702.34,460.71,701.47,460.68,701.47,460.68Z" style="fill:#263238"></path></g><g id="freepik--Plant--inject-64"><path d="M656.86,426.49s-4.91-33.74-4.5-53.36,0-41.71,0-41.71h2.27s-1.54,39,.13,62.45,6,32.62,6,32.62h-3.92" style="fill:#263238"></path><path d="M671.47,293.47a6,6,0,0,0-2.06-3c-1.43-.91-3.31-.53-4.91,0-6.84,2.41-12.89,15.15-15.65,21.85l9.07,30.56C674.29,327.71,677.12,307.79,671.47,293.47Z" style="fill:#455a64"></path><path d="M668.88,291.69a1.83,1.83,0,0,1-.13.4c-.12.29-.26.66-.44,1.11-.4,1-1,2.36-1.63,4.1-1.33,3.47-3,8.32-4.55,13.78s-2.56,10.51-3.21,14.17c-.32,1.83-.56,3.32-.72,4.35-.08.48-.14.87-.19,1.18a2.39,2.39,0,0,1-.09.41,1.35,1.35,0,0,1,0-.42c0-.31.08-.71.13-1.19.11-1,.31-2.53.6-4.37A131.7,131.7,0,0,1,661.77,311a130,130,0,0,1,4.67-13.78c.7-1.73,1.29-3.11,1.73-4.06l.51-1.08A1.65,1.65,0,0,1,668.88,291.69Z" style="fill:#263238"></path><path d="M653.89,350.23c-8.51-4.7-13.52-13.54-14-23.24-.33-6.78,1.75-13.43,4.11-19.8a2.57,2.57,0,0,1,1-1.44,2.45,2.45,0,0,1,2.31.36c6.18,3.52,9.92,10.23,11.91,17.05a34.21,34.21,0,0,1,1.4,14,23.31,23.31,0,0,1-6.72,13.05" style="fill:#455a64"></path><path d="M653.89,350.23a1.2,1.2,0,0,1,0-.41c0-.31,0-.7,0-1.18,0-1,0-2.49-.13-4.3a116.63,116.63,0,0,0-1.58-14.12c-.94-5.47-2.08-10.38-2.93-13.92-.41-1.73-.75-3.15-1-4.19-.11-.47-.19-.85-.26-1.15a.2.2,0,1,1,.07,0c.09.3.2.67.33,1.13.28,1,.66,2.4,1.12,4.17.91,3.53,2.1,8.43,3,13.92A103.91,103.91,0,0,1,654,344.33c0,1.82,0,3.3,0,4.31,0,.48,0,.87-.05,1.18A2.64,2.64,0,0,1,653.89,350.23Z" style="fill:#263238"></path><g style="opacity:0.30000000000000004"><path d="M653.89,350.23c-8.51-4.7-13.52-13.54-14-23.24-.33-6.78,1.75-13.43,4.11-19.8a2.57,2.57,0,0,1,1-1.44,2.45,2.45,0,0,1,2.31.36c6.18,3.52,9.92,10.23,11.91,17.05a34.21,34.21,0,0,1,1.4,14,23.31,23.31,0,0,1-6.72,13.05"></path></g><path d="M663.48,401.84c8.36,1.84,15.25,7.74,23.32,10.61,5.34,1.9,11.38,2.57,15.65,6.3-1-2.58-3.45-4.3-5.81-5.77a104.15,104.15,0,0,0-21.14-10.1c-3.8-1.31-7.92-2.4-11.79-1.32" style="fill:#455a64"></path><path d="M651.38,409.29c-10.48-.17-21.51-9.09-31.94-9.62,10.91-3.52,26.54-.64,31.94,9.62" style="fill:#455a64"></path><path d="M655.47,384.16A34.1,34.1,0,0,1,672.23,383a102.7,102.7,0,0,1,16.35,4.44c-.54-3.63-3.48-6.37-6.25-8.79a43.23,43.23,0,0,0-6.57-5,14.62,14.62,0,0,0-7.87-2.23,12.49,12.49,0,0,0-8.69,4.39,14.45,14.45,0,0,0-3.73,8.37" style="fill:#455a64"></path><path d="M634,372.59c-6.6-5.63-16.59-5.08-25.26-4.89a206.06,206.06,0,0,1,39.17,24.41C648.24,386,642.3,379.7,634,372.59Z" style="fill:#455a64"></path><g style="opacity:0.30000000000000004"><path d="M634,372.59c-6.6-5.63-16.59-5.08-25.26-4.89a206.06,206.06,0,0,1,39.17,24.41C648.24,386,642.3,379.7,634,372.59Z"></path></g><path d="M658.44,364.82a73.09,73.09,0,0,1,10.14-5.9c3.48-1.58,6.71-4.09,10.07-5.91,4.35-2.35,8.11-5.62,12.1-8.54s8.38-5.55,13.26-6.33a26.09,26.09,0,0,0-12.06.7,77.64,77.64,0,0,0-11.36,4.42c-5.15,2.32-10.38,4.69-14.59,8.45s-8,7.48-7.56,13.11" style="fill:#455a64"></path><path d="M686.61,409.29a1.69,1.69,0,0,1-.33-.14l-.91-.47c-.79-.42-1.93-1.05-3.35-1.76-.71-.38-1.49-.77-2.34-1.16s-1.75-.83-2.72-1.25a39.92,39.92,0,0,0-6.45-2.25,13.86,13.86,0,0,0-6.72-.17,19.15,19.15,0,0,0-2.85.85,14.63,14.63,0,0,0-5.19,3.57c-.61.65-.9,1.05-.93,1a1.37,1.37,0,0,1,.19-.31,8.38,8.38,0,0,1,.63-.82,13.58,13.58,0,0,1,2.86-2.51,14,14,0,0,1,2.32-1.24,17.81,17.81,0,0,1,2.89-.9,13.88,13.88,0,0,1,6.88.14,38.12,38.12,0,0,1,6.51,2.29c1,.43,1.88.86,2.72,1.29s1.62.81,2.32,1.2c1.42.75,2.53,1.41,3.3,1.87l.88.53C686.52,409.21,686.62,409.28,686.61,409.29Z" style="fill:#263238"></path><path d="M643.56,404.1a2.86,2.86,0,0,1,.66.19,14.64,14.64,0,0,1,1.71.74,21.08,21.08,0,0,1,5,3.55,20.63,20.63,0,0,1,3.75,4.87,14.87,14.87,0,0,1,.81,1.67,2.35,2.35,0,0,1,.22.65c-.06,0-.45-.86-1.26-2.19a24,24,0,0,0-3.77-4.73,23.77,23.77,0,0,0-4.88-3.58C644.44,404.52,643.54,404.16,643.56,404.1Z" style="fill:#263238"></path><path d="M620.38,372.06a3.09,3.09,0,0,1,.45.13l1.26.45,2,.73c.77.29,1.61.71,2.56,1.13a61.11,61.11,0,0,1,13.64,8.69,67.65,67.65,0,0,1,6.36,6.27,70.8,70.8,0,0,1,4.52,5.72c1.19,1.69,2.1,3.1,2.72,4.08.3.46.53.84.72,1.12a2.19,2.19,0,0,1,.23.41,2.23,2.23,0,0,1-.29-.36c-.19-.25-.45-.61-.78-1.09-.66-.95-1.6-2.34-2.82-4s-2.75-3.59-4.56-5.64a68.25,68.25,0,0,0-6.34-6.21,64,64,0,0,0-13.51-8.74c-.94-.43-1.77-.87-2.53-1.17l-2-.79-1.23-.51A2.12,2.12,0,0,1,620.38,372.06Z" style="fill:#263238"></path><path d="M671.2,378.27a4.5,4.5,0,0,1-.84-.11l-1-.18c-.38-.07-.81-.07-1.29-.12a13.17,13.17,0,0,0-7.2,1.42,13,13,0,0,0-3.28,2.43,14.37,14.37,0,0,0-2.1,2.61,21,21,0,0,0-1.44,2.75,2.68,2.68,0,0,1,.21-.82,11.63,11.63,0,0,1,1-2.07,14.14,14.14,0,0,1,2.09-2.71,12.91,12.91,0,0,1,3.35-2.52,12.71,12.71,0,0,1,7.39-1.35,10.21,10.21,0,0,1,1.3.18l1,.24A3.63,3.63,0,0,1,671.2,378.27Z" style="fill:#263238"></path><path d="M681.73,345.6a2.93,2.93,0,0,1-.4.24l-1.17.64c-1,.55-2.48,1.35-4.26,2.4s-3.85,2.37-6.07,3.95a51,51,0,0,0-6.77,5.68,17.19,17.19,0,0,0-2.77,3.59c-.69,1.32-1.35,2.59-1.95,3.81a69.92,69.92,0,0,0-2.91,6.63,41.43,41.43,0,0,0-1.42,4.67c-.27,1.12-.36,1.75-.4,1.74a2.27,2.27,0,0,1,0-.46c0-.3.1-.75.22-1.31a35.12,35.12,0,0,1,1.31-4.73,64.26,64.26,0,0,1,2.85-6.69c.6-1.23,1.25-2.51,1.93-3.83a17.05,17.05,0,0,1,2.83-3.68,48.77,48.77,0,0,1,6.85-5.7c2.23-1.58,4.34-2.86,6.13-3.9s3.29-1.79,4.32-2.3l1.21-.57A2,2,0,0,1,681.73,345.6Z" style="fill:#263238"></path><path d="M652.35,377.32a3.7,3.7,0,0,1-.21-.88c-.12-.65-.28-1.46-.46-2.42a62.06,62.06,0,0,0-5-15.4l-1-2.24a4.81,4.81,0,0,1-.33-.85,4.34,4.34,0,0,1,.46.78c.28.51.67,1.26,1.13,2.2a51.73,51.73,0,0,1,5,15.46c.16,1,.28,1.87.34,2.45A4.65,4.65,0,0,1,652.35,377.32Z" style="fill:#263238"></path><path d="M651.59,353.49a28.35,28.35,0,0,0-3.41-11.32,37.35,37.35,0,0,0-25.31-18.87l23.43,34.92,3,6.24C651.39,361.07,651.85,357.44,651.59,353.49Z" style="fill:#455a64"></path><rect x="630.71" y="422.31" width="54.49" height="9.66" style="fill:#407BFF"></rect><polygon points="634.78 430.06 639.42 460.02 675.6 460.02 681.13 430.06 634.78 430.06" style="fill:#407BFF"></polygon><path d="M685.17,432c0,.11-12.29.2-27.45.2s-27.45-.09-27.45-.2,12.29-.19,27.45-.19S685.17,431.88,685.17,432Z" style="fill:#263238"></path></g><g id="freepik--Books--inject-64"><path d="M174.9,379.17h-73A20.28,20.28,0,0,1,81.6,358.89h0a20.28,20.28,0,0,1,20.29-20.29h73Z" style="fill:#407BFF"></path><path d="M154.69,338.6H317.46a2.93,2.93,0,0,1,2.93,2.93v.87a2.93,2.93,0,0,1-2.93,2.93H154.69a0,0,0,0,1,0,0V338.6a0,0,0,0,1,0,0Z" style="fill:#407BFF"></path><path d="M154.69,372.43H317.46a2.93,2.93,0,0,1,2.93,2.93v.87a2.93,2.93,0,0,1-2.93,2.93H154.69a0,0,0,0,1,0,0v-6.73A0,0,0,0,1,154.69,372.43Z" style="fill:#407BFF"></path><path d="M315.45,372.43H173.19a13.54,13.54,0,0,1-13.55-13.54h0a13.54,13.54,0,0,1,13.55-13.55H315.45A33.45,33.45,0,0,0,315.45,372.43Z" style="fill:#f5f5f5"></path><g style="opacity:0.30000000000000004"><path d="M159.64,379.17H102A20.35,20.35,0,0,1,81.6,358.82h0a20.23,20.23,0,0,1,20.22-20.22h59.36C146.49,347.5,147.59,368.81,159.64,379.17Z"></path></g><path d="M298.16,360.14c0,.14-29.2.25-65.21.25s-65.22-.11-65.22-.25,29.2-.24,65.22-.24S298.16,360,298.16,360.14Z" style="fill:#263238"></path><path d="M311.59,366.17c0,.13-29.2.24-65.22.24s-65.22-.11-65.22-.24,29.2-.25,65.22-.25S311.59,366,311.59,366.17Z" style="fill:#263238"></path><path d="M307.63,351.6c0,.14-29.2.24-65.21.24s-65.22-.1-65.22-.24,29.19-.24,65.22-.24S307.63,351.47,307.63,351.6Z" style="fill:#263238"></path><path d="M152.49,376.32c0,.14-13.66.25-30.52.25s-30.53-.11-30.53-.25,13.67-.24,30.53-.24S152.49,376.19,152.49,376.32Z" style="fill:#263238"></path><path d="M152.49,342c0,.13-13.66.24-30.52.24s-30.53-.11-30.53-.24,13.67-.24,30.53-.24S152.49,341.84,152.49,342Z" style="fill:#263238"></path><path d="M73.08,407.64h94.55a0,0,0,0,1,0,0v52.24a0,0,0,0,1,0,0H73.08a25.61,25.61,0,0,1-25.61-25.61v-1A25.61,25.61,0,0,1,73.08,407.64Z" style="fill:#407BFF"></path><path d="M141.61,407.64H352.07a2.93,2.93,0,0,1,2.93,2.93v2.81a2.93,2.93,0,0,1-2.93,2.93H141.61a0,0,0,0,1,0,0v-8.67A0,0,0,0,1,141.61,407.64Z" style="fill:#407BFF"></path><path d="M141.61,451.21H352.07a2.93,2.93,0,0,1,2.93,2.93V457a2.93,2.93,0,0,1-2.93,2.93H141.61a0,0,0,0,1,0,0v-8.67A0,0,0,0,1,141.61,451.21Z" style="fill:#407BFF"></path><path d="M348.63,451.21H165.42A17.45,17.45,0,0,1,148,433.76h0a17.45,17.45,0,0,1,17.45-17.45H348.63A43.19,43.19,0,0,0,348.63,451.21Z" style="fill:#f5f5f5"></path><g style="opacity:0.4"><path d="M148,459.88H73.32A25.84,25.84,0,0,1,47.48,434h0a26.4,26.4,0,0,1,26.4-26.4H150C131.05,419.1,132.46,446.54,148,459.88Z"></path></g><path d="M326.37,435.38c0,.14-37.6.24-84,.24s-84-.1-84-.24,37.6-.24,84-.24S326.37,435.25,326.37,435.38Z" style="fill:#263238"></path><path d="M343.66,443.14c0,.13-37.61.24-84,.24s-84-.11-84-.24,37.6-.24,84-.24S343.66,443,343.66,443.14Z" style="fill:#263238"></path><path d="M338.56,428.18c0,.14-37.6.25-84,.25s-84-.11-84-.25,37.59-.24,84-.24S338.56,428.05,338.56,428.18Z" style="fill:#263238"></path><path d="M138.77,456.22c0,.14-17.6.24-39.31.24s-39.31-.1-39.31-.24S77.74,456,99.46,456,138.77,456.09,138.77,456.22Z" style="fill:#263238"></path><path d="M138.77,412c0,.13-17.6.24-39.31.24s-39.31-.11-39.31-.24,17.59-.24,39.31-.24S138.77,411.84,138.77,412Z" style="fill:#263238"></path><path d="M198.84,407.83H116.17a15,15,0,0,1-15-14.95h0a15,15,0,0,1,15-15h82.67Z" style="fill:#455a64"></path><path d="M177.69,377.92H348a3.07,3.07,0,0,1,3.07,3.07v.92A3.07,3.07,0,0,1,348,385H177.69a0,0,0,0,1,0,0v-7a0,0,0,0,1,0,0Z" style="fill:#455a64"></path><path d="M177.69,400.79H348a3.07,3.07,0,0,1,3.07,3.07v.92a3.07,3.07,0,0,1-3.07,3.07H177.69a0,0,0,0,1,0,0v-7A0,0,0,0,1,177.69,400.79Z" style="fill:#455a64"></path><path d="M345.89,400.79H190.77a7.91,7.91,0,0,1-7.91-7.91h0a7.91,7.91,0,0,1,7.91-7.91H345.89Q339.91,392.88,345.89,400.79Z" style="fill:#f5f5f5"></path><g style="opacity:0.30000000000000004"><path d="M182.86,407.83H116.05A14.83,14.83,0,0,1,101.21,393h0a15.08,15.08,0,0,1,15.08-15.08h68.19C169.11,384.48,170.26,400.19,182.86,407.83Z"></path></g><path d="M327.81,391.63c0,.14-30.56.24-68.24.24s-68.24-.1-68.24-.24,30.55-.24,68.24-.24S327.81,391.5,327.81,391.63Z" style="fill:#263238"></path><path d="M341.85,395.89c0,.13-30.55.24-68.23.24s-68.24-.11-68.24-.24,30.54-.24,68.24-.24S341.85,395.76,341.85,395.89Z" style="fill:#263238"></path><path d="M175.39,404.86c0,.13-14.3.24-31.94.24s-31.94-.11-31.94-.24,14.29-.24,31.94-.24S175.39,404.72,175.39,404.86Z" style="fill:#263238"></path><path d="M175.39,381.44c0,.14-14.3.25-31.94.25s-31.94-.11-31.94-.25,14.29-.24,31.94-.24S175.39,381.31,175.39,381.44Z" style="fill:#263238"></path><path d="M349,377.92c0,.14-52.46.24-117.17.24s-117.17-.1-117.17-.24,52.45-.24,117.17-.24S349,377.79,349,377.92Z" style="fill:#263238"></path><polygon points="219.95 351.78 219.95 368.02 225.58 364.41 231.86 368.02 231.86 351.78 219.95 351.78" style="fill:#407BFF"></polygon></g><g id="freepik--Paper--inject-64"><path d="M164.81,232.91l90.79,2.27s-29.49-71.88-72.53-48.62C183.07,186.56,165.32,196.25,164.81,232.91Z" style="fill:#e0e0e0"></path><path d="M196.77,181.85S244,179.39,261.7,268c15.41,77.2,27.89,191.69,104,193.19s143.55,0,143.55,0h30.66c-76.09-1.5-88.26-116.06-104-193.19S371,181.85,371,181.85H196.77" style="fill:#fff"></path><path d="M196.77,181.85l3,0,8.95,0,34.49-.05L371,181.67h0a58.63,58.63,0,0,1,16,6.68,80.75,80.75,0,0,1,14.44,10.88,104.09,104.09,0,0,1,22.22,30.93,147.88,147.88,0,0,1,7.44,18.67,190.22,190.22,0,0,1,5.18,20.07c2.79,13.73,5.34,27.9,8.15,42.39s5.85,29.32,9.62,44.3a317.36,317.36,0,0,0,14.48,45,164.85,164.85,0,0,0,10.93,21.68,100.5,100.5,0,0,0,15.12,19.43,67.3,67.3,0,0,0,20.56,14,65.71,65.71,0,0,0,24.72,5.19v.51H511c-3.26,0-6.54.11-9.83.15-13.17.22-26.56.35-40.06.44-27.42.16-54.42.05-80.86-.34l-9.89-.17c-3.28-.07-6.58-.07-9.85-.39a64.26,64.26,0,0,1-9.68-1.58,59.83,59.83,0,0,1-9.28-3,60.54,60.54,0,0,1-8.65-4.39,64.15,64.15,0,0,1-7.86-5.58,73.5,73.5,0,0,1-7-6.53,84.55,84.55,0,0,1-6.19-7.22c-7.74-10-13.49-21.22-18.25-32.52A293.56,293.56,0,0,1,282,365.93c-6.32-23-10.6-45.58-14.67-67.29S260.05,255.87,252.9,237a124.45,124.45,0,0,0-13.05-26.29,73.79,73.79,0,0,0-19-20,51.44,51.44,0,0,0-11.67-6.16,41.58,41.58,0,0,0-6.19-1.8,28,28,0,0,0-6.27-.67A31.94,31.94,0,0,0,185,185.49a30.49,30.49,0,0,0-9.15,7.43,39.27,39.27,0,0,0-5.92,9.72A60.26,60.26,0,0,0,166.49,213a77.69,77.69,0,0,0-1.64,10.33,75.9,75.9,0,0,0-.33,9.94l-.13-.13c14.15,0,26.73.32,37.64.59l27.61.78,22.81.56s-.49,0-1.46,0l-4.34-.06-17-.36L202,234c-10.9-.26-23.48-.53-37.63-.53h-.13v-.13a76.48,76.48,0,0,1,.32-10A78.07,78.07,0,0,1,166.2,213a60.43,60.43,0,0,1,3.4-10.46,39.36,39.36,0,0,1,6-9.79,30.89,30.89,0,0,1,9.24-7.53,32.47,32.47,0,0,1,11.88-3.5,28.49,28.49,0,0,1,6.37.67,42.24,42.24,0,0,1,6.24,1.81,51.59,51.59,0,0,1,11.76,6.2,73.93,73.93,0,0,1,19.14,20.09,124.47,124.47,0,0,1,13.11,26.36,203,203,0,0,1,8.35,29.86c2.12,10.37,4.05,21,6.09,31.87,4.08,21.71,8.38,44.33,14.7,67.25A291.29,291.29,0,0,0,294,400.08c4.75,11.27,10.49,22.43,18.2,32.4a83.8,83.8,0,0,0,6.15,7.18,73.84,73.84,0,0,0,7,6.49,63.88,63.88,0,0,0,7.8,5.53,57.67,57.67,0,0,0,8.59,4.35,58.49,58.49,0,0,0,9.2,3,63.34,63.34,0,0,0,9.61,1.57c3.24.32,6.52.32,9.81.38l9.89.17q39.66.58,80.85.34c13.49-.09,26.88-.22,40.05-.44,3.29,0,6.56-.16,9.83-.15h28.9v.51A66.14,66.14,0,0,1,515,456.17,67.81,67.81,0,0,1,494.26,442a101.09,101.09,0,0,1-15.19-19.53,165.19,165.19,0,0,1-10.95-21.75,316.59,316.59,0,0,1-14.5-45c-3.77-15-6.8-29.83-9.6-44.33s-5.36-28.67-8.13-42.39a193.59,193.59,0,0,0-5.16-20,148.7,148.7,0,0,0-7.41-18.63,103.76,103.76,0,0,0-22.11-30.82,80.34,80.34,0,0,0-14.36-10.84A58.1,58.1,0,0,0,371,182h0L243.25,182l-34.49,0-8.95,0Z" style="fill:#263238"></path><path d="M424.63,425.91a34.8,34.8,0,0,1-31.43,35.22l185.59,1.23c27.8,0,29.25-36.45,29.25-36.45Z" style="fill:#e0e0e0"></path><path d="M581.1,462.36l.88-.12a21.15,21.15,0,0,0,2.55-.37,22.91,22.91,0,0,0,9-3.86A29.57,29.57,0,0,0,603,445.86a57.83,57.83,0,0,0,4.81-19.95l.2.2-93.75.15-89.63,0,.21-.21a33.7,33.7,0,0,1-2,11.64,38.7,38.7,0,0,1-4.91,9.36,34.81,34.81,0,0,1-23.07,14.25,26.84,26.84,0,0,1-3.76.33l.95-.1c.63,0,1.57-.15,2.79-.35a35.22,35.22,0,0,0,10.18-3.35,34.54,34.54,0,0,0,12.65-11,39,39,0,0,0,4.82-9.3,33.11,33.11,0,0,0,1.94-11.51v-.21h.2l89.63-.14,93.75,0h.2v.2a61,61,0,0,1-1.7,10.83,51.62,51.62,0,0,1-3.21,9.24,29.71,29.71,0,0,1-9.65,12.2,22.69,22.69,0,0,1-9.12,3.79,19.1,19.1,0,0,1-2.57.32C581.4,462.35,581.1,462.36,581.1,462.36Z" style="fill:#263238"></path><path d="M382.78,213c0,.15-27.7.26-61.87.26S259,213.12,259,213s27.7-.26,61.88-.26S382.78,212.83,382.78,213Z" style="fill:#263238"></path><path d="M382.78,225.43c0,.14-26.58.26-59.35.26s-59.36-.12-59.36-.26,26.57-.26,59.36-.26S382.78,225.28,382.78,225.43Z" style="fill:#263238"></path><path d="M379.73,236.58c0,.14-24.65.26-55.06.26s-55.06-.12-55.06-.26,24.65-.26,55.06-.26S379.73,236.44,379.73,236.58Z" style="fill:#263238"></path></g><g id="freepik--speech-bubble--inject-64"><circle cx="436.88" cy="101.82" r="27.23" transform="translate(-8.19 45.76) rotate(-5.94)" style="fill:#fff"></circle><path d="M446.18,127.41a2.11,2.11,0,0,1-.41.16l-1.23.41-.92.29c-.34.09-.72.16-1.12.25a20.89,20.89,0,0,1-2.85.47,26,26,0,0,1-7.88-.3,27.32,27.32,0,0,1-9.71-3.83,27,27,0,0,1-8.79-9.07,27.48,27.48,0,0,1-3.84-14,28.82,28.82,0,0,1,.25-3.91c.09-.65.25-1.3.37-2a13,13,0,0,1,.5-2A30.62,30.62,0,0,1,412,90.19,31,31,0,0,1,414,86.57a26.67,26.67,0,0,1,5.77-6.29,27.22,27.22,0,0,1,16.31-5.93,26.81,26.81,0,0,1,8.46,1.11,32,32,0,0,1,3.91,1.45,31,31,0,0,1,3.56,2,14.75,14.75,0,0,1,1.64,1.17c.51.42,1.05.82,1.54,1.26a28.85,28.85,0,0,1,2.7,2.84A27.29,27.29,0,0,1,463,110a27.1,27.1,0,0,1-5,9.17,26.22,26.22,0,0,1-5.85,5.29,19.12,19.12,0,0,1-2.49,1.46c-.37.2-.7.39-1,.54l-.89.36-1.2.48a2.61,2.61,0,0,1-.42.14l.4-.19,1.18-.53.87-.38c.32-.16.65-.36,1-.55a20,20,0,0,0,2.44-1.5,25.91,25.91,0,0,0,5.74-5.31,27,27,0,0,0-.26-34.43,26.79,26.79,0,0,0-2.66-2.78c-.48-.43-1-.82-1.51-1.24a14.35,14.35,0,0,0-1.62-1.15,29.69,29.69,0,0,0-3.49-2A30.85,30.85,0,0,0,444.44,76a26.22,26.22,0,0,0-8.31-1.08,26.73,26.73,0,0,0-16,5.82,25.81,25.81,0,0,0-5.66,6.16,29.3,29.3,0,0,0-2,3.55,30.12,30.12,0,0,0-1.4,3.77,14.12,14.12,0,0,0-.5,1.91c-.12.65-.27,1.28-.37,1.92a27.81,27.81,0,0,0-.25,3.84,27.09,27.09,0,0,0,21.91,26.57,26.17,26.17,0,0,0,7.81.38,21.14,21.14,0,0,0,2.83-.42c.41-.09.79-.14,1.13-.23l.92-.26,1.24-.36Z" style="fill:#263238"></path><path d="M430.39,102.31a3.12,3.12,0,1,1-3.12-3.12A3.12,3.12,0,0,1,430.39,102.31Z" style="fill:#263238"></path><path d="M440,102.31a3.12,3.12,0,1,1-3.12-3.12A3.12,3.12,0,0,1,440,102.31Z" style="fill:#263238"></path><path d="M449.62,102.31a3.12,3.12,0,1,1-3.12-3.12A3.12,3.12,0,0,1,449.62,102.31Z" style="fill:#263238"></path><circle cx="469.22" cy="119.2" r="3.45" style="fill:#fff"></circle><path d="M472.67,119.2c-.05,0-.05-.31-.21-.82a3.44,3.44,0,0,0-1.27-1.78,3.23,3.23,0,1,0,0,5.2,3.44,3.44,0,0,0,1.27-1.78c.16-.51.16-.82.21-.82a1.74,1.74,0,0,1,0,.87,3.42,3.42,0,0,1-1.24,2,3.62,3.62,0,0,1-3.46.58,3.68,3.68,0,0,1,0-6.94,3.62,3.62,0,0,1,3.46.58,3.45,3.45,0,0,1,1.24,2A1.74,1.74,0,0,1,472.67,119.2Z" style="fill:#263238"></path></g><g id="freepik--Character--inject-64"><path d="M652.8,64.65c-1.12-2.9-16.59-9.23-46.71,1Q602.94,75,599.8,84.4a52.32,52.32,0,0,1,1-16.83l-.31.12c-33.82,13-94.62,45.09-112.11,59.91-9.84,8.34-17.87,19.34-23,27.36-4.1,6.41-10.42,16.63-9.25,24.14l-.16,3,8.21,8.36s31.28,9.05,39.15,8.53,66.37-37.22,78.39-47.91L575.46,148l10.58,0s14.05-11.06,28.5-23.38L597.06,109a101.06,101.06,0,0,1,23.05,10.76c9.54-8.31,18.47-16.61,22.75-22C654.4,83.21,654,67.73,652.8,64.65Z" style="fill:#407BFF"></path><g style="opacity:0.30000000000000004"><path d="M561,166.1l3.24-11.86a29.85,29.85,0,0,0,1.5-9.05c-.13-3.07-1.37-6.25-3.9-8a557.43,557.43,0,0,1,59.43-51.91l-72.07,46.64-2.89,14.16,7.62,24.64Z"></path></g><path d="M590.19,77.23a11.23,11.23,0,0,1-.63,1.48c-.48,1-1.1,2.35-1.85,4-1.55,3.35-3.62,8-5.69,13.26s-3.75,10.07-4.91,13.57l-1.36,4.16a9.92,9.92,0,0,1-.55,1.52,8.59,8.59,0,0,1,.35-1.57c.26-1,.67-2.45,1.21-4.22,1.07-3.54,2.7-8.39,4.78-13.65s4.2-9.91,5.84-13.23c.81-1.66,1.5-3,2-3.9A9.85,9.85,0,0,1,590.19,77.23Z" style="fill:#263238"></path><path d="M575.3,98.74a55.23,55.23,0,0,1-2.59,7,53.27,53.27,0,0,1-3.07,6.8,52.1,52.1,0,0,1,2.59-7A53.51,53.51,0,0,1,575.3,98.74Z" style="fill:#263238"></path><path d="M554.57,123.54a9.62,9.62,0,0,1,1.41.67c.89.47,2.19,1.13,3.8,1.93a128.59,128.59,0,0,0,12.93,5.5,127.33,127.33,0,0,0,13.47,4c1.75.42,3.17.74,4.15,1a8.72,8.72,0,0,1,1.53.38,9.21,9.21,0,0,1-1.56-.19c-1-.14-2.44-.41-4.2-.78a105.32,105.32,0,0,1-13.57-3.87,105,105,0,0,1-12.91-5.66c-1.6-.84-2.88-1.56-3.74-2.08A9.2,9.2,0,0,1,554.57,123.54Z" style="fill:#263238"></path><path d="M626.42,103.27a3.48,3.48,0,0,1-1,0c-.66,0-1.61-.15-2.78-.29-2.34-.3-5.57-.83-9.08-1.64s-6.64-1.73-8.88-2.49c-1.11-.37-2-.7-2.62-.94a4.43,4.43,0,0,1-.94-.43,35.07,35.07,0,0,1,3.67,1c2.26.67,5.39,1.53,8.89,2.34s6.69,1.38,9,1.77A37.77,37.77,0,0,1,626.42,103.27Z" style="fill:#263238"></path><path d="M621.87,96.86a9,9,0,0,1-2.38.22,48,48,0,0,1-5.77-.23,46.06,46.06,0,0,1-5.71-.94,8.76,8.76,0,0,1-2.29-.69,13.78,13.78,0,0,1,2.37.33c1.45.25,3.45.55,5.68.78s4.25.33,5.72.38A13.31,13.31,0,0,1,621.87,96.86Z" style="fill:#263238"></path><path d="M474.94,166.75c22.85-13.17,45.74-28.69,68.49-41.87,22.26-12.9,80.19-44.94,104.19-58.2a.79.79,0,0,1,1,.27h0a.79.79,0,0,1-.22,1.09c-10.84,7.39-21.81,14.51-32.77,21.65C577.73,114.83,519.5,151.86,482.31,178,466,189.22,444,204.64,427,214.73l-8.81-12.59C435.92,191.9,457,177.26,474.94,166.75Z" style="fill:#263238"></path><path d="M474.94,166.75s-.33.22-1,.62L471,169.14c-2.57,1.56-6.35,3.9-11.2,7L442.12,187.5c-6.93,4.44-14.84,9.54-23.88,14.79l.05-.25c2.77,3.94,5.73,8.17,8.82,12.58l-.25-.05c21.26-12.68,45.12-29.9,72-48.32s57-37.78,88.49-58.3c15.92-10.35,31.37-20.59,46.31-30.45l11.1-7.34,2.75-1.81.68-.45a.61.61,0,0,0,.34-.46.56.56,0,0,0-.75-.57L642.16,70,620.09,82.33l-76.34,42.58c-10.77,6.23-20.31,12.19-28.7,17.42s-15.59,9.76-21.52,13.4S483,162.13,479.79,164l-3.61,2.08c-.81.47-1.24.69-1.24.69l1.21-.73,3.59-2.13c3.14-1.88,7.77-4.67,13.68-8.33l21.48-13.48c8.37-5.25,17.9-11.24,28.67-17.49l76.29-42.68,22.06-12.33,5.7-3.17a1,1,0,0,1,1,.13,1.07,1.07,0,0,1-.14,1.78l-.68.45-2.74,1.81L634,77.92C619,87.79,603.57,98,587.65,108.39c-31.46,20.51-61.52,40-88.5,58.26s-50.79,35.59-72.1,48.24l-.14.09-.1-.14c-3.08-4.42-6-8.66-8.8-12.6l-.1-.16.16-.09c9-5.22,17-10.3,23.91-14.71L459.73,176c4.87-3.06,8.67-5.38,11.25-6.92l2.95-1.73Z" style="fill:#455a64"></path><path d="M526.07,138.28a299.62,299.62,0,0,1,8.51-38.71" style="fill:#263238"></path><path d="M526.71,111.22a4.61,4.61,0,0,1-.17,1c-.17.78-.37,1.72-.6,2.83-.51,2.38-1.15,5.68-1.7,9.35s-.88,7-1.09,9.44c-.1,1.13-.18,2.09-.25,2.88a3.81,3.81,0,0,1-.15,1,4.68,4.68,0,0,1,0-1.06c0-.68,0-1.67.08-2.89.12-2.44.4-5.81,1-9.5s1.25-7,1.85-9.36c.3-1.18.56-2.13.76-2.79A3.74,3.74,0,0,1,526.71,111.22Z" style="fill:#263238"></path><path d="M392.12,214.94s13-3.63,19.07-6.37c4.39-2,6.44-8.23,6.44-8.23l3.3-.3,9.56,12.57-1.81,3.31s-6.55-1.3-10.88,2.4-12,14.76-12,14.76a41,41,0,0,0-22.43,3.78l-.58-.87,16-10.56.36.38a4.18,4.18,0,0,0,3.57.88,3.72,3.72,0,0,0,2.67-4.79,4.31,4.31,0,0,0-5-3,3.72,3.72,0,0,0-2.66,4.79L382,234.89l-.73-1.1S392.11,223.74,392.12,214.94Z" style="fill:#e0e0e0"></path><path d="M392.12,214.94a2.87,2.87,0,0,1,0,.39l-.05,1.12c-.05.49-.2,1.1-.33,1.82a22.92,22.92,0,0,1-.82,2.4c-1.41,3.55-4.5,8.32-9.51,13.24l0-.21.74,1.09-.24,0,15.64-11.23-.08.24a4.21,4.21,0,0,1,.08-2.69,3.88,3.88,0,0,1,1.85-2.06,4.39,4.39,0,0,1,5.27,1.19,4.44,4.44,0,0,1,1.07,2.75A3.91,3.91,0,0,1,401.9,227a4.51,4.51,0,0,1-2.94-1h0l-.37-.38.32,0-16,10.57.08-.36.57.88-.33-.09a38.87,38.87,0,0,1,10.11-3.34,45.15,45.15,0,0,1,12.47-.47l-.24.11a138.5,138.5,0,0,1,9.77-12.51,21.75,21.75,0,0,1,2.78-2.65,11.17,11.17,0,0,1,3.38-1.69,16.34,16.34,0,0,1,7.24-.39l-.25.11c.62-1.12,1.22-2.22,1.81-3.3l0,.25-9.53-12.59.17.08-3.3.29.16-.13a18.55,18.55,0,0,1-3.41,5.91,10.29,10.29,0,0,1-2.42,2,12.13,12.13,0,0,1-1.37.65c-.45.2-.89.37-1.34.55-3.53,1.37-6.64,2.34-9.19,3.13s-4.53,1.36-5.89,1.73l-1.54.42c-.35.09-.52.12-.53.12a3.82,3.82,0,0,1,.52-.18l1.52-.46,5.86-1.83c2.53-.82,5.63-1.82,9.14-3.22a20.72,20.72,0,0,0,2.65-1.19,10.09,10.09,0,0,0,2.33-2,17.9,17.9,0,0,0,3.31-5.8l0-.12h.12l3.31-.31H421l.06.09,9.58,12.55.09.12-.07.13-1.8,3.31-.08.14-.17,0a15.92,15.92,0,0,0-7,.41,10.27,10.27,0,0,0-3.22,1.62,21.9,21.9,0,0,0-2.71,2.58A137.42,137.42,0,0,0,406,233.22l-.09.13-.15,0a44.82,44.82,0,0,0-12.32.47,38.24,38.24,0,0,0-10,3.29l-.21.1-.12-.19-.58-.87-.14-.22.22-.14,16-10.55.17-.11.15.15.36.37h0a4.08,4.08,0,0,0,2.62.93,3.43,3.43,0,0,0,3.39-3.58,4,4,0,0,0-.95-2.47,4,4,0,0,0-4.72-1.09,3.56,3.56,0,0,0-1.72,4.22l.05.15-.13.09L382.12,235l-.15.1-.09-.15c-.26-.38-.51-.77-.73-1.1l-.08-.12.1-.09c5-4.85,8.13-9.57,9.58-13.07A16,16,0,0,0,392.12,214.94Z" style="fill:#263238"></path><path d="M417.86,201a14.87,14.87,0,0,1,1.7,2.23l3.85,5.5c1.53,2.14,3,4,4.1,5.32a19.76,19.76,0,0,1,1.76,2.16,12,12,0,0,1-2-1.92A55.12,55.12,0,0,1,423,209c-1.54-2.14-2.83-4.15-3.74-5.61A15.09,15.09,0,0,1,417.86,201Z" style="fill:#263238"></path><path d="M500.26,151.17a6.06,6.06,0,0,1-1.07.78l-3,2c-2.57,1.63-6.13,3.84-10.08,6.27s-7.55,4.59-10.17,6.13l-3.11,1.81a5.38,5.38,0,0,1-1.18.6,6.9,6.9,0,0,1,1.08-.77l3-1.95c2.57-1.63,6.13-3.85,10.08-6.27s7.55-4.59,10.17-6.14c1.24-.72,2.28-1.33,3.11-1.8A7.22,7.22,0,0,1,500.26,151.17Z" style="fill:#455a64"></path><path d="M476.36,165.83s-1.39-5.89-3.32-7c-.88-.5-2.07,1.31-1.79,2.86s.92,6.64.92,6.64Z" style="fill:#ffbf9d"></path><path d="M444.18,198.33s1.72-6,2.16-7-1.12-5.6-.46-6.73-.45-2.89-2.48-1.65-3.13,5-2.23,7.38c0,0-5.94-6.33-7.05-6.06a2.33,2.33,0,0,0-1.94,2.3s-2.88-1.89-3.79,1.92c0,0-2.14-.57-2.47,2.93,0,0-1.52-.39-1.6,2.18s-.55,5.18,1.53,6.35,11.92,7.88,11.92,7.88l9.71,7.65,11.75-7.39Z" style="fill:#ffbf9d"></path><path d="M434.85,191.12a10.81,10.81,0,0,0-1.39-2.28,11,11,0,0,0-1.51-2.21,5.29,5.29,0,0,0,1.07,2.49C433.84,190.39,434.75,191.21,434.85,191.12Z" style="fill:#ff9a6c"></path><path d="M430.3,194.29a16.24,16.24,0,0,0-1.88-5.54,8.74,8.74,0,0,0,.7,2.85A8.57,8.57,0,0,0,430.3,194.29Z" style="fill:#ff9a6c"></path><path d="M427.08,195.87a5.17,5.17,0,0,0-.18-2.31,5.28,5.28,0,0,0-.69-2.2,10.32,10.32,0,0,0,.87,4.51Z" style="fill:#ff9a6c"></path><path d="M436.84,193.06c.14,0,.38-.56,1-.89s1.25-.24,1.3-.38-.11-.19-.41-.26a1.74,1.74,0,0,0-1.92,1C436.74,192.85,436.77,193,436.84,193.06Z" style="fill:#ff9a6c"></path><path d="M433.42,195.61c.14.06.47-.45,1.11-.75s1.22-.28,1.26-.42-.68-.45-1.49,0S433.28,195.58,433.42,195.61Z" style="fill:#ff9a6c"></path><path d="M429.1,198.26c.15,0,.37-.54,1-.92s1.19-.37,1.22-.52-.13-.17-.42-.2a1.7,1.7,0,0,0-1.08.29,1.66,1.66,0,0,0-.69.87C429,198.06,429,198.24,429.1,198.26Z" style="fill:#ff9a6c"></path><path d="M522.94,94.92A13.81,13.81,0,0,0,512.28,96a8.23,8.23,0,0,0-14.21,2.17,7,7,0,0,0-7,11.87,9,9,0,0,0-3.74,13.61c-2.68,1.3-3.14,4.93-2.74,7.88s1.24,6.12-.08,8.79c-1,2.06-3.13,3.34-4.58,5.13s-1.94,4.88,0,6.1a6.22,6.22,0,1,0,2.25,12.23,7.61,7.61,0,0,0,.81,7.31,12.34,12.34,0,0,0,6.12,4.47,18.29,18.29,0,0,0,20-5.64l22-68.09A13.82,13.82,0,0,0,522.94,94.92Z" style="fill:#263238"></path><path d="M477.52,435.31l2.07,21.63s-23.57,8.8-23.82,13.16l44.56.12,0-3.26-1.86-11.12-2.76-21.61Z" style="fill:#455a64"></path><path d="M493,453.58a1.87,1.87,0,0,1,1.29,2.13,1.79,1.79,0,0,1-2.09,1.3,2,2,0,0,1-1.36-2.26,1.86,1.86,0,0,1,2.33-1.11" style="fill:#e0e0e0"></path><path d="M500.33,470.22l0-3.26-42.74.82s-2,.89-1.79,2.32Z" style="fill:#263238"></path><path d="M478.86,456.71c0,.22,1.12.32,2.21,1s1.69,1.65,1.89,1.56-.13-1.37-1.47-2.21S478.81,456.5,478.86,456.71Z" style="fill:#263238"></path><path d="M474.08,458.7c-.05.21.91.59,1.67,1.53s1,1.94,1.2,1.93.36-1.27-.6-2.42S474.08,458.49,474.08,458.7Z" style="fill:#263238"></path><path d="M471.37,464.43c.21.05.51-1.07-.06-2.28s-1.62-1.71-1.71-1.52.55.84,1,1.84S471.15,464.41,471.37,464.43Z" style="fill:#263238"></path><path d="M477.27,451.51c.1.2,1.12-.11,2.38,0s2.24.48,2.35.29-.83-1-2.31-1.06S477.16,451.33,477.27,451.51Z" style="fill:#263238"></path><path d="M532.28,435.93l1.91,21.25S511,465.69,510.7,470l43.78.39v-3.2l-1.77-10.94L550.13,435Z" style="fill:#455a64"></path><path d="M547.39,454a1.82,1.82,0,0,1,1.25,2.09,1.75,1.75,0,0,1-2.06,1.26,1.92,1.92,0,0,1-1.32-2.22,1.83,1.83,0,0,1,2.29-1.08" style="fill:#e0e0e0"></path><path d="M554.48,470.36v-3.2l-42,.54s-2,.86-1.78,2.27Z" style="fill:#263238"></path><path d="M533.46,457c0,.22,1.1.32,2.18,1s1.64,1.63,1.84,1.54-.12-1.35-1.43-2.18S533.42,456.75,533.46,457Z" style="fill:#263238"></path><path d="M528.76,458.88c0,.21.89.59,1.63,1.51s1,1.91,1.17,1.9.36-1.24-.58-2.38S528.76,458.67,528.76,458.88Z" style="fill:#263238"></path><path d="M526.07,464.49c.2.05.5-1-.05-2.24s-1.58-1.68-1.68-1.5.54.82,1,1.82S525.85,464.47,526.07,464.49Z" style="fill:#263238"></path><path d="M531.94,451.83c.09.2,1.1-.09,2.33,0s2.2.49,2.32.3-.81-1-2.27-1.06S531.83,451.66,531.94,451.83Z" style="fill:#263238"></path><path d="M476.56,247.25S466,277.84,465.63,300.6s-.73,58.94,4,98.86,6.92,56,6.92,56h24A471.5,471.5,0,0,0,502.78,408c-.37-22.39-2.11-29.47,0-54.1s5.56-39.41,9.14-46.87c0,0,9.92-11.79,10.65-28a78.79,78.79,0,0,0-5-30.08Z" style="fill:#263238"></path><path d="M497.92,290.17c.4,1.23,7.53,51.38,12.73,73.5s11,28,12,46c1.17,20.7,6.85,45.78,6.85,45.78h25.6s-3.6-38.26-7.2-68.17-8.8-66.77-8-77.83,2.8-24.72,0-40.21-8.85-19.59-8.85-19.59l-21.72-1Z" style="fill:#263238"></path><path d="M522,261.48a5.22,5.22,0,0,1,.4.78,16,16,0,0,1,.86,2.36,30.83,30.83,0,0,1,.85,9.16,59.83,59.83,0,0,1-2.11,13.5,43,43,0,0,1-2.79,7.59,54.76,54.76,0,0,1-4.62,7.34c-3.48,4.79-5.2,10.25-6.5,15.18a106.41,106.41,0,0,0-2.43,13.38c-.47,3.85-.76,7-1,9.14-.1,1-.19,1.88-.25,2.49a5.14,5.14,0,0,1-.12.87,4.58,4.58,0,0,1,0-.88q.06-.93.15-2.49c.15-2.17.38-5.31.8-9.17a102.65,102.65,0,0,1,2.33-13.46,64.78,64.78,0,0,1,2.42-7.71,36.78,36.78,0,0,1,1.79-3.9,40.76,40.76,0,0,1,2.32-3.75,53.71,53.71,0,0,0,4.6-7.27,43.87,43.87,0,0,0,2.79-7.49,61.75,61.75,0,0,0,2.2-13.38,32.24,32.24,0,0,0-.67-9.1,18.16,18.16,0,0,0-.76-2.37A5.2,5.2,0,0,1,522,261.48Z" style="fill:#455a64"></path><path d="M473.3,167.61s-4.47-2.67-5.85-2.08a4.58,4.58,0,0,0-2.06,1.84s-2.81-.54-2.56,2.55c0,0-2.56,0-2.39,3,0,0-1.79-.42-1.41,2.13a31,31,0,0,0,3.82,8.82c1.49,1.67,2.4-.33,2.14-1.25s-1.75-6-1.75-6,2.85,7.41,4.48,6.59c.93-.46.95-1.46.28-3.6-.47-1.49-1.3-4.4-1.3-4.4l2.47,4.71a1.17,1.17,0,0,0,2.12-.1,2.3,2.3,0,0,0,.08-1.26,27.48,27.48,0,0,0-1.53-4.91l2.13,3.15a1.44,1.44,0,0,0,2.13.29,1.4,1.4,0,0,0,.52-1.49c-.44-1.62-3.52-6.59-3.52-6.59Z" style="fill:#ffbf9d"></path><path d="M533.42,113.78l.29-3.67-21.84-5.53c-6.77-1.13-14.54,5.25-15.38,12.06-.94,7.57-1.78,16.84-1.22,22.56,1.12,11.51,9.77,13.48,9.77,13.48L504.4,164l25.19,1.83Z" style="fill:#ffbf9d"></path><path d="M499.16,127.49a1.45,1.45,0,0,0,1.32,1.56,1.39,1.39,0,0,0,1.58-1.22,1.47,1.47,0,0,0-1.32-1.56A1.38,1.38,0,0,0,499.16,127.49Z" style="fill:#263238"></path><path d="M498.6,121.63c.17.2,1.33-.55,2.9-.45s2.68.95,2.86.77-.07-.44-.55-.83a4.05,4.05,0,0,0-2.28-.86,3.89,3.89,0,0,0-2.32.6C498.7,121.2,498.52,121.54,498.6,121.63Z" style="fill:#263238"></path><path d="M513,128.35a1.46,1.46,0,0,0,1.32,1.56,1.4,1.4,0,0,0,1.58-1.23,1.45,1.45,0,0,0-1.32-1.56A1.4,1.4,0,0,0,513,128.35Z" style="fill:#263238"></path><path d="M514,122.85c.17.2,1.33-.55,2.9-.45s2.68.95,2.86.77-.07-.43-.55-.83a4,4,0,0,0-2.28-.85,3.82,3.82,0,0,0-2.32.59C514.15,122.43,514,122.76,514,122.85Z" style="fill:#263238"></path><path d="M507.64,134.17a10.21,10.21,0,0,0-2.53-.61c-.4-.07-.78-.17-.83-.45a2.1,2.1,0,0,1,.34-1.17l1.38-3c1.91-4.26,3.32-7.76,3.14-7.84s-1.86,3.31-3.77,7.57l-1.32,3a2.29,2.29,0,0,0-.3,1.56,1,1,0,0,0,.62.63,2.69,2.69,0,0,0,.68.13A10.32,10.32,0,0,0,507.64,134.17Z" style="fill:#263238"></path><path d="M505,152.72a30.27,30.27,0,0,0,15.9-3.16s-4.33,7.75-16.06,6Z" style="fill:#ff9a6c"></path><path d="M514.41,117.42c.15.43,1.73.23,3.57.45s3.35.73,3.59.34c.11-.18-.15-.58-.75-1a6.27,6.27,0,0,0-5.46-.6C514.68,116.88,514.34,117.22,514.41,117.42Z" style="fill:#263238"></path><path d="M499,117.73c.26.38,1.36.08,2.67.16s2.39.4,2.67,0c.12-.18,0-.55-.49-.92a3.66,3.66,0,0,0-2.12-.73,3.57,3.57,0,0,0-2.17.57C499.05,117.19,498.87,117.55,499,117.73Z" style="fill:#263238"></path><path d="M496.53,108.45a19.1,19.1,0,0,1,10.4-6.87l18.45,2.32,1.57,0c.35-1.16,2.31-1.77,2.31-1.77,1.73-1.33,7.74-1.4,11.93,3,1.51,1.58,2.58,5.55,2.61,7.73,0,.83-.87,2-.18,2.42a20.75,20.75,0,0,0,2.52.18c4.69,1,7.63,5.19,6.78,11.41a3,3,0,0,0-.11.94,2.57,2.57,0,0,0,.83,1.22,8.15,8.15,0,0,1,1.29,9.06,9.72,9.72,0,0,0-1.26,2.72c-.28,1.78,1,3.36,2,4.85,3,4.47,3.66,11,.12,15-.86,1-2,1.87-2.28,3.14a7.61,7.61,0,0,0-.11,1.91c0,3.25-1.68,6.88-4.86,7.57-1.76.38-3.9-.12-5.15,1.18a7.57,7.57,0,0,0-1.13,2,6.58,6.58,0,0,1-7.59,3.27c-2.86-.88-3.81-12.5-3.39-15.47-3.47-1.26-6-1.48-5.87-5.17,0,0,.53-6.34-.5-9.43s1-9.67,2.21-12.86-.22-10.63-.54-13.59a11.05,11.05,0,0,1,.25-2.53h0c.13-.72.3-1.53.49-2.4s.74-5.12.73-5.88c-.05-2.79-3.51-1.3-6.16-.41a6.78,6.78,0,0,1-2,.36,7.08,7.08,0,0,1-5.7-2.7,10.18,10.18,0,0,1-10.05,2.75A28.2,28.2,0,0,1,499.4,118a9.39,9.39,0,0,1-6.76,2.32A19.09,19.09,0,0,1,496.53,108.45Z" style="fill:#263238"></path><path d="M508.77,138a2.77,2.77,0,0,1,2.44-1.15,2.54,2.54,0,0,1,1.8.85,1.6,1.6,0,0,1,.22,1.83,1.85,1.85,0,0,1-2,.61,5.84,5.84,0,0,1-2-1.07,1.75,1.75,0,0,1-.46-.44.5.5,0,0,1,0-.57" style="fill:#ff9a6c"></path><path d="M512.53,135.14c-.25,0-.17,1.67-1.55,2.93s-3.16,1.17-3.16,1.4.41.31,1.17.29a4.14,4.14,0,0,0,2.64-1.07,3.64,3.64,0,0,0,1.19-2.46C512.85,135.53,512.64,135.12,512.53,135.14Z" style="fill:#263238"></path><path d="M546.1,166.39l-41.5-5.81s-14.45,19.63-19,42.12-9.73,45-9.73,45l40.45,5a46.28,46.28,0,0,0,12.66-.18l4.22-.63-3.47-14.29c5.79-14.43,10-26.76,12.51-37C547.68,178.5,546.1,166.39,546.1,166.39Z" style="fill:#455a64"></path><path d="M447,197.43l18.39,12.45s11.82-20.8,15.18-28.24,8.87-16.85,14.73-19.64,15.28-.63,15.28-.63l-6.17,24.81-9.78,21.91s-10.94,21.9-17.42,26.29-14.31,1.72-18-.79-22.44-23.15-22.44-23.15Z" style="fill:#455a64"></path><path d="M467.38,221.32a28.91,28.91,0,0,1-1.33-5.39,29.39,29.39,0,0,1-.82-5.49,28.84,28.84,0,0,1,1.34,5.38A29.77,29.77,0,0,1,467.38,221.32Z" style="fill:#263238"></path><g style="opacity:0.30000000000000004"><path d="M490.83,214.51a21.63,21.63,0,0,0,10.41-9.5,23.41,23.41,0,0,0,1.68-14.58C499.16,197.94,494.47,208,490.83,214.51Z"></path></g><g style="opacity:0.30000000000000004"><path d="M544.69,171.36l-27.36-2.44a4.56,4.56,0,0,0,2.89,6,8.86,8.86,0,0,0,7,13.21,8.35,8.35,0,0,1,2.18.27c1.52.55,2.25,2.21,3.16,3.54a8.22,8.22,0,0,0,5.1,3.54,6,6,0,0,0,5.75-1.91c1.34-1.63,1.57-3.88,1.67-6A106.61,106.61,0,0,0,544.69,171.36Z"></path></g><path d="M551,154.5l-23.35-26c.86,6.6-1.63,13.16-4.61,19.1-1.7,3.38-3.6,7.4-1.81,10.74a22.06,22.06,0,0,0-3.86,5.27,7.48,7.48,0,0,0-.25,6.33c1,2,3.4,3.25,5.44,2.46a7.12,7.12,0,0,0,9.82,8.84,11.3,11.3,0,0,0,4.36,6.8,7.51,7.51,0,0,0,7.83.51,5.64,5.64,0,0,0,2.3-7.13c5.14-1.14,8.35-6.68,8.5-11.93S553.28,159.22,551,154.5Z" style="fill:#263238"></path><path d="M502.68,111.65a1.22,1.22,0,0,1-.38.15,3.17,3.17,0,0,1-1.19.08,4.69,4.69,0,0,1-3.53-2.43,4.51,4.51,0,0,1-.49-3,6.09,6.09,0,0,1,1.6-3.12A6.65,6.65,0,0,1,502,101.4a9.05,9.05,0,0,1,4.14,0,11.27,11.27,0,0,1,2.27.81l-.35.14a9.54,9.54,0,0,1,4.89-5,9,9,0,0,1,5.63-.59,9.13,9.13,0,0,1,3.47,1.53,5.63,5.63,0,0,1,.78.66c.17.16.25.26.23.27s-.38-.3-1.12-.77a9.61,9.61,0,0,0-3.42-1.34,8.79,8.79,0,0,0-5.38.67,9.13,9.13,0,0,0-4.59,4.81l-.11.26-.25-.13a11.34,11.34,0,0,0-2.17-.76,8.58,8.58,0,0,0-3.9,0,6.13,6.13,0,0,0-3.11,1.75,5.71,5.71,0,0,0-1.53,2.86,4.2,4.2,0,0,0,.39,2.75,4.59,4.59,0,0,0,3.23,2.41A5.64,5.64,0,0,0,502.68,111.65Z" style="fill:#455a64"></path><path d="M552.18,128s.2-.48.45-1.38a9.2,9.2,0,0,0,.2-3.9,8.37,8.37,0,0,0-2.73-5,8.86,8.86,0,0,0-6.69-2.18l-.39,0,.11-.38a10.68,10.68,0,0,0-2.13-9.92,10.43,10.43,0,0,0-5.62-3.36,11.17,11.17,0,0,0-4.48-.14c-1.06.19-1.62.41-1.64.36s.13-.08.39-.19a6.73,6.73,0,0,1,1.2-.37,10.92,10.92,0,0,1,10.52,3.38,11.1,11.1,0,0,1,2.27,10.39l-.28-.33a9.21,9.21,0,0,1,7,2.35,8.6,8.6,0,0,1,2.77,5.33,8.74,8.74,0,0,1-.37,4,6.25,6.25,0,0,1-.42,1C552.27,127.89,552.2,128,552.18,128Z" style="fill:#455a64"></path><path d="M529.89,172.49s-.12-.05-.33-.19a6.75,6.75,0,0,1-.83-.72,9.58,9.58,0,0,1-2.35-9.34,9.82,9.82,0,0,1,4.59-5.63,9.11,9.11,0,0,1,2.87-1l-.15.43a7.39,7.39,0,0,1-1.78-5.94,7,7,0,0,1,2.43-4.35,7.17,7.17,0,0,1,3-1.49,5.08,5.08,0,0,1,.89-.13.94.94,0,0,1,.31,0c0,.05-.42.08-1.15.3a7.46,7.46,0,0,0-2.79,1.57,6.7,6.7,0,0,0-2.21,4.15,7.06,7.06,0,0,0,1.72,5.53l.31.35-.46.08a8.76,8.76,0,0,0-2.7,1,9.46,9.46,0,0,0-4.38,5.3,9.23,9.23,0,0,0,.1,5.68,10.16,10.16,0,0,0,1.93,3.38C529.5,172.14,529.92,172.46,529.89,172.49Z" style="fill:#455a64"></path><path d="M529.5,115.33l-.72-3.3a24,24,0,0,0-2.35,15.46c.45,2.43,1.26,5,.21,7.27-.72,1.53-2.19,2.57-3,4-1.07,1.85-.28,6.72-.56,7.68-.62,2.18-2.74,3.57-3.23,6.21s.13,5.83,2.5,7.09c4.46-7.36,9-15,10.08-23.55C533.26,129.19,531.66,122.08,529.5,115.33Z" style="fill:#263238"></path><path d="M543,133s-.13,0-.38,0a8.49,8.49,0,0,1-1.08-.12,7.46,7.46,0,0,1-3.66-1.64,5.65,5.65,0,0,1-1.59-2.32,4.31,4.31,0,0,1,0-3.25,4,4,0,0,1,2.76-2.29,2.82,2.82,0,0,1,2,.28,1.82,1.82,0,0,1,.95,1.85,1.42,1.42,0,0,1-.59,1,2,2,0,0,1-1,.33,3.79,3.79,0,0,1-1.9-.46,9.18,9.18,0,0,1-2.8-2.2,9.07,9.07,0,0,1-1.5-9.45,7.88,7.88,0,0,1,.5-1c.14-.21.22-.32.24-.31s-.23.48-.55,1.35a9.58,9.58,0,0,0-.52,3.85,8.92,8.92,0,0,0,4.86,7.26,3.26,3.26,0,0,0,1.64.39,1.09,1.09,0,0,0,1.13-.84,1.31,1.31,0,0,0-.69-1.31,2.36,2.36,0,0,0-1.61-.23,3.47,3.47,0,0,0-2.4,2,3.89,3.89,0,0,0-.09,2.9,5.33,5.33,0,0,0,1.43,2.19,7.72,7.72,0,0,0,3.45,1.72C542.51,132.88,543,132.92,543,133Z" style="fill:#455a64"></path><path d="M553.16,141.47a17.12,17.12,0,0,1,1-2,12.63,12.63,0,0,0,1.4-5.15,7.54,7.54,0,0,0-1.69-4.93,12.58,12.58,0,0,0-1.69-1.46s.23,0,.59.2a4.94,4.94,0,0,1,1.37,1,7.4,7.4,0,0,1,1.94,5.19,11.31,11.31,0,0,1-1.6,5.32A6.92,6.92,0,0,1,553.16,141.47Z" style="fill:#455a64"></path><path d="M529.07,238.2a11.06,11.06,0,0,1-2.75.79,39.51,39.51,0,0,1-6.85.85,40,40,0,0,1-6.89-.32,12.3,12.3,0,0,1-2.8-.57,21.72,21.72,0,0,1,2.84.2,54.9,54.9,0,0,0,13.63-.53A22.73,22.73,0,0,1,529.07,238.2Z" style="fill:#263238"></path><path d="M503.2,189.75a5.4,5.4,0,0,1-.23.69c-.17.45-.46,1.09-.82,1.91-.75,1.64-1.87,4-3.29,6.89C496,205,492,213,487.37,221.65c-1.18,2.16-2.26,4.31-3.53,6.28a26.12,26.12,0,0,1-4.29,5.18,15.72,15.72,0,0,1-5.18,3.22,13.09,13.09,0,0,1-5.26.77,19.85,19.85,0,0,1-7.36-2c-.81-.4-1.42-.73-1.83-1a3.26,3.26,0,0,1-.61-.39,3.39,3.39,0,0,1,.66.3c.42.21,1,.52,1.87.89a20.8,20.8,0,0,0,7.29,1.87,13,13,0,0,0,5.09-.81,15.45,15.45,0,0,0,5-3.17,25.6,25.6,0,0,0,4.19-5.11c1.24-1.93,2.32-4.08,3.5-6.24,4.6-8.69,8.68-16.6,11.62-22.33l3.44-6.81c.38-.82.71-1.44.9-1.87A4,4,0,0,1,503.2,189.75Z" style="fill:#263238"></path></g><g id="freepik--Ink--inject-64"><path d="M343.27,461.79h-30V394.06h29.67a4.87,4.87,0,0,1,4.87,4.86v58.34A4.53,4.53,0,0,1,343.27,461.79Z" style="fill:#e0e0e0"></path><path d="M343.27,461.79a5.38,5.38,0,0,0,1.94-.5,4.5,4.5,0,0,0,1.79-1.61,4.43,4.43,0,0,0,.59-1.42,7.72,7.72,0,0,0,.11-1.77c0-5.09-.05-12.43-.09-21.48s0-19.88-.05-31.86c0-1.5,0-3,0-4.54a4.61,4.61,0,0,0-2.22-3.63,4.39,4.39,0,0,0-2.12-.65c-.76,0-1.58,0-2.38,0H313.26l.26-.26c0,26.39,0,50.23-.07,67.73l-.19-.19,22,.08,6,.05,1.55,0,.53,0s-.18,0-.53,0l-1.55,0-6,.05-22,.08h-.19v-.18c0-17.5,0-41.34-.07-67.73v-.26h27.82c.81,0,1.59,0,2.41,0a4.88,4.88,0,0,1,2.35.73,5.06,5.06,0,0,1,2.44,4c0,1.56,0,3.06,0,4.57,0,12,0,22.78-.06,31.86s-.06,16.39-.08,21.48a8.17,8.17,0,0,1-.13,1.81,4.62,4.62,0,0,1-.64,1.46,4.53,4.53,0,0,1-1.87,1.62,4.22,4.22,0,0,1-1.47.4A5.09,5.09,0,0,1,343.27,461.79Z" style="fill:#263238"></path><path d="M321.76,393.78H306.25V368h2.24a4.89,4.89,0,0,0,0-9.77H261.54a4.89,4.89,0,0,0,0,9.77h2.24v25.81H224.56a4.76,4.76,0,0,0-4.76,4.77V457a4.77,4.77,0,0,0,4.76,4.77h97.2a4.77,4.77,0,0,0,4.77-4.77V398.55A4.76,4.76,0,0,0,321.76,393.78Z" style="fill:#ebebeb"></path><path d="M321.76,393.78a3.59,3.59,0,0,1,1.11.11,4.79,4.79,0,0,1,3.67,4c.11.9,0,1.87.07,2.92q0,3.17,0,7.28c0,10.95.05,26.78.08,46.34,0,.62,0,1.23,0,1.85a8.23,8.23,0,0,1-.14,1.9,4.93,4.93,0,0,1-2.25,3.11,4.88,4.88,0,0,1-1.88.67,16.47,16.47,0,0,1-2,.05H299.86l-36.74,0h-38a5.82,5.82,0,0,1-2.68-.45,5,5,0,0,1-2.94-4.41c0-1.78,0-3.56,0-5.35V441q0-10.9,0-22.11,0-8.81,0-17.41v-2.16a7.16,7.16,0,0,1,.2-2.19,5,5,0,0,1,2.91-3.24,5.44,5.44,0,0,1,2.17-.38h39l-.25.25q0-13.36,0-25.81l.24.24h-1.55a8.42,8.42,0,0,1-1.57-.09,5.07,5.07,0,0,1-2.79-1.47,5.11,5.11,0,0,1,1.22-8,5.31,5.31,0,0,1,1.44-.53,7.67,7.67,0,0,1,1.5-.1h5.78l21.79,0c6.9,0,13.38,0,19.51.06a5,5,0,0,1,1.15,9.73,5.36,5.36,0,0,1-2,.33h-2l.15-.15c0,10.71,0,19.27-.06,25.81l-.09-.1,11.56.05,3,0,1,0s-.33,0-1,0l-3,0-11.56,0h-.1v-.09c0-6.54,0-15.1,0-25.81v-.15h2.12a5.28,5.28,0,0,0,1.93-.31,4.71,4.71,0,0,0-1.08-9.09c-6-.07-12.59,0-19.47,0l-21.79,0H262a6.52,6.52,0,0,0-1.41.09,5.22,5.22,0,0,0-1.32.48,4.72,4.72,0,0,0-1.92,2,4.66,4.66,0,0,0,.83,5.32,4.59,4.59,0,0,0,2.53,1.33,8,8,0,0,0,1.49.08H264V368q0,12.43,0,25.81V394h-39.2a4.92,4.92,0,0,0-2,.34,4.52,4.52,0,0,0-2.6,2.9,6.91,6.91,0,0,0-.19,2.05v2.16q0,8.61,0,17.41,0,11.19,0,22.11v10.82c0,1.78,0,3.56,0,5.34a4.5,4.5,0,0,0,2.64,4,5.24,5.24,0,0,0,2.47.4h38l36.74,0,16.65,0h4a17.26,17.26,0,0,0,1.92,0,4.47,4.47,0,0,0,1.74-.61,4.58,4.58,0,0,0,2.09-2.87,7.69,7.69,0,0,0,.12-1.81c0-.62,0-1.23,0-1.85,0-19.56.06-35.39.08-46.34q0-4.11,0-7.28c0-1,.06-2,0-2.9a4.71,4.71,0,0,0-3.55-3.94A6.79,6.79,0,0,0,321.76,393.78Z" style="fill:#263238"></path><path d="M300.24,367.76c0,.14-9.76.26-21.79.26s-21.79-.12-21.79-.26,9.75-.26,21.79-.26S300.24,367.62,300.24,367.76Z" style="fill:#263238"></path><path d="M224.48,433.65h96.71a0,0,0,0,1,0,0v18a4.31,4.31,0,0,1-4.31,4.31H228.79a4.31,4.31,0,0,1-4.31-4.31v-18A0,0,0,0,1,224.48,433.65Z" style="fill:#263238"></path><path d="M321.21,403.86c.15,0,.26,7.16.26,16s-.11,16-.26,16-.26-7.15-.26-16S321.07,403.86,321.21,403.86Z" style="fill:#263238"></path><path d="M224.68,405.59c.15,0,.26,7.06.26,15.76s-.11,15.77-.26,15.77-.26-7.06-.26-15.77S224.54,405.59,224.68,405.59Z" style="fill:#263238"></path><path d="M330.53,433.59h13a0,0,0,0,1,0,0v17.71a4.72,4.72,0,0,1-4.72,4.72h-8.29a0,0,0,0,1,0,0V433.59A0,0,0,0,1,330.53,433.59Z" style="fill:#263238"></path></g></svg>
