<svg xmlns="http://www.w3.org/2000/svg" viewBox="0 0 500 500"><g id="freepik--background-simple--inject-152"><path d="M305.87,81.92c-87-.21-47.64,87.48-103.68,100.15s-153-75.21-146.86,26.36c7.22,119.32,235.82,206.7,337.29,110.31S392.89,82.12,305.87,81.92Z" style="fill:#407BFF"></path><path d="M305.87,81.92c-87-.21-47.64,87.48-103.68,100.15s-153-75.21-146.86,26.36c7.22,119.32,235.82,206.7,337.29,110.31S392.89,82.12,305.87,81.92Z" style="fill:#fff;opacity:0.9"></path></g><g id="freepik--Shadow--inject-152"><ellipse id="freepik--path--inject-152" cx="245.53" cy="417.68" rx="217.03" ry="21.09" style="fill:#f5f5f5"></ellipse></g><g id="freepik--speech-bubble--inject-152"><path d="M369.17,124.6H334a12.09,12.09,0,0,0-12.09,12.1v14.6A12.09,12.09,0,0,0,334,163.4h24.2l7.67,8.77.47-8.77h2.84a12.1,12.1,0,0,0,12.1-12.1V136.7A12.1,12.1,0,0,0,369.17,124.6Z" style="fill:#407BFF"></path><path d="M337.88,144.17a2.45,2.45,0,1,1-2.45-2.45A2.45,2.45,0,0,1,337.88,144.17Z" style="fill:#fff"></path><path d="M348.64,144.17a2.44,2.44,0,1,1-2.44-2.45A2.44,2.44,0,0,1,348.64,144.17Z" style="fill:#fff"></path><path d="M359.41,144.17a2.45,2.45,0,1,1-2.44-2.45A2.44,2.44,0,0,1,359.41,144.17Z" style="fill:#fff"></path><path d="M370.18,144.17a2.45,2.45,0,1,1-2.44-2.45A2.44,2.44,0,0,1,370.18,144.17Z" style="fill:#fff"></path></g><g id="freepik--character-4--inject-152"><path d="M327.75,220.81l-2.47,4.8c-4.2,3.79-8.14-2.46-8.14-2.46L314,220.91a2.85,2.85,0,0,1-.66-3.64l1.7-3.36a3,3,0,0,1,3.83-1.59l3,1.48a6,6,0,0,1,2.19,1.87Z" style="fill:#d9877c"></path><path d="M383.44,223.46c-5.66,8.32-16.9,22.74-26.59,26-13.7,4-29-13-36.31-22.77a4.69,4.69,0,0,1,6.43-6.6c6.58,4.54,19.69,13.28,24.24,13.48,6.09-5.77,11.65-14.05,16.92-20.82a9.34,9.34,0,0,1,15.31,10.69Z" style="fill:#d9877c"></path><path d="M381.25,210.88a9.33,9.33,0,0,0-13.08,1.83l-.05,0-4.89,6.48c-1.56,2.1-3.15,4.16-4.74,6.16,2.44,2.47,7,8.4-4.09,8.17-.81,0-1.6,0-2.37,0a2.08,2.08,0,0,1-.64,0,47,47,0,0,0-19.8,5.56l1.1,1a57.51,57.51,0,0,0,7.69,5.86,33.66,33.66,0,0,0,4.88,2.51,19.45,19.45,0,0,0,6.81,1.55,14.82,14.82,0,0,0,4.78-.63c.43-.14.88-.31,1.29-.47l.95-.44c.34-.15.6-.3.86-.44l.78-.44a34.7,34.7,0,0,0,4.65-3.36,75.75,75.75,0,0,0,6.88-6.69c2.09-2.25,4-4.56,5.88-6.89s3.58-4.68,5.29-7.3A9.36,9.36,0,0,0,381.25,210.88Z" style="opacity:0.2"></path><path d="M378.93,227.8a38.69,38.69,0,0,1-6.68,11.48,48.63,48.63,0,0,1-10.39,9.32c-1.06.7-1.7,1.05-1.7,1.05l-5-9.09h0l-4.38-8s.39-.61,1.08-1.64c3.47-5.11,14.61-20.64,24-23.52C376,207.36,384.15,213.37,378.93,227.8Z" style="fill:#407BFF"></path><path d="M378.93,227.8a38.69,38.69,0,0,1-6.68,11.48,48.63,48.63,0,0,1-10.39,9.32c-1.06.7-1.7,1.05-1.7,1.05l-5-9.09h0l-4.38-8s.39-.61,1.08-1.64c3.47-5.11,14.61-20.64,24-23.52C376,207.36,384.15,213.37,378.93,227.8Z" style="fill:#fff;opacity:0.7000000000000001"></path><polygon points="362.45 249.65 358.48 250.88 354.4 242.95 349.04 232.52 351.6 230.32 351.91 230.88 356.13 238.38 361.86 248.6 362.45 249.65" style="fill:#407BFF"></polygon><polygon points="362.45 249.65 358.48 250.88 354.4 242.95 349.04 232.52 351.6 230.32 351.91 230.88 356.13 238.38 361.86 248.6 362.45 249.65" style="fill:#fff;opacity:0.6000000000000001"></polygon><path d="M361.86,248.6l.59,1.05-4,1.23L354.4,243c.24-.81.51-1.6.81-2.39h0c.29-.73.59-1.46.92-2.17a60.45,60.45,0,0,1,12.56-17.44,186.22,186.22,0,0,1,3.56,18.34A48.63,48.63,0,0,1,361.86,248.6Z" style="opacity:0.1"></path><polygon points="366.39 388.26 379.18 388.59 377.87 403.67 367.18 403.41 366.39 388.26" style="fill:#d9877c"></polygon><polygon points="366.39 388.26 379.18 388.6 378.45 397.04 366.83 396.75 366.39 388.26" style="opacity:0.2"></polygon><path d="M387.45,343.37c3.73-19.44,17.25-42.9,6.19-59.81l-35.26,5.6s.84,33.39,1.75,51.29c.94,18.62,4.8,53.67,4.8,53.67l14.64.17S387.67,364.91,387.45,343.37Z" style="fill:#263238"></path><path d="M380.29,394.81l-15.82-.14a.54.54,0,0,1-.54-.49l-.72-5.81a.55.55,0,0,1,.59-.62l17.62,1.19a.56.56,0,0,1,.5.68l-1.08,4.76A.55.55,0,0,1,380.29,394.81Z" style="fill:#263238"></path><path d="M394.59,300.51a95.54,95.54,0,0,1,.32,13.58c-1.35,6.13-3.18,12.3-4.81,18.27C386.43,316,385.18,296.7,394.59,300.51Z" style="opacity:0.2"></path><path d="M378.83,401.75a.61.61,0,0,0-.75-.5c-3.21,1.28-9.29.3-11.6-.14a1.91,1.91,0,0,0-1.48.3c-2.45,1.74-9,2.8-9,2.8a7.14,7.14,0,0,0-.33,3.85h24.49A42.72,42.72,0,0,1,378.83,401.75Z" style="fill:#263238"></path><polygon points="407.16 390.27 419.86 388.75 420.74 403.86 410.14 405.14 407.16 390.27" style="fill:#d9877c"></polygon><polygon points="407.16 390.27 419.87 388.75 420.36 397.21 408.83 398.6 407.16 390.27" style="opacity:0.2"></polygon><path d="M422.18,342.18c1-19.77,6.57-38.55,2.18-60.09l-38.42,10.38s5.42,33,8.77,50.58c3.49,18.31,12.13,52.49,12.13,52.49l14.53-1.84S425.35,363.49,422.18,342.18Z" style="fill:#263238"></path><path d="M422.15,394.12l-15.69,2a.55.55,0,0,1-.61-.4l-1.51-5.67a.55.55,0,0,1,.5-.69l17.62-1.24a.55.55,0,0,1,.59.6l-.42,4.87A.54.54,0,0,1,422.15,394.12Z" style="fill:#263238"></path><path d="M421.11,401.75a.61.61,0,0,0-.76-.5c-3.2,1.28-9.29.3-11.59-.14a1.91,1.91,0,0,0-1.48.3c-2.45,1.74-9,2.8-9,2.8a7.18,7.18,0,0,0-.32,3.85h24.48A43.36,43.36,0,0,1,421.11,401.75Z" style="fill:#263238"></path><path d="M426.34,271.24c0,6-.37,10.89-1.5,14.4,0,0-52,16.67-67.37,2.74-4.71-34,6.65-62.68,11.86-74.65a12,12,0,0,1,9.33-7.08,161.78,161.78,0,0,1,35.58-.54c5.5.6,9.77,3.36,11,11.71a38.91,38.91,0,0,1,.36,7.13c-.06,2.06-.09,4.08-.11,6.07-.08,9.84.25,18.84.52,26.7C426.21,262.7,426.35,267.23,426.34,271.24Z" style="fill:#407BFF"></path><g style="opacity:0.7000000000000001"><path d="M426.34,271.24c0,6-.37,10.88-1.51,14.4,0,0-52,16.66-67.36,2.74-4.71-34,6.65-62.68,11.86-74.66a12,12,0,0,1,9.33-7.07,161.69,161.69,0,0,1,35.57-.54c5.51.6,9.78,3.36,11,11.7a39.87,39.87,0,0,1,.36,7.13V225c-.06,2-.09,4.05-.11,6,0,4.45,0,8.73.1,12.8.1,4.95.27,9.59.42,13.9C426.21,262.69,426.35,267.22,426.34,271.24Z" style="fill:#fff"></path></g><path d="M425.63,224.94V225c-.06,2-.09,4.05-.11,6,0,4.45,0,8.73.1,12.8-6.49,8.17-21.5,12-26.62,7.93s-11.75-12.91-11.75-12.91,4.21-6.13,15.16-14.74C402.73,226.13,425.63,222.22,425.63,224.94Z" style="opacity:0.1"></path><path d="M380.29,394.81l-15.82-.14a.54.54,0,0,1-.54-.49l-.72-5.81a.55.55,0,0,1,.59-.62l17.62,1.19a.56.56,0,0,1,.5.68l-1.08,4.76A.55.55,0,0,1,380.29,394.81Z" style="fill:#fff;opacity:0.1"></path><path d="M422.15,394.12l-15.69,2a.55.55,0,0,1-.61-.4l-1.51-5.67a.55.55,0,0,1,.5-.69l17.62-1.24a.55.55,0,0,1,.59.6l-.42,4.87A.54.54,0,0,1,422.15,394.12Z" style="fill:#fff;opacity:0.1"></path><path d="M384.53,211.12a17,17,0,0,0,2.23,4.72l1.07,3.6,2.49.11,2.85-3.2s3-1.17,7.32-5.32l-.88-1.36a39.47,39.47,0,0,1-7.14,5.83l-5-.08a20.22,20.22,0,0,1-1.3-4.73Z" style="fill:#407BFF"></path><path d="M390.34,218.92A106.52,106.52,0,0,0,387.59,242l-3,2.39L382.19,242s3.36-16.36,5.79-23.29Z" style="fill:#407BFF"></path><path d="M396.62,214.26l-12.19-2.68V209a2.38,2.38,0,0,0,1.65-1.66,1.8,1.8,0,0,1,.05-.19,15.2,15.2,0,0,0,0-1.61,7.27,7.27,0,0,0-1.15-3.34l14.6-9.11,2.32-1.45h0c.06,6.47.12,11.58,3.15,14C405.81,208.71,402.41,212.08,396.62,214.26Z" style="fill:#d9877c"></path><path d="M401.92,191.66c-.18.49-3.5,15.14-15.84,15.7a1.8,1.8,0,0,1,.05-.19,15.2,15.2,0,0,0,0-1.61,7.27,7.27,0,0,0-1.15-3.34l14.6-9.11Z" style="opacity:0.2"></path><path d="M403.28,200.82a34.44,34.44,0,0,1-13.4,11.39s-4.12-2.92-3.73-6.64c0,0-4.2,3.78-4,12.25l5.51-4.74,2.32,2.18,2.54-2,3.52,5.64a32.06,32.06,0,0,0,13.71-13.45Z" style="fill:#407BFF"></path><path d="M403.28,200.82a34.44,34.44,0,0,1-13.4,11.39s-4.12-2.92-3.73-6.64c0,0-4.2,3.78-4,12.25l5.51-4.74,2.32,2.18,2.54-2,3.52,5.64a32.06,32.06,0,0,0,13.71-13.45Z" style="fill:#fff;opacity:0.6000000000000001"></path><path d="M387.12,174.44s-4.34-.46-5.23,2.56,1.7,6.25,1.7,6.25l4.2-4.84Z" style="fill:#263238"></path><path d="M389.66,173.66c8.45-1.88,15.76,5.13,14.13,12.79s-2.91,12.82-8.2,15.44c-10.52,5.19-15.66.2-16.53-7.81C378.28,186.88,381.07,175.57,389.66,173.66Z" style="fill:#d9877c"></path><path d="M391.33,187.25a3.87,3.87,0,0,1,2.92.43A7.51,7.51,0,0,1,391.33,187.25Z" style="opacity:0.2"></path><path d="M391.27,188a3.21,3.21,0,0,1,2.48,1A6.37,6.37,0,0,1,391.27,188Z" style="opacity:0.2"></path><path d="M390,187.34c-.09.67-.53,1.17-1,1.1s-.73-.66-.63-1.34.53-1.17,1-1.11S390,186.66,390,187.34Z" style="fill:#263238"></path><path d="M382,186.28c-.09.68-.53,1.17-1,1.11s-.72-.67-.63-1.35.53-1.17,1-1.1S382.1,185.6,382,186.28Z" style="fill:#263238"></path><path d="M384.63,187l-.38,5.72a3.57,3.57,0,0,1-2.89-.75A11.57,11.57,0,0,1,384.63,187Z" style="fill:#de5753"></path><path d="M392.57,185.78a.34.34,0,0,0,.2,0,.41.41,0,0,0,.28-.5,4,4,0,0,0-2.44-2.75.39.39,0,0,0-.5.26.4.4,0,0,0,.26.5h0a3.23,3.23,0,0,1,1.91,2.21A.39.39,0,0,0,392.57,185.78Z" style="fill:#263238"></path><path d="M380.24,183.67a.42.42,0,0,0,.35-.16,3.12,3.12,0,0,1,2.55-1.36.39.39,0,0,0,.41-.38.41.41,0,0,0-.38-.43,4,4,0,0,0-3.23,1.69.41.41,0,0,0,.08.56A.4.4,0,0,0,380.24,183.67Z" style="fill:#263238"></path><path d="M397,190.24c1.06-2.1.65-5.29,0-8.16a2.93,2.93,0,0,1,2-3.6s-.29-2.36-4.42-3c-2.46-.4-4.71-.89-6,.44s-3,1.11-3.4-.44-1.2-4.78,3.94-5.42,4.77,2.83,6.68,2.76,7,.88,9.35,5.38-1.6,11.71-1.6,11.71-4.13.66-5.16,2.89S397,190.24,397,190.24Z" style="fill:#263238"></path><path d="M405.73,193.29a6.94,6.94,0,0,1-4.55,2.74c-2.42.34-3.33-1.91-2.41-4,.83-1.9,3.1-4.38,5.41-3.75A3.16,3.16,0,0,1,405.73,193.29Z" style="fill:#d9877c"></path><path d="M380.83,197.49s.64-3,1.85-3.88,5.19,0,5.19,0l-.06.69A19.81,19.81,0,0,0,385,194c-.69.08-1.28,4.24.42,5.33s3.39.06,3.41-.27a.82.82,0,0,0-.15-.56l1.29-.41a.93.93,0,0,0,.48.84c.55.39,2.51-.55,3.19-1.84s-.73-4.67-1.27-4.78-3.31,1.72-3.31,1.72l.07-.73s2-1.79,3.32-1.83,2.51,1.32,2.91,1.38,1.67-2.63,1.67-2.63l1.78,1.76s1.75,8.67-4.47,11.52-15.34,1.93-14.9-7.37Z" style="fill:#263238"></path><path d="M380.83,197.49s.64-3,1.85-3.88,5.19,0,5.19,0l-.06.69A19.81,19.81,0,0,0,385,194c-.69.08-1.28,4.24.42,5.33s3.39.06,3.41-.27a.82.82,0,0,0-.15-.56l1.29-.41a.93.93,0,0,0,.48.84c.55.39,2.51-.55,3.19-1.84s-.73-4.67-1.27-4.78-3.31,1.72-3.31,1.72l.07-.73s2-1.79,3.32-1.83,2.51,1.32,2.91,1.38,1.67-2.63,1.67-2.63l1.78,1.76s1.75,8.67-4.47,11.52-15.34,1.93-14.9-7.37Z" style="fill:#263238"></path><path d="M385,195.4a20.21,20.21,0,0,1,1.53,3.06l.72-.14c3.21-.68,4.53-1.87,5-3a3.06,3.06,0,0,0,.19-1.67,2.76,2.76,0,0,0-.27-.91c-1.54,1.2-4.5,2-6.1,2.41C385.43,195.32,385,195.4,385,195.4Z" style="fill:#263238"></path><path d="M386.1,195.16l.48.89c3-.65,5.09-1.43,5.89-2.39a2.76,2.76,0,0,0-.27-.91C390.66,194,387.7,194.77,386.1,195.16Z" style="fill:#fff"></path><path d="M387.26,198.32c3.21-.68,4.53-1.87,5-3a12.88,12.88,0,0,0-3.46,1.34A3.82,3.82,0,0,0,387.26,198.32Z" style="fill:#de5753"></path><path d="M425.67,223.18a102.61,102.61,0,0,1-13.61,20c-3.56,4-8.19,8.2-13.76,9.16a45.07,45.07,0,0,1-13.58,0,125.57,125.57,0,0,1-27.27-7.12,4.68,4.68,0,0,1,1.92-9c5.91.31,11.92.71,17.74.92s12.11.5,17.38-.93c.1,0,.67-.29.35-.25a8.55,8.55,0,0,1,.68-.77c5-5.81,9.63-14.26,13.78-20.94a9.34,9.34,0,0,1,16.37,9Z" style="fill:#d9877c"></path><path d="M358.66,236.35l1.51,5.17c-.45,5.65-7.61,3.82-7.61,3.82l-3.8.52a2.88,2.88,0,0,1-3-2.19l-1.08-3.61a3,3,0,0,1,1.69-3.8l3.2-1a5.94,5.94,0,0,1,2.87-.15Z" style="fill:#d9877c"></path><path d="M417.48,206.8c13.27,4.66,12.12,14.62,8.55,22.28-3.38,7.25-18.26,22.66-18.26,22.66l-15.3-17.07s8.33-8.37,12.71-16S417.48,206.8,417.48,206.8Z" style="fill:#407BFF"></path><path d="M417.48,206.8c13.27,4.66,12.12,14.62,8.55,22.28-3.38,7.25-18.26,22.66-18.26,22.66l-15.3-17.07s8.33-8.37,12.71-16S417.48,206.8,417.48,206.8Z" style="fill:#fff;opacity:0.7000000000000001"></path><polygon points="391.35 235.68 393.75 232.52 409.53 251.09 404.68 253.21 391.35 235.68" style="fill:#407BFF"></polygon><polygon points="391.35 235.68 393.75 232.52 409.53 251.09 404.68 253.21 391.35 235.68" style="fill:#fff;opacity:0.6000000000000001"></polygon></g><g id="freepik--Podium--inject-152"><path d="M347.53,213.78l-3,1.23a2,2,0,0,1-2.67-1.11h0a2,2,0,0,1,1.11-2.66l3-1.23a2,2,0,0,1,2.66,1.11h0A2,2,0,0,1,347.53,213.78Z" style="fill:#263238"></path><path d="M324.83,248.14a1,1,0,0,1-.33,0,1,1,0,0,1-.61-1.28l10-28a7.21,7.21,0,0,1,3.92-4.18l4.87-2.08a1,1,0,0,1,.79,1.83l-4.87,2.09a5.21,5.21,0,0,0-2.83,3l-10,28A1,1,0,0,1,324.83,248.14Z" style="fill:#263238"></path><g style="opacity:0.30000000000000004"><path d="M324.83,248.14a1,1,0,0,1-.33,0,1,1,0,0,1-.61-1.28l10-28a7.21,7.21,0,0,1,3.92-4.18l4.87-2.08a1,1,0,0,1,.79,1.83l-4.87,2.09a5.21,5.21,0,0,0-2.83,3l-10,28A1,1,0,0,1,324.83,248.14Z" style="fill:#fff"></path></g><path d="M327.53,213.78l-3,1.23a2,2,0,0,1-2.67-1.11h0a2,2,0,0,1,1.11-2.66l3-1.23a2,2,0,0,1,2.67,1.11h0A2,2,0,0,1,327.53,213.78Z" style="fill:#263238"></path><path d="M304.83,248.14a1,1,0,0,1-.34,0,1,1,0,0,1-.6-1.28l10-28a7.21,7.21,0,0,1,3.92-4.18l4.87-2.08a1,1,0,0,1,.79,1.83l-4.87,2.09a5.15,5.15,0,0,0-2.83,3l-10,28A1,1,0,0,1,304.83,248.14Z" style="fill:#263238"></path><g style="opacity:0.30000000000000004"><path d="M304.83,248.14a1,1,0,0,1-.34,0,1,1,0,0,1-.6-1.28l10-28a7.21,7.21,0,0,1,3.92-4.18l4.87-2.08a1,1,0,0,1,.79,1.83l-4.87,2.09a5.15,5.15,0,0,0-2.83,3l-10,28A1,1,0,0,1,304.83,248.14Z" style="fill:#fff"></path></g><polygon points="283.11 250.44 283.11 235.68 324.69 250.59 386.13 250.59 386.13 265.34 324.69 265.34 283.11 250.44" style="fill:#263238"></polygon><polygon points="283.11 250.44 283.11 235.68 324.69 250.59 386.13 250.59 386.13 265.34 324.69 265.34 283.11 250.44" style="fill:#fff;opacity:0.2"></polygon><polygon points="382.33 263.31 343.76 249.48 343.76 408.06 382.33 408.06 382.33 263.31" style="fill:#263238"></polygon><rect x="286.76" y="249.48" width="56.99" height="158.58" style="fill:#263238"></rect><rect x="286.76" y="249.48" width="56.99" height="158.58" style="fill:#fff;opacity:0.30000000000000004"></rect><polygon points="382.33 263.31 343.76 249.48 343.76 408.06 382.33 408.06 382.33 263.31" style="fill:#fff;opacity:0.2"></polygon><rect x="290.75" y="258.29" width="47.25" height="135.3" style="opacity:0.2"></rect><rect x="286.76" y="249.27" width="56.99" height="2.47" style="opacity:0.2"></rect><rect x="283.11" y="398.32" width="102.54" height="9.74" style="fill:#263238"></rect><polygon points="386.13 250.59 386.13 265.34 344.55 250.44 283.11 250.44 283.11 235.68 344.55 235.68 386.13 250.59" style="fill:#263238"></polygon><polygon points="386.13 250.59 386.13 265.34 344.55 250.44 283.11 250.44 283.11 235.68 344.55 235.68 386.13 250.59" style="fill:#fff;opacity:0.30000000000000004"></polygon><rect x="283.11" y="235.68" width="61.44" height="14.75" style="fill:#fff;opacity:0.2"></rect><polygon points="344.69 398.32 283.11 398.32 283.11 402.53 340.45 402.53 340.45 399.71 344.69 398.32" style="fill:#fff;opacity:0.2"></polygon><polygon points="342.29 403.19 385.65 403.19 385.65 401.56 342.29 403.19" style="opacity:0.2"></polygon><rect x="283.11" y="398.32" width="102.54" height="9.74" style="fill:#fff;opacity:0.30000000000000004"></rect><rect x="276.64" y="403.19" width="115.15" height="4.87" style="fill:#263238"></rect><rect x="276.64" y="403.19" width="60.34" height="4.56" style="fill:#fff;opacity:0.2"></rect><rect x="276.64" y="403.19" width="115.15" height="4.87" style="fill:#fff;opacity:0.30000000000000004"></rect></g><g id="freepik--character-1--inject-152"><polygon points="113.23 402.56 112.26 412.18 111.47 419.95 104.11 419.95 104.11 402.56 113.23 402.56" style="fill:#e4897b"></polygon><polygon points="113.23 402.56 112.26 412.18 104.11 412.68 104.11 402.56 113.23 402.56" style="opacity:0.2"></polygon><path d="M112.23,415.31h-9.18a.68.68,0,0,0-.67.56l-1.23,7.26a1.28,1.28,0,0,0,1.27,1.46c3.2-.06,4.75-.25,8.79-.25,2.48,0,7.61.26,11,.26s3.7-3.39,2.28-3.7c-6.37-1.37-8.84-3.27-11-5.08A2.08,2.08,0,0,0,112.23,415.31Z" style="fill:#263238"></path><path d="M99.24,341.38l3.7,69.74,11.4-.81s9.37-64.1,5.11-70.52S99.24,341.38,99.24,341.38Z"></path><polygon points="144.23 402.56 143.26 412.18 142.47 419.95 135.11 419.95 135.11 402.56 144.23 402.56" style="fill:#e4897b"></polygon><polygon points="144.23 402.56 143.26 412.18 135.11 412.68 135.11 402.56 144.23 402.56" style="opacity:0.2"></polygon><path d="M101.5,314.19l6.38,8.65s29-2.17,38.14,3.93-1.59,83.55-1.59,83.55l-11.21,1s-1.48-66.82-2.85-67.19-53.88,5.81-61.37,0-1.77-32.51-1.77-32.51Z" style="fill:#263238"></path><path d="M143.23,415.31h-9.18a.69.69,0,0,0-.67.56l-1.23,7.26a1.28,1.28,0,0,0,1.27,1.46c3.21-.06,4.75-.25,8.79-.25,2.48,0,7.61.26,11,.26s3.7-3.39,2.28-3.7c-6.37-1.37-8.84-3.27-10.95-5.08A2.06,2.06,0,0,0,143.23,415.31Z" style="fill:#263238"></path><path d="M57.26,285.3l7.83,3.78L70,291.44l3-7.09L76,276.92l-2.6-13.55C65.39,266.83,57.26,285.3,57.26,285.3Z" style="fill:#407BFF"></path><path d="M65.09,289.08,70,291.44l3-7.09c-.61-4-1.12-7.43-1.12-7.43S66.1,282,65.09,289.08Z" style="opacity:0.2"></path><path d="M108.77,242.68c0,.58.26,1.06.64,1.08s.7-.44.73-1-.26-1.07-.63-1.09S108.8,242.1,108.77,242.68Z" style="fill:#263238"></path><path d="M109,243.74a20.62,20.62,0,0,0,2.54,5.08,3.36,3.36,0,0,1-2.8.39Z" style="fill:#de5753"></path><path d="M106.8,239.36a.35.35,0,0,1-.2-.14.34.34,0,0,1,.1-.47,3.37,3.37,0,0,1,3.09-.38.33.33,0,0,1,.17.45.35.35,0,0,1-.45.17h0a2.7,2.7,0,0,0-2.44.33A.32.32,0,0,1,106.8,239.36Z" style="fill:#263238"></path><path d="M108.84,251.56a10.24,10.24,0,0,1-1,2.27,9.94,9.94,0,0,1-3,3.21,9.67,9.67,0,0,1-4.23,1.62,8.89,8.89,0,0,1-7.9-3c-3.42-3.82-3.11-8-3.21-15.14a9.73,9.73,0,0,1,13.85-9.06C110.2,234.64,110.66,245.24,108.84,251.56Z" style="fill:#e4897b"></path><path d="M89.82,252.2c2.43,2.35,14.16-.46,14.12-9.23,0,0,5.14-3.75,6-9.09s-2.2-8.26-6.31-8.1c-3.62.14-4,2-4,2S83.27,225.63,85,233C76.76,238.39,86.79,249.28,89.82,252.2Z" style="fill:#263238"></path><path d="M100.81,243.69a8,8,0,0,0,1.76,4.87c1.47,1.81,3.16.83,3.55-1.26.35-1.88,0-5.08-1.85-6.13S100.8,241.56,100.81,243.69Z" style="fill:#e4897b"></path><path d="M107.86,253.83a9.94,9.94,0,0,1-3,3.21,9.67,9.67,0,0,1-4.23,1.62,21,21,0,0,1-2.41-2.23l2.15-3.22S104.29,256.26,107.86,253.83Z" style="opacity:0.2"></path><path d="M87.25,263.37l3.59-10.59s6.14-2.64,11.26,1l-.44,8Z" style="fill:#e4897b"></path><path d="M83.27,261.07l2-3s15.08-.92,21.44,6C106.71,264.05,92,267.1,83.27,261.07Z" style="fill:#407BFF"></path><path d="M83.27,261.07l2-3s15.08-.92,21.44,6C106.71,264.05,92,267.1,83.27,261.07Z" style="opacity:0.2"></path><path d="M112.71,274.39c0,.16-.11.33-.17.51-1.35,4.07-2.49,8.06-3.45,11.85-.67,2.63-1.26,5.16-1.79,7.57-2.38,11-3.35,19.37-4.12,22.15-5.6,0-26.66-.07-38.16-.11,1.66-34.37,8.37-53,8.37-53s10-5,26.85-2.08c6.09,1.05,14.3,4.5,14.3,4.5C112.4,270.49,114.26,269.76,112.71,274.39Z" style="fill:#407BFF"></path><path d="M112.71,274.39c0,.16-.11.33-.17.51-1.35,4.07-2.49,8.06-3.45,11.85-.67,2.63-1.26,5.16-1.79,7.57-2.61-6.86-1.1-18.05-1.1-18.05Z" style="opacity:0.2"></path><path d="M104.63,268c5.7-6.49,12.24-13.09,18-19.52,1.8-4,2.76-10,3.86-14.77l3-14.46,4.95.5c0,5-.21,10-.62,15-.54,5.59-.9,10.92-2.6,16.49a10.62,10.62,0,0,1-.95,2.1A128.53,128.53,0,0,1,122,263.73c-3.23,3.79-6.55,7.47-10,11.08L104.63,268Z" style="fill:#dc897c"></path><path d="M129.21,221.74,124.69,216l7.91-1.77s3.72,5.37.87,7.17Z" style="fill:#e4897b"></path><polygon points="126.43 209.45 131.15 209.59 132.6 214.22 124.69 215.99 126.43 209.45" style="fill:#e4897b"></polygon><path d="M101.7,275.82c-1.57-6.07,4.08-10.67,15-22.55L126.89,261s-6.77,12.06-12.6,15.42S101.7,275.82,101.7,275.82Z" style="fill:#407BFF"></path><polygon points="89.98 353.55 87.81 424.6 90.88 424.6 94.45 353.55 89.98 353.55" style="fill:#263238"></polygon><polygon points="100.24 355.17 127.66 355.17 136.34 424.6 139.9 424.6 131.9 350.23 100.24 350.97 100.24 355.17" style="fill:#263238"></polygon><polygon points="98.24 350.97 59.37 350.97 57.37 350.97 48.83 424.6 50.76 424.6 51.14 421.93 50.83 424.6 52.76 424.6 62.58 355.34 94.54 355.34 94.79 424.6 96.79 424.6 96.94 424.6 98.94 424.6 100.24 350.97 98.24 350.97" style="fill:#263238"></polygon><polygon points="96.94 424.6 98.24 350.97 57.37 350.97 48.83 424.6 50.76 424.6 60.58 355.34 94.54 355.34 94.79 424.6 96.94 424.6" style="fill:#fff;opacity:0.2"></polygon><polygon points="127.66 355.17 129.9 355.17 138.37 424.6 136.34 424.6 127.66 355.17" style="fill:#fff;opacity:0.2"></polygon><path d="M101.47,340l-8.61-71.29a7.65,7.65,0,0,0-7.6-6.74H45.21a1.82,1.82,0,0,0-1.82,1.83V338a14,14,0,0,0,14,14h80.12a.88.88,0,0,0,.88-.88h0a6.27,6.27,0,0,0-6.27-6.26H106.91A5.47,5.47,0,0,1,101.47,340Z" style="fill:#263238"></path><path d="M138.37,351.09a.89.89,0,0,1-.88.88H57.37a14,14,0,0,1-14-14V263.79a1.83,1.83,0,0,1,.24-.9,1.81,1.81,0,0,1,1.58-.92H85.26a7.64,7.64,0,0,1,7.6,6.74L101.47,340a5.47,5.47,0,0,0,5.44,4.82H132.1a6.28,6.28,0,0,1,6.27,6.27Z" style="fill:#fff;opacity:0.7000000000000001"></path><path d="M108.37,352h-51a14,14,0,0,1-14-14V263.79a1.83,1.83,0,0,1,.24-.9h40a6.1,6.1,0,0,1,6.07,5.48l7.49,73.52A11.22,11.22,0,0,0,108.37,352Z" style="opacity:0.2"></path></g><g id="freepik--character-2--inject-152"><polygon points="217.29 401.71 218.7 411.27 219.84 419.01 212.7 420.81 208.45 403.94 217.29 401.71" style="fill:#ebb376"></polygon><polygon points="217.29 401.71 218.7 411.27 210.92 413.75 208.45 403.94 217.29 401.71" style="opacity:0.2"></polygon><path d="M220.56,415.31h-9.18a.68.68,0,0,0-.67.56l-1.23,7.26a1.28,1.28,0,0,0,1.27,1.46c3.2-.06,4.75-.25,8.79-.25,2.48,0,7.61.26,11,.26s3.7-3.39,2.28-3.7c-6.37-1.37-8.84-3.27-11-5.08A2.08,2.08,0,0,0,220.56,415.31Z" style="fill:#263238"></path><path d="M186.46,345.23,208,411.67,218.83,408s-7.48-64.35-13.24-69.46S186.46,345.23,186.46,345.23Z" style="fill:#407BFF"></path><path d="M220.56,415.31h-9.18a.68.68,0,0,0-.67.56l-1.23,7.26a1.28,1.28,0,0,0,1.27,1.46c3.2-.06,4.75-.25,8.79-.25,2.48,0,7.61.26,11,.26s3.7-3.39,2.28-3.7c-6.37-1.37-8.84-3.27-11-5.08A2.08,2.08,0,0,0,220.56,415.31Z" style="fill:#fff;opacity:0.30000000000000004"></path><path d="M186.46,345.23,208,411.67,218.83,408s-7.48-64.35-13.24-69.46S186.46,345.23,186.46,345.23Z" style="opacity:0.2"></path><path d="M194.33,292l4.75-5.1,2.84,7.19s-4.51,4.3-6.63,1.88Z" style="fill:#ebb376"></path><polygon points="205.5 287.56 206.07 292.03 201.92 294.08 199.08 286.88 205.5 287.56" style="fill:#ebb376"></polygon><g style="opacity:0.1"><path d="M194.33,292l4.75-5.1,2.84,7.19s-4.51,4.3-6.63,1.88Z"></path><polygon points="205.5 287.56 206.07 292.03 201.92 294.08 199.08 286.88 205.5 287.56"></polygon></g><path d="M199.52,272.52c4.31,7.08,8.32,13.93,11.47,21.69,2.57,6-1.67,9.76-7.57,8.92-6.48-.86-12.14-3.11-17.95-5.72l1.47-4.75c3.87.55,7.8,1.15,11.57,1.59,2.32.2,4.53.6,6.53.18-.49.08-1.07.34-1.78,1.39a3.65,3.65,0,0,0-.47,2.48c.06.27-.24-.49-.3-.58-3.42-6.58-7.89-13.51-11.56-20l8.59-5.2Z" style="fill:#e7b278"></path><polygon points="239.56 402.56 238.59 412.18 237.8 419.95 230.44 419.95 230.44 402.56 239.56 402.56" style="fill:#ebb376"></polygon><polygon points="239.56 402.56 238.59 412.18 230.44 412.68 230.44 402.56 239.56 402.56" style="opacity:0.2"></polygon><path d="M196.83,314.19l6.38,8.65s28.95-2.17,38.14,3.93-1.59,83.55-1.59,83.55l-11.22,1s-1.48-66.82-2.84-67.19-53.88,5.81-61.37,0-1.77-32.51-1.77-32.51Z" style="fill:#407BFF"></path><path d="M182.88,239.16c.05.58.39,1,.77,1s.64-.53.59-1.11-.39-1-.77-1S182.83,238.58,182.88,239.16Z" style="fill:#263238"></path><path d="M183.22,240.18a20.79,20.79,0,0,0,3.17,4.71,3.33,3.33,0,0,1-2.71.75Z" style="fill:#d58745"></path><path d="M180.49,236.13a.34.34,0,0,1-.18-.6,3.39,3.39,0,0,1,3-.78.34.34,0,0,1,.23.42.35.35,0,0,1-.42.23h0a2.72,2.72,0,0,0-2.38.65A.35.35,0,0,1,180.49,236.13Z" style="fill:#263238"></path><path d="M184.1,248a9.85,9.85,0,0,1-.66,2.38,10,10,0,0,1-2.56,3.58,9.76,9.76,0,0,1-4,2.16,8.87,8.87,0,0,1-8.22-1.93c-3.89-3.34-4.14-7.53-5.17-14.59a9.73,9.73,0,0,1,12.54-10.8C183.24,231,185.09,241.45,184.1,248Z" style="fill:#ebb376"></path><path d="M183.44,250.33a10,10,0,0,1-2.56,3.58,9.76,9.76,0,0,1-4,2.16,21.72,21.72,0,0,1-2.68-1.89l1.7-3.48S180.22,253.2,183.44,250.33Z" style="opacity:0.2"></path><path d="M174.72,247.12c-.44,3.34-5.48,1.36-8.75,3.32,0,0-5.65-2.63-8.7-16.79-1.82-8.42,16.42-9.27,16.42-9.27s.24-2-2.21-3.19c0,0,4.42-.2,6,3.25a3.51,3.51,0,0,0-.44-3.29s8.35,3.2,3.42,10.56c0,0-2.88-.69-2,1s5.46,6.37-1.65,11A7.08,7.08,0,0,0,174.72,247.12Z" style="fill:#263238"></path><path d="M175.12,241.21a8,8,0,0,0,2.38,4.59c1.69,1.6,3.24.4,3.35-1.71.11-1.91-.65-5-2.64-5.84S174.82,239.09,175.12,241.21Z" style="fill:#ebb376"></path><path d="M180.23,265.09,178.54,253s-4.23-5.92-11.76-2.6l-.27,10Z" style="fill:#ebb376"></path><path d="M162.59,261.07l2-3s15.08-.92,21.43,6C186,264.05,171.32,267.1,162.59,261.07Z" style="fill:#407BFF"></path><path d="M162.59,261.07l2-3s15.08-.92,21.43,6C186,264.05,171.32,267.1,162.59,261.07Z" style="fill:#fff;opacity:0.5"></path><path d="M194.39,275c0,.16,0,.33,0,.51,0,4,.13,7.95.4,11.68.18,2.6.41,5.09.66,7.47,1.18,10.81,2.94,19.1,3.07,21.85-5.61,0-26.68-.07-38.19-.1-9.5-33.91-8.83-52.27-8.83-52.27s8.34-4.91,26.18-2.05c6.42,1,15.75,4.42,15.75,4.42C192.81,271.12,194.44,270.4,194.39,275Z" style="fill:#407BFF"></path><g style="opacity:0.7000000000000001"><path d="M198.51,316.47c-5.61,0-26.69-.07-38.2-.1-9.49-33.91-8.82-52.27-8.82-52.27s8.34-4.91,26.18-2.05c6.42,1,15.75,4.43,15.75,4.43-.61,4.64,1,3.92,1,8.49,0,.16,0,.33,0,.5,0,3.45.09,6.84.3,10.09,0,.54.06,1.07.1,1.6.12,1.74.26,3.44.42,5.09.08.81.16,1.6.24,2.38C196.62,305.43,198.38,313.73,198.51,316.47Z" style="fill:#fff"></path></g><path d="M238.56,415.31h-9.18a.68.68,0,0,0-.67.56l-1.23,7.26a1.28,1.28,0,0,0,1.27,1.46c3.2-.06,4.75-.25,8.79-.25,2.48,0,7.61.26,11,.26s3.7-3.39,2.28-3.7c-6.37-1.37-8.84-3.27-11-5.08A2.06,2.06,0,0,0,238.56,415.31Z" style="fill:#263238"></path><path d="M238.56,415.31h-9.18a.68.68,0,0,0-.67.56l-1.23,7.26a1.28,1.28,0,0,0,1.27,1.46c3.2-.06,4.75-.25,8.79-.25,2.48,0,7.61.26,11,.26s3.7-3.39,2.28-3.7c-6.37-1.37-8.84-3.27-11-5.08A2.06,2.06,0,0,0,238.56,415.31Z" style="fill:#fff;opacity:0.4"></path><path d="M195.2,292.25c-3-1.47-5.21-8.59-5.21-8.59a34.18,34.18,0,0,1,4.69,1.9c0,.54.06,1.07.1,1.6C194.9,288.9,195,290.6,195.2,292.25Z" style="opacity:0.2"></path><path d="M193.42,266.47c6.27,1.76,15.08,21.42,15.08,21.42s-3.7,6.09-9.32,6.43L189.1,283.65Z" style="fill:#407BFF"></path><path d="M193.42,266.47c6.27,1.76,15.08,21.42,15.08,21.42s-3.7,6.09-9.32,6.43L189.1,283.65Z" style="fill:#fff;opacity:0.7000000000000001"></path><polygon points="185.31 353.55 183.14 424.6 186.21 424.6 189.78 353.55 185.31 353.55" style="fill:#263238"></polygon><polygon points="195.56 355.17 222.99 355.17 231.67 424.6 235.23 424.6 227.23 350.23 195.56 350.97 195.56 355.17" style="fill:#263238"></polygon><polygon points="193.56 350.97 154.7 350.97 152.7 350.97 144.16 424.6 146.09 424.6 146.47 421.93 146.16 424.6 148.09 424.6 157.91 355.34 189.87 355.34 190.12 424.6 192.12 424.6 192.27 424.6 194.27 424.6 195.56 350.97 193.56 350.97" style="fill:#263238"></polygon><polygon points="192.27 424.6 193.56 350.97 152.7 350.97 144.16 424.6 146.09 424.6 155.91 355.34 189.86 355.34 190.12 424.6 192.27 424.6" style="fill:#fff;opacity:0.2"></polygon><polygon points="222.99 355.17 225.23 355.17 233.69 424.6 231.67 424.6 222.99 355.17" style="fill:#fff;opacity:0.2"></polygon><path d="M196.8,340l-8.61-71.29a7.66,7.66,0,0,0-7.6-6.74H140.54a1.82,1.82,0,0,0-1.82,1.83V338a14,14,0,0,0,14,14h80.12a.87.87,0,0,0,.87-.88h0a6.26,6.26,0,0,0-6.26-6.26h-25.2A5.47,5.47,0,0,1,196.8,340Z" style="fill:#263238"></path><path d="M233.7,351.09a.89.89,0,0,1-.88.88H152.7a14,14,0,0,1-14-14V263.79a1.83,1.83,0,0,1,.24-.9,1.81,1.81,0,0,1,1.58-.92h40.05a7.64,7.64,0,0,1,7.6,6.74L196.8,340a5.47,5.47,0,0,0,5.44,4.82h25.19a6.28,6.28,0,0,1,6.27,6.27Z" style="fill:#fff;opacity:0.7000000000000001"></path><path d="M203.7,352h-51a14,14,0,0,1-14-14V263.79a1.83,1.83,0,0,1,.24-.9h40a6.1,6.1,0,0,1,6.07,5.48l7.49,73.52A11.22,11.22,0,0,0,203.7,352Z" style="opacity:0.2"></path></g><g id="freepik--character-3--inject-152"><polygon points="281.79 415.88 288.33 417.57 293.07 402.71 286.53 401.01 281.79 415.88" style="fill:#b55b52"></polygon><polygon points="293.07 402.71 290.44 410.97 284.08 408.69 286.52 401.02 293.07 402.71" style="opacity:0.2"></polygon><path d="M283.47,404.7l8.14-51.15-23.07-9.8,18.1-8.33s17.42,5.19,23.25,9.4-17.4,62.2-17.4,62.2Z" style="fill:#407BFF"></path><path d="M283.47,404.7l8.14-51.15-23.07-9.8,18.1-8.33s17.42,5.19,23.25,9.4-17.4,62.2-17.4,62.2Z" style="fill:#fff;opacity:0.6000000000000001"></path><path d="M289.3,414.85l-7.22-2.29a.55.55,0,0,0-.66.28l-2.78,5.4a1,1,0,0,0,.63,1.46c2.54.76,3.8,1,7,2,2,.62,5.93,2.11,8.63,3s3.75-1.74,2.71-2.34c-4.66-2.67-6.13-4.78-7.34-6.73A1.81,1.81,0,0,0,289.3,414.85Z" style="fill:#263238"></path><path d="M293,415.93a.93.93,0,0,0,.53-.65.49.49,0,0,0-.12-.48c-.63-.68-3.65-.2-4-.14a.15.15,0,0,0-.13.13.17.17,0,0,0,.08.17,11.81,11.81,0,0,0,1.94.87A2.58,2.58,0,0,0,293,415.93Zm.18-.91a.18.18,0,0,1,0,.19.59.59,0,0,1-.35.43c-.51.22-1.58-.05-2.93-.74C291.19,414.73,292.85,414.64,293.2,415Z" style="fill:#407BFF"></path><path d="M289.48,415c.9-.11,2.89-1,3-1.77,0-.18,0-.42-.43-.6l-.13,0c-1.43-.46-2.56,2.07-2.61,2.18a.15.15,0,0,0,0,.16.12.12,0,0,0,.08.06Zm2.45-2.08c.26.12.25.23.24.27-.07.45-1.47,1.21-2.42,1.43.32-.61,1.17-2,2.09-1.73Z" style="fill:#407BFF"></path><polygon points="282.43 402.75 281.59 405.93 292.51 409.61 294.58 405.49 282.43 402.75" style="fill:#407BFF"></polygon><polygon points="313.15 420.74 319.9 420.47 320.13 404.87 313.38 405.14 313.15 420.74" style="fill:#b55b52"></polygon><path d="M320,417.16h-7.57a.56.56,0,0,0-.55.46l-1,6a1.05,1.05,0,0,0,1.05,1.2c2.65,0,3.92-.2,7.25-.2,2.05,0,6.29.22,9.12.22s3.05-2.8,1.88-3.06c-5.26-1.13-7.3-2.7-9-4.19A1.71,1.71,0,0,0,320,417.16Z" style="fill:#263238"></path><polygon points="320.13 404.87 320.01 413.54 313.26 413.19 313.38 405.14 320.13 404.87" style="opacity:0.2"></polygon><path d="M324.13,417.93a.9.9,0,0,0,.31-.78.47.47,0,0,0-.26-.42c-.81-.46-3.54.91-3.85,1.07a.15.15,0,0,0-.08.16.16.16,0,0,0,.12.14,11.8,11.8,0,0,0,2.12.24A2.56,2.56,0,0,0,324.13,417.93ZM324,417a.18.18,0,0,1,.1.17.6.6,0,0,1-.2.52c-.42.36-1.53.43-3,.18C322,417.34,323.58,416.75,324,417Z" style="fill:#407BFF"></path><path d="M320.47,418.09c.82-.37,2.45-1.83,2.33-2.59,0-.18-.15-.4-.59-.44h-.13c-1.51,0-1.82,2.76-1.83,2.88a.15.15,0,0,0,.06.14l.09,0Zm1.71-2.72c.28,0,.3.14.31.18.07.46-1,1.6-1.88,2.1.12-.68.5-2.28,1.47-2.28Z" style="fill:#407BFF"></path><path d="M280,308.66l5.23,11.12s33.89,1.29,42.18,14.87c3.34,5.47-7,77-7,77l-8.65-.56s-3.83-40-3.08-63.8c0,0-34.85,4.9-44.22.2s-12.7-13.63-11.68-25.89S280,308.66,280,308.66Z" style="fill:#407BFF"></path><path d="M280,308.66l5.23,11.12s33.89,1.29,42.18,14.87c3.34,5.47-7,77-7,77l-8.65-.56s-3.83-40-3.08-63.8c0,0-34.85,4.9-44.22.2s-12.7-13.63-11.68-25.89S280,308.66,280,308.66Z" style="fill:#fff;opacity:0.7000000000000001"></path><path d="M253.9,280c-3.27,7.41-6.5,15.37-8.07,23.27a2.31,2.31,0,0,0-.85-1.85c-.19-.14-.27-.15-.29-.15a5.14,5.14,0,0,0,1.78.29c5.85,0,12-1.34,17.9-2.37l1.22,3.84c-5.56,2.21-23.51,9.83-26.72,1.92a6.12,6.12,0,0,1-.22-3.44c1.22-8.92,4.13-17,7.91-25L253.9,280Z" style="fill:#b55b52"></path><path d="M240.78,285.9l9.95,6.06s.54-.58,1.32-1.56c1.59-2,4.15-5.74,4.85-9.58a9.7,9.7,0,0,0,.07-3.48c-.59-3.37-3.83-5.94-8.12-4.29S240.78,285.9,240.78,285.9Z" style="fill:#407BFF"></path><path d="M252.05,290.4c1.59-2,4.15-5.74,4.85-9.58-.37-.49-2.12-3.44-2.58-3.92C254.32,276.9,249,281.11,252.05,290.4Z" style="opacity:0.2"></path><polygon points="309.89 408.08 310.06 411.37 321.58 411.57 322.3 407.02 309.89 408.08" style="fill:#407BFF"></polygon><path d="M278.62,250.74c0,.54.3,1,.66,1s.64-.43.63-1-.31-1-.67-1S278.6,250.2,278.62,250.74Z" style="fill:#263238"></path><path d="M279.09,249.79l1.3-.36S279.74,250.44,279.09,249.79Z" style="fill:#263238"></path><path d="M279.09,251.27a14.89,14.89,0,0,0,2,3.46,2.35,2.35,0,0,1-1.94.35Z" style="fill:#a02724"></path><path d="M279.28,247.13h-.16a2.63,2.63,0,0,0-2.33.28.32.32,0,0,1-.45-.06.31.31,0,0,1,.06-.44,3.27,3.27,0,0,1,2.92-.39.32.32,0,0,1,0,.61Z" style="fill:#263238"></path><path d="M251.68,335.42c19.37,4.72,37.28-7.67,37.28-7.67-6.06-15.39-3.7-27.88-2.33-35.33a41.43,41.43,0,0,0,.7-4.54,27.5,27.5,0,0,0-.15-4.64,104.86,104.86,0,0,1-.64-10.7s-7.92-2.63-26.4-2.5a5.11,5.11,0,0,0-.87.15c-.82.17-1.62.35-2.4.53-.54.12-1.05.24-1.55.38s-1.15.31-1.69.46c-2.85.8-4.83,1.51-4.83,1.51C257.69,294.84,247.34,319.36,251.68,335.42Z" style="fill:#407BFF"></path><path d="M260.29,249.11c.55,6.65.63,9.47,4.09,12.9,5.21,5.17,13.33,3.28,14.8-3.34,1.32-6,.21-15.82-6.42-18.52A8.92,8.92,0,0,0,260.29,249.11Z" style="fill:#b55b52"></path><path d="M273.6,250.15a6,6,0,0,0,1.8,3.16c1.27,1.2,2.39.61,2.45-.71s-.54-3.25-2-4S273.36,248.79,273.6,250.15Z" style="fill:#b55b52"></path><path d="M286,305c.35-1.83,1.24-16,1.31-17.15a27.5,27.5,0,0,0-.15-4.64c-3.58-2.63-6.08,4.77-6.08,4.77S277.85,296.08,286,305Z" style="opacity:0.2"></path><path d="M290.86,281.1A166.89,166.89,0,0,0,294,307.26c.28,1.21,1.9,2.66,3.05,3.6,5.13,4,11.4,7,17.32,9.79L313,324.72a79.27,79.27,0,0,1-13.62-4.49c-5.16-2.48-11.29-5.23-13.09-11.42a109.55,109.55,0,0,1-4.06-27.54l8.65-.17Z" style="fill:#b55b52"></path><path d="M313,320.23l5.65,2-2.74,4.57s-5.78-1-5-5.11Z" style="fill:#b55b52"></path><polygon points="320.49 324.26 319.16 328.49 315.88 326.77 318.62 322.21 320.49 324.26" style="fill:#b55b52"></polygon><path d="M286.54,272.54c3.84,1.09,8.57,13.1,8.47,17.16l-12.85,6.38s-3.07-7.22-.2-17.47C283,274.76,284.45,272,286.54,272.54Z" style="fill:#407BFF"></path><path d="M276.43,238.69c4.19,2,4.26,12.08-1.18,16.24,0,0-.11,6.63,3.17,9.83s.95,10.62-6.17,15.95c0,0,1.93-3.12,2-4.26a19.27,19.27,0,0,1-7.24,7.16c-5,2.77-3.83,6.28-3.83,6.28s-7.58-1.15-7.39-8.6a6.49,6.49,0,0,0,.11,4.84,11.86,11.86,0,0,1-5.05-10.28c.47-6.74,3.63-8.14,1.75-22.8C251,240.3,262.6,232.12,276.43,238.69Z" style="fill:#263238"></path><polygon points="273.22 353.55 271.05 424.6 274.11 424.6 277.69 353.55 273.22 353.55" style="fill:#263238"></polygon><polygon points="283.47 355.17 310.9 355.17 319.58 424.6 323.13 424.6 315.13 350.23 283.47 350.97 283.47 355.17" style="fill:#263238"></polygon><polygon points="281.47 350.97 242.61 350.97 240.61 350.97 232.06 424.6 234 424.6 234.37 421.93 234.06 424.6 236 424.6 245.82 355.34 277.77 355.34 278.03 424.6 280.03 424.6 280.18 424.6 282.18 424.6 283.47 350.97 281.47 350.97" style="fill:#263238"></polygon><polygon points="280.18 424.6 281.47 350.97 240.61 350.97 232.06 424.6 234 424.6 243.81 355.34 277.77 355.34 278.03 424.6 280.18 424.6" style="fill:#fff;opacity:0.2"></polygon><polygon points="310.9 355.17 313.13 355.17 321.6 424.6 319.58 424.6 310.9 355.17" style="fill:#fff;opacity:0.2"></polygon><path d="M284.7,340l-8.6-71.29a7.67,7.67,0,0,0-7.6-6.74H228.44a1.83,1.83,0,0,0-1.82,1.83V338a14,14,0,0,0,14,14h80.12a.87.87,0,0,0,.87-.88h0a6.26,6.26,0,0,0-6.26-6.26h-25.2A5.49,5.49,0,0,1,284.7,340Z" style="fill:#263238"></path><path d="M321.61,351.09a.89.89,0,0,1-.88.88H240.61a14,14,0,0,1-14-14V263.79a1.83,1.83,0,0,1,.24-.9,1.81,1.81,0,0,1,1.58-.92H268.5a7.64,7.64,0,0,1,7.6,6.74L284.71,340a5.47,5.47,0,0,0,5.44,4.82h25.19a6.28,6.28,0,0,1,6.27,6.27Z" style="fill:#fff;opacity:0.7000000000000001"></path><path d="M291.61,352h-51a14,14,0,0,1-14-14V263.79a1.83,1.83,0,0,1,.24-.9h40a6.1,6.1,0,0,1,6.07,5.48l7.49,73.52A11.22,11.22,0,0,0,291.61,352Z" style="opacity:0.2"></path></g></svg>
