<svg xmlns="http://www.w3.org/2000/svg" viewBox="0 0 500 500"><g id="freepik--background-complete--inject-48"><rect y="382.4" width="500" height="0.25" style="fill:#ebebeb"></rect><rect x="416.78" y="398.49" width="33.12" height="0.25" style="fill:#ebebeb"></rect><rect x="322.53" y="401.21" width="8.69" height="0.25" style="fill:#ebebeb"></rect><rect x="396.59" y="389.21" width="19.19" height="0.25" style="fill:#ebebeb"></rect><rect x="52.46" y="390.89" width="43.19" height="0.25" style="fill:#ebebeb"></rect><rect x="104.56" y="390.89" width="6.33" height="0.25" style="fill:#ebebeb"></rect><rect x="131.47" y="395.11" width="93.68" height="0.25" style="fill:#ebebeb"></rect><path d="M237,337.8H43.91a5.71,5.71,0,0,1-5.7-5.71V60.66A5.71,5.71,0,0,1,43.91,55H237a5.71,5.71,0,0,1,5.71,5.71V332.09A5.71,5.71,0,0,1,237,337.8ZM43.91,55.2a5.46,5.46,0,0,0-5.45,5.46V332.09a5.46,5.46,0,0,0,5.45,5.46H237a5.47,5.47,0,0,0,5.46-5.46V60.66A5.47,5.47,0,0,0,237,55.2Z" style="fill:#ebebeb"></path><path d="M453.31,337.8H260.21a5.72,5.72,0,0,1-5.71-5.71V60.66A5.72,5.72,0,0,1,260.21,55h193.1A5.71,5.71,0,0,1,459,60.66V332.09A5.71,5.71,0,0,1,453.31,337.8ZM260.21,55.2a5.47,5.47,0,0,0-5.46,5.46V332.09a5.47,5.47,0,0,0,5.46,5.46h193.1a5.47,5.47,0,0,0,5.46-5.46V60.66a5.47,5.47,0,0,0-5.46-5.46Z" style="fill:#ebebeb"></path><path d="M237,181.11v17.56l9,.85a46.92,46.92,0,0,0,6.75,16.23l-5.81,7,12.42,12.42,7-5.81a46.85,46.85,0,0,0,16.22,6.74l.85,9H301.1l.85-9a46.9,46.9,0,0,0,16.23-6.74l7,5.81,12.42-12.42-5.81-7a46.9,46.9,0,0,0,6.74-16.23l9.05-.85V181.11l-9.05-.86A46.93,46.93,0,0,0,331.81,164l5.81-7L325.2,144.59l-7,5.81A47.11,47.11,0,0,0,302,143.65l-.85-9H283.53l-.85,9a47.06,47.06,0,0,0-16.22,6.75l-7-5.81L247,157l5.81,7a47,47,0,0,0-6.75,16.22Zm55.28-15a23.78,23.78,0,1,1-23.78,23.78A23.78,23.78,0,0,1,292.32,166.11Z" style="fill:#f0f0f0"></path><path d="M207.36,259.71l5,4.18,8.93-8.93-4.18-5A33.62,33.62,0,0,0,222,238.26l6.5-.61V225l-6.5-.61a33.62,33.62,0,0,0-4.85-11.66l4.18-5-8.93-8.93-5,4.18a33.81,33.81,0,0,0-11.66-4.85l-.61-6.5H182.47l-.61,6.5A33.81,33.81,0,0,0,170.2,203l-5-4.18-8.93,8.93,4.18,5a33.62,33.62,0,0,0-4.85,11.66l-6.5.61v12.62l6.5.61a33.62,33.62,0,0,0,4.85,11.66l-4.18,5,8.93,8.93,5-4.18a33.81,33.81,0,0,0,11.66,4.85l.61,6.5h12.62l.61-6.5A33.81,33.81,0,0,0,207.36,259.71ZM171.7,231.34a17.09,17.09,0,1,1,17.08,17.09A17.08,17.08,0,0,1,171.7,231.34Z" style="fill:#f5f5f5"></path><path d="M263.45,345.2a40,40,0,0,0,13.88-5.77l6,5L294,333.78l-5-6a40,40,0,0,0,5.77-13.88l7.74-.72v-15l-7.74-.73A40,40,0,0,0,289,283.53l5-6L283.34,266.9l-6,5a40.22,40.22,0,0,0-13.88-5.77l-.73-7.73h-15L247,266.1a40.22,40.22,0,0,0-13.88,5.77l-6-5-10.63,10.63,5,6a40.22,40.22,0,0,0-5.77,13.88l-7.74.73v15l7.74.72a40.14,40.14,0,0,0,5.77,13.88l-5,6,10.63,10.62,6-5A40,40,0,0,0,247,345.2l.73,7.74h15Zm-28.58-39.55A20.34,20.34,0,1,1,255.21,326,20.34,20.34,0,0,1,234.87,305.65Z" style="fill:#fafafa"></path><rect x="92.09" y="160.02" width="46.43" height="46.43" transform="translate(25.88 -13.93) rotate(7.78)" style="fill:#f5f5f5"></rect><rect x="115.51" y="158.13" width="3" height="30.23" transform="translate(-70.49 265.71) rotate(-82.22)" style="fill:#e0e0e0"></rect><rect x="114.23" y="167.46" width="3" height="30.23" transform="translate(-80.84 272.51) rotate(-82.22)" style="fill:#e0e0e0"></rect><rect x="106.76" y="182.48" width="3" height="17.8" transform="translate(-96.02 272.72) rotate(-82.22)" style="fill:#e0e0e0"></rect><rect x="352.68" y="112.31" width="46.43" height="46.43" transform="translate(-0.48 1.35) rotate(-0.2)" style="fill:#f0f0f0"></rect><rect x="361.07" y="123.89" width="30.23" height="3" transform="translate(-0.45 1.35) rotate(-0.21)" style="fill:#e0e0e0"></rect><rect x="361.11" y="133.31" width="30.23" height="3" transform="translate(-0.48 1.35) rotate(-0.21)" style="fill:#e0e0e0"></rect><rect x="361.14" y="143.07" width="17.8" height="3" transform="translate(-0.52 1.33) rotate(-0.21)" style="fill:#e0e0e0"></rect><rect x="383.56" y="228.22" width="46.43" height="46.43" transform="translate(-28.38 53.13) rotate(-7.22)" style="fill:#f5f5f5"></rect><rect x="390.72" y="239.85" width="30.23" height="3" transform="translate(-27.11 52.9) rotate(-7.22)" style="fill:#e0e0e0"></rect><rect x="391.9" y="249.19" width="30.23" height="3" transform="translate(-28.27 53.12) rotate(-7.22)" style="fill:#e0e0e0"></rect><rect x="393.17" y="259.63" width="17.8" height="3" transform="translate(-29.62 52.58) rotate(-7.22)" style="fill:#e0e0e0"></rect><rect x="133.59" y="300.33" width="46.43" height="46.43" transform="translate(-1.16 0.56) rotate(-0.2)" style="fill:#f0f0f0"></rect><rect x="141.99" y="311.91" width="30.23" height="3" transform="translate(-1.12 0.56) rotate(-0.21)" style="fill:#e0e0e0"></rect><rect x="142.02" y="321.33" width="30.23" height="3" transform="translate(-1.15 0.56) rotate(-0.21)" style="fill:#e0e0e0"></rect><rect x="142.06" y="331.09" width="17.8" height="3" transform="translate(-1.19 0.54) rotate(-0.21)" style="fill:#e0e0e0"></rect><rect x="338.66" y="323.04" width="46.43" height="46.43" transform="translate(-1.24 1.3) rotate(-0.2)" style="fill:#f0f0f0"></rect><rect x="347.05" y="334.62" width="30.23" height="3" transform="translate(-1.2 1.3) rotate(-0.21)" style="fill:#e0e0e0"></rect><rect x="347.09" y="344.04" width="30.23" height="3" transform="translate(-1.23 1.3) rotate(-0.21)" style="fill:#e0e0e0"></rect><rect x="347.12" y="353.8" width="17.8" height="3" transform="translate(-1.27 1.28) rotate(-0.21)" style="fill:#e0e0e0"></rect><rect x="148.48" y="113.71" width="46.43" height="46.43" transform="translate(-25.6 40.48) rotate(-12.52)" style="fill:#f0f0f0"></rect><rect x="154.71" y="125.46" width="30.23" height="3" transform="translate(-23.49 39.84) rotate(-12.52)" style="fill:#e0e0e0"></rect><rect x="156.75" y="134.66" width="30.23" height="3" transform="translate(-25.43 40.5) rotate(-12.52)" style="fill:#e0e0e0"></rect><rect x="159.01" y="145.51" width="17.8" height="3" transform="translate(-27.88 39.9) rotate(-12.52)" style="fill:#e0e0e0"></rect><polygon points="99.24 162.1 98.41 162.1 97.26 156.8 100.38 156.8 99.24 162.1" style="fill:#e0e0e0"></polygon><ellipse cx="98.82" cy="157.46" rx="4.22" ry="3.33" style="fill:#e6e6e6"></ellipse><polygon points="184.07 115.83 183.24 115.83 182.1 110.54 185.22 110.54 184.07 115.83" style="fill:#e0e0e0"></polygon><ellipse cx="183.66" cy="111.2" rx="4.23" ry="3.33" style="fill:#e6e6e6"></ellipse><polygon points="375.14 117.16 374.31 117.16 373.16 111.87 376.28 111.87 375.14 117.16" style="fill:#e0e0e0"></polygon><ellipse cx="374.72" cy="112.53" rx="4.22" ry="3.33" style="fill:#e6e6e6"></ellipse><polygon points="422.6 232.15 421.77 232.15 420.63 226.86 423.75 226.86 422.6 232.15" style="fill:#e0e0e0"></polygon><ellipse cx="422.19" cy="227.52" rx="4.22" ry="3.33" style="fill:#e6e6e6"></ellipse><polygon points="362.59 328.27 361.75 328.27 360.61 322.97 363.73 322.97 362.59 328.27" style="fill:#e0e0e0"></polygon><ellipse cx="362.17" cy="323.63" rx="4.22" ry="3.33" style="fill:#e6e6e6"></ellipse><polygon points="155.48 304.47 154.65 304.47 153.51 299.17 156.63 299.17 155.48 304.47" style="fill:#e0e0e0"></polygon><ellipse cx="155.07" cy="299.83" rx="4.22" ry="3.33" style="fill:#e6e6e6"></ellipse></g><g id="freepik--Shadow--inject-48"><ellipse id="freepik--path--inject-48" cx="250" cy="416.24" rx="193.89" ry="11.32" style="fill:#f5f5f5"></ellipse></g><g id="freepik--Notebook--inject-48"><path d="M143.67,248.84c0-6.59,4.33-12,9.66-12s9.66,5.36,9.66,12-4.33,11.94-9.66,11.94S143.67,255.43,143.67,248.84Zm2,0c0,5.48,3.44,9.94,7.66,9.94s7.66-4.46,7.66-9.94-3.43-10-7.66-10S145.67,243.36,145.67,248.84Z" style="fill:#263238"></path><path d="M124.66,248.84c0-6.59,4.33-12,9.66-12s9.66,5.36,9.66,12-4.33,11.94-9.66,11.94S124.66,255.43,124.66,248.84Zm2,0c0,5.48,3.43,9.94,7.66,9.94s7.66-4.46,7.66-9.94-3.44-10-7.66-10S126.66,243.36,126.66,248.84Z" style="fill:#263238"></path><path d="M105.64,248.84c0-6.59,4.34-12,9.67-12s9.66,5.36,9.66,12-4.34,11.94-9.66,11.94S105.64,255.43,105.64,248.84Zm2,0c0,5.48,3.44,9.94,7.67,9.94s7.66-4.46,7.66-9.94-3.44-10-7.66-10S107.64,243.36,107.64,248.84Z" style="fill:#263238"></path><path d="M86.63,248.84c0-6.59,4.34-12,9.67-12s9.66,5.36,9.66,12-4.34,11.94-9.66,11.94S86.63,255.43,86.63,248.84Zm2,0c0,5.48,3.44,9.94,7.67,9.94s7.66-4.46,7.66-9.94-3.44-10-7.66-10S88.63,243.36,88.63,248.84Z" style="fill:#263238"></path><path d="M162.68,248.84c0-6.59,4.33-12,9.66-12s9.67,5.36,9.67,12-4.34,11.94-9.67,11.94S162.68,255.43,162.68,248.84Zm2,0c0,5.48,3.44,9.94,7.66,9.94s7.67-4.46,7.67-9.94-3.44-10-7.67-10S164.68,243.36,164.68,248.84Z" style="fill:#263238"></path><rect x="74.05" y="249.07" width="119.08" height="164.72" transform="translate(267.19 662.86) rotate(180)" style="fill:#263238"></rect><rect x="74.05" y="249.07" width="119.08" height="164.72" transform="translate(267.19 662.86) rotate(180)" style="fill:#fff;opacity:0.7000000000000001"></rect><rect x="84.79" y="249.07" width="108.35" height="164.72" transform="translate(277.93 662.86) rotate(180)" style="fill:#fff;opacity:0.6000000000000001"></rect><polygon points="77.63 413.79 77.13 259.85 76.63 413.79 77.63 413.79" style="isolation:isolate;opacity:0.2"></polygon><polygon points="82.61 413.79 82.11 269.44 81.61 413.79 82.61 413.79" style="isolation:isolate;opacity:0.2"></polygon><polygon points="79.12 249.19 79.62 364.92 80.12 249.19 79.12 249.19" style="isolation:isolate;opacity:0.2"></polygon><path d="M175.22,256.9a2.86,2.86,0,1,0,2.8-3.4A3.14,3.14,0,0,0,175.22,256.9Z" style="fill:#263238"></path><path d="M178.2,257.91a1,1,0,0,0,.75-.35,13.49,13.49,0,0,0,3.06-8.72c0-6.59-4.34-12-9.67-12-3.92,0-7.43,2.9-8.93,7.37a1,1,0,0,0,1.9.64c1.22-3.65,4-6,7-6,4.23,0,7.67,4.47,7.67,10a11.45,11.45,0,0,1-2.57,7.41,1,1,0,0,0,.76,1.66Z" style="fill:#263238"></path><g style="isolation:isolate;opacity:0.4"><path d="M178.2,257.91a1,1,0,0,0,.75-.35,13.49,13.49,0,0,0,3.06-8.72c0-6.59-4.34-12-9.67-12-3.92,0-7.43,2.9-8.93,7.37a1,1,0,0,0,1.9.64c1.22-3.65,4-6,7-6,4.23,0,7.67,4.47,7.67,10a11.45,11.45,0,0,1-2.57,7.41,1,1,0,0,0,.76,1.66Z" style="fill:#fff"></path></g><path d="M156.21,256.9a2.85,2.85,0,1,0,2.8-3.4A3.14,3.14,0,0,0,156.21,256.9Z" style="fill:#263238"></path><path d="M159.18,257.91a1,1,0,0,0,.76-.35,13.48,13.48,0,0,0,3.05-8.72c0-6.59-4.33-12-9.66-12-3.93,0-7.43,2.9-8.93,7.37a1,1,0,0,0,1.9.64c1.22-3.65,4-6,7-6,4.23,0,7.66,4.47,7.66,10a11.44,11.44,0,0,1-2.56,7.41,1,1,0,0,0,.75,1.66Z" style="fill:#263238"></path><g style="isolation:isolate;opacity:0.4"><path d="M159.18,257.91a1,1,0,0,0,.76-.35,13.48,13.48,0,0,0,3.05-8.72c0-6.59-4.33-12-9.66-12-3.93,0-7.43,2.9-8.93,7.37a1,1,0,0,0,1.9.64c1.22-3.65,4-6,7-6,4.23,0,7.66,4.47,7.66,10a11.44,11.44,0,0,1-2.56,7.41,1,1,0,0,0,.75,1.66Z" style="fill:#fff"></path></g><path d="M137.19,256.9a2.86,2.86,0,1,0,2.81-3.4A3.15,3.15,0,0,0,137.19,256.9Z" style="fill:#263238"></path><path d="M140.17,257.91a1,1,0,0,0,.76-.35,13.48,13.48,0,0,0,3-8.72c0-6.59-4.33-12-9.66-12-3.93,0-7.43,2.9-8.93,7.37a1,1,0,0,0,.63,1.27,1,1,0,0,0,1.27-.63c1.22-3.65,4-6,7-6,4.22,0,7.66,4.47,7.66,10a11.39,11.39,0,0,1-2.57,7.41,1,1,0,0,0,.76,1.66Z" style="fill:#263238"></path><g style="isolation:isolate;opacity:0.4"><path d="M140.17,257.91a1,1,0,0,0,.76-.35,13.48,13.48,0,0,0,3-8.72c0-6.59-4.33-12-9.66-12-3.93,0-7.43,2.9-8.93,7.37a1,1,0,0,0,.63,1.27,1,1,0,0,0,1.27-.63c1.22-3.65,4-6,7-6,4.22,0,7.66,4.47,7.66,10a11.39,11.39,0,0,1-2.57,7.41,1,1,0,0,0,.76,1.66Z" style="fill:#fff"></path></g><path d="M118.18,256.9a2.86,2.86,0,1,0,2.81-3.4A3.15,3.15,0,0,0,118.18,256.9Z" style="fill:#263238"></path><path d="M121.16,257.91a1,1,0,0,0,.76-.35,13.48,13.48,0,0,0,3-8.72c0-6.59-4.34-12-9.66-12-3.93,0-7.43,2.9-8.93,7.37a1,1,0,1,0,1.89.64c1.22-3.65,4-6,7-6,4.22,0,7.66,4.47,7.66,10a11.45,11.45,0,0,1-2.57,7.41,1,1,0,0,0,.76,1.66Z" style="fill:#263238"></path><g style="isolation:isolate;opacity:0.4"><path d="M121.16,257.91a1,1,0,0,0,.76-.35,13.48,13.48,0,0,0,3-8.72c0-6.59-4.34-12-9.66-12-3.93,0-7.43,2.9-8.93,7.37a1,1,0,1,0,1.89.64c1.22-3.65,4-6,7-6,4.22,0,7.66,4.47,7.66,10a11.45,11.45,0,0,1-2.57,7.41,1,1,0,0,0,.76,1.66Z" style="fill:#fff"></path></g><path d="M99.17,256.9c0,1.88,1.26,3.4,2.8,3.4a3.46,3.46,0,0,0,0-6.8C100.43,253.5,99.17,255,99.17,256.9Z" style="fill:#263238"></path><path d="M102.15,257.91a1,1,0,0,0,.76-.35,13.53,13.53,0,0,0,3-8.72c0-6.59-4.34-12-9.66-12-3.93,0-7.44,2.9-8.93,7.37a1,1,0,1,0,1.89.64c1.22-3.65,4-6,7-6,4.22,0,7.66,4.47,7.66,10a11.45,11.45,0,0,1-2.57,7.41,1,1,0,0,0,.1,1.42A1,1,0,0,0,102.15,257.91Z" style="fill:#263238"></path><g style="isolation:isolate;opacity:0.4"><path d="M102.15,257.91a1,1,0,0,0,.76-.35,13.53,13.53,0,0,0,3-8.72c0-6.59-4.34-12-9.66-12-3.93,0-7.44,2.9-8.93,7.37a1,1,0,1,0,1.89.64c1.22-3.65,4-6,7-6,4.22,0,7.66,4.47,7.66,10a11.45,11.45,0,0,1-2.57,7.41,1,1,0,0,0,.1,1.42A1,1,0,0,0,102.15,257.91Z" style="fill:#fff"></path></g><rect x="107.7" y="324.85" width="8.38" height="14.29" style="fill:#407BFF"></rect><rect x="121.27" y="314.45" width="8.38" height="24.69" style="fill:#407BFF"></rect><rect x="134.85" y="318.35" width="8.38" height="20.79" style="fill:#407BFF"></rect><rect x="148.43" y="307.95" width="8.38" height="31.19" style="fill:#407BFF"></rect><rect x="162" y="297.55" width="8.38" height="41.59" style="fill:#407BFF"></rect><rect x="107.7" y="324.85" width="8.38" height="14.29" style="fill:#fff;opacity:0.5"></rect><rect x="121.27" y="314.45" width="8.38" height="24.69" style="fill:#fff;opacity:0.5"></rect><rect x="134.85" y="318.35" width="8.38" height="20.79" style="fill:#fff;opacity:0.5"></rect><rect x="148.43" y="307.95" width="8.38" height="31.19" style="fill:#fff;opacity:0.5"></rect><rect x="162" y="297.55" width="8.38" height="41.59" style="fill:#fff;opacity:0.5"></rect><rect x="96.19" y="337.16" width="85.37" height="3.96" style="fill:#263238"></rect><polygon points="99.79 327.79 97.95 325.47 125.33 303.68 138.88 311.54 175.46 280.36 177.38 282.61 139.21 315.16 125.6 307.26 99.79 327.79" style="fill:#407BFF"></polygon><polygon points="178.6 279.65 173.04 280.51 176.96 284.69 178.6 279.65" style="fill:#407BFF"></polygon><g style="opacity:0.30000000000000004"><path d="M144.6,354H96.29a1,1,0,0,1,0-2H144.6a1,1,0,1,1,0,2Z"></path></g><g style="opacity:0.30000000000000004"><path d="M181.92,362.91H103.19a1,1,0,0,1,0-2h78.73a1,1,0,1,1,0,2Z"></path><path d="M182,367.92H96.29a1,1,0,0,1,0-2H182a1,1,0,1,1,0,2Z"></path><path d="M182.14,372.93H96.4a1,1,0,0,1,0-2h85.74a1,1,0,0,1,0,2Z"></path><path d="M168.24,377.94H96.51a1,1,0,1,1,0-2h71.73a1,1,0,1,1,0,2Z"></path></g><g style="opacity:0.30000000000000004"><path d="M181.92,386.93H103.19a1,1,0,0,1,0-2h78.73a1,1,0,1,1,0,2Z"></path><path d="M182,391.94H96.29a1,1,0,0,1,0-2H182a1,1,0,1,1,0,2Z"></path><path d="M182.14,397H96.4a1,1,0,0,1,0-2h85.74a1,1,0,0,1,0,2Z"></path><path d="M168.24,402H96.51a1,1,0,1,1,0-2h71.73a1,1,0,1,1,0,2Z"></path></g><g style="opacity:0.30000000000000004"><path d="M144.6,270.92H96.29a1,1,0,0,1,0-2H144.6a1,1,0,0,1,0,2Z"></path></g></g><g id="freepik--Clipboard--inject-48"><rect x="292.15" y="171.24" width="121.75" height="196.62" rx="3.46" style="fill:#407BFF"></rect><path d="M320.84,170.3h64.38a.64.64,0,0,1,.64.64v6.44a0,0,0,0,1,0,0H320.19a0,0,0,0,1,0,0v-6.44A.64.64,0,0,1,320.84,170.3Z" style="fill:#263238"></path><rect x="296.97" y="177.38" width="112.12" height="184.31" style="fill:#fff;opacity:0.9"></rect><path d="M375,185.86H355.29l-.23-.69a2.13,2.13,0,0,0-4.05,0l-.23.69H331.05a2.89,2.89,0,0,1-2.89-2.88v-7.26a2.9,2.9,0,0,1,2.89-2.88h44a2.89,2.89,0,0,1,2.88,2.88V183A2.88,2.88,0,0,1,375,185.86Zm-18.34-2H375a.87.87,0,0,0,.88-.88v-7.26a.88.88,0,0,0-.88-.88h-44a.88.88,0,0,0-.89.88V183a.88.88,0,0,0,.89.88H349.4a4.13,4.13,0,0,1,7.27,0Z" style="fill:#263238"></path><g style="opacity:0.5"><path d="M375,185.86H355.29l-.23-.69a2.13,2.13,0,0,0-4.05,0l-.23.69H331.05a2.89,2.89,0,0,1-2.89-2.88v-7.26a2.9,2.9,0,0,1,2.89-2.88h44a2.89,2.89,0,0,1,2.88,2.88V183A2.88,2.88,0,0,1,375,185.86Zm-18.34-2H375a.87.87,0,0,0,.88-.88v-7.26a.88.88,0,0,0-.88-.88h-44a.88.88,0,0,0-.89.88V183a.88.88,0,0,0,.89.88H349.4a4.13,4.13,0,0,1,7.27,0Z" style="fill:#fff"></path></g><rect x="333.15" y="171.68" width="39.76" height="4.35" rx="0.99" style="fill:#263238"></rect><rect x="333.15" y="171.68" width="39.76" height="4.35" rx="0.99" style="fill:#fff;opacity:0.2"></rect><circle cx="379.62" cy="326.92" r="21.28" transform="translate(-25.77 621.27) rotate(-76.72)" style="fill:#407BFF"></circle><path d="M379.62,326.92H400.9a21.28,21.28,0,1,1-21.28-21.28h.08Z" style="fill:#fff;opacity:0.30000000000000004"></path><path d="M379.62,326.92l11.48,17.91a21.28,21.28,0,1,1-11.48-39.19h.07Z" style="fill:#fff;opacity:0.30000000000000004"></path><path d="M379.62,326.92l-17.94,11.44a21.28,21.28,0,0,1,17.94-32.72h.07Z" style="fill:#fff;opacity:0.30000000000000004"></path><g style="opacity:0.5"><path d="M305.05,210.39v50.22h96V210.39Zm95.21,7.84H383.65v-7.09h16.61Zm-53.05,0h-17.1v-7.09h17.1Zm.75-7.09h17.09v7.09H348Zm-.75,7.84v40.88h-17.1V219Zm.75,0h17.09v40.88H348Zm17.84,0h17.1v40.88H365.8Zm0-.75v-7.09h17.1v7.09Zm-36.44-7.09v7.09H305.8v-7.09ZM305.8,219h23.56v40.88H305.8Zm77.85,40.88V219h16.61v40.88Z"></path><path d="M335.56,226h6.92a1,1,0,0,0,0-2h-6.92a1,1,0,1,0,0,2Z"></path><path d="M353,235.07h7.51a1,1,0,0,0,0-2H353a1,1,0,0,0,0,2Z"></path><path d="M360.87,251.22H353a1,1,0,0,0,0,2h7.84a1,1,0,0,0,0-2Z"></path><path d="M378.27,242.14H370a1,1,0,0,0,0,2h8.29a1,1,0,0,0,0-2Z"></path><path d="M396.16,224h-8.4a1,1,0,0,0,0,2h8.4a1,1,0,1,0,0-2Z"></path><path d="M395.08,251.22h-7.32a1,1,0,0,0,0,2h7.32a1,1,0,0,0,0-2Z"></path><path d="M335.56,244.14h5.93a1,1,0,0,0,0-2h-5.93a1,1,0,0,0,0,2Z"></path><path d="M342.48,251.22h-6.92a1,1,0,0,0,0,2h6.92a1,1,0,0,0,0-2Z"></path><path d="M309.41,226h15.82a1,1,0,0,0,0-2H309.41a1,1,0,0,0,0,2Z"></path><path d="M309.41,235.07h10.53a1,1,0,0,0,0-2H309.41a1,1,0,0,0,0,2Z"></path><path d="M325.23,242.14H309.41a1,1,0,1,0,0,2h15.82a1,1,0,0,0,0-2Z"></path><path d="M317.32,251.22h-7.91a1,1,0,0,0,0,2h7.91a1,1,0,0,0,0-2Z"></path></g><g style="opacity:0.5"><path d="M343.49,199.86H306.05a1,1,0,0,1,0-2h37.44a1,1,0,0,1,0,2Z"></path></g><g style="opacity:0.5"><path d="M330.36,205.47H306.05a1,1,0,0,1,0-2h24.31a1,1,0,0,1,0,2Z"></path></g><g style="opacity:0.5"><path d="M354.36,269.28H306.05a1,1,0,1,1,0-2h48.31a1,1,0,0,1,0,2Z"></path></g><rect x="305.05" y="308.92" width="5.97" height="5.97" style="fill:#407BFF"></rect><g style="opacity:0.5"><path d="M345,312.91H315.36a1,1,0,0,1,0-2H345a1,1,0,0,1,0,2Z"></path></g><rect x="305.05" y="318.93" width="5.97" height="5.97" style="fill:#407BFF"></rect><g style="opacity:0.5"><path d="M345,322.91H315.36a1,1,0,0,1,0-2H345a1,1,0,0,1,0,2Z"></path></g><rect x="305.05" y="328.93" width="5.97" height="5.97" style="fill:#407BFF"></rect><g style="opacity:0.5"><path d="M345,332.92H315.36a1,1,0,0,1,0-2H345a1,1,0,0,1,0,2Z"></path></g><rect x="305.05" y="338.94" width="5.97" height="5.97" style="fill:#407BFF"></rect><g style="opacity:0.5"><path d="M345,342.93H315.36a1,1,0,0,1,0-2H345a1,1,0,0,1,0,2Z"></path></g><g style="opacity:0.5"><path d="M399.68,278.22H312.94a1,1,0,0,1,0-2h86.74a1,1,0,1,1,0,2Z"></path><path d="M399.79,283.23H306.05a1,1,0,1,1,0-2h93.74a1,1,0,0,1,0,2Z"></path><path d="M399.9,288.24H306.16a1,1,0,0,1,0-2H399.9a1,1,0,0,1,0,2Z"></path><path d="M386,293.25H306.27a1,1,0,0,1,0-2H386a1,1,0,0,1,0,2Z"></path></g><rect x="305.05" y="318.93" width="5.97" height="5.97" style="fill:#fff;opacity:0.30000000000000004"></rect><rect x="305.05" y="328.93" width="5.97" height="5.97" style="fill:#fff;opacity:0.5"></rect><rect x="305.05" y="338.94" width="5.97" height="5.97" style="fill:#fff;opacity:0.7000000000000001"></rect></g><g id="freepik--Plant--inject-48"><path d="M407.41,393.25s-4.75-10.36.68-20.58,7-12.62,3.54-14.71-5.05,8.17-5.05,8.17a23.09,23.09,0,0,1-.5-14.46c2.4-7.39,3.91-19.43.63-20.72s-.63,15-3.49,20.58a48.19,48.19,0,0,1-2.79-12.13c-.39-5.93.22-15.41-2.37-17.84s-4.26-.75-1.71,12.35a137.07,137.07,0,0,1,2.53,23.75s-5.63-17.19-9.42-17.69-3.78,5.07-.54,9.9,9.49,13.47,10.51,17.92c0,0-6.19-12.93-11.75-9s4.84,11.78,9.48,14.6S405,393.94,405,393.94Z" style="fill:#407BFF"></path><path d="M407.41,393.25s-4.75-10.36.68-20.58,7-12.62,3.54-14.71-5.05,8.17-5.05,8.17a23.09,23.09,0,0,1-.5-14.46c2.4-7.39,3.91-19.43.63-20.72s-.63,15-3.49,20.58a48.19,48.19,0,0,1-2.79-12.13c-.39-5.93.22-15.41-2.37-17.84s-4.26-.75-1.71,12.35a137.07,137.07,0,0,1,2.53,23.75s-5.63-17.19-9.42-17.69-3.78,5.07-.54,9.9,9.49,13.47,10.51,17.92c0,0-6.19-12.93-11.75-9s4.84,11.78,9.48,14.6S405,393.94,405,393.94Z" style="isolation:isolate;opacity:0.2"></path><path d="M403.66,397.5s4.63-10.43-.92-20.56-7.15-12.52-3.72-14.67,5.15,8.1,5.15,8.1a23.07,23.07,0,0,0,.33-14.46c-2.49-7.36-4.15-19.37-.88-20.71s.81,15,3.73,20.52A48.15,48.15,0,0,0,410,343.56c.32-5.95-.41-15.42,2.16-17.89s4.25-.81,1.85,12.33a137.21,137.21,0,0,0-2.24,23.79S417.2,344.52,421,344s3.84,5,.66,9.88-9.32,13.62-10.29,18.08c0,0,6-13,11.64-9.14s-4.7,11.85-9.3,14.74-7.62,20.63-7.62,20.63Z" style="fill:#407BFF"></path><polygon points="425 390.07 386.79 390.07 389.88 417.41 421.9 417.41 425 390.07" style="fill:#263238"></polygon></g><g id="freepik--speech-bubble--inject-48"><path d="M194.26,155.57H223a8.84,8.84,0,0,1,8.84,8.84v25a8.84,8.84,0,0,1-8.84,8.84H214.6l3,10.9-9-10.9H194.26a8.84,8.84,0,0,1-8.85-8.84v-25A8.84,8.84,0,0,1,194.26,155.57Z" style="fill:#407BFF"></path><path d="M194.26,155.57H223a8.84,8.84,0,0,1,8.84,8.84v25a8.84,8.84,0,0,1-8.84,8.84H214.6l3,10.9-9-10.9H194.26a8.84,8.84,0,0,1-8.85-8.84v-25A8.84,8.84,0,0,1,194.26,155.57Z" style="fill:#fff;opacity:0.7000000000000001"></path><circle cx="204.28" cy="173.41" r="8.95" style="fill:#fff;opacity:0.7000000000000001"></circle><path d="M204.28,183.65a10.24,10.24,0,1,1,7.25-3A10.22,10.22,0,0,1,204.28,183.65Zm0-17.89a7.65,7.65,0,1,0,5.41,2.24A7.59,7.59,0,0,0,204.28,165.76Z" style="fill:#407BFF"></path><rect x="214.42" y="177.62" width="2.6" height="14.43" transform="translate(-67.52 206.68) rotate(-45)" style="fill:#407BFF"></rect><path d="M221.91,193a2,2,0,0,1-1.38-.57l-7.79-7.79a1.95,1.95,0,1,1,2.75-2.76l7.8,7.8a1.95,1.95,0,0,1-1.38,3.32Z" style="fill:#407BFF"></path><path d="M205.67,169.36a2,2,0,1,1-2-2A2,2,0,0,1,205.67,169.36Z" style="fill:#fff"></path><path d="M208.64,170.82a1,1,0,1,1-1-1A1,1,0,0,1,208.64,170.82Z" style="fill:#fff"></path></g><g id="freepik--Character--inject-48"><rect x="139.84" y="339.46" width="148.94" height="23.97" style="fill:#407BFF"></rect><rect x="139.84" y="339.46" width="148.94" height="23.97" style="fill:#fff;opacity:0.8"></rect><polygon points="288.78 345.8 288.78 343.85 186.81 344.66 288.78 345.8" style="isolation:isolate;opacity:0.2"></polygon><polygon points="288.78 354.2 288.78 352.69 243 354.33 288.78 354.2" style="isolation:isolate;opacity:0.2"></polygon><polygon points="288.78 359.82 288.78 357.87 214.97 359 288.78 359.82" style="isolation:isolate;opacity:0.2"></polygon><path d="M173.14,339.46,171,357.33l2.55-2.72a21.81,21.81,0,0,0,4.68,8.82,26,26,0,0,0,3.76-6.87l69.56-.8-68.9-1.51a14.51,14.51,0,0,0,.33-3,13.65,13.65,0,0,0-.24-2.49l102.06-.26-102.3-.8a19.56,19.56,0,0,0-1.5-3.89,8,8,0,0,1,5.33-2H288.78v-2.35Z" style="isolation:isolate;opacity:0.2"></path><path d="M175.44,351.31a10.86,10.86,0,0,0,10.85,10.83H290.5a.8.8,0,0,1,.8.8v.86a.8.8,0,0,1-.8.8H136.56a13.3,13.3,0,0,1-13.3-13.41A13.52,13.52,0,0,1,136.9,338H290.5a.8.8,0,0,1,.8.8v.85a.8.8,0,0,1-.8.8H186.61A11.15,11.15,0,0,0,175.44,351.31Z" style="fill:#407BFF"></path><path d="M175.44,351.31a10.86,10.86,0,0,0,10.85,10.83H290.5a.8.8,0,0,1,.8.8v.86a.8.8,0,0,1-.8.8H136.56a13.3,13.3,0,0,1-13.3-13.41A13.52,13.52,0,0,1,136.9,338H290.5a.8.8,0,0,1,.8.8v.85a.8.8,0,0,1-.8.8H186.61A11.15,11.15,0,0,0,175.44,351.31Z" style="fill:#fff;opacity:0.4"></path><path d="M175.44,351.31a10.86,10.86,0,0,0,10.85,10.83H290.5a.8.8,0,0,1,.8.8v.86a.8.8,0,0,1-.8.8H185.69a13.32,13.32,0,0,1-13.31-13.41A13.54,13.54,0,0,1,186,338H290.5a.8.8,0,0,1,.8.8v.85a.8.8,0,0,1-.8.8H186.61A11.15,11.15,0,0,0,175.44,351.31Z" style="fill:#407BFF"></path><polygon points="195.06 344.85 195.06 354.46 198.54 350.98 201.91 354.35 201.91 344.85 195.06 344.85" style="fill:#263238"></polygon><path d="M175.44,351.31a10.86,10.86,0,0,0,10.85,10.83H290.5a.8.8,0,0,1,.8.8v.86a.8.8,0,0,1-.8.8H185.69a13.32,13.32,0,0,1-13.31-13.41A13.54,13.54,0,0,1,186,338H290.5a.8.8,0,0,1,.8.8v.85a.8.8,0,0,1-.8.8H186.61A11.15,11.15,0,0,0,175.44,351.31Z" style="fill:#fff;opacity:0.6000000000000001"></path><rect x="147.03" y="392.28" width="148.94" height="23.97" style="fill:#407BFF"></rect><rect x="147.03" y="392.28" width="148.94" height="23.97" style="fill:#fff;opacity:0.7000000000000001"></rect><polygon points="295.97 398.61 295.97 396.66 194 397.48 295.97 398.61" style="isolation:isolate;opacity:0.2"></polygon><polygon points="295.97 407.01 295.97 405.51 250.19 407.14 295.97 407.01" style="isolation:isolate;opacity:0.2"></polygon><polygon points="295.97 412.63 295.97 410.69 222.16 411.81 295.97 412.63" style="isolation:isolate;opacity:0.2"></polygon><path d="M180.33,392.28l-2.16,17.87,2.55-2.72a22,22,0,0,0,4.69,8.82,26.35,26.35,0,0,0,3.75-6.88l69.56-.8-68.9-1.5a14.69,14.69,0,0,0,.34-3,13.65,13.65,0,0,0-.25-2.49L292,401.35l-102.31-.8a19.47,19.47,0,0,0-1.5-3.88,8,8,0,0,1,5.33-2.05H296v-2.34Z" style="isolation:isolate;opacity:0.2"></path><path d="M182.63,404.12A10.84,10.84,0,0,0,193.48,415H297.69a.8.8,0,0,1,.8.8v.86a.8.8,0,0,1-.8.8H135.56a13.32,13.32,0,0,1-13.3-13.4,13.53,13.53,0,0,1,13.65-13.21H297.69a.8.8,0,0,1,.8.8v.86a.8.8,0,0,1-.8.8H193.8A11.15,11.15,0,0,0,182.63,404.12Z" style="fill:#263238"></path><path d="M182.63,404.12A10.84,10.84,0,0,0,193.48,415H297.69a.8.8,0,0,1,.8.8v.86a.8.8,0,0,1-.8.8H135.56a13.32,13.32,0,0,1-13.3-13.4,13.53,13.53,0,0,1,13.65-13.21H297.69a.8.8,0,0,1,.8.8v.86a.8.8,0,0,1-.8.8H193.8A11.15,11.15,0,0,0,182.63,404.12Z" style="fill:#fff;opacity:0.2"></path><path d="M182.63,404.12A10.84,10.84,0,0,0,193.48,415H297.69a.8.8,0,0,1,.8.8v.86a.8.8,0,0,1-.8.8H192.88a13.3,13.3,0,0,1-13.3-13.4,13.52,13.52,0,0,1,13.64-13.21H297.69a.8.8,0,0,1,.8.8v.86a.8.8,0,0,1-.8.8H193.8A11.15,11.15,0,0,0,182.63,404.12Z" style="fill:#263238"></path><polygon points="194 401.08 194 410.69 197.47 407.21 200.84 410.58 200.84 401.08 194 401.08" style="fill:#407BFF"></polygon><path d="M182.63,404.12A10.84,10.84,0,0,0,193.48,415H297.69a.8.8,0,0,1,.8.8v.86a.8.8,0,0,1-.8.8H192.88a13.3,13.3,0,0,1-13.3-13.4,13.52,13.52,0,0,1,13.64-13.21H297.69a.8.8,0,0,1,.8.8v.86a.8.8,0,0,1-.8.8H193.8A11.15,11.15,0,0,0,182.63,404.12Z" style="fill:#fff;opacity:0.4"></path><rect x="133.63" y="365.87" width="55.18" height="23.94" transform="translate(322.44 755.67) rotate(180)" style="fill:#407BFF"></rect><rect x="133.63" y="365.87" width="55.18" height="23.94" transform="translate(322.44 755.67) rotate(180)" style="fill:#fff;opacity:0.8"></rect><polygon points="184.39 368.21 133.63 368.21 133.63 365.87 184.33 365.87 184.39 368.21" style="isolation:isolate;opacity:0.2"></polygon><polygon points="184.39 370.25 138.6 371.23 184.39 372.2 184.39 370.25" style="isolation:isolate;opacity:0.2"></polygon><polygon points="184.39 379.1 135.9 379.92 184.39 380.61 184.39 379.1" style="isolation:isolate;opacity:0.2"></polygon><polygon points="184.39 384.28 136.33 385.25 184.39 386.22 184.39 384.28" style="isolation:isolate;opacity:0.2"></polygon><polygon points="133.63 373.66 180.12 375.06 133.63 376.04 133.63 373.66" style="isolation:isolate;opacity:0.2"></polygon><path d="M256.79,377.71a10.86,10.86,0,0,1-10.85,10.84H131.08a.8.8,0,0,0-.8.8v.85a.8.8,0,0,0,.8.8H246.54a13.28,13.28,0,0,0,13.3-13.4,13.52,13.52,0,0,0-13.64-13.21H131.08a.8.8,0,0,0-.8.8v.86a.8.8,0,0,0,.8.8H245.62A11.15,11.15,0,0,1,256.79,377.71Z" style="fill:#263238"></path><path d="M256.79,377.71a10.86,10.86,0,0,1-10.85,10.84H131.08a.8.8,0,0,0-.8.8v.85a.8.8,0,0,0,.8.8H246.54a13.28,13.28,0,0,0,13.3-13.4,13.52,13.52,0,0,0-13.64-13.21H131.08a.8.8,0,0,0-.8.8v.86a.8.8,0,0,0,.8.8H245.62A11.15,11.15,0,0,1,256.79,377.71Z" style="fill:#fff;opacity:0.4"></path><path d="M298.68,377.85h0a12,12,0,0,1-12,12H184.39v-24h102.3A12,12,0,0,1,298.68,377.85Z" style="fill:#407BFF"></path><path d="M184.39,365.87v24H286.7a12,12,0,0,0,0-24Z" style="fill:#fff;opacity:0.7000000000000001"></path><polygon points="184.39 372.2 184.39 370.25 286.36 371.07 184.39 372.2" style="isolation:isolate;opacity:0.2"></polygon><polygon points="184.39 380.61 184.39 379.1 230.17 380.74 184.39 380.61" style="isolation:isolate;opacity:0.2"></polygon><polygon points="184.39 386.22 184.39 384.28 258.2 385.4 184.39 386.22" style="isolation:isolate;opacity:0.2"></polygon><path d="M286.86,368.21a8,8,0,0,1,5.33,2.05,20,20,0,0,0-1.51,3.89l-102.3.8,102.07.25a13.76,13.76,0,0,0-.25,2.5,13.24,13.24,0,0,0,.35,3l-68.91,1.5,69.55.81a25.38,25.38,0,0,0,2.31,4.75,12,12,0,0,0-6.8-21.85H184.39v2.34Z" style="isolation:isolate;opacity:0.2"></path><path d="M297.73,377.71a10.86,10.86,0,0,1-10.85,10.84H182.67a.8.8,0,0,0-.8.8v.85a.8.8,0,0,0,.8.8H287.48a13.28,13.28,0,0,0,13.3-13.4,13.52,13.52,0,0,0-13.64-13.21H182.67a.8.8,0,0,0-.8.8v.86a.8.8,0,0,0,.8.8H286.56A11.15,11.15,0,0,1,297.73,377.71Z" style="fill:#263238"></path><polygon points="286.36 374.67 286.36 384.28 282.88 380.8 279.51 384.17 279.51 374.67 286.36 374.67" style="fill:#407BFF"></polygon><path d="M313.39,239.59l-2.5,0a2.92,2.92,0,0,0-2.35,1.27l-2.48,3.62a5.42,5.42,0,0,0-.62,4.95l.38,1c4.15.2,8.79-2.64,8.79-2.64l1.42-.66a2.42,2.42,0,0,0,1.24-3.21L316,241.17A2.81,2.81,0,0,0,313.39,239.59Z" style="fill:#eec1bb"></path><path d="M266,244c6.42,5.19,13.35,10.19,21,13.25l-.95-.2c.7.17,2.54-.53,3.5-1,5.34-2.6,10.4-6.5,15.2-10.06a2.54,2.54,0,0,1,3.53,3.57c-4.79,6-15.57,18.19-24.11,16.41-9.36-2.79-17.63-8-25-14.37C254.39,247,260.8,239.81,266,244Z" style="fill:#ebc0bb"></path><path d="M252.53,236.93c-2.34,6.52,1.43,13,10.5,20.63,4.51-.67,10.6-9.92,10.6-9.92S260.87,234.88,252.53,236.93Z" style="fill:#407BFF"></path><path d="M260.33,196.43s-8.93-9.14-20.57,2.33-13.91,49.47-13.91,49.47l30.38,5.9s3.93-4.51,5.95-17.52,3.09-25.45,5.65-28.35S260.33,196.43,260.33,196.43Z" style="fill:#263238"></path><polygon points="286.42 388.87 279.84 386.25 282.41 376.66 284.78 367.86 293.1 369.7 289.57 379.85 286.42 388.87" style="fill:#eec1bb"></polygon><polygon points="289.49 380.06 282.34 376.84 284.75 367.95 293.08 369.75 289.49 380.06" style="isolation:isolate;opacity:0.2"></polygon><path d="M236.63,302.46s55-7.42,70.28,2.34S292.6,374,292.6,374l-9.26-2s6.94-47.12,6.42-49.09-26.42,10.88-61.87,12.1Z" style="fill:#263238"></path><path d="M236.63,302.46s55-7.42,70.28,2.34S292.6,374,292.6,374l-9.26-2s6.94-47.12,6.42-49.09-26.42,10.88-61.87,12.1Z" style="isolation:isolate;opacity:0.2"></path><polygon points="282.83 369 294.48 372.78 292.39 378.09 281.69 374.45 282.83 369" style="fill:#263238"></polygon><path d="M292.51,390.35c-1.26,0-3.48-2-3.94-2.48a.24.24,0,0,1-.06-.09l0-.06a.31.31,0,0,1,.05-.18c.06-.07,1.52-2,2.92-2.06a1.44,1.44,0,0,1,1.16.41c.35.33.47.65.35.95-.19.48-1,.74-1.91.9a4,4,0,0,1,2,.89,1,1,0,0,1,.29.77c0,.58-.31.81-.53.89A.88.88,0,0,1,292.51,390.35Zm-3.1-2.37c1.16,1,2.7,2.08,3.25,1.86,0,0,.2-.07.22-.47a.53.53,0,0,0-.16-.41C292.18,388.36,290.51,388.08,289.41,388Zm2.18-2h-.09a4.17,4.17,0,0,0-2.23,1.47c1.53-.07,3.09-.36,3.25-.77.05-.13-.12-.32-.23-.42A1,1,0,0,0,291.59,386Z" style="fill:#577afa"></path><path d="M278.61,382.16c.26-.74,9.19,2.81,9.19,2.81s3.76,7.53,8.8,10.59.92,5.34-5.17,3.35L276.35,394C272,392.6,275.92,389.8,278.61,382.16Z" style="fill:#2e353a"></path><polygon points="282.83 369 294.48 372.78 292.39 378.09 281.69 374.45 282.83 369" style="fill:#fff;isolation:isolate;opacity:0.4"></polygon><polygon points="315.12 407.9 308.3 409.82 304.5 400.64 301.04 392.22 308.76 388.62 312.13 398.83 315.12 407.9" style="fill:#eec1bb"></polygon><path d="M305.27,405c0-.78,9.62.07,9.62.07s5.75,6.15,11.45,7.64,2.41,4.85-4,4.7l-15.85-.4C301.94,416.9,304.88,413.09,305.27,405Z" style="fill:#2e353a"></path><path d="M319.94,407.64a11.66,11.66,0,0,1-4-1.31h0l-.07-.05h0a.3.3,0,0,1,0-.08.19.19,0,0,1,0-.07h0a.16.16,0,0,1,0-.1c0-.11.89-2.31,2.2-2.82a1.43,1.43,0,0,1,1.23.07c.43.21.63.48.61.81-.05.51-.77,1-1.57,1.4a4,4,0,0,1,2.19.29,1,1,0,0,1,.49.65.91.91,0,0,1-.25,1A1.24,1.24,0,0,1,319.94,407.64Zm-3.17-1.44c1.41.63,3.18,1.22,3.65.85,0,0,.17-.13.08-.51a.52.52,0,0,0-.27-.35C319.53,405.77,317.85,406,316.77,406.2Zm1.8-2.61a1,1,0,0,0-.37.07,4.24,4.24,0,0,0-1.72,2c1.45-.5,2.86-1.23,2.9-1.66,0-.14-.21-.28-.34-.34A1.06,1.06,0,0,0,318.57,403.59Z" style="fill:#577afa"></path><polygon points="312.19 399.04 304.56 400.83 301.06 392.31 308.77 388.67 312.19 399.04" style="isolation:isolate;opacity:0.2"></polygon><path d="M252.23,309.57s-.79-10.88-1.16-13.1a50.38,50.38,0,0,0-1.35-6.52c-2.41-7.25-34.74,1.28-34.74,1.28l-.92,5s-14.59,27.51-4.84,37.42c3,3,8.77,4.36,14.7,4.32,0,0,18.13.87,51.85-.7,0,0-2.5,19.64,25.29,58.12l9.3-3S292,322.53,290.44,321.29C277,310.43,252.23,309.57,252.23,309.57Z" style="fill:#263238"></path><polygon points="299.38 394.92 310.93 390.83 312.5 396.32 301.79 399.94 299.38 394.92" style="fill:#263238"></polygon><path d="M263.1,242.14s-1.16,2.84-2.78,7.8c-.39,1.16-.79,2.44-1.21,3.82-.55,1.81-1.14,3.8-1.73,6-.43,1.56-.86,3.19-1.28,4.91s-.87,3.58-1.3,5.47c0,.22-.1.45-.14.67a188.11,188.11,0,0,0-4,23.49l-35.52-3.1a222.83,222.83,0,0,1,1.21-23.34A112.84,112.84,0,0,1,220.06,248c1.41-4.68,3.23-8.7,5.57-11.33C225.63,236.71,244.89,230.39,263.1,242.14Z" style="fill:#407BFF"></path><path d="M245,231.61c-10.69-3.42-14.84,5-14.84,5l5.69-.56,11.55,14.5,6.77-8.77,4.26,2.29S254.26,234.57,245,231.61Z" style="fill:#407BFF"></path><path d="M245,231.61c-10.69-3.42-14.84,5-14.84,5l5.69-.56,11.55,14.5,6.77-8.77,4.26,2.29S254.26,234.57,245,231.61Z" style="fill:#fff;isolation:isolate;opacity:0.6000000000000001"></path><path d="M247.1,249.76l-9.8-14.67c4.62-2.09,7.68-10.93,8.35-15.91l6.92,10.46c-2.26,3.36-3.77,7.2,1.41,10.1C254,239.74,247.09,249.73,247.1,249.76Z" style="fill:#eec1bb"></path><path d="M248.47,223.45l4.1,6.19a15,15,0,0,0-1.39,2.44c-2.05-.92-4.23-4-3.72-6.13A7.1,7.1,0,0,1,248.47,223.45Z" style="opacity:0.2"></path><polygon points="214.59 292.33 225.7 293.06 225.3 296.2 213.5 295.35 214.59 292.33"></polygon><polygon points="251.55 298.07 226.64 296.29 227.04 293.15 251.15 294.74 251.55 298.07"></polygon><path d="M242.42,298.06h-.1l-3-.2a1.37,1.37,0,0,1-1.28-1.43l.08-2a1.32,1.32,0,0,1,.45-1,1.31,1.31,0,0,1,1-.36l3.12.18a1.37,1.37,0,0,1,1.29,1.47l-.15,2.08A1.39,1.39,0,0,1,242.42,298.06Zm-3.34-3.64-.09,2a.38.38,0,0,0,.35.39l3,.21a.38.38,0,0,0,.4-.35l.15-2.07a.37.37,0,0,0-.09-.28.37.37,0,0,0-.26-.12l-3.12-.18a.38.38,0,0,0-.27.1.34.34,0,0,0-.12.26Z" style="fill:#fff"></path><polygon points="299.38 394.92 310.93 390.83 312.5 396.32 301.79 399.94 299.38 394.92" style="fill:#fff;isolation:isolate;opacity:0.5"></polygon><path d="M269.93,216.49a.27.27,0,0,1-.25-.15,4,4,0,0,0-2.8-2.1.27.27,0,0,1-.26-.3.29.29,0,0,1,.3-.25,4.49,4.49,0,0,1,3.25,2.4.27.27,0,0,1-.12.37Z" style="fill:#263238"></path><path d="M266.59,220.82a17.37,17.37,0,0,0,.82,4.08,2.25,2.25,0,0,1-2.35,0Z" style="fill:#d4827d"></path><path d="M268.8,219.33c-.26.62-.8,1-1.22.82s-.55-.82-.29-1.44.8-1,1.22-.82S269.05,218.7,268.8,219.33Z" style="fill:#263238"></path><path d="M268.32,217.85l1.57,0S268.75,218.74,268.32,217.85Z" style="fill:#263238"></path><path d="M245.78,224.71a1.32,1.32,0,0,0,.15.29c.1.2.21.38.32.58a10.85,10.85,0,0,0,2.57,3.23c3.41,2.83,6.35,3.73,9,3,.13,0,.25-.08.38-.12h0c3.92-1.48,7-6,9.61-12.1A24.2,24.2,0,0,0,270,212.1s0-.09,0-.11,0-.21,0-.3a9,9,0,0,0-3.44-7.87,17.73,17.73,0,0,0-3.28-2.14C251.92,195.78,240.29,213.73,245.78,224.71Z" style="fill:#eec1bb"></path><path d="M270,212s-3.42,8.36-12.78,8c0,0-7.48,6.71-12.35,4.4-6.65-3.15-7.73-15.41-.66-23.78C253.4,189.76,272.6,198.18,270,212Z" style="fill:#263238"></path><path d="M262.27,219.64c.63-1.26.68-3.87-1.41-4.57s-5.8,3.69-1.4,7.3C260.09,222.89,261,222.26,262.27,219.64Z" style="fill:#eec1bb"></path><path d="M260.33,196.43s8.65,1.92,11.33,7.14c3.14,6.1,3.14,10.77-5.64,13.6,0,0-10.77-10.66-15.5-11.93a51.17,51.17,0,0,0-8.42-1.57C245.49,194.71,256.92,192.53,260.33,196.43Z" style="fill:#263238"></path><path d="M257.24,220c-5.44,10.87-17.4,29.34-30.15,16.31,0,0,4.58-14.74,13.83-20.82S257.24,220,257.24,220Z" style="fill:#263238"></path><path d="M255.27,238.13c4.65,3.44-1.3,14.76,4.57,17.28a5.5,5.5,0,0,1-.62-5.34c1.23-3.08,6.22-11.22,4.23-22.24Z" style="fill:#263238"></path><path d="M231.18,262s-7.6,5.15-14.79,5.79A112.84,112.84,0,0,1,220.06,248a6.93,6.93,0,0,1,3-.88c5.34.1,7.29,5.11,7.29,5.11A53,53,0,0,1,231.18,262Z" style="opacity:0.2"></path><path d="M258.92,297.67l-1.6-1.92a2.9,2.9,0,0,0-2.46-1l-4.38.32a5.42,5.42,0,0,0-4.25,2.61l-.56.93c2.44,3.37,7.55,5.22,7.55,5.22l1.4.69a2.42,2.42,0,0,0,3.29-1l1.4-2.76A2.78,2.78,0,0,0,258.92,297.67Z" style="fill:#eec1bb"></path><path d="M228.13,251.7a103.75,103.75,0,0,0,1.35,18.81,55.07,55.07,0,0,0,1.45,5.89l-.44-.87c2.31,3.53,5.69,6.8,8.64,10l4.94,5.1,5,5.13a2.53,2.53,0,0,1-3.18,3.9c-2.07-1.31-4-2.69-6-4.09-6.1-4.59-12.25-8.88-17-15-4.14-9.17-5.15-19.36-4.8-29.32.59-6.65,10.23-6.16,10.15.51Z" style="fill:#ebc0bb"></path><path d="M225.29,236.77c-6.55,2.25-9.26,9.25-9.55,21.09,3.35,3.11,14.37,2.08,14.37,2.08S232.1,242,225.29,236.77Z" style="fill:#407BFF"></path><path d="M295.87,306.87V310c0,.81-1,1.14-1.76,1.14H231c-.81,0-1.79-.33-1.79-1.14v-3.16Z" style="fill:#263238"></path><path d="M295.87,306.87V310c0,.81-1,1.14-1.76,1.14H231c-.81,0-1.79-.33-1.79-1.14v-3.16Z" style="fill:#fff;isolation:isolate;opacity:0.4"></path><path d="M295.87,306.87V310c0,.81-1,1.14-1.76,1.14H252.49c-.81,0-1.77-.33-1.77-1.14v-3.16Z" style="isolation:isolate;opacity:0.2"></path><path d="M306.43,274.09l-7.52,34.07a2.54,2.54,0,0,1-2.44,1.94h-41a1.66,1.66,0,0,1-1.54-2.14l7.51-33.82a2.34,2.34,0,0,1,2.43-1.67h41.05C306,272.47,306.67,273,306.43,274.09Z" style="fill:#263238"></path><path d="M306.43,274.09l-7.52,34.07a2.54,2.54,0,0,1-2.44,1.94H256.83a1.66,1.66,0,0,1-1.55-2.14l7.51-33.82a2.34,2.34,0,0,1,2.44-1.67h39.65C306,272.47,306.67,273,306.43,274.09Z" style="fill:#fff;isolation:isolate;opacity:0.4"></path><path d="M286.19,291.41h0c0,2.91-3.13,5.28-5.42,5.28s-3.65-2.37-3-5.28,2.94-5.2,5.18-5.28c-.65,2.91.75,5.28,3,5.28Z" style="isolation:isolate;opacity:0.2"></path></g></svg>