<svg xmlns="http://www.w3.org/2000/svg" viewBox="0 0 750 500"><g id="freepik--background-complete--inject-69"><rect x="595.8" y="61.07" width="90.16" height="130.69" style="fill:#e0e0e0"></rect><rect x="591.28" y="61.07" width="90.16" height="130.69" style="fill:#f5f5f5"></rect><rect x="602.48" y="75.23" width="67.76" height="102.38" style="fill:#fff"></rect><path d="M670.24,177.61s0-.18,0-.5,0-.83,0-1.46c0-1.28,0-3.17,0-5.61,0-4.91,0-12.06-.06-21.09,0-18-.07-43.62-.11-73.72l.22.22-67.75,0h0l.25-.24c0,38.62,0,74.23-.05,102.38l-.2-.2,49.32.1,13.63.05,3.58,0,1.23,0-1.19,0-3.54,0-13.58,0-49.45.1h-.19v-.19c0-28.15,0-63.76,0-102.38V75h.25l67.75,0h.23v.23c-.05,30.16-.09,55.78-.11,73.87,0,9-.05,16.14-.06,21,0,2.43,0,4.3,0,5.58,0,.62,0,1.09,0,1.42S670.24,177.61,670.24,177.61Z" style="fill:#e0e0e0"></path><path d="M681.7,61.07a15.7,15.7,0,0,1-1.61,2.34c-1.05,1.4-2.53,3.3-4.23,5.36s-3.28,3.89-4.46,5.18a15.82,15.82,0,0,1-2,2,17,17,0,0,1,1.72-2.25l4.34-5.27c1.65-2,3.13-3.8,4.34-5.27A16.31,16.31,0,0,1,681.7,61.07Z" style="fill:#e0e0e0"></path><path d="M670.59,177.28a83.72,83.72,0,0,0,11.82,14.78" style="fill:#fff"></path><path d="M682.41,192.06a13.8,13.8,0,0,1-2.06-1.88,63.13,63.13,0,0,1-4.46-5A66.26,66.26,0,0,1,672,179.7a13.25,13.25,0,0,1-1.37-2.42,18.12,18.12,0,0,1,1.66,2.22c1,1.4,2.39,3.31,4,5.35s3.19,3.82,4.33,5.09A19.24,19.24,0,0,1,682.41,192.06Z" style="fill:#e0e0e0"></path><path d="M591.27,191.66q5.91-7.29,11.81-14.57" style="fill:#fff"></path><path d="M603.08,177.09a92.13,92.13,0,0,1-5.72,7.44,93.51,93.51,0,0,1-6.09,7.13,86.68,86.68,0,0,1,5.71-7.44A85.47,85.47,0,0,1,603.08,177.09Z" style="fill:#e0e0e0"></path><path d="M591.28,61.07A80.2,80.2,0,0,1,597,67.93a80.63,80.63,0,0,1,5.35,7.15,81.49,81.49,0,0,1-5.73-6.85A82.25,82.25,0,0,1,591.28,61.07Z" style="fill:#e0e0e0"></path><rect x="626.44" y="96.01" width="22.69" height="64.42" style="fill:#e0e0e0"></rect><rect x="73.82" y="61.07" width="90.16" height="130.69" style="fill:#e0e0e0"></rect><rect x="69.3" y="61.07" width="90.16" height="130.69" style="fill:#f5f5f5"></rect><rect x="80.5" y="75.23" width="67.76" height="102.38" style="fill:#fff"></rect><path d="M148.26,177.61s0-.18,0-.5,0-.83,0-1.46c0-1.28,0-3.17,0-5.61,0-4.91,0-12.06-.07-21.09,0-18-.06-43.62-.11-73.72l.23.22-67.75,0h0l.25-.24c0,38.62,0,74.23,0,102.38l-.2-.2,49.32.1,13.63.05,3.57,0,1.24,0-1.2,0-3.54,0-13.58,0-49.44.1h-.19v-.19c0-28.15,0-63.76,0-102.38V75h.25l67.75,0h.22v.23c0,30.16-.08,55.78-.11,73.87,0,9,0,16.14-.06,21,0,2.43,0,4.3,0,5.58,0,.62,0,1.09,0,1.42S148.26,177.61,148.26,177.61Z" style="fill:#e0e0e0"></path><path d="M159.71,61.07a15.06,15.06,0,0,1-1.6,2.34c-1.05,1.4-2.54,3.3-4.23,5.36s-3.29,3.89-4.46,5.18a15.82,15.82,0,0,1-2,2,15.07,15.07,0,0,1,1.72-2.25l4.34-5.27,4.34-5.27A17.83,17.83,0,0,1,159.71,61.07Z" style="fill:#e0e0e0"></path><path d="M148.6,177.28a84.18,84.18,0,0,0,11.82,14.78" style="fill:#fff"></path><path d="M160.42,192.06a14.42,14.42,0,0,1-2.06-1.88c-1.21-1.22-2.81-3-4.46-5A63.54,63.54,0,0,1,150,179.7a13.79,13.79,0,0,1-1.38-2.42,17.46,17.46,0,0,1,1.67,2.22c1,1.4,2.39,3.31,4,5.35s3.18,3.82,4.33,5.09A18.33,18.33,0,0,1,160.42,192.06Z" style="fill:#e0e0e0"></path><path d="M69.29,191.66q5.89-7.29,11.81-14.57" style="fill:#fff"></path><path d="M81.1,177.09c.1.08-2.46,3.41-5.72,7.44a93.51,93.51,0,0,1-6.09,7.13A86.68,86.68,0,0,1,75,184.22,85.47,85.47,0,0,1,81.1,177.09Z" style="fill:#e0e0e0"></path><path d="M69.3,61.07A84.83,84.83,0,0,1,75,67.93a83.09,83.09,0,0,1,5.35,7.15,79.29,79.29,0,0,1-5.73-6.85A79.84,79.84,0,0,1,69.3,61.07Z" style="fill:#e0e0e0"></path><rect x="104.46" y="96.01" width="22.69" height="64.42" style="fill:#e0e0e0"></rect><path d="M167.24,188.19a45.34,45.34,0,0,1,11.68-2.81L183.05,175l18.19,2.88L202,189a44.85,44.85,0,0,1,10.25,6.27l10.22-4.4,10.83,14.9-7.33,8.37a44.91,44.91,0,0,1,2.8,11.68L239.08,230l-2.87,18.2-11.11.73a45.2,45.2,0,0,1-6.27,10.25l4.39,10.22-14.9,10.83L200,272.87a44.74,44.74,0,0,1-11.67,2.8L184.15,286,166,283.14,165.22,272A45.72,45.72,0,0,1,155,265.76l-10.22,4.39-10.84-14.9,7.34-8.37a45.14,45.14,0,0,1-2.81-11.68l-10.34-4.12L131,212.89l11.11-.74a45.36,45.36,0,0,1,6.27-10.24L144,191.68l14.9-10.83,8.37,7.34Zm5.42,25.86a19.76,19.76,0,1,0,27.6,4.37A19.76,19.76,0,0,0,172.66,214.05Z" style="fill:#e0e0e0"></path><path d="M94.78,285.54a28.64,28.64,0,0,1,7.44-1.79l2.63-6.59L116.44,279l.47,7.08a28.43,28.43,0,0,1,6.53,4l6.52-2.8,6.9,9.49-4.67,5.34a28.93,28.93,0,0,1,1.78,7.44l6.59,2.63-1.83,11.59-7.08.47a29,29,0,0,1-4,6.53l2.8,6.51L121,344.18l-5.34-4.68a28.55,28.55,0,0,1-7.44,1.79l-2.63,6.59L94,346.05,93.49,339A29,29,0,0,1,87,335l-6.51,2.8-6.9-9.49,4.67-5.34a28.64,28.64,0,0,1-1.79-7.44l-6.59-2.63,1.83-11.59,7.09-.47a28.39,28.39,0,0,1,4-6.53L80,287.76l9.49-6.9,5.34,4.68ZM98.23,302a12.59,12.59,0,1,0,17.59,2.78A12.59,12.59,0,0,0,98.23,302Z" style="fill:#f5f5f5"></path><path d="M427.09,268.44A26.77,26.77,0,0,1,434,266.8l2.43-6.08,10.69,1.69.44,6.53a26.62,26.62,0,0,1,6,3.69l6-2.59,6.37,8.76-4.31,4.92a26.89,26.89,0,0,1,1.65,6.87l6.08,2.43-1.7,10.69-6.53.44a26.58,26.58,0,0,1-3.68,6l2.58,6-8.76,6.37-4.92-4.31a26.69,26.69,0,0,1-6.87,1.65L437,326l-10.69-1.69-.43-6.54a26.42,26.42,0,0,1-6-3.68l-6,2.58-6.37-8.76,4.31-4.92a26.26,26.26,0,0,1-1.64-6.87l-6.09-2.42,1.7-10.7,6.53-.43a26.78,26.78,0,0,1,3.68-6l-2.58-6,8.76-6.37,4.92,4.31Zm3.19,15.21a11.62,11.62,0,1,0,16.23,2.57A11.62,11.62,0,0,0,430.28,283.65Z" style="fill:#f5f5f5"></path><path d="M596.32,258a40.55,40.55,0,0,1,10.52-2.52l3.72-9.32L627,248.74l.67,10a41.15,41.15,0,0,1,9.23,5.65l9.21-4,9.76,13.43-6.61,7.54a40.55,40.55,0,0,1,2.53,10.53l9.32,3.71-2.59,16.4-10,.66a40.71,40.71,0,0,1-5.65,9.23l4,9.22-13.43,9.76-7.55-6.61a41,41,0,0,1-10.52,2.53l-3.72,9.32-16.39-2.6-.67-10a40.79,40.79,0,0,1-9.23-5.65l-9.21,4-9.76-13.43,6.61-7.54a40.57,40.57,0,0,1-2.53-10.52l-9.32-3.72,2.59-16.4,10-.66a40.53,40.53,0,0,1,5.64-9.23l-4-9.22,13.43-9.76,7.55,6.61Zm4.87,23.31a17.81,17.81,0,1,0,24.88,3.94A17.82,17.82,0,0,0,601.19,281.3Z" style="fill:#ebebeb"></path><path d="M228.23,105.27a30,30,0,0,1,7.75-1.86l2.74-6.87,12.08,1.91.49,7.38a30.06,30.06,0,0,1,6.8,4.16l6.79-2.92,7.19,9.9-4.87,5.55a30.18,30.18,0,0,1,1.86,7.76l6.86,2.74L274,145.1l-7.37.49a30.43,30.43,0,0,1-4.16,6.8l2.91,6.78-9.89,7.2-5.56-4.87a30.11,30.11,0,0,1-7.75,1.86l-2.74,6.86-12.08-1.91-.49-7.37a30.43,30.43,0,0,1-6.8-4.16l-6.79,2.91-7.19-9.89,4.87-5.56a30.11,30.11,0,0,1-1.86-7.75l-6.87-2.74,1.91-12.08,7.38-.49a30.43,30.43,0,0,1,4.16-6.8l-2.92-6.79,9.9-7.19,5.56,4.87Zm3.59,17.17a13.12,13.12,0,1,0,18.33,2.9A13.13,13.13,0,0,0,231.82,122.44Z" style="fill:#f5f5f5"></path><path d="M519.41,291.36a23.16,23.16,0,0,1,5.91-1.42l2.08-5.23,9.2,1.46.37,5.61a22.87,22.87,0,0,1,5.18,3.17l5.17-2.22,5.48,7.53-3.71,4.24a22.68,22.68,0,0,1,1.42,5.9l5.23,2.09-1.46,9.2-5.61.37a23.46,23.46,0,0,1-3.17,5.18l2.22,5.17-7.54,5.48L536,334.18a22.66,22.66,0,0,1-5.9,1.41L528,340.82l-9.2-1.45-.37-5.62a22.73,22.73,0,0,1-5.18-3.17L508,332.8l-5.48-7.53,3.71-4.23a23.16,23.16,0,0,1-1.42-5.91l-5.22-2.08,1.45-9.2,5.62-.37a22.52,22.52,0,0,1,3.17-5.18l-2.22-5.17,7.53-5.48,4.23,3.71Zm2.74,13.08a10,10,0,1,0,14,2.2A10,10,0,0,0,522.15,304.44Z" style="fill:#e0e0e0"></path><path d="M256.71,267.26a17.63,17.63,0,0,1,4.65-1.12L263,262l7.25,1.15.29,4.42a17.89,17.89,0,0,1,4.08,2.5l4.08-1.75,4.31,5.94-2.92,3.33a17.73,17.73,0,0,1,1.12,4.65l4.12,1.65-1.15,7.25-4.42.29a18.11,18.11,0,0,1-2.5,4.08L279,299.6l-5.94,4.32L269.74,301a18.11,18.11,0,0,1-4.65,1.11l-1.65,4.12-7.25-1.14-.29-4.43a17.76,17.76,0,0,1-4.08-2.5l-4.07,1.76L243.43,294l2.92-3.34a18,18,0,0,1-1.11-4.65l-4.12-1.64,1.14-7.25,4.43-.29a17.55,17.55,0,0,1,2.5-4.08l-1.75-4.08,5.93-4.31,3.34,2.92Zm2.15,10.3a7.87,7.87,0,1,0,11,1.74A7.89,7.89,0,0,0,258.86,277.56Z" style="fill:#f5f5f5"></path><path d="M326.88,268.35a45.81,45.81,0,0,1,11.81-2.83l4.17-10.46,18.4,2.91L362,269.2a46.12,46.12,0,0,1,10.35,6.34l10.34-4.44,11,15.07-7.42,8.46a45.43,45.43,0,0,1,2.84,11.81l10.45,4.17-2.9,18.4-11.24.75a45.4,45.4,0,0,1-6.34,10.35l4.44,10.34-15.06,11L360,354a45.83,45.83,0,0,1-11.81,2.84L344,367.28l-18.4-2.91-.74-11.23a45.6,45.6,0,0,1-10.36-6.34l-10.34,4.44-10.95-15.06,7.41-8.47a45.81,45.81,0,0,1-2.83-11.81l-10.46-4.17,2.91-18.4,11.23-.74a46,46,0,0,1,6.34-10.36l-4.44-10.34,15.07-10.95,8.46,7.41Zm5.48,26.16a20,20,0,1,0,27.91,4.41A20,20,0,0,0,332.36,294.51Z" style="fill:#e0e0e0"></path></g><g id="freepik--Floor--inject-69"><path d="M699.34,469.59c0,.14-145.22.26-324.32.26s-324.36-.12-324.36-.26,145.19-.26,324.36-.26S699.34,469.44,699.34,469.59Z" style="fill:#263238"></path></g><g id="freepik--Target--inject-69"><polyline points="569.3 414.93 555.67 470.22 566.31 470.22 580.38 419.05 570.88 416.33" style="fill:#455a64"></polyline><polyline points="637.34 414.93 650.97 470.22 640.33 470.22 626.26 419.05 635.76 416.33" style="fill:#455a64"></polyline><circle cx="604.86" cy="384.26" r="57.58" transform="translate(-94.56 540.25) rotate(-45)" style="fill:#407BFF"></circle><g style="opacity:0.30000000000000004"><circle cx="604.86" cy="384.26" r="57.58" transform="translate(-94.56 540.25) rotate(-45)"></circle></g><circle cx="603.32" cy="376.97" r="57.58" transform="translate(-106.5 329.52) rotate(-28.17)" style="fill:#407BFF"></circle><circle cx="603.32" cy="376.97" r="38.57" transform="translate(-57.51 640.41) rotate(-53.73)" style="fill:#fff"></circle><path d="M622.19,377.44a18.88,18.88,0,1,1-18.4-19.34A18.88,18.88,0,0,1,622.19,377.44Z" style="fill:#407BFF"></path><polygon points="644.49 335.83 643.23 323.51 656.07 310.44 656.64 323.72 644.49 335.83" style="fill:#455a64"></polygon><polygon points="671.57 326.73 658.91 325.38 645.89 337.29 658.58 338.97 671.57 326.73" style="fill:#455a64"></polygon><g style="opacity:0.30000000000000004"><path d="M605.85,376.76l44.85-32.51a53.53,53.53,0,0,0-5.34-6.86l-39.44,36.37Z"></path></g><path d="M657.2,321.88l-18.37,17.47-29.14,27.73-6.7,6.37c-2.12,2,1,5.3,3.16,3.28l18.37-17.48,29.14-27.72,6.7-6.38c2.12-2-1-5.29-3.16-3.27Z" style="fill:#263238"></path></g><g id="freepik--light-bulb--inject-69"><path d="M235,402.61A33.46,33.46,0,0,0,201.4,368c-18.94.1-34.61,15.73-35,34.92a33.71,33.71,0,0,0,19,31.34c-.09,4.12-.18,8.76-.18,8.76l30-.15s.29-4.92.44-9.31A35.9,35.9,0,0,0,235,402.61Z" style="fill:#407BFF"></path><path d="M196.87,442.73c0-11.27.85-22.54.71-33.81,0-2.28-.1-4.56-.32-6.82-.27-2.84-.86-6-3.44-7.56a4.34,4.34,0,0,0-3.81-.44,5.57,5.57,0,0,0-2.76,2.72,14.36,14.36,0,0,0-1.28,8.33,15,15,0,0,0,9.54,12.39,15.61,15.61,0,0,0,15.77-3.17c4.15-3.9,6.47-10.62,4.59-16.07-.81-2.35-2.78-5-5.56-4.66s-4,3-4.67,5.4a53,53,0,0,0-1.16,8.5c-.3,3.28-.51,6.57-.68,9.86-.37,6.77-.57,13.54-.93,20.32-.08,1.49-.17,3-.27,4.48,0,.51.74.47.77,0,.83-12,.81-24,2-36a35.29,35.29,0,0,1,1.31-8A6.14,6.14,0,0,1,208.9,395a3.35,3.35,0,0,1,3.75.07c2.38,1.59,3.09,4.84,3,7.57a15.87,15.87,0,0,1-2.4,8.07,14.69,14.69,0,0,1-14.16,6.9A13.89,13.89,0,0,1,187.41,408a15.31,15.31,0,0,1-.48-7.92c.55-2.63,2.26-6.34,5.52-5.34s3.78,4.6,4.05,7.48c.19,2,.25,4,.29,6,.19,10.44-.46,20.89-.66,31.34,0,1,0,2.11,0,3.17,0,.5.77.47.78,0Z" style="fill:#fff"></path><g id="freepik--2ggvdetif--inject-69"><path d="M193.26,460.68a9.09,9.09,0,0,1,1.93,1.76,2,2,0,0,0,1.58.76l6,0a2.09,2.09,0,0,0,1.72-.91,3.86,3.86,0,0,1,2.09-1.64Z" style="fill:#455a64"></path></g><path d="M187.05,443.66c0,.12,1.21,9.69,1.68,13.34a4.38,4.38,0,0,0,2.43,3.46,4.14,4.14,0,0,0,1.71.37l13.23-.08s3.45,0,4.29-2.8,2.67-14.44,2.67-14.44Z" style="fill:#263238"></path><path d="M211.26,456.66l-23,.22a.64.64,0,0,1-.64-.66v-.07a.67.67,0,0,1,.66-.67l23-.22a.64.64,0,0,1,.65.66V456A.68.68,0,0,1,211.26,456.66Z" style="fill:#e0e0e0"></path><path d="M211.26,456.66a.8.8,0,0,0,.45-.21.67.67,0,0,0,.18-.56.59.59,0,0,0-.47-.57c-1.25,0-3.11,0-5.38.07l-17.8.2a.57.57,0,0,0-.46.25.62.62,0,0,0-.09.26.65.65,0,0,0,0,.28.53.53,0,0,0,.35.36,3.83,3.83,0,0,0,.6,0l2.5,0,4.73,0,8-.05,5.39,0h1.85l-.38,0-1.47,0-5.39.09-8,.1-4.73,0-2.5,0h-.32a1.08,1.08,0,0,1-.35,0,.77.77,0,0,1-.5-.52,1.09,1.09,0,0,1,0-.36.81.81,0,0,1,.78-.72l17.79-.13c2.28,0,4.11,0,5.4,0a.69.69,0,0,1,.52.65.75.75,0,0,1-.22.6A.6.6,0,0,1,211.26,456.66Z" style="fill:#263238"></path><path d="M211.81,453.64l-24,.23a.64.64,0,0,1-.64-.66v-.07a.67.67,0,0,1,.66-.67l24-.23a.65.65,0,0,1,.65.66V453A.67.67,0,0,1,211.81,453.64Z" style="fill:#e0e0e0"></path><path d="M211.81,453.64a.7.7,0,0,0,.63-.81.61.61,0,0,0-.54-.54l-5.6.08-18.49.21a.56.56,0,0,0-.47.27.61.61,0,0,0-.08.27.68.68,0,0,0,0,.29.52.52,0,0,0,.41.33c.17,0,.43,0,.64,0l2.59,0,4.91,0,8.31-.06h7.52l-.39,0-1.53,0-5.6.09-8.31.11-4.91.05-2.6,0c-.23,0-.42,0-.68,0a.77.77,0,0,1-.57-.48,1,1,0,0,1,0-.38.76.76,0,0,1,.11-.38.8.8,0,0,1,.67-.38l18.48-.14c2.37,0,4.28,0,5.61,0a.69.69,0,0,1,.6.62.76.76,0,0,1-.21.62A.6.6,0,0,1,211.81,453.64Z" style="fill:#263238"></path><path d="M212.18,450.62l-24.64.23a.63.63,0,0,1-.64-.65v-.08a.68.68,0,0,1,.66-.67l24.64-.23a.65.65,0,0,1,.65.66V450A.68.68,0,0,1,212.18,450.62Z" style="fill:#e0e0e0"></path><path d="M212.18,450.62a.72.72,0,0,0,.47-.23.77.77,0,0,0,.16-.61.6.6,0,0,0-.58-.51l-5.74.09-18.93.21a.57.57,0,0,0-.48.28.64.64,0,0,0-.07.28.54.54,0,0,0,0,.29.53.53,0,0,0,.43.32h.67l2.66,0,5,0,8.51-.05,5.74,0h2.1l-.14,0h-.4l-1.57,0-5.73.09-8.51.1-5,.06-2.66,0c-.23,0-.43,0-.68,0a.76.76,0,0,1-.67-.83.78.78,0,0,1,.1-.39.81.81,0,0,1,.68-.4l18.92-.14,5.74,0a.67.67,0,0,1,.64.59.76.76,0,0,1-.19.65C212.4,450.69,212.17,450.62,212.18,450.62Z" style="fill:#263238"></path><path d="M212.74,447.6l-25.64.25a.64.64,0,0,1-.64-.66v-.08a.68.68,0,0,1,.66-.67l25.64-.24a.65.65,0,0,1,.65.66v.07A.67.67,0,0,1,212.74,447.6Z" style="fill:#e0e0e0"></path><path d="M212.74,447.6a.7.7,0,0,0,.62-.88.61.61,0,0,0-.65-.47l-6,.09-19.64.22a.57.57,0,0,0-.49.3.68.68,0,0,0,0,.59.51.51,0,0,0,.48.28h.7l2.76,0,5.21,0,8.83-.06,5.95,0h2.18l-.14,0h-.43l-1.61,0-6,.09-8.82.11-5.22.05-2.75,0h-.71a.76.76,0,0,1-.67-.4.93.93,0,0,1-.09-.4.82.82,0,0,1,.1-.4.78.78,0,0,1,.69-.43l19.63-.15,6,0a.67.67,0,0,1,.71.54.82.82,0,0,1-.16.68.69.69,0,0,1-.38.22Z" style="fill:#263238"></path><path d="M183.89,435.41c0,.25.42,6.11.64,9.12a3.52,3.52,0,0,0,1.57,2.69l1.33.88L213,448l1.35-.88a3.74,3.74,0,0,0,1.67-2.75l.94-9.1Z" style="fill:#e0e0e0"></path><g style="opacity:0.30000000000000004"><path d="M189.08,456.81a33.13,33.13,0,0,0,7.61.56c2.18,0,4.32,0,6.69,0,1.74-.05,3.34-.15,5.07-.23a4.89,4.89,0,0,0,2-.45Z"></path></g><g style="opacity:0.30000000000000004"><path d="M188.23,453.79a37.82,37.82,0,0,0,8.2.55c2.35,0,4.66,0,7.22,0,1.87-.05,3.59-.14,5.46-.23a5.41,5.41,0,0,0,2.18-.46Z"></path></g><g style="opacity:0.30000000000000004"><path d="M188.28,450.8a37.91,37.91,0,0,0,8.21.55c2.35,0,4.66,0,7.21,0,1.88-.05,3.6-.15,5.47-.23a5.64,5.64,0,0,0,2.18-.46Z"></path></g><g style="opacity:0.30000000000000004"><path d="M188.34,447.8a37.9,37.9,0,0,0,8.21.56c2.35,0,4.66,0,7.21,0,1.88-.05,3.6-.15,5.47-.24a5.5,5.5,0,0,0,2.18-.45Z"></path></g><path d="M215.37,445.57c0,.06-6.84.15-15.27.2s-15.28,0-15.28,0,6.84-.15,15.28-.2S215.37,445.51,215.37,445.57Z" style="fill:#263238"></path><path d="M216.78,435.05c0,.07-7.42.2-16.59.29s-16.59.1-16.59,0,7.42-.2,16.59-.29S216.78,435,216.78,435.05Z" style="fill:#263238"></path><g style="opacity:0.2"><path d="M194.31,378.27a6,6,0,0,1,2.38-4.23,10.18,10.18,0,0,1,7.3-2.4c7.73.45,13,2.84,18.26,9,1.78,2.08,3.84,5.9,3.67,8.82a5.47,5.47,0,0,1-1.82,3.84c-2.92,2.48-6.93.45-9.27-2.17-2.19-2.44-3.91-5.54-6.91-6.85-2.47-1.08-5.32-.72-8-1.11S194.34,381,194.31,378.27Z" style="fill:#fff"></path></g><g style="opacity:0.2"><path d="M221.89,400.57a5.23,5.23,0,0,1,5.39-3.33,5.08,5.08,0,0,1,3.42,2.95,5,5,0,0,1-1.19,5.3,4.5,4.5,0,0,1-5.28.61C222.64,405.11,221.26,402.39,221.89,400.57Z" style="fill:#fff"></path></g><path d="M159.67,379.81c-.08.12-6.31-3.77-13.93-8.69s-13.72-9-13.64-9.13,6.31,3.77,13.93,8.69S159.75,379.69,159.67,379.81Z" style="fill:#263238"></path><path d="M167,366.75a88.24,88.24,0,0,1-5.84-7.61,88.4,88.4,0,0,1-5.42-7.91,88.24,88.24,0,0,1,5.84,7.61A85.91,85.91,0,0,1,167,366.75Z" style="fill:#263238"></path><path d="M154.88,393.62a26.77,26.77,0,0,1-2.9-.26c-1.81-.21-4.32-.52-7.08-.9s-5.26-.75-7.07-1c-.9-.15-1.63-.29-2.13-.4l-.57-.15a.39.39,0,0,1-.16-.07c.06-.1.06,0,.07,0a3.49,3.49,0,0,1,.69.05l2.16.23c1.81.22,4.31.53,7.08.91C150.47,392.7,155,393.43,154.88,393.62Z" style="fill:#263238"></path></g><g id="freepik--Clock--inject-69"><path d="M413.63,247.7a98.18,98.18,0,1,1,148.22-29.59l-26.94-14.58a67.57,67.57,0,1,0-102,20.38Z" style="fill:#455a64"></path><g style="opacity:0.30000000000000004"><path d="M531.47,122.38l2.52,2.85,9-7.88c-.32-.66-.67-1.3-1-1.93,0,0,0-.09,0-.11s0,0-.08,0a25,25,0,0,0-1.75-2.59h0a29.33,29.33,0,0,0-4.85-4.86v0h0c-.62-.5-1.26-1-1.93-1.45l-9,7.88,2.45,2.79-2.89,2.54a60.85,60.85,0,0,0-34.5-16.47l.23-5.36,4.5.18.57-13.86c.15-.09.23-.16.22-.18s-.08,0-.21,0v0a33,33,0,0,0-17.28-.72v.12c-.05,0-.08,0-.09,0s0,.06.08.11l-.57,13.86,4.39.19-.22,5.21a60.75,60.75,0,0,0-37.27,13.21l-2.7-3.42,3-2.36-7.4-9.36c-.68.28-1.34.59-2,.93,0,0-.09,0-.1,0s0,0,0,.09a24.38,24.38,0,0,0-2.68,1.61h0a29.37,29.37,0,0,0-5.12,4.59h0a0,0,0,0,1,0,0c-.52.59-1,1.2-1.54,1.85l7.39,9.36,2.92-2.3,2.95,3.74a61.09,61.09,0,1,0,90.3,4.23Z"></path></g><rect x="432.08" y="113.47" width="7.09" height="11.07" transform="translate(20.04 295.7) rotate(-38.31)" style="fill:#263238"></rect><path d="M440,112.71l-11.47,9.05-7.39-9.36a27.83,27.83,0,0,1,11.46-9.06Z" style="fill:#407BFF"></path><path d="M430.47,120.25c-.18.14-2.07-1.91-4.21-4.59s-3.73-5-3.55-5.12,2.07,1.91,4.21,4.59S430.66,120.1,430.47,120.25Z" style="fill:#263238"></path><path d="M432.66,118.52c-.19.14-2-2-4.16-4.83a32.87,32.87,0,0,1-3.57-5.28c.23-.2,2.14,2,4.25,4.76S432.85,118.38,432.66,118.52Z" style="fill:#263238"></path><path d="M435.57,116.22c-.19.14-2.06-2.06-4.18-4.9s-3.7-5.25-3.55-5.37,2.11,2,4.23,4.86S435.75,116.08,435.57,116.22Z" style="fill:#263238"></path><path d="M438.22,114.07c-.18.14-2.06-1.94-4.18-4.65s-3.7-5-3.51-5.17,2.05,1.94,4.18,4.65S438.4,113.92,438.22,114.07Z" style="fill:#263238"></path><rect x="519.9" y="118.3" width="7.09" height="11.07" transform="translate(270.86 -351.07) rotate(48.68)" style="fill:#263238"></rect><path d="M530,127.89l-9.65-11,9-7.87a27.87,27.87,0,0,1,9.65,11Z" style="fill:#407BFF"></path><path d="M521.93,118.75c-.15-.17,1.8-2.17,4.37-4.45s4.77-4,4.93-3.81-1.8,2.17-4.37,4.45S522.09,118.93,521.93,118.75Z" style="fill:#263238"></path><path d="M523.77,120.84c-.15-.18,1.93-2.14,4.62-4.4a33.06,33.06,0,0,1,5.07-3.84c.22.21-1.84,2.23-4.53,4.49S523.92,121,523.77,120.84Z" style="fill:#263238"></path><path d="M526.22,123.63c-.15-.18,1.95-2.16,4.68-4.43s5.05-4,5.18-3.83-1.91,2.21-4.64,4.48S526.37,123.81,526.22,123.63Z" style="fill:#263238"></path><path d="M528.51,126.16c-.15-.17,1.83-2.15,4.42-4.41s4.83-4,5-3.78-1.82,2.15-4.42,4.41S528.67,126.34,528.51,126.16Z" style="fill:#263238"></path><rect x="477.11" y="96.31" width="8.4" height="13.1" transform="matrix(1, 0.04, -0.04, 1, 4.69, -19.92)" style="fill:#263238"></rect><path d="M490.11,100.6l-17.28-.72.58-14.11a33,33,0,0,1,17.28.72Z" style="fill:#407BFF"></path><path d="M490.9,86.55c.12.17-3.73,2.08-8.87,1.86s-8.84-2.35-8.71-2.5,3.81,1.51,8.74,1.66S490.82,86.3,490.9,86.55Z" style="fill:#263238"></path><path d="M478.54,100.08c-.24,0-.31-2.73-.17-6.07s.44-6,.67-6,.31,2.72.17,6.06S478.77,100.09,478.54,100.08Z" style="fill:#263238"></path><path d="M481.82,100.3c-.23,0-.31-2.74-.17-6.1s.44-6.07.68-6.06.31,2.74.17,6.1S482.06,100.31,481.82,100.3Z" style="fill:#263238"></path><path d="M485.11,100.38c-.23,0-.31-2.74-.17-6.1s.44-6.07.68-6.06.31,2.74.17,6.1S485.35,100.39,485.11,100.38Z" style="fill:#263238"></path><path d="M487.85,100.49c-.23,0-.3-3-.15-6.59s.46-6.56.7-6.55.3,3,.15,6.59S488.08,100.5,487.85,100.49Z" style="fill:#263238"></path><path d="M475.43,99.89c-.23,0-.3-3-.15-6.59s.46-6.56.7-6.55.3,3,.15,6.59S475.66,99.9,475.43,99.89Z" style="fill:#263238"></path><circle cx="477.64" cy="166.36" r="61.09" transform="translate(-27.91 181.67) rotate(-20.94)" style="fill:#407BFF"></circle><circle cx="477.66" cy="165.87" r="51.31" transform="translate(22.61 386.34) rotate(-45)" style="fill:#fff"></circle><path d="M528.93,168a7.54,7.54,0,0,1,0-.83c0-.59,0-1.4-.07-2.44,0-.54,0-1.14,0-1.8s-.15-1.37-.23-2.15a38.66,38.66,0,0,0-.86-5.33,48.9,48.9,0,0,0-5.12-13.82,51.25,51.25,0,0,0-33.42-25.38,46.15,46.15,0,0,0-6.4-1c-1.1-.08-2.2-.24-3.32-.27l-3.37,0c-.57,0-1.14,0-1.71,0l-1.7.19c-1.14.14-2.3.23-3.45.41a53.08,53.08,0,0,0-6.87,1.72,51.79,51.79,0,0,0-6.75,2.64c-1.1.53-2.16,1.17-3.25,1.76a27.24,27.24,0,0,0-3.15,2,57.54,57.54,0,0,0-6,4.67,56.62,56.62,0,0,0-5.23,5.69,49.11,49.11,0,0,0-7.85,13.7,50.48,50.48,0,0,0-1.34,32.09,49.22,49.22,0,0,0,6.68,14.31,58.07,58.07,0,0,0,4.74,6.1,57.39,57.39,0,0,0,5.57,5.15,25.77,25.77,0,0,0,3,2.24c1,.68,2,1.4,3.08,2a53,53,0,0,0,6.52,3.19,54,54,0,0,0,6.7,2.28c1.13.28,2.27.46,3.4.7l1.68.33c.57.1,1.14.12,1.7.18l3.36.32c1.11.06,2.22,0,3.32,0a47.47,47.47,0,0,0,6.47-.48,51.26,51.26,0,0,0,35.41-22.52,48.82,48.82,0,0,0,6.25-13.34,36.53,36.53,0,0,0,1.3-5.24c.15-.77.32-1.47.41-2.13s.13-1.24.19-1.78q.16-1.56.27-2.43c.06-.54.12-.82.12-.82s0,.28,0,.83-.1,1.39-.18,2.44c0,.54-.09,1.14-.15,1.79s-.24,1.37-.38,2.15A36.09,36.09,0,0,1,527,180.5,48.59,48.59,0,0,1,520.79,194a51.54,51.54,0,0,1-35.71,23,48.65,48.65,0,0,1-6.55.5c-1.12,0-2.25.06-3.38,0l-3.41-.31c-.57-.06-1.15-.08-1.72-.18l-1.71-.33c-1.14-.24-2.3-.42-3.45-.7a54,54,0,0,1-6.81-2.3,52.48,52.48,0,0,1-6.62-3.23c-1.07-.63-2.09-1.36-3.14-2a26.58,26.58,0,0,1-3-2.27,56.72,56.72,0,0,1-5.66-5.22,57.74,57.74,0,0,1-4.83-6.2,49.94,49.94,0,0,1-6.8-14.54,51.2,51.2,0,0,1,1.36-32.62,50.08,50.08,0,0,1,8-13.92,58.49,58.49,0,0,1,5.32-5.78,60.41,60.41,0,0,1,6.07-4.73,29.14,29.14,0,0,1,3.21-2c1.11-.59,2.19-1.24,3.3-1.78a53.54,53.54,0,0,1,6.87-2.67,54.93,54.93,0,0,1,7-1.72c1.17-.19,2.35-.27,3.5-.41l1.74-.19c.57,0,1.15,0,1.73,0l3.42,0c1.13,0,2.25.19,3.36.28a47.46,47.46,0,0,1,6.49,1A51.6,51.6,0,0,1,523,141.42a48.37,48.37,0,0,1,5,14,37.1,37.1,0,0,1,.79,5.37c.07.79.17,1.51.2,2.17s0,1.26,0,1.8c0,1.05,0,1.86,0,2.45S528.93,168,528.93,168Z" style="fill:#263238"></path><path d="M521.47,166.9c-4.68-.13-8.47-.51-8.47-.86s3.8-.69,8.48-.77,8.47.3,8.47.85S526.15,167,521.47,166.9Z" style="fill:#263238"></path><path d="M508.09,197.4c-3.24-3.37-5.66-6.31-5.42-6.56s3.19,2.18,6.57,5.41,5.81,6.17,5.42,6.56S511.33,200.78,508.09,197.4Z" style="fill:#263238"></path><path d="M477.13,209.69c.07-4.68.41-8.47.76-8.47s.73,3.78.86,8.46-.2,8.48-.75,8.48S477.06,214.37,477.13,209.69Z" style="fill:#263238"></path><path d="M446.47,196.65c3.34-3.28,6.26-5.74,6.5-5.49s-2.14,3.21-5.34,6.63-6.1,5.87-6.5,5.49S443.13,199.93,446.47,196.65Z" style="fill:#263238"></path><path d="M433.84,165.82c4.69,0,8.48.32,8.49.67s-3.78.78-8.46,1-8.47-.12-8.49-.67S429.17,165.8,433.84,165.82Z" style="fill:#263238"></path><path d="M446.55,135c3.31,3.31,5.8,6.19,5.56,6.44s-3.23-2.1-6.69-5.26-5.94-6-5.56-6.44S443.24,131.72,446.55,135Z" style="fill:#263238"></path><path d="M477.24,122.06c0,4.68-.23,8.48-.58,8.49s-.82-3.77-1.05-8.45,0-8.47.58-8.49S477.21,117.38,477.24,122.06Z" style="fill:#263238"></path><path d="M508.17,134.42c-3.27,3.35-6.12,5.87-6.38,5.64s2.07-3.26,5.2-6.75,6-6,6.37-5.63S511.44,131.07,508.17,134.42Z" style="fill:#263238"></path><path d="M493.09,139.23a176.54,176.54,0,0,1-1.62,22.5,28.07,28.07,0,0,1-2,7.9,10.57,10.57,0,0,1-5.58,5.67,6.59,6.59,0,0,1-7.42-1.77Z" style="fill:#e0e0e0"></path><polygon points="476.72 161.78 496.65 131.19 483.94 166.14 478.12 167.62 476.72 161.78" style="fill:#407BFF"></polygon><g style="opacity:0.4"><polygon points="496.65 131.19 481.5 162.67 483.94 166.14 496.65 131.19"></polygon></g><path d="M484.12,167.87a6,6,0,1,1-5.75-6.25A6,6,0,0,1,484.12,167.87Z" style="fill:#fafafa"></path><path d="M484.12,167.87c-.08,0-.06-.54-.29-1.44a6,6,0,0,0-2.07-3.2,5.74,5.74,0,0,0-5.33-1A5.62,5.62,0,0,0,476,172.8a5.73,5.73,0,0,0,5.39-.51,6,6,0,0,0,2.33-3c.3-.88.33-1.42.41-1.41a3,3,0,0,1-.09,1.5,6,6,0,0,1-2.31,3.41,6.26,6.26,0,0,1-6,.74,6.36,6.36,0,0,1,.49-12,6.29,6.29,0,0,1,5.95,1.24,6,6,0,0,1,2,3.59A3.13,3.13,0,0,1,484.12,167.87Z" style="fill:#263238"></path><path d="M482.58,167.8a4.46,4.46,0,1,1-4.27-4.65A4.46,4.46,0,0,1,482.58,167.8Z" style="fill:#455a64"></path><path d="M513.47,183.05l-3.8,65.66a3.69,3.69,0,0,0,4.5,3.82l67-15.14a3.7,3.7,0,0,0,1.49-6.49l-63.15-50.52A3.69,3.69,0,0,0,513.47,183.05Z" style="fill:#455a64"></path></g><g id="freepik--character-1--inject-69"><path d="M167.33,310.91,205,359.52a2.87,2.87,0,0,0,4.44.12L248.82,314a2.87,2.87,0,0,0-2.06-4.74l-77-2.95A2.86,2.86,0,0,0,167.33,310.91Z" style="fill:#407BFF"></path><path d="M426.51,391.09a111.54,111.54,0,0,1-91.46,47.73H237.59v30.63h97.46a142.11,142.11,0,0,0,114.27-57.64Z" style="fill:#407BFF"></path><path d="M441.06,232.48a141.92,141.92,0,0,0-106-47.51c-78.43,0-142.24,63.81-142.24,142.24h30.63A111.56,111.56,0,0,1,417.89,252.5Z" style="fill:#407BFF"></path><path d="M450.28,243.92l-24,19.12a111.36,111.36,0,0,1,7.35,116.39l23.87,20a141.93,141.93,0,0,0-7.25-155.53Z" style="fill:#407BFF"></path><g style="opacity:0.30000000000000004"><polygon points="194.21 307.23 225.03 308.35 226.44 301.46 195.51 300.24 194.21 307.23"></polygon></g><g style="opacity:0.30000000000000004"><polygon points="309.33 218.59 314.31 217.54 324.02 191.3 354.44 189.59 325.96 184.97 318.59 185.92 309.33 218.59"></polygon></g><path d="M316.11,123.92s-1.06.46-1.23-1,2.79-4.37,3.74-5.31,2.3-.74,3.5-.47,6.11.76,7.74,1.81,4.13,6.29,4.65,6.54,15.84,1,15.84,1l-.66,12.56s-15-2.87-18-4.73-2.59-2.6-3.43-4.34-1.76-3.58-1.76-3.58l-1.41-.24-2.25,1.25s-.27,3.19-2.5,3.1l-1.1-.57s-.73.84-1.56-.46S317,128,317,128s-.87,1.08-1.82-.26S316.11,123.92,316.11,123.92Z" style="fill:#ae7461"></path><path d="M332.62,129.25s-.05,0-.16.06a3,3,0,0,1-.5,0,3.55,3.55,0,0,1-1.81-.51,4.77,4.77,0,0,1-1.91-2.12,9.34,9.34,0,0,1-.79-3.52l.24.15a9.12,9.12,0,0,1-6,.55,2.37,2.37,0,0,1-1.16-.54.59.59,0,0,1,0-.74,1.22,1.22,0,0,1,.54-.35c1.38-.56,2.64-1,3.72-1.32s2-.55,2.57-.69a4.76,4.76,0,0,1,1-.17,5.14,5.14,0,0,1-.92.3c-.6.18-1.47.44-2.53.8s-2.31.82-3.68,1.39a1,1,0,0,0-.4.24.24.24,0,0,0,0,.32,2.07,2.07,0,0,0,1,.42,9,9,0,0,0,5.73-.52l.23-.11v.26a9.15,9.15,0,0,0,.72,3.41,4.72,4.72,0,0,0,1.75,2.06,3.79,3.79,0,0,0,1.7.58C332.38,129.27,332.62,129.23,332.62,129.25Z" style="fill:#6f4439"></path><path d="M324.86,120.64a2.13,2.13,0,0,1-1.44.28c-.46,0-1-.08-1.57,0a2.13,2.13,0,0,0-1.57.79,8.27,8.27,0,0,1-2.88,2.07,3.48,3.48,0,0,1-1.42.39s.52-.21,1.31-.62a9.45,9.45,0,0,0,2.74-2.09,2.67,2.67,0,0,1,.84-.65,2.43,2.43,0,0,1,1-.22,11.52,11.52,0,0,1,1.6.12A6.93,6.93,0,0,0,324.86,120.64Z" style="fill:#6f4439"></path><path d="M321.7,124a5.83,5.83,0,0,1-1.95,2.64,6,6,0,0,1-2.91,1.53,25.63,25.63,0,0,0,2.68-1.8A25,25,0,0,0,321.7,124Z" style="fill:#6f4439"></path><path d="M322.26,125.91a5.56,5.56,0,0,1-3.05,4.17c-.06-.09.91-.76,1.75-1.92S322.15,125.88,322.26,125.91Z" style="fill:#6f4439"></path><polygon points="368.54 99.44 354.83 124.19 333.54 123.82 331.94 136.6 353.91 141.99 362.95 132.06 368.54 99.44" style="fill:#e0e0e0"></polygon><path d="M356.54,128.39c-.11,0-.24-1-.72-2.16s-1.08-2-1-2a5.25,5.25,0,0,1,1.71,4.2Z" style="fill:#263238"></path><path d="M373.76,55.64a3.57,3.57,0,0,1-1.64-6.91,3.72,3.72,0,0,1,3.12-6.33,4.45,4.45,0,0,1,6.64-3.76A5,5,0,0,1,388,38.4a3.56,3.56,0,0,1,3.25,6" style="fill:#263238"></path><path d="M388.87,41.91l-.79,0a15.14,15.14,0,0,0-14.83,14.22c-.45,7.34-.85,15.44-.73,19.37.26,8.13,8.42,9.24,8.42,9.24l-.5,9.78,1,7.46,18.76-8.45,1.06-35.47C401.79,49.62,397.34,42.24,388.87,41.91Z" style="fill:#ae7461"></path><path d="M380.87,84.75a19.75,19.75,0,0,0,10.6-3.33s-2.53,6.3-10.65,5.72Z" style="fill:#6f4439"></path><path d="M376.2,64.49a1.15,1.15,0,0,0,1.14,1.15,1.1,1.1,0,0,0,1.18-1.07,1.18,1.18,0,0,0-1.15-1.15A1.11,1.11,0,0,0,376.2,64.49Z" style="fill:#263238"></path><path d="M375.07,60.1c.15.15,1-.52,2.27-.54s2.17.59,2.31.43-.09-.34-.5-.62a3.15,3.15,0,0,0-1.85-.54,3.07,3.07,0,0,0-1.8.62C375.12,59.76,375,60,375.07,60.1Z" style="fill:#263238"></path><path d="M387.57,64.49a1.15,1.15,0,0,0,1.14,1.15,1.1,1.1,0,0,0,1.18-1.07,1.17,1.17,0,0,0-1.14-1.15A1.12,1.12,0,0,0,387.57,64.49Z" style="fill:#263238"></path><path d="M387.36,60.09c.15.15,1-.52,2.26-.54s2.18.59,2.32.43-.09-.34-.5-.62a3.18,3.18,0,0,0-1.85-.53,3.07,3.07,0,0,0-1.8.62C387.41,59.75,387.29,60,387.36,60.09Z" style="fill:#263238"></path><path d="M383,69.45a8.28,8.28,0,0,0-2-.33c-.32,0-.63-.08-.68-.3a1.6,1.6,0,0,1,.19-.95c.29-.78.58-1.59.9-2.45a41.68,41.68,0,0,0,2-6.39,41.54,41.54,0,0,0-2.5,6.22L380,67.71a1.9,1.9,0,0,0-.14,1.26.81.81,0,0,0,.53.45,2.36,2.36,0,0,0,.55.07A8.2,8.2,0,0,0,383,69.45Z" style="fill:#263238"></path><path d="M386.18,55.31c.17.31,1.24-.05,2.56-.12s2.43.13,2.54-.2c.05-.16-.19-.44-.67-.69a4,4,0,0,0-2-.37,3.84,3.84,0,0,0-1.9.62C386.3,54.85,386.11,55.16,386.18,55.31Z" style="fill:#263238"></path><path d="M374.91,55c.27.28,1.3,0,2.54-.08s2.29.15,2.53-.15c.1-.15-.07-.43-.54-.69a4,4,0,0,0-2.07-.42,3.89,3.89,0,0,0-2,.61C374.93,54.52,374.79,54.81,374.91,55Z" style="fill:#263238"></path><path d="M374,52.41s2-5.14,4.48-6.37c2.94-1.5,4.28,1.74,7.1.89s5.63-2.28,8.57-.14c3.21,2.33,1.76,4,2,7.65,1.08,14.61,3.83,18.7,4.45,11.79.07-.76,2.16-1.4,2.4-4.59.33-4.15.39-9.17-.59-12.09-.83-2.46-2.27-4.14-4.84-6-4.05-2.89-9.53-2.85-13.25-2.4S373.49,46,374,52.41Z" style="fill:#263238"></path><path d="M400.07,66a2.2,2.2,0,0,1,2.34-2.17c1.52.11,3.23.94,3.19,4.08-.07,5.56-5.64,4.34-5.65,4.18S400,68.35,400.07,66Z" style="fill:#ae7461"></path><path d="M401.19,70s.09.07.25.15a1,1,0,0,0,.73,0,2.38,2.38,0,0,0,1.14-2.13,3.11,3.11,0,0,0-.26-1.39,1.12,1.12,0,0,0-.72-.76.49.49,0,0,0-.57.26c-.08.16-.05.27-.08.28s-.11-.1-.07-.33a.65.65,0,0,1,.23-.34.74.74,0,0,1,.54-.14,1.41,1.41,0,0,1,1,.88,3.24,3.24,0,0,1,.31,1.55,2.53,2.53,0,0,1-1.44,2.39,1.09,1.09,0,0,1-.89-.16C401.19,70.17,401.17,70,401.19,70Z" style="fill:#6f4439"></path><path d="M399.75,55.25a5.18,5.18,0,0,1-2.33,1.13,1.82,1.82,0,0,1-2-1.23c-.07-.39,0-.84-.24-1.14s-.87-.22-1.34-.17c-1.61.21-3.53-1.54-4-3.11a1.45,1.45,0,0,1-1.93.44A5.21,5.21,0,0,1,386.53,50a2.3,2.3,0,0,0-1.93-.92,5.24,5.24,0,0,1-1.2.29c-.73-.05-1.11-.9-1.23-1.62s-.23-1.57-.85-1.95a3,3,0,0,0-2,0c-.67.12-1.54,0-1.73-.68a1.28,1.28,0,0,1,.23-1,3.61,3.61,0,0,1,4.22-1.45A4.88,4.88,0,0,1,391,41.53a5,5,0,0,1,8,1.66,3.59,3.59,0,0,1,4.15,5.14A3.4,3.4,0,0,1,405,51a2,2,0,0,1-2.17,2,2,2,0,0,1-.73,2.62,2.07,2.07,0,0,1-2.67-.57" style="fill:#263238"></path><path d="M381.67,44.3a.82.82,0,0,0,0,.1,2.16,2.16,0,0,0,0,.29,3.25,3.25,0,0,0,.42,1.07,4,4,0,0,0,1.26,1.29,3.72,3.72,0,0,0,2.29.6l-.1-.12a2,2,0,0,0,.15,1.54,5.64,5.64,0,0,0,1,1.34,3.83,3.83,0,0,0,.64.63,1.86,1.86,0,0,0,.89.31,2,2,0,0,0,1.77-.68l-.21-.05a4.2,4.2,0,0,0,1.83,2.85,3,3,0,0,0,1.84.56,5.59,5.59,0,0,0,1.79-.43l-.15-.06a4.26,4.26,0,0,0,1.35,1.69,2.28,2.28,0,0,0,1.94.49,3.07,3.07,0,0,0,2.32-2.44l-.13.06a2.88,2.88,0,0,0,1.92.24,3.12,3.12,0,0,0,1.32-.62,2.69,2.69,0,0,0,.61-.69,1,1,0,0,0,.13-.29,3.39,3.39,0,0,1-.8.91,3.08,3.08,0,0,1-1.29.56,2.75,2.75,0,0,1-1.81-.26l-.1-.06,0,.12a2.91,2.91,0,0,1-2.19,2.27,2.14,2.14,0,0,1-1.77-.47,4.19,4.19,0,0,1-1.27-1.6l0-.11-.11,0a5,5,0,0,1-1.71.41,2.78,2.78,0,0,1-1.7-.52A4,4,0,0,1,390,50.58l0-.26-.17.21a1.81,1.81,0,0,1-1.57.59,1.76,1.76,0,0,1-.79-.26,4.76,4.76,0,0,1-.6-.59,5.63,5.63,0,0,1-.95-1.29,1.8,1.8,0,0,1-.15-1.39l0-.13h-.14a3.6,3.6,0,0,1-2.19-.55,3.84,3.84,0,0,1-1.25-1.22A4.52,4.52,0,0,1,381.67,44.3Z" style="fill:#455a64"></path><path d="M383.36,73.72c0-.21,1.4,0,2.6-.94s1.33-2.48,1.52-2.45.2.38.1,1a3.45,3.45,0,0,1-1.19,2.06,3,3,0,0,1-2.16.7C383.64,74,383.33,73.81,383.36,73.72Z" style="fill:#263238"></path><path d="M348.57,148.86l5.75-8.09L363.17,114c1.81-4.66,3.37-10.57,5.57-15a10.35,10.35,0,0,1,5.09-4.83l3.76-1.67L379.83,89c-1.29,8.12,10.08,9.12,22.17-1,0,0,4,2.7,9.63,7.37,2.46,2,4.7,4.28,5.63,7.66,1.69,6.12-5.58,24.25-13.49,41.3-2.37,5.1-10.66,24.21-10.66,24.21l-2.77.51s-33.2-6.88-38.35-11.27A10.46,10.46,0,0,1,348.57,148.86Z" style="fill:#e0e0e0"></path><path d="M349.6,145.49a2.39,2.39,0,0,1,.3-.35l.91-1,3.42-3.5,0,0,2.33-7.19c.92-2.72,1.84-5.73,2.78-8.92,1.8-6.26,3.52-11.91,5.1-15.89.76-2,1.48-3.57,2-4.65l.62-1.23a1.93,1.93,0,0,1,.23-.41,2.78,2.78,0,0,1-.17.44c-.14.32-.33.74-.55,1.26-.47,1.1-1.15,2.68-1.89,4.68-1.51,4-3.18,9.64-5,15.9-.93,3.19-1.87,6.21-2.8,8.92s-1.73,5.14-2.42,7.17v0l0,0-3.49,3.41-1,.92A2.39,2.39,0,0,1,349.6,145.49Z" style="fill:#263238"></path><polygon points="382.55 100.92 370.13 151.79 357.25 158.2 357.25 145.76 379.55 99.81 382.55 100.92" style="fill:#407BFF"></polygon><g style="opacity:0.30000000000000004"><path d="M358.81,147.21a47.33,47.33,0,0,1,9.79,5.54,60.74,60.74,0,0,0,9.67,5.78,18.5,18.5,0,0,0,11,1.54,11.08,11.08,0,0,0,8.33-6.84Z"></path></g><polygon points="377.59 92.38 380.76 87.53 382 94.18 385.16 90.61 400.85 83.27 403.57 89.1 386.24 99.35 381.44 98.99 377.93 94.83 377.59 92.38" style="fill:#e0e0e0"></polygon><path d="M377.59,92.38a4.39,4.39,0,0,1,.23,1c.16.76.34,1.61.53,2.56l-.31,0,.86-1.57L380.22,92l.17-.3.11.32c.28.8.42,1.46.55,1.93a2.91,2.91,0,0,1,.16.74,2,2,0,0,1-.33-.69c-.18-.45-.38-1.11-.67-1.86h.28l-1.28,2.37c-.31.54-.6,1.06-.87,1.55l-.23.4L378,96A14.49,14.49,0,0,1,377.59,92.38Z" style="fill:#263238"></path><path d="M382.86,94.84l-2-.25c-.54.61-1.87,1.86-2.41,2.47v.06c.23,1.33.47,2.66.71,4a13.35,13.35,0,0,1,3.33.27l1.83-3.22Z" style="fill:#407BFF"></path><polygon points="383.02 95.25 385.24 94.16 385.99 98.04 384.14 98.2 383.02 95.25" style="fill:#407BFF"></polygon><g style="opacity:0.30000000000000004"><polygon points="384.93 92.59 384.93 101.38 401.27 90.59 386.07 99.44 384.93 92.59"></polygon></g><path d="M403.57,89.1a7.23,7.23,0,0,1-.95.72c-.63.43-1.55,1-2.73,1.75-2.33,1.43-5.68,3.19-9.29,5.26-1.53.89-3,1.78-4.26,2.66l-.22.14,0-.25c-.5-2.68-.93-5-1.25-6.77l.18.06-1.72,1.61a3.59,3.59,0,0,1-.65.54,7.29,7.29,0,0,1,.56-.63l1.66-1.68.14-.14,0,.2c.36,1.75.83,4.07,1.37,6.74l-.26-.1c1.29-.9,2.74-1.8,4.27-2.69,3.62-2.08,7-3.8,9.34-5.17,1.19-.68,2.13-1.25,2.79-1.65A7,7,0,0,1,403.57,89.1Z" style="fill:#263238"></path><polygon points="380.89 95.34 379.98 93.09 378.46 95.87 379.11 96.88 380.89 95.34" style="fill:#407BFF"></polygon><path d="M383.4,95c.07.07-1,1.34-2.2,3s-2,3.14-2.09,3.09A16.9,16.9,0,0,1,383.4,95Z" style="fill:#263238"></path><path d="M382.29,101.45a5.41,5.41,0,0,1-1.69-.17,5.14,5.14,0,0,1-1.66-.4,3.75,3.75,0,0,1,1.72.05A3.45,3.45,0,0,1,382.29,101.45Z" style="fill:#263238"></path><path d="M302.65,143.35h0l-10.34-29.22a1.13,1.13,0,0,1,.83-1.44L317,106.45a1.19,1.19,0,0,1,1.38.79l10.87,32.92L363,162.3,361.36,164l-8.62-2.1Z" style="fill:#455a64"></path><path d="M361.36,164s-.06,0-.17-.09l-.49-.31-1.87-1.23L352,157.77l-22.5-15.14-1.78-1.21,0,0,0-.06c-3.18-9.58-6-18.16-8.08-24.37-1-3.08-1.82-5.58-2.39-7.33-.26-.84-.48-1.51-.63-2l-.15-.52c0-.12-.05-.18,0-.18a1.78,1.78,0,0,1,.07.17l.19.51c.17.47.4,1.13.69,2,.6,1.74,1.45,4.22,2.49,7.29L328,141.22l-.07-.1,1.78,1.21,22.44,15.23,6.77,4.65,1.84,1.28.47.34Z" style="fill:#263238"></path><path d="M306.77,142.73c0-.1,4.69-.4,10.49-.68s10.5-.41,10.51-.31-4.69.4-10.49.67S306.78,142.83,306.77,142.73Z" style="fill:#263238"></path><path d="M310.58,126.05c.42,1.32.18,2.58-.52,2.8s-1.62-.68-2-2-.18-2.58.52-2.8S310.16,124.72,310.58,126.05Z" style="fill:#e0e0e0"></path><path d="M336.3,126.21s-.89.44-1-1c-.13-1.26,2.9-3.13,4-3.83s3.52-.22,4.74-.06c1.65.21,5.49,1.93,6.71,3.39s2.09,5.3,2.54,5.66S369,136.75,369,136.75l-3.47,12.09s-14-6.18-16.49-8.67-1.94-3.12-2.37-5-.9-3.88-.9-3.88l-1.32-.55-2.48.71a5.48,5.48,0,0,1-1,1.67,1.94,1.94,0,0,1-2.91,0h0a1.5,1.5,0,0,1-1.87-1,3,3,0,0,1-.07-1.47s-1.13.22-1.14-1.19A6.64,6.64,0,0,1,336.3,126.21Z" style="fill:#ae7461"></path><path d="M344.24,127.81c0,.06-.51,0-1.29.21a6.37,6.37,0,0,0-2.76,1.38,6.2,6.2,0,0,0-1.71,2.56c-.27.75-.31,1.26-.37,1.26a2.68,2.68,0,0,1,.13-1.34,5.68,5.68,0,0,1,4.66-4.11A2.7,2.7,0,0,1,344.24,127.81Z" style="fill:#6f4439"></path><path d="M343.1,125.22c0,.06-.55,0-1.39.16a6.34,6.34,0,0,0-2.88,1.65,14,14,0,0,0-2,2.71,6.69,6.69,0,0,1-.79,1.18,4.68,4.68,0,0,1,.57-1.31,11.3,11.3,0,0,1,2-2.84,5.88,5.88,0,0,1,3.08-1.64A2.35,2.35,0,0,1,343.1,125.22Z" style="fill:#6f4439"></path><path d="M342.88,122.38c0,.06-.48,0-1.21.13a6.68,6.68,0,0,0-2.63,1.18,16.08,16.08,0,0,0-2.15,2,4.76,4.76,0,0,1-.89.87,4.44,4.44,0,0,1,.7-1,10.91,10.91,0,0,1,2.13-2.14,5.85,5.85,0,0,1,2.8-1.14A2.15,2.15,0,0,1,342.88,122.38Z" style="fill:#6f4439"></path><path d="M408,94.93c4.29.84,7.08,4.6,7.95,9.32,1.24,6.68-14.08,38.28-16.94,45.18a14.05,14.05,0,0,1-13.54,8.77c-3.88-.09-31-12.83-31-12.83l4-13.79,24.14,7.17,9.56-26.91" style="fill:#e0e0e0"></path><path d="M392.12,111.84s0,.16-.15.48l-.48,1.4-1.87,5.36c-1.64,4.67-4,11.4-6.94,19.71l0,.12-.12,0-24.15-7.14.21-.11c-1.27,4.41-2.6,9-4,13.79l-.09-.21c6.34,2.95,13.13,6,20.2,9,2.87,1.19,5.72,2.38,8.6,3.3l1.08.31c.36.09.71.12,1.07.19a15,15,0,0,0,2.22-.13,14.6,14.6,0,0,0,4.21-1.19,13.24,13.24,0,0,0,6.16-5.68c.67-1.22,1.17-2.54,1.74-3.8l1.68-3.73c4.46-9.83,8.42-18.72,11.25-26.37a58.29,58.29,0,0,0,3.1-10.53,8.49,8.49,0,0,0,.05-2.3,15.57,15.57,0,0,0-.52-2.09,13.38,13.38,0,0,0-1.65-3.39,9.34,9.34,0,0,0-4-3.31,8.8,8.8,0,0,0-1.28-.45l-.45-.12.46.09a7.41,7.41,0,0,1,1.3.42,9.28,9.28,0,0,1,4,3.29,13.57,13.57,0,0,1,1.7,3.41,16.25,16.25,0,0,1,.55,2.11,8.59,8.59,0,0,1-.05,2.37A57.32,57.32,0,0,1,413,117.21c-2.81,7.67-6.74,16.58-11.19,26.41l-1.67,3.74c-.57,1.25-1.06,2.57-1.75,3.82A13.54,13.54,0,0,1,392,157a15.13,15.13,0,0,1-4.31,1.23,14.27,14.27,0,0,1-2.27.12,11.05,11.05,0,0,1-1.15-.2l-1.1-.31c-2.91-.93-5.75-2.11-8.63-3.31-7.08-3-13.87-6.07-20.21-9l-.13-.07,0-.14c1.38-4.77,2.72-9.37,4-13.78l.05-.16.16.05,24.12,7.2-.16.08L389.49,119c.83-2.31,1.48-4.1,1.93-5.34l.51-1.38C392.05,112,392.12,111.84,392.12,111.84Z" style="fill:#263238"></path><path d="M386.41,148.86c-.11,0-.48-2.4-1.56-5.19s-2.39-4.86-2.29-4.92a6.61,6.61,0,0,1,.93,1.3,22.37,22.37,0,0,1,1.7,3.49,22.8,22.8,0,0,1,1.05,3.73A5.82,5.82,0,0,1,386.41,148.86Z" style="fill:#263238"></path><path d="M406.34,95c0,.06-.89.35-2.25,1a21.26,21.26,0,0,0-2.31,1.37,21.93,21.93,0,0,0-2.52,2.09,22.49,22.49,0,0,0-2.15,2.48,20.58,20.58,0,0,0-1.42,2.26c-.72,1.35-1,2.26-1.1,2.23a2.49,2.49,0,0,1,.18-.65,12.85,12.85,0,0,1,.69-1.69,17.84,17.84,0,0,1,1.39-2.35A18.72,18.72,0,0,1,399,99.23a19.89,19.89,0,0,1,2.59-2.1A18.72,18.72,0,0,1,404,95.8a14,14,0,0,1,1.71-.66A2.14,2.14,0,0,1,406.34,95Z" style="fill:#263238"></path><path d="M271.13,222.64l-17-12.11s37.14-53.8,40.91-58c2.86-3.15,9.1-8,16.43-7.7s20.87,4.94,25.77,6.29,47.62,13.49,53.11,17.88c0,0-3.83,16.55-8.32,20.42-3.52,3-16,3.56-24,1.35s-47-20.11-47-20.11Z" style="fill:#263238"></path><path d="M281,239.69,301.46,247l17.47-62.44,37.21,5.62-32.69-30.69s-17.8,5.3-20.69,5.78c-3.72.63-8.67,8.18-10.29,16.14C291.07,188.36,281,239.69,281,239.69Z" style="fill:#263238"></path><path d="M344.23,188.87c-.05.08-9.65-5.39-21.44-12.22s-21.31-12.43-21.26-12.52,9.65,5.38,21.44,12.21S344.28,188.78,344.23,188.87Z" style="fill:#455a64"></path><g style="opacity:0.30000000000000004"><path d="M282.33,208.07s6.82-31.43,13.18-35.21c0,0-6.11,16.31-6.72,26.8Z"></path></g><path d="M305.56,166.48a11.09,11.09,0,0,0-2,.18,10.14,10.14,0,0,0-4.81,2.55,17.3,17.3,0,0,0-4.29,6.88,86.78,86.78,0,0,0-2.84,9.68c-1.59,7-2.51,13.43-3.4,18-.42,2.32-.82,4.18-1.1,5.47-.14.61-.26,1.1-.35,1.47a3.15,3.15,0,0,1-.14.51,2.14,2.14,0,0,1,.07-.53c.07-.37.17-.86.28-1.48.24-1.3.6-3.16,1-5.48.82-4.63,1.71-11.07,3.3-18.08a84.48,84.48,0,0,1,2.88-9.71,17.24,17.24,0,0,1,4.43-7,10,10,0,0,1,5-2.5A5.53,5.53,0,0,1,305.56,166.48Z" style="fill:#455a64"></path><path d="M286.55,227.44l-4.41,19.76s-21.4,3.45-22.35,7.08l38.53,7.62L304.6,231Z" style="fill:#263238"></path><path d="M294.38,247.88a1.51,1.51,0,0,1-1.25,2.75c-1.92-.94-.37-3.78,1.38-2.67" style="fill:#e0e0e0"></path><path d="M298.32,261.9l.51-3.15-37.13-6.12s-1.86.41-1.91,1.65Z" style="fill:#455a64"></path><path d="M281.55,246.88c0,.19.89.46,1.7,1.24s1.14,1.68,1.33,1.64C285.36,248.92,282.34,246.06,281.55,246.88Z" style="fill:#fff"></path><path d="M277.18,247.75c-.08.17.67.65,1.15,1.58s.5,1.8.69,1.82C280,250.63,278.17,247.19,277.18,247.75Z" style="fill:#fff"></path><path d="M273.93,252.13c.94-.14,0-3.82-.86-3.51C273.15,248.72,274,252,273.93,252.13Z" style="fill:#fff"></path><path d="M282.79,242.4c.11,0,3.87.94,3.95,1C287,242.5,283,241.46,282.79,242.4Z" style="fill:#fff"></path><path d="M265.23,200.54l-12.71,15.75s-20.71-6.39-23.17-3.56l31.16,23.92L279,211.06Z" style="fill:#263238"></path><path d="M263.19,222.34a1.52,1.52,0,0,1-2.35,1.91c-1.3-1.69,1.35-3.56,2.44-1.78" style="fill:#e0e0e0"></path><path d="M260.51,236.65l1.85-2.59-30.57-22s-1.85-.46-2.44.63Z" style="fill:#455a64"></path><path d="M252.14,215.75c-.12.15.59.81,1,1.87s.28,2,.46,2.06C254.64,219.27,253.21,215.37,252.14,215.75Z" style="fill:#fff"></path><path d="M247.83,214.59c-.15.12.31.89.34,1.93s-.35,1.83-.2,1.94C249.12,218.44,249,214.53,247.83,214.59Z" style="fill:#fff"></path><path d="M243,217.08c.91.29,1.73-3.41.79-3.53C243.78,213.67,243,217,243,217.08Z" style="fill:#fff"></path><g style="opacity:0.30000000000000004"><path d="M341,187s-22.57-8.84-28.54-13a55,55,0,0,1-9.7-8.68Z"></path></g></g><g id="freepik--character-2--inject-69"><rect x="233.83" y="438.82" width="250.38" height="30.63" style="fill:#455a64"></rect><path d="M481.82,481.84l33.9-29.52a2.09,2.09,0,0,0-.1-3.24l-35-26.84a2.09,2.09,0,0,0-3.37,1.7l1.07,56.35A2.1,2.1,0,0,0,481.82,481.84Z" style="fill:#455a64"></path><path d="M319.05,298.43,314.34,297c-5.7-2-10.43-.45-13.51,3.4s-4.28,9-4.11,13.9c.11,3.18.73,6.53-.55,9.44A17,17,0,0,1,293,328a12.57,12.57,0,0,0-2.88,4.42,4.67,4.67,0,0,0,1.09,4.9,11.25,11.25,0,0,1,1.75,1.39,5.27,5.27,0,0,1,.63,3,10.9,10.9,0,0,0,20.91,3.64c1.38-3.22,1.13-6.87,1-10.37A135.56,135.56,0,0,1,319.05,298.43Z" style="fill:#263238"></path><path d="M329.27,292.69c-4.08-1.21-7.93,0-11.72,1.88a21.61,21.61,0,0,0-11.18,21.89,16.6,16.6,0,0,0,6.91,11.08c5.09,3.4,12.12,3.27,17.4.19a21.08,21.08,0,0,0,9.74-14.85,20.19,20.19,0,0,0-1.75-12.3,15.35,15.35,0,0,0-9.4-7.89" style="fill:#263238"></path><path d="M315.74,305.42c.8-1.52.78-3.32,1.22-5,1-3.65,4.33-6.27,8-7.31,3.38-1,7.28-.19,11,1.52a14.89,14.89,0,0,1,6.39,5.35,11.74,11.74,0,0,1,.89,10.74l-18.67-5.05a21.32,21.32,0,0,1-6.22,3.1,3.85,3.85,0,0,1-2,.08,1.78,1.78,0,0,1-1.33-1.39A3.74,3.74,0,0,1,315.74,305.42Z" style="fill:#263238"></path><path d="M335.71,300l-17,1.53a3.11,3.11,0,0,0-3.25,2.68l-4.11,35.94a11.23,11.23,0,0,0,1.53,7l1.34,2.23A8.24,8.24,0,0,0,328,350a4,4,0,0,0,.5-.89c.09-.32.2-.52.25-.79l.74-3.47c.54-3.17.95-6.42.95-6.39s6.9,0,9.68-8.59c1.39-4.24,2.31-11.42,2.87-17.32C343.49,307.24,341,300.23,335.71,300Z" style="fill:#ffbf9d"></path><path d="M339.77,319.66a1.14,1.14,0,0,1-1.26,1,1.08,1.08,0,0,1-1-1.2,1.13,1.13,0,0,1,1.26-1A1.09,1.09,0,0,1,339.77,319.66Z" style="fill:#263238"></path><path d="M340.84,316c-.16.12-.91-.64-2.12-.83s-2.19.27-2.3.1.13-.32.56-.54a3.07,3.07,0,0,1,1.87-.26,3,3,0,0,1,1.66.84C340.84,315.68,340.92,316,340.84,316Z" style="fill:#263238"></path><path d="M329,318.36a1.14,1.14,0,0,1-1.27,1,1.09,1.09,0,0,1-1-1.19,1.15,1.15,0,0,1,1.27-1A1.1,1.1,0,0,1,329,318.36Z" style="fill:#263238"></path><path d="M329.34,314.34c-.16.12-.92-.64-2.12-.83s-2.2.27-2.3.1.12-.32.56-.54a3.13,3.13,0,0,1,1.87-.26,3,3,0,0,1,1.66.84C329.33,314,329.42,314.28,329.34,314.34Z" style="fill:#263238"></path><path d="M331.88,324a8.26,8.26,0,0,1,2,0c.31,0,.61,0,.7-.2a1.57,1.57,0,0,0-.06-.94c-.17-.8-.35-1.63-.54-2.5a41.94,41.94,0,0,1-1.07-6.48,40.86,40.86,0,0,1,1.59,6.38c.17.87.34,1.71.5,2.5a1.78,1.78,0,0,1,0,1.24.77.77,0,0,1-.58.37,1.84,1.84,0,0,1-.53,0A8,8,0,0,1,331.88,324Z" style="fill:#263238"></path><path d="M330.43,338.46a22.62,22.62,0,0,1-11.24-5s2,6.53,10.89,7.11Z" style="fill:#ff9a6c"></path><path d="M330.9,326.85a2.18,2.18,0,0,0-1.82-1.12,2,2,0,0,0-1.49.52,1.27,1.27,0,0,0-.33,1.42,1.49,1.49,0,0,0,1.52.66,4.85,4.85,0,0,0,1.69-.68,1.36,1.36,0,0,0,.41-.3.42.42,0,0,0,.07-.45" style="fill:#ff9a6c"></path><path d="M328.19,324.28c.19,0,0,1.34,1,2.45s2.4,1.19,2.38,1.37-.35.21-.95.13a3.27,3.27,0,0,1-2-1.07,2.87,2.87,0,0,1-.73-2C327.9,324.57,328.1,324.26,328.19,324.28Z" style="fill:#263238"></path><path d="M330.32,310.07c-.17.31-1.36,0-2.8-.1s-2.66.15-2.8-.17c-.06-.16.19-.43.7-.68a4.74,4.74,0,0,1,2.16-.39,4.59,4.59,0,0,1,2.11.6C330.17,309.62,330.39,309.92,330.32,310.07Z" style="fill:#263238"></path><path d="M341.89,310.73c-.26.24-1-.18-2-.35s-1.88-.12-2-.43c-.07-.16.11-.41.52-.61a2.9,2.9,0,0,1,1.74-.19,2.93,2.93,0,0,1,1.55.82C341.93,310.3,342,310.61,341.89,310.73Z" style="fill:#263238"></path><path d="M313,302.49c2.32-4.84,10.66-10.83,15.92-9.72l7.77,6.28a8.26,8.26,0,0,1-6.43,5.48c-1.57.25-3.39.12-4.46,1.29s-.83,3.18-1.87,4.42c-1.44,1.72-4.64,1.18-5.8,3.09-.51.84-.46,1.93-1,2.75-.69,1.1-3.88,2.18-5.06,1.61s-.88-2.65-1.13-3.81a5.78,5.78,0,0,1,.37-3.92C312.21,307.55,311.9,304.8,313,302.49Z" style="fill:#263238"></path><path d="M315.58,319.24c.1-.65.23-1.58-.36-1.88-1.76-.88-5.48-1.53-6.2,2.83-1,6,5.2,5.74,5.24,5.57S315.23,321.5,315.58,319.24Z" style="fill:#ffbf9d"></path><path d="M312.81,323.19s-.11.06-.3.11a1,1,0,0,1-.78-.11,2.62,2.62,0,0,1-.81-2.51,3.66,3.66,0,0,1,.54-1.44,1.24,1.24,0,0,1,.92-.67.53.53,0,0,1,.56.39c.05.18,0,.29,0,.31s.14-.08.13-.34a.65.65,0,0,0-.17-.41.81.81,0,0,0-.55-.25,1.49,1.49,0,0,0-1.24.75,3.7,3.7,0,0,0-.64,1.6,2.74,2.74,0,0,0,1.09,2.83,1.13,1.13,0,0,0,1,0C312.78,323.34,312.83,323.21,312.81,323.19Z" style="fill:#ff9a6c"></path><path d="M335.17,297c.26,2.51,3.6,6.08,5,8.18,2.68,4,3.15,5.28,2.14,13.39,1.81-2.62,3.26-5.24,3.53-8.41a13.19,13.19,0,0,0-2.45-9,10.24,10.24,0,0,0-8.22-4.14" style="fill:#263238"></path><path d="M310.94,301c3.41-4.92,7.74-7.54,11.64-8.33" style="fill:#263238"></path><path d="M309.62,324.06s-.09-.08-.25-.27-.37-.49-.63-.88a12.57,12.57,0,0,1-1.58-3.64,23.88,23.88,0,0,1-.75-5.83,17.49,17.49,0,0,1,1.27-7.08,24.72,24.72,0,0,1,3.48-6.31,22.82,22.82,0,0,1,4.13-4.19,16.84,16.84,0,0,1,3.41-2c.43-.18.77-.32,1-.39l.36-.11s-.47.22-1.3.63a18.54,18.54,0,0,0-3.31,2.1,23.57,23.57,0,0,0-4,4.19,25.32,25.32,0,0,0-3.4,6.23,17.39,17.39,0,0,0-1.27,6.94,24.79,24.79,0,0,0,.66,5.78,14.24,14.24,0,0,0,1.45,3.63C309.33,323.64,309.65,324,309.62,324.06Z" style="fill:#455a64"></path><path d="M339.79,400.69s34.33-3.89,39.93-4.84c10.73-1.82,21.47-.08,26,9.14,2.08,4.2-.55,12.3-6.84,18.31-4.69,4.49-28,28.05-28,28.05l-20-16.67,24.71-19.22-47.9,6.73Z" style="fill:#263238"></path><path d="M375.39,439.85l-12.84,13.56s9.7,17.82,7.58,20.56L342.47,449.6l19.13-22Z" style="fill:#263238"></path><path d="M355,444.69a1.48,1.48,0,0,0-1.9.58,1.44,1.44,0,0,0,.59,1.89,1.56,1.56,0,0,0,2-.62,1.51,1.51,0,0,0-.84-1.9" style="fill:#e0e0e0"></path><path d="M342.47,449.6l1.93-2.22,26,24.35a3.08,3.08,0,0,1-.21,2.26Z" style="fill:#e0e0e0"></path><path d="M363.12,453.67c-.12.13-.85-.41-1.89-.57s-1.89.09-2-.07.8-.75,2.06-.54S363.25,453.57,363.12,453.67Z" style="fill:#fff"></path><path d="M365,457.41c-.08.15-.87-.14-1.82,0s-1.61.63-1.74.51.45-.95,1.64-1.12S365.09,457.28,365,457.41Z" style="fill:#fff"></path><path d="M363.62,462.27c-.14-.08.25-.91,1.24-1.33s1.87-.15,1.83,0-.77.2-1.58.56S363.77,462.38,363.62,462.27Z" style="fill:#fff"></path><path d="M365.7,450.25c-.17.07-.63-.66-1.44-1.28s-1.61-.91-1.58-1.09,1-.14,2,.6S365.85,450.2,365.7,450.25Z" style="fill:#fff"></path><path d="M384.66,437.49a1.69,1.69,0,0,1-.25.3l-.76.81-2.86,3L371,451.48l-.12.12-.13-.11-2.49-2.07L356,439.05l-3.7-3.17-1-.88a1.74,1.74,0,0,1-.33-.32,1.86,1.86,0,0,1,.38.27l1,.82,3.78,3.08,12.4,10.28,2.48,2.08-.24,0,9.84-9.84,2.94-2.88.8-.77A1.69,1.69,0,0,1,384.66,437.49Z" style="fill:#455a64"></path><path d="M413.87,436.39l16.86,14.88,16.72,7.91a2.31,2.31,0,0,1,1,3.21h0a2.32,2.32,0,0,1-1.76,1.17c-4.73.5-22.12,2.27-23.29,1.11-1.36-1.34-18.83-14.51-18.83-14.51Z" style="fill:#263238"></path><path d="M448.48,462.39l-26.21,1.3,1.16,1a2.34,2.34,0,0,0,1.81.46c2.2,0,8.29-.18,21.44-1.52a2.32,2.32,0,0,0,1.8-1.22Z" style="fill:#e0e0e0"></path><g style="opacity:0.6000000000000001"><path d="M422.26,457.28a1.38,1.38,0,0,1,1.63.88,1.33,1.33,0,0,1-.86,1.63,1.48,1.48,0,0,1-1.73-.94,1.4,1.4,0,0,1,1.09-1.6" style="fill:#fff"></path></g><path d="M437.66,460a6.89,6.89,0,0,1-.07-2.63,7,7,0,0,1,1.29-2.3c0-.05-.35.06-.74.41a3.58,3.58,0,0,0-1,1.77,3.5,3.5,0,0,0,.08,2C437.37,459.78,437.61,460,437.66,460Z" style="fill:#fff"></path><path d="M441,460.71a18.86,18.86,0,0,1,.54-2.15c.47-1.11,1.28-1.74,1.2-1.86s-1.11.4-1.65,1.67A2.54,2.54,0,0,0,441,460.71Z" style="fill:#fff"></path><path d="M432.78,459.79a23,23,0,0,1,.62-3.37,23.86,23.86,0,0,1,1.55-3.05,6.3,6.3,0,0,0-2.17,6.42Z" style="fill:#fff"></path><path d="M427.28,455.69c.14,0,.55-1.24,1.54-2.51s2.12-2,2.05-2.13a4.4,4.4,0,0,0-2.44,1.83A4.53,4.53,0,0,0,427.28,455.69Z" style="fill:#fff"></path><path d="M423.52,453.06a11.66,11.66,0,0,1,1.54-2.67,11.21,11.21,0,0,1,2.49-1.79c0-.06-.38-.06-.95.15a5,5,0,0,0-3,3.35C423.43,452.68,423.46,453.05,423.52,453.06Z" style="fill:#fff"></path><path d="M285,416c.34.86-1.18,28.45,25,28.62,23.51.15,55.12-21.39,58.72-20,2.36.91,42.93,36.15,42.93,36.15l14.64-17.19s-37.54-35.82-41.23-38.4c-7.9-5.53-13.46-5.49-26.47-3.13-11.63,2.1-40.13,11.57-40.13,11.57l-2.74-2.33Z" style="fill:#263238"></path><path d="M350.18,404.77l.44-.19,1.31-.49c1.16-.42,2.88-1,5.13-1.64a63.33,63.33,0,0,1,8.35-1.76,33.21,33.21,0,0,1,5.33-.37,27.46,27.46,0,0,1,5.95.75,28.8,28.8,0,0,1,12.14,6.28c3.62,3.37,7.4,7.06,11.43,10.9l26.18,25.14.13.12-.11.13-2,2.37c-2.17,2.55-4.42,5.15-6.65,7.54s-4.24,4.79-6.29,7.17l.06.13-23-19.88-9.85-8.53-4.42-3.84-2.08-1.8c-.34-.29-.67-.59-1-.85a6.31,6.31,0,0,0-1.1-.62,5.65,5.65,0,0,0-4.63.07l-3.88,1.91-6.18,3-3.88,1.89-1,.48-.35.16.33-.18,1-.52,3.85-1.94,6.16-3.08,3.87-1.92a5.87,5.87,0,0,1,4.81-.11,6.53,6.53,0,0,1,1.15.65c.36.27.69.57,1,.86l2.08,1.79,4.45,3.82,9.87,8.5,23,19.84.06.13c2-2.41,4.13-4.88,6.15-7.44s4-5,6.18-7.52l2-2.34v.25L400,418.49c-4-3.84-7.79-7.55-11.39-10.92a28.65,28.65,0,0,0-12-6.25,27.62,27.62,0,0,0-5.89-.77,33.11,33.11,0,0,0-5.3.34,64.1,64.1,0,0,0-8.34,1.7c-2.26.61-4,1.17-5.14,1.57l-1.32.46Z" style="fill:#455a64"></path><path d="M335.83,343.53s8.68,3.45,9.71,10.79c.86,6.12-1.05,22.42-1,23.52a3.88,3.88,0,0,0,.92,2.64,6.1,6.1,0,0,1,1.64,4.19,6.68,6.68,0,0,1-.53,3.05c-1,1.68-10.6,12.81-10.6,12.81l-8.54-17.75s5.6-16.63,5.64-17.06S335.83,343.53,335.83,343.53Z" style="fill:#407BFF"></path><path d="M345.66,387c.37.05,12.89,8.95,12.89,8.95s3.06-5.91,4.43-6.08,5.59,1.44,6,1.89a3.15,3.15,0,0,0,2,.59c.82.08,2.29,2.15,2.29,2.15l2.82,2.1s-.88,1.65-1.12,1.93-2.14-.51-2.11-.81.24,1.85-1.22,1.91a8.05,8.05,0,0,1-3.35-.93l-.49-2.48-3.63-2.36-.43,2.38s3.67.76,3.56,2a1.88,1.88,0,0,1-1.19,1.57l-3-.07-6.69,1.6s-17.54-3.87-18.18-5.87S340.52,386.31,345.66,387Z" style="fill:#ffbf9d"></path><path d="M345.79,382.85a12.19,12.19,0,0,1,3.46,4.82c.78,1.77,9.14,7.89,9.14,7.89l-6.78,5.49s-14.14.58-14.81-1.52,1.55-11.48,1.55-11.48Z" style="fill:#407BFF"></path><path d="M337,406.72h0a1.2,1.2,0,0,0,1.42.86L363,402.2l21.13-3.85.18-1.87-20.2,2.89-26.23,5.86A1.2,1.2,0,0,0,337,406.72Z" style="fill:#e0e0e0"></path><path d="M375.4,370.45,364,399.56a1.6,1.6,0,0,0,1.76,2.17l25.1-4.63a1.58,1.58,0,0,0,1.23-1l11.41-28.89a.85.85,0,0,0-.87-1.16l-25.9,3.39A1.59,1.59,0,0,0,375.4,370.45Z" style="fill:#e0e0e0"></path><path d="M378,369.44c.09,0-2.63,7.28-6.09,16.19s-6.33,16.09-6.42,16.05,2.63-7.28,6.08-16.19S377.87,369.4,378,369.44Z" style="fill:#263238"></path><ellipse cx="385.64" cy="383.9" rx="2.85" ry="1.55" transform="translate(-130.79 555.35) rotate(-63.24)" style="fill:#fff"></ellipse><path d="M337.38,402.19s-2.05-8.63-1.64-10.21c1.18-4.55,7.27-16,6.76-22.91s-6.67-25.54-6.67-25.54l-5.88-2c-2.38,5.18-11.6,4-19.13-2.05l-9.44,1.91-14.79,46-2.48,16.75c-6,7.82.91,11.94.91,11.94s11.39,3.58,20.39,2c6.73-1.2,16.55-5.95,18.75-7.68,5.27-4.13,13.62-3.84,13.62-3.84Z" style="fill:#407BFF"></path><path d="M320.87,402.62l6.16,2.51s3.42-2,3.92-2.23a71.92,71.92,0,0,1,8.66-1.06,17,17,0,0,0,2.86-.19l-8.14,5-5.16,6.87a15.53,15.53,0,0,1-4.39.76,47.53,47.53,0,0,1-7.6-1.29Z" style="fill:#ffbf9d"></path><path d="M302.56,341.21s-10.81.64-14.61,9.27c-2.54,5.76-7.77,31.1-8.54,35.74s0,10.28,3.71,13.2,34.51,16,34.51,16l6.42-12.37-26-16.13h-.84l3.11-18.61" style="fill:#407BFF"></path><path d="M300.34,368.34s0,.11,0,.32-.08.54-.14.94c-.14.85-.33,2.08-.59,3.66-.52,3.21-1.28,7.86-2.23,13.71l-.11-.13h.88l0,0,26,16.09.14.08-.08.14-6.4,12.37-.08.15-.15-.06c-6.25-2.67-12.91-5.58-19.74-8.67q-4.05-1.83-7.95-3.7c-1.3-.63-2.59-1.26-3.85-1.93a16.65,16.65,0,0,1-3.59-2.28,10,10,0,0,1-2.34-3.48,14.45,14.45,0,0,1-1-4,19.31,19.31,0,0,1,0-4c.13-1.32.4-2.6.64-3.86,1-5,2-9.81,3-14.26s2-8.59,3-12.34c.51-1.88,1-3.65,1.6-5.31a15.1,15.1,0,0,1,2.36-4.35,15.87,15.87,0,0,1,3.17-2.92,18.69,18.69,0,0,1,3.19-1.72,21.72,21.72,0,0,1,4.79-1.4c.57-.1,1-.15,1.29-.18l.45,0-.44.06-1.28.21a22.69,22.69,0,0,0-4.76,1.46,18.78,18.78,0,0,0-3.14,1.73,15.82,15.82,0,0,0-3.11,2.9,15.13,15.13,0,0,0-2.3,4.31c-.56,1.65-1.07,3.42-1.57,5.3-1,3.74-2,7.88-3,12.34s-2,9.22-3,14.26c-.23,1.26-.5,2.53-.62,3.82a18.64,18.64,0,0,0,0,3.95,11.87,11.87,0,0,0,3.24,7.24,16.65,16.65,0,0,0,3.52,2.22c1.26.66,2.54,1.29,3.84,1.92q3.9,1.88,8,3.7c6.82,3.09,13.47,6,19.72,8.67l-.23.08c2.23-4.29,4.38-8.43,6.43-12.36l.06.22L298,387.06l.06,0h-1l0-.13c1-5.84,1.8-10.49,2.34-13.69.28-1.58.5-2.81.64-3.65.08-.4.13-.71.18-.94S300.34,368.34,300.34,368.34Z" style="fill:#263238"></path><path d="M341.56,354.32s-.14.65-.27,1.83a17.57,17.57,0,0,0-.07,2.16c0,.84.14,1.8.28,2.86a61.85,61.85,0,0,1,.77,7.48,23.19,23.19,0,0,1-1.45,9.08c-1.19,3.06-2.74,5.78-3.7,8.41a17.44,17.44,0,0,0-.77,7.34c.13,2.13.33,3.85.45,5,.06.56.11,1,.14,1.37a2.87,2.87,0,0,1,0,.48,1.69,1.69,0,0,1-.1-.47c-.05-.35-.12-.8-.21-1.36-.16-1.19-.41-2.9-.57-5a17.37,17.37,0,0,1,.71-7.47c1-2.69,2.51-5.4,3.68-8.43a23.22,23.22,0,0,0,1.45-9,66,66,0,0,0-.68-7.45,27,27,0,0,1-.23-2.88,13.84,13.84,0,0,1,.13-2.19,10.85,10.85,0,0,1,.27-1.35A2.19,2.19,0,0,1,341.56,354.32Z" style="fill:#263238"></path><path d="M303.4,359.31c-.07,0,.27-1,.45-2.58a16.06,16.06,0,0,0,0-2.81,16,16,0,0,0-3.66-8.85c-1-1.23-1.84-1.85-1.79-1.91a2.68,2.68,0,0,1,.58.41,12.07,12.07,0,0,1,1.4,1.33,15.13,15.13,0,0,1,3.15,5.53,16.4,16.4,0,0,1,.66,3.46,14.36,14.36,0,0,1-.13,2.88,9,9,0,0,1-.21,1.08,4.91,4.91,0,0,1-.23.8A2.62,2.62,0,0,1,303.4,359.31Z" style="fill:#263238"></path><path d="M318.38,385a15.27,15.27,0,0,0,2.93-1.13,13.42,13.42,0,0,0,1.33-.86,14.63,14.63,0,0,0,1.36-1.2,15.84,15.84,0,0,0,2.57-3.28,22.3,22.3,0,0,0,2.74-7.05c.37-1.91.39-3.13.47-3.13a4.11,4.11,0,0,1,0,.86,16.63,16.63,0,0,1-.23,2.32,20.55,20.55,0,0,1-2.68,7.19,15.51,15.51,0,0,1-2.64,3.33,14.85,14.85,0,0,1-1.42,1.2,12,12,0,0,1-1.39.84,8.14,8.14,0,0,1-1.23.53,5.38,5.38,0,0,1-1,.27A3.13,3.13,0,0,1,318.38,385Z" style="fill:#263238"></path><path d="M290.39,390.33a8.69,8.69,0,0,1,3.5-2.53,8.79,8.79,0,0,1,4.23-.89,27.55,27.55,0,0,0-4.08,1.22A25.69,25.69,0,0,0,290.39,390.33Z" style="fill:#263238"></path><path d="M344.08,403.28a1.11,1.11,0,0,1-.84.91,1.27,1.27,0,0,1-.28,0c-.67,0-1-1.27-1-1.27l-3.06.42s-4.36,5.53-5.9,7.1c-6.05,6.18-7.63,1.72-7.63,1.72l1.88-7.26,3.87-6.48s-.24.39-.15-.63,1.88-1.19,1.88-1.19c.12-.53,1.17-1,1.17-1l4.86-.9a3.34,3.34,0,0,1,2.81.76l2.95,2.53s1.74,1.94,1.73,2.52a1,1,0,0,1-.9,1s.22,1.56-.15,1.73a3.21,3.21,0,0,1-1.25.08Z" style="fill:#ffbf9d"></path><path d="M332.72,401.89c0,.05.63-.2,1.64-.47a15.28,15.28,0,0,1,4.06-.45,13.85,13.85,0,0,1,2.23.24,3.17,3.17,0,0,1,1.65.58.63.63,0,0,1,.12.58.89.89,0,0,1-.27.41c-.21.17-.39.15-.39.18s.19.09.46-.09a.84.84,0,0,0,.36-.45.79.79,0,0,0-.11-.77,1.64,1.64,0,0,0-.79-.48c-.31-.09-.63-.18-1-.25a13.34,13.34,0,0,0-2.29-.26,12.55,12.55,0,0,0-4.12.55A5.73,5.73,0,0,0,332.72,401.89Z" style="fill:#ff9a6c"></path><path d="M333.31,405c0,.09,1.92-.57,4.31-1.16s4.37-.87,4.35-1a5,5,0,0,0-1.31.08,29.71,29.71,0,0,0-3.12.58,30.46,30.46,0,0,0-3,.92A5.78,5.78,0,0,0,333.31,405Z" style="fill:#ff9a6c"></path><path d="M344,403.17a1.65,1.65,0,0,0-.09-.52,10.57,10.57,0,0,0-.42-1.37,6.65,6.65,0,0,0-.42-.92,2.93,2.93,0,0,0-.78-.88,6.66,6.66,0,0,0-2.31-1.26,9.47,9.47,0,0,0-2.59-.45,8.34,8.34,0,0,0-2.12.31c-.59.16-1,.32-1.37.43a2,2,0,0,0-.49.2,14.45,14.45,0,0,0,1.91-.41,7.81,7.81,0,0,1,4.57.22,6.79,6.79,0,0,1,2.23,1.19,3.77,3.77,0,0,1,1.17,1.65C343.76,402.46,344,403.19,344,403.17Z" style="fill:#ff9a6c"></path><path d="M334.62,396.73s.73-.15,1.89-.37,2.88-.61,4.32.58a16.49,16.49,0,0,1,3.5,2.95,10.46,10.46,0,0,1,1,1.62,1.26,1.26,0,0,0-.12-.5,5,5,0,0,0-.68-1.25,14.46,14.46,0,0,0-3.5-3.08,5.38,5.38,0,0,0-1.2-.65,3.73,3.73,0,0,0-1.26-.18,10.58,10.58,0,0,0-2.09.3A7.42,7.42,0,0,0,334.62,396.73Z" style="fill:#ff9a6c"></path><path d="M335.75,407.68a1.54,1.54,0,0,0,.21-.3l.6-.87a33.26,33.26,0,0,1,2.43-3.07l-.06,0,3.05-.39-.13-.09a3.28,3.28,0,0,0,.27.69,1.4,1.4,0,0,0,.54.6.76.76,0,0,0,.44.06,1.23,1.23,0,0,0,.42-.1,1.27,1.27,0,0,0,.6-.63,1,1,0,0,0,.07-.21l0,0v0h0l-.15.11h.12l.41,0,.43,0,.23-.05a.54.54,0,0,0,.25-.13,1,1,0,0,0,.17-.47c0-.15,0-.3,0-.45a6.65,6.65,0,0,0-.07-.88l-.13.17a1.15,1.15,0,0,0,1-.7,1,1,0,0,0,0-.65,2.43,2.43,0,0,0-.28-.53,15.52,15.52,0,0,0-1.44-1.84h0l-1.57-1.35-1-.86a6.46,6.46,0,0,0-1.05-.8,3.39,3.39,0,0,0-1.27-.38,4.39,4.39,0,0,0-1.27.12l-4.58.86h0a4.23,4.23,0,0,0-.71.44,1.4,1.4,0,0,0-.53.68l.15-.1a1.71,1.71,0,0,0-1.49.55,2,2,0,0,0-.38,1.41l0-.07c-1.12,1.85-2,3.37-2.67,4.45l-.72,1.22a2.48,2.48,0,0,0-.23.44,3.8,3.8,0,0,0,.29-.41l.77-1.18,2.76-4.4v-.07a1.76,1.76,0,0,1,.34-1.23,1.46,1.46,0,0,1,1.26-.45H333l0-.11a1.16,1.16,0,0,1,.43-.52,4.62,4.62,0,0,1,.67-.41h0l4.58-.83a4,4,0,0,1,1.19-.11,3.12,3.12,0,0,1,1.15.34,5.88,5.88,0,0,1,1,.77l1,.86,1.57,1.35h0a17,17,0,0,1,1.42,1.8,2.54,2.54,0,0,1,.24.46.7.7,0,0,1,0,.45.89.89,0,0,1-.72.51l-.15,0,0,.15a5.83,5.83,0,0,1,.06.84,1.4,1.4,0,0,1-.11.72l-.11.05-.18,0c-.13,0-.26,0-.4,0l-.39,0h-.11c.14-.1-.18.14-.15.12h0v.07a.93.93,0,0,1-.52.65.89.89,0,0,1-.32.08.49.49,0,0,1-.3,0,1.89,1.89,0,0,1-.69-1.12l0-.1H342l-3.05.44h0l0,0a30.09,30.09,0,0,0-2.38,3.15c-.25.39-.43.69-.55.9A2.08,2.08,0,0,0,335.75,407.68Z" style="fill:#ff9a6c"></path><g style="opacity:0.30000000000000004"><path d="M329.53,371.68a22.36,22.36,0,0,1-2.94,7.35c-1.67,2.57-3.78,3.92-6.4,5.54l-.19.08a9.91,9.91,0,0,0,9.53-13Z"></path></g><g style="opacity:0.30000000000000004"><rect x="471.07" y="440.27" width="6.21" height="27.09"></rect></g><rect x="80.89" y="439.11" width="73.62" height="30.63" style="fill:#455a64"></rect></g></svg>
