<svg width="453" height="264" viewBox="0 0 453 264" fill="none" xmlns="http://www.w3.org/2000/svg">
<path d="M175.83 85.5052C173.196 89.5034 171.345 93.9608 170.375 98.6428L162.997 99.3384V113.549L170.375 114.239C171.344 118.923 173.195 123.383 175.83 127.382L171.116 133.043L181.219 143.092L186.909 138.409C190.933 141.019 195.416 142.849 200.122 143.806L200.815 151.145H215.107L215.794 143.83C220.5 142.871 224.982 141.04 229.007 138.433L234.697 143.116L244.8 133.067L240.086 127.406C242.722 123.407 244.572 118.947 245.541 114.263L252.919 113.573V99.3624L245.541 98.6668C244.571 93.9848 242.72 89.5274 240.086 85.5292L244.8 79.8628L234.697 69.8133L229.007 74.5023C224.986 71.8768 220.503 70.0278 215.794 69.0518L215.107 61.7365H200.815L200.122 69.0578C195.416 70.0142 190.933 71.8451 186.909 74.4543L181.219 69.7653L171.116 79.8149L175.83 85.5052ZM221.641 92.8385C224.347 95.5295 226.189 98.958 226.936 102.691C227.682 106.423 227.299 110.292 225.835 113.808C224.371 117.324 221.892 120.329 218.711 122.444C215.53 124.558 211.79 125.687 207.964 125.687C204.138 125.687 200.399 124.558 197.218 122.444C194.037 120.329 191.557 117.324 190.093 113.808C188.629 110.292 188.246 106.423 188.993 102.691C189.739 98.958 191.582 95.5295 194.287 92.8385C197.916 89.2319 202.835 87.2059 207.964 87.2059C213.094 87.2059 218.013 89.2319 221.641 92.8385Z" fill="#E0E0E0"/>
<path d="M110.64 60.6511C109.161 62.9049 108.12 65.4148 107.572 68.0504L103.425 68.4401V76.439L107.572 76.8288C108.119 79.4628 109.16 81.9709 110.64 84.222L107.994 87.412L113.678 93.0664L116.879 90.4281C119.142 91.9027 121.666 92.9383 124.317 93.4801L124.709 97.6115H132.75L133.141 93.4801C135.79 92.9371 138.312 91.9016 140.574 90.4281L143.774 93.0664L149.465 87.412L146.812 84.222C148.295 81.9722 149.336 79.4636 149.881 76.8288L154.034 76.439V68.4401L149.881 68.0504C149.333 65.4163 148.292 62.9082 146.812 60.6571L149.465 57.4672L143.774 51.8128L140.574 54.4511C138.313 52.9751 135.791 51.9394 133.141 51.399L132.75 47.2677H124.709L124.317 51.399C121.665 51.9382 119.141 52.974 116.879 54.4511L113.678 51.8128L107.994 57.4672L110.64 60.6511ZM136.427 64.7825C137.949 66.2969 138.986 68.2265 139.406 70.3271C139.826 72.4278 139.611 74.6052 138.787 76.584C137.963 78.5628 136.567 80.2541 134.777 81.444C132.987 82.6339 130.882 83.2691 128.729 83.2691C126.576 83.2691 124.471 82.6339 122.681 81.444C120.891 80.2541 119.496 78.5628 118.672 76.584C117.848 74.6052 117.632 72.4278 118.052 70.3271C118.472 68.2265 119.509 66.2969 121.032 64.7825C123.073 62.7518 125.842 61.6109 128.729 61.6109C131.616 61.6109 134.385 62.7518 136.427 64.7825Z" fill="#E0E0E0"/>
<path d="M132.334 25.8914C131.594 27.0179 131.075 28.2731 130.803 29.5911L128.729 29.7829V33.7824L130.803 33.9742C131.076 35.2919 131.595 36.5468 132.334 37.6739L131.008 39.2629L133.853 42.093L135.456 40.7739C136.586 41.5095 137.846 42.0263 139.169 42.2969L139.362 44.3656H143.383L143.582 42.2969C144.904 42.0252 146.164 41.5085 147.295 40.7739L148.898 42.093L151.737 39.2629L150.411 37.6739C151.154 36.5484 151.675 35.293 151.948 33.9742L154.022 33.7824V29.7829L151.948 29.5911C151.677 28.2719 151.155 27.0163 150.411 25.8914L151.737 24.3024L148.886 21.4723L147.283 22.7914C146.153 22.0544 144.893 21.5375 143.57 21.2684L143.371 19.1997H139.362L139.169 21.2684C137.845 21.5364 136.585 22.0533 135.456 22.7914L133.853 21.4723L131.008 24.3024L132.334 25.8914ZM145.221 27.9541C145.977 28.7099 146.491 29.6715 146.698 30.7176C146.905 31.7637 146.796 32.8474 146.385 33.8319C145.973 34.8164 145.278 35.6576 144.387 36.2493C143.495 36.8411 142.447 37.1569 141.375 37.1569C140.304 37.1569 139.256 36.8411 138.364 36.2493C137.473 35.6576 136.777 34.8164 136.366 33.8319C135.955 32.8474 135.846 31.7637 136.053 30.7176C136.26 29.6715 136.774 28.7099 137.53 27.9541C138.034 27.4501 138.633 27.0502 139.293 26.7772C139.953 26.5043 140.661 26.3638 141.375 26.3638C142.09 26.3638 142.798 26.5043 143.458 26.7772C144.118 27.0502 144.717 27.4501 145.221 27.9541Z" fill="#E0E0E0"/>
<path d="M92.1913 105.026L66.2566 110.102C65.1101 110.326 64.3635 111.433 64.5891 112.573L71.3774 146.897C71.6029 148.037 72.7152 148.78 73.8618 148.556L99.7964 143.48C100.943 143.256 101.69 142.149 101.464 141.009L94.6756 106.685C94.4501 105.545 93.3378 104.802 92.1913 105.026Z" fill="#E6E6E6"/>
<path d="M89.313 114.292L72.4494 117.592C71.8711 117.705 71.4948 118.265 71.6089 118.841L71.7022 119.313C71.8162 119.89 72.3774 120.265 72.9556 120.152L89.8193 116.852C90.3975 116.739 90.7738 116.18 90.6597 115.603L90.5664 115.131C90.4524 114.554 89.8912 114.179 89.313 114.292Z" fill="#F0F0F0"/>
<path d="M90.604 120.823L73.7404 124.123C73.1622 124.236 72.7859 124.796 72.9 125.372L72.9933 125.844C73.1073 126.421 73.6685 126.796 74.2467 126.683L91.1103 123.383C91.6885 123.27 92.0648 122.711 91.9508 122.134L91.8575 121.662C91.7434 121.086 91.1823 120.71 90.604 120.823Z" fill="#F0F0F0"/>
<path d="M91.9023 127.359L75.0386 130.659C74.4604 130.772 74.0841 131.331 74.1982 131.908L74.2915 132.38C74.4055 132.956 74.9667 133.332 75.5449 133.219L92.4085 129.919C92.9868 129.806 93.3631 129.246 93.249 128.67L93.1557 128.198C93.0417 127.621 92.4805 127.246 91.9023 127.359Z" fill="#F0F0F0"/>
<path d="M84.2197 135.642L76.3232 137.188C75.745 137.301 75.3687 137.86 75.4827 138.436L75.576 138.908C75.6901 139.485 76.2513 139.861 76.8295 139.747L84.726 138.202C85.3042 138.089 85.6805 137.53 85.5664 136.953L85.4731 136.481C85.3591 135.905 84.7979 135.529 84.2197 135.642Z" fill="#F0F0F0"/>
<path d="M128.205 151.676L111.788 149.726C110.627 149.588 109.574 150.412 109.436 151.566L106.774 173.738C106.636 174.893 107.464 175.94 108.624 176.078L125.042 178.028C126.202 178.166 127.255 177.342 127.393 176.188L130.055 154.016C130.194 152.861 129.365 151.814 128.205 151.676Z" fill="#E6E6E6"/>
<path d="M124.715 158.874L113.485 157.537C113.37 157.524 113.258 157.488 113.157 157.431C113.055 157.375 112.966 157.299 112.895 157.208C112.823 157.117 112.77 157.013 112.739 156.902C112.708 156.791 112.699 156.674 112.713 156.56C112.741 156.328 112.859 156.116 113.044 155.971C113.228 155.826 113.462 155.759 113.696 155.786L124.926 157.123C125.041 157.137 125.153 157.173 125.254 157.229C125.355 157.286 125.444 157.361 125.516 157.452C125.588 157.543 125.641 157.647 125.672 157.758C125.703 157.87 125.711 157.986 125.697 158.101C125.67 158.333 125.551 158.545 125.367 158.69C125.183 158.835 124.948 158.901 124.715 158.874Z" fill="#F0F0F0"/>
<path d="M124.172 163.329L112.942 161.998C112.827 161.984 112.715 161.947 112.614 161.89C112.512 161.833 112.423 161.757 112.352 161.666C112.28 161.574 112.227 161.47 112.196 161.358C112.165 161.246 112.157 161.13 112.171 161.015C112.184 160.9 112.22 160.789 112.277 160.688C112.334 160.588 112.41 160.499 112.501 160.428C112.593 160.356 112.697 160.304 112.809 160.273C112.921 160.242 113.038 160.233 113.153 160.247L124.383 161.578C124.499 161.593 124.61 161.629 124.712 161.686C124.813 161.743 124.902 161.82 124.974 161.911C125.046 162.002 125.098 162.107 125.129 162.219C125.16 162.33 125.169 162.447 125.155 162.562C125.141 162.677 125.105 162.788 125.048 162.888C124.992 162.989 124.915 163.078 124.824 163.149C124.733 163.22 124.628 163.273 124.516 163.304C124.404 163.335 124.287 163.344 124.172 163.329Z" fill="#F0F0F0"/>
<path d="M123.642 167.809L112.412 166.471C112.296 166.459 112.184 166.423 112.083 166.367C111.981 166.311 111.891 166.235 111.82 166.144C111.748 166.053 111.695 165.949 111.664 165.837C111.633 165.725 111.625 165.609 111.64 165.494C111.668 165.262 111.786 165.05 111.971 164.905C112.155 164.76 112.39 164.693 112.623 164.72L123.853 166.07C124.085 166.098 124.297 166.217 124.441 166.4C124.586 166.583 124.651 166.816 124.624 167.047C124.594 167.277 124.474 167.486 124.29 167.628C124.106 167.771 123.873 167.836 123.642 167.809Z" fill="#F0F0F0"/>
<path d="M116.939 171.562L111.857 170.961C111.625 170.933 111.413 170.814 111.267 170.63C111.122 170.447 111.054 170.214 111.08 169.981C111.093 169.865 111.13 169.753 111.187 169.652C111.244 169.55 111.32 169.46 111.412 169.388C111.504 169.316 111.609 169.263 111.722 169.232C111.835 169.2 111.952 169.191 112.068 169.206L117.15 169.807C117.383 169.834 117.596 169.952 117.742 170.136C117.888 170.32 117.955 170.554 117.927 170.787C117.899 171.02 117.779 171.233 117.593 171.378C117.408 171.523 117.173 171.59 116.939 171.562Z" fill="#F0F0F0"/>
<path d="M408.078 79.3317L388.669 72.0052C387.576 71.5929 386.355 72.1395 385.94 73.2263L376.049 99.1545C375.635 100.241 376.184 101.457 377.277 101.869L396.686 109.195C397.779 109.608 399 109.061 399.415 107.974L409.306 82.0462C409.72 80.9594 409.171 79.7441 408.078 79.3317Z" fill="#E6E6E6"/>
<path d="M402.432 84.6475L389.364 79.7147C388.907 79.542 388.395 79.7717 388.221 80.2279L388.092 80.565C387.918 81.0212 388.148 81.5311 388.606 81.7039L401.673 86.6366C402.131 86.8094 402.643 86.5796 402.817 86.1234L402.946 85.7863C403.12 85.3301 402.89 84.8203 402.432 84.6475Z" fill="#F0F0F0"/>
<path d="M400.496 89.7207L387.428 84.788C386.97 84.6152 386.458 84.845 386.284 85.3012L386.155 85.6383C385.981 86.0945 386.211 86.6044 386.669 86.7771L399.737 91.7099C400.195 91.8827 400.707 91.6529 400.881 91.1967L401.009 90.8596C401.183 90.4034 400.953 89.8935 400.496 89.7207Z" fill="#F0F0F0"/>
<path d="M398.559 94.794L385.491 89.8612C385.034 89.6885 384.522 89.9182 384.348 90.3744L384.219 90.7116C384.045 91.1678 384.275 91.6776 384.733 91.8504L397.8 96.7832C398.258 96.9559 398.77 96.7262 398.944 96.27L399.073 95.9328C399.247 95.4766 399.017 94.9668 398.559 94.794Z" fill="#F0F0F0"/>
<path d="M389.655 97.2336L383.555 94.9311C383.098 94.7583 382.586 94.9881 382.412 95.4443L382.283 95.7814C382.109 96.2376 382.339 96.7475 382.797 96.9203L388.896 99.2228C389.354 99.3955 389.866 99.1658 390.04 98.7096L390.169 98.3725C390.343 97.9163 390.113 97.4064 389.655 97.2336Z" fill="#F0F0F0"/>
<path d="M239.755 14.5767H233.637C233.114 14.5767 232.69 14.9981 232.69 15.5181V23.0612C232.69 23.5811 233.114 24.0026 233.637 24.0026H239.755C240.277 24.0026 240.701 23.5811 240.701 23.0612V15.5181C240.701 14.9981 240.277 14.5767 239.755 14.5767Z" fill="#E0E0E0"/>
<path d="M251.804 7.24338H245.686C245.163 7.24338 244.74 7.66486 244.74 8.18477V23.0613C244.74 23.5812 245.163 24.0026 245.686 24.0026H251.804C252.327 24.0026 252.751 23.5812 252.751 23.0613V8.18477C252.751 7.66486 252.327 7.24338 251.804 7.24338Z" fill="#E0E0E0"/>
<path d="M264.77 0H258.652C258.129 0 257.705 0.421477 257.705 0.941397V23.2711C257.705 23.791 258.129 24.2125 258.652 24.2125H264.77C265.293 24.2125 265.716 23.791 265.716 23.2711V0.941397C265.716 0.421477 265.293 0 264.77 0Z" fill="#E0E0E0"/>
<path d="M287.284 138.727C285.857 140.893 284.855 143.308 284.33 145.845L280.334 146.216V153.915L284.33 154.287C284.855 156.824 285.857 159.239 287.284 161.405L284.728 164.475L290.201 169.913L293.281 167.377C295.461 168.793 297.888 169.789 300.436 170.315L300.816 174.29H308.55L308.93 170.321C311.478 169.795 313.905 168.799 316.085 167.383L319.165 169.919L324.638 164.481L322.088 161.411C323.513 159.244 324.513 156.829 325.036 154.293L329.032 153.921V146.216L325.036 145.845C324.515 143.307 323.512 140.891 322.082 138.727L324.638 135.663L319.165 130.219L316.085 132.755C313.905 131.339 311.478 130.342 308.93 129.817L308.55 125.841H300.816L300.436 129.811C297.889 130.335 295.464 131.332 293.287 132.749L290.201 130.213L284.728 135.651L287.284 138.727ZM312.088 142.685C313.554 144.142 314.553 145.999 314.957 148.02C315.362 150.042 315.155 152.138 314.363 154.043C313.57 155.947 312.227 157.575 310.504 158.721C308.781 159.866 306.755 160.478 304.683 160.478C302.611 160.478 300.585 159.866 298.862 158.721C297.139 157.575 295.796 155.947 295.003 154.043C294.211 152.138 294.004 150.042 294.409 148.02C294.813 145.999 295.812 144.142 297.278 142.685C299.242 140.732 301.906 139.635 304.683 139.635C307.46 139.635 310.124 140.732 312.088 142.685Z" fill="#E0E0E0"/>
<path d="M335.186 156.943C334.513 157.965 334.04 159.104 333.794 160.301L331.907 160.475V164.109L333.794 164.283C334.04 165.48 334.513 166.619 335.186 167.641L333.981 169.092L336.561 171.658L338.02 170.459C339.045 171.131 340.191 171.601 341.395 171.844L341.57 173.721H345.223L345.398 171.844C346.601 171.601 347.747 171.131 348.773 170.459L350.232 171.658L352.812 169.092L351.606 167.641C352.282 166.62 352.755 165.48 352.999 164.283L354.885 164.109V160.475L352.999 160.301C352.755 159.104 352.282 157.964 351.606 156.943L352.812 155.492L350.214 152.926L348.755 154.125C347.728 153.455 346.583 152.985 345.379 152.74L345.205 150.863H341.552L341.377 152.74C340.174 152.985 339.028 153.455 338.001 154.125L336.543 152.926L333.963 155.492L335.186 156.943ZM346.892 158.814C347.583 159.502 348.054 160.378 348.244 161.332C348.435 162.286 348.337 163.274 347.963 164.172C347.588 165.071 346.955 165.838 346.142 166.378C345.329 166.919 344.374 167.207 343.396 167.207C342.419 167.207 341.463 166.919 340.651 166.378C339.838 165.838 339.204 165.071 338.83 164.172C338.456 163.274 338.358 162.286 338.548 161.332C338.739 160.378 339.209 159.502 339.9 158.814C340.828 157.893 342.085 157.376 343.396 157.376C344.707 157.376 345.965 157.893 346.892 158.814Z" fill="#E0E0E0"/>
<path d="M302.721 101.671C302.049 102.694 301.577 103.833 301.328 105.029L299.442 105.209V108.842L301.328 109.016C301.576 110.213 302.048 111.352 302.721 112.374L301.515 113.819L304.095 116.391L305.554 115.192C306.581 115.862 307.726 116.332 308.93 116.577L309.104 118.454H312.757L312.932 116.577C314.135 116.332 315.281 115.862 316.307 115.192L317.766 116.391L320.346 113.819L319.141 112.374C319.815 111.353 320.288 110.213 320.533 109.016L322.42 108.842V105.209L320.533 105.029C320.287 103.832 319.814 102.692 319.141 101.671L320.346 100.226L317.766 97.6594L316.307 98.8587C315.281 98.1869 314.135 97.7149 312.932 97.4676L312.757 95.5968H309.104L308.93 97.4676C307.726 97.7149 306.581 98.1869 305.554 98.8587L304.095 97.6594L301.515 100.226L302.721 101.671ZM314.427 103.548C315.118 104.235 315.588 105.112 315.779 106.065C315.969 107.019 315.871 108.007 315.497 108.906C315.123 109.804 314.489 110.572 313.676 111.112C312.864 111.652 311.908 111.94 310.931 111.94C309.953 111.94 308.998 111.652 308.185 111.112C307.372 110.572 306.739 109.804 306.364 108.906C305.99 108.007 305.892 107.019 306.083 106.065C306.273 105.112 306.744 104.235 307.435 103.548C308.362 102.626 309.62 102.109 310.931 102.109C312.242 102.109 313.499 102.626 314.427 103.548Z" fill="#F5F5F5"/>
<path d="M332.492 115.006C331.227 116.925 330.339 119.066 329.876 121.314L326.338 121.644V128.462L329.882 128.791C330.345 131.04 331.233 133.18 332.498 135.099L330.238 137.816L335.06 142.613L337.791 140.364C339.719 141.62 341.868 142.503 344.126 142.966L344.463 146.486H351.317L351.648 142.966C353.908 142.503 356.059 141.62 357.99 140.364L360.72 142.613L365.542 137.816L363.282 135.099C364.542 133.178 365.43 131.038 365.898 128.791L369.436 128.462V121.644L365.898 121.314C365.43 119.068 364.542 116.928 363.282 115.006L365.542 112.29L360.72 107.493L358.008 109.706C356.077 108.449 353.926 107.567 351.666 107.103L351.335 103.584H344.481L344.144 107.103C341.886 107.567 339.737 108.45 337.809 109.706L335.078 107.457L330.256 112.254L332.492 115.006ZM354.469 118.526C355.766 119.817 356.649 121.461 357.007 123.251C357.365 125.041 357.181 126.896 356.478 128.582C355.776 130.268 354.587 131.709 353.062 132.723C351.536 133.737 349.743 134.278 347.908 134.278C346.074 134.278 344.28 133.737 342.755 132.723C341.229 131.709 340.04 130.268 339.338 128.582C338.636 126.896 338.452 125.041 338.809 123.251C339.167 121.461 340.05 119.817 341.347 118.526C343.088 116.796 345.448 115.824 347.908 115.824C350.369 115.824 352.729 116.796 354.469 118.526Z" fill="#F5F5F5"/>
<path d="M88.1683 19.9073C87.0642 21.5821 86.289 23.4499 85.8837 25.4117L82.7915 25.7056V31.6597L85.8837 31.9476C86.289 33.9113 87.0641 35.781 88.1683 37.458L86.1912 39.8565L90.4106 44.0538L92.8217 42.0871C94.5041 43.1878 96.3822 43.9591 98.3552 44.3596L98.6506 47.4416H104.636L104.925 44.3716C106.9 43.9664 108.779 43.1933 110.465 42.0931L112.876 44.0598L117.096 39.8625L115.118 37.464C116.224 35.7873 117.002 33.9176 117.409 31.9536L120.495 31.6657V25.7056L117.403 25.4117C116.996 23.4495 116.218 21.5818 115.112 19.9073L117.09 17.5088L112.87 13.3115L110.459 15.2782C108.773 14.1799 106.894 13.4088 104.919 13.0057L104.63 9.92966H98.6445L98.3492 13.0057C96.3808 13.4121 94.5074 14.1852 92.8277 15.2842L90.4166 13.3175L86.1972 17.5148L88.1683 19.9073ZM107.367 22.9773C108.502 24.1045 109.276 25.5415 109.591 27.1064C109.905 28.6713 109.745 30.2938 109.132 31.7685C108.519 33.2432 107.48 34.5038 106.146 35.3908C104.813 36.2777 103.245 36.7512 101.64 36.7512C100.036 36.7512 98.4679 36.2777 97.1343 35.3908C95.8006 34.5038 94.7615 33.2432 94.1484 31.7685C93.5353 30.2938 93.3758 28.6713 93.6901 27.1064C94.0044 25.5415 94.7783 24.1045 95.914 22.9773C97.4339 21.4687 99.4933 20.6215 101.64 20.6215C103.787 20.6215 105.847 21.4687 107.367 22.9773Z" fill="#F5F5F5"/>
<path d="M452.083 200.997H0V201.07H452.083V200.997Z" fill="#E0E0E0"/>
<path d="M427.586 218.608H393.993V218.861H427.586V218.608Z" fill="#EBEBEB"/>
<path d="M307.218 221.348H298.399V221.601H307.218V221.348Z" fill="#EBEBEB"/>
<path d="M68.3007 210.939H24.4969V211.192H68.3007V210.939Z" fill="#EBEBEB"/>
<path d="M83.762 210.939H77.3364V211.192H83.762V210.939Z" fill="#EBEBEB"/>
<path d="M199.64 215.196H104.636V215.449H199.64V215.196Z" fill="#EBEBEB"/>
<path d="M379.376 250.4C379.376 252.432 310.726 254.075 226.042 254.075C141.357 254.075 72.707 252.414 72.707 250.4C72.707 248.385 141.357 246.724 226.042 246.724C310.726 246.724 379.376 248.367 379.376 250.4Z" fill="#F5F5F5"/>
<path d="M108.831 50.2898H45.4253C44.0637 50.2898 42.96 51.3878 42.96 52.7422V88.1795C42.96 89.534 44.0637 90.632 45.4253 90.632H108.831C110.193 90.632 111.297 89.534 111.297 88.1795V52.7422C111.297 51.3878 110.193 50.2898 108.831 50.2898Z" fill="#407BFF"/>
<path opacity="0.8" d="M108.831 50.2898H45.4253C44.0637 50.2898 42.96 51.3878 42.96 52.7422V88.1795C42.96 89.534 44.0637 90.632 45.4253 90.632H108.831C110.193 90.632 111.297 89.534 111.297 88.1795V52.7422C111.297 51.3878 110.193 50.2898 108.831 50.2898Z" fill="white"/>
<path d="M53.3338 72.8114L53.1349 72.5895C53.4242 72.3257 61.3447 64.5487 61.4231 64.4707L61.4954 64.3988L69.3797 68.2543L77.1556 59.1701L85.0761 70.5208L92.6469 65.604L92.8097 65.8558L84.9736 70.9286L77.1375 59.6618L69.4822 68.656L61.5557 64.7345C60.6877 65.61 53.6472 72.5595 53.3338 72.8114Z" fill="#263238"/>
<path d="M55.7087 76.2352H52.0077V84.384H55.7087V76.2352Z" fill="#407BFF"/>
<path d="M63.3218 70.8506H59.6208V84.39H63.3218V70.8506Z" fill="#407BFF"/>
<path d="M71.0796 72.2117H67.3785V84.3899H71.0796V72.2117Z" fill="#407BFF"/>
<path d="M78.982 64.5786H75.2809V84.3899H78.982V64.5786Z" fill="#407BFF"/>
<path d="M86.9628 75.0839H83.2617V84.39H86.9628V75.0839Z" fill="#407BFF"/>
<path d="M55.8414 71.774C55.8426 72.1657 55.7269 72.5488 55.5091 72.875C55.2912 73.2012 54.981 73.4557 54.6176 73.6064C54.2542 73.7571 53.8541 73.7971 53.4678 73.7215C53.0816 73.6458 52.7266 73.4578 52.4478 73.1813C52.169 72.9048 51.9789 72.5523 51.9017 72.1683C51.8245 71.7843 51.8635 71.3861 52.0139 71.0242C52.1643 70.6623 52.4192 70.3529 52.7465 70.1352C53.0737 69.9175 53.4585 69.8013 53.8522 69.8013C54.3787 69.8013 54.8838 70.0089 55.2566 70.3787C55.6295 70.7485 55.8398 71.2503 55.8414 71.774Z" fill="#407BFF"/>
<path d="M63.4544 64.5787C63.4544 64.9703 63.3376 65.3531 63.1188 65.6786C62.8999 66.0041 62.5889 66.2577 62.2251 66.4073C61.8612 66.5569 61.461 66.5958 61.075 66.5189C60.6889 66.4421 60.3345 66.253 60.0566 65.9757C59.7786 65.6984 59.5896 65.3452 59.5136 64.961C59.4375 64.5768 59.4777 64.1787 59.6292 63.8173C59.7807 63.4558 60.0366 63.1472 60.3645 62.9305C60.6924 62.7138 61.0776 62.5987 61.4713 62.5999C61.7322 62.5999 61.9906 62.6511 62.2316 62.7507C62.4726 62.8502 62.6915 62.996 62.8757 63.1798C63.0599 63.3637 63.2059 63.5818 63.3052 63.8219C63.4045 64.0619 63.4552 64.3191 63.4544 64.5787Z" fill="#407BFF"/>
<path d="M71.4051 67.8226C71.4051 68.2139 71.2884 68.5965 71.0699 68.9219C70.8513 69.2473 70.5406 69.5009 70.1771 69.6507C69.8137 69.8004 69.4137 69.8396 69.0279 69.7633C68.642 69.6869 68.2876 69.4985 68.0094 69.2217C67.7312 68.945 67.5417 68.5924 67.465 68.2086C67.3882 67.8248 67.4276 67.4269 67.5782 67.0653C67.7287 66.7038 67.9837 66.3947 68.3108 66.1773C68.6379 65.9599 69.0225 65.8438 69.4159 65.8438C69.9435 65.8438 70.4494 66.0523 70.8225 66.4234C71.1955 66.7945 71.4051 67.2978 71.4051 67.8226Z" fill="#407BFF"/>
<path d="M79.1146 59.416C79.1146 59.8073 78.998 60.1899 78.7794 60.5153C78.5608 60.8407 78.2502 61.0943 77.8867 61.2441C77.5232 61.3938 77.1233 61.433 76.7374 61.3567C76.3515 61.2803 75.9971 61.0919 75.7189 60.8151C75.4407 60.5384 75.2513 60.1858 75.1745 59.802C75.0978 59.4182 75.1372 59.0203 75.2877 58.6587C75.4383 58.2972 75.6932 57.9881 76.0203 57.7707C76.3475 57.5533 76.732 57.4372 77.1255 57.4372C77.3867 57.4372 77.6453 57.4884 77.8867 57.5878C78.128 57.6873 78.3473 57.833 78.532 58.0168C78.7167 58.2005 78.8632 58.4187 78.9632 58.6587C79.0632 58.8988 79.1146 59.1561 79.1146 59.416Z" fill="#407BFF"/>
<path d="M87.0049 70.7307C87.0049 71.1221 86.8883 71.5046 86.6697 71.83C86.4511 72.1554 86.1405 72.4091 85.777 72.5588C85.4135 72.7086 85.0136 72.7478 84.6277 72.6714C84.2418 72.5951 83.8874 72.4066 83.6092 72.1299C83.331 71.8532 83.1416 71.5006 83.0648 71.1167C82.9881 70.7329 83.0275 70.3351 83.178 69.9735C83.3286 69.6119 83.5835 69.3029 83.9107 69.0855C84.2378 68.868 84.6224 68.752 85.0158 68.752C85.2772 68.7512 85.5362 68.8018 85.7779 68.901C86.0196 69.0001 86.2392 69.1459 86.4241 69.3298C86.609 69.5137 86.7555 69.7321 86.8552 69.9725C86.9548 70.213 87.0057 70.4706 87.0049 70.7307Z" fill="#407BFF"/>
<path d="M94.8652 70.4189H91.1641V84.3899H94.8652V70.4189Z" fill="#407BFF"/>
<path opacity="0.3" d="M63.3218 70.8506H59.6208V84.39H63.3218V70.8506Z" fill="black"/>
<path opacity="0.3" d="M78.982 64.5786H75.2809V84.3899H78.982V64.5786Z" fill="black"/>
<path opacity="0.3" d="M94.8652 70.4189H91.1641V84.3899H94.8652V70.4189Z" fill="black"/>
<path d="M103.051 75.0839H99.3499V84.39H103.051V75.0839Z" fill="#407BFF"/>
<path d="M92.7826 65.5954L92.636 65.8581L101.126 70.5472L101.273 70.2845L92.7826 65.5954Z" fill="#263238"/>
<path d="M95.1364 65.7299C95.1364 66.1215 95.0196 66.5043 94.8008 66.8298C94.5819 67.1554 94.2709 67.409 93.9071 67.5586C93.5432 67.7082 93.143 67.747 92.757 67.6702C92.3709 67.5933 92.0165 67.4043 91.7386 67.1269C91.4606 66.8496 91.2716 66.4965 91.1956 66.1122C91.1195 65.728 91.1598 65.33 91.3112 64.9685C91.4627 64.607 91.7186 64.2984 92.0465 64.0817C92.3744 63.865 92.7596 63.75 93.1533 63.7512C93.4142 63.7512 93.6726 63.8024 93.9136 63.9019C94.1546 64.0014 94.3735 64.1473 94.5577 64.3311C94.7419 64.5149 94.8879 64.7331 94.9872 64.9731C95.0865 65.2132 95.1372 65.4703 95.1364 65.7299Z" fill="#407BFF"/>
<path d="M101.194 72.3976C102.293 72.3976 103.184 71.5117 103.184 70.4189C103.184 69.3261 102.293 68.4402 101.194 68.4402C100.096 68.4402 99.2052 69.3261 99.2052 70.4189C99.2052 71.5117 100.096 72.3976 101.194 72.3976Z" fill="#407BFF"/>
<path d="M392.812 227.153C411.817 227.153 427.225 211.827 427.225 192.921C427.225 174.015 411.817 158.689 392.812 158.689C373.806 158.689 358.399 174.015 358.399 192.921C358.399 211.827 373.806 227.153 392.812 227.153Z" fill="white"/>
<path d="M392.812 227.458C385.945 227.458 379.232 225.433 373.523 221.638C367.813 217.843 363.363 212.449 360.735 206.138C358.107 199.827 357.419 192.882 358.759 186.182C360.099 179.483 363.406 173.329 368.261 168.499C373.117 163.668 379.303 160.379 386.038 159.046C392.773 157.714 399.755 158.398 406.099 161.012C412.443 163.626 417.866 168.053 421.681 173.732C425.496 179.412 427.532 186.09 427.532 192.92C427.522 202.078 423.861 210.857 417.352 217.332C410.843 223.807 402.017 227.449 392.812 227.458ZM392.812 158.988C386.064 158.988 379.468 160.979 373.857 164.708C368.246 168.438 363.873 173.738 361.291 179.94C358.709 186.142 358.034 192.966 359.351 199.55C360.668 206.133 363.918 212.18 368.69 216.927C373.462 221.673 379.541 224.905 386.16 226.213C392.778 227.522 399.638 226.849 405.872 224.28C412.106 221.71 417.434 217.359 421.182 211.777C424.93 206.195 426.93 199.633 426.929 192.92C426.92 183.923 423.322 175.297 416.926 168.935C410.529 162.573 401.857 158.996 392.812 158.988Z" fill="#263238"/>
<path d="M410.088 186.672H376.031V210.597H410.088V186.672Z" fill="#407BFF"/>
<path opacity="0.3" d="M392.161 186.672H376.031V210.597H392.161V186.672Z" fill="black"/>
<path d="M376.031 186.672L370.485 195.936H386.501L392.161 186.672H376.031Z" fill="#407BFF"/>
<path d="M392.161 186.672L398.116 195.936H415.139L410.088 186.672H392.161Z" fill="#407BFF"/>
<path opacity="0.3" d="M392.161 186.672L398.116 195.936H415.139L410.088 186.672H392.161Z" fill="black"/>
<path d="M387.013 180.886L382.872 175.1C382.703 174.866 382.312 175.1 382.48 175.328L386.621 181.114C386.79 181.342 387.182 181.114 387.013 180.886Z" fill="#263238"/>
<path d="M392.685 180.718L392.523 171.286C392.514 171.233 392.486 171.184 392.445 171.149C392.403 171.114 392.351 171.095 392.297 171.095C392.242 171.095 392.19 171.114 392.148 171.149C392.107 171.184 392.079 171.233 392.071 171.286L392.233 180.718C392.242 180.772 392.27 180.82 392.311 180.855C392.352 180.89 392.405 180.909 392.459 180.909C392.514 180.909 392.566 180.89 392.608 180.855C392.649 180.82 392.677 180.772 392.685 180.718Z" fill="#263238"/>
<path d="M398.364 180.91C399.376 179.115 400.381 177.316 401.377 175.514C401.516 175.262 401.13 175.034 400.986 175.286L397.972 180.682C397.942 180.734 397.934 180.795 397.95 180.853C397.966 180.91 398.004 180.959 398.056 180.988C398.108 181.017 398.17 181.025 398.227 181.009C398.285 180.994 398.334 180.956 398.364 180.904V180.91Z" fill="#263238"/>
<path d="M402.004 174.009L401.968 173.973C401.947 173.953 401.923 173.936 401.896 173.925C401.866 173.919 401.835 173.919 401.805 173.925C401.778 173.918 401.749 173.918 401.721 173.925C401.693 173.933 401.668 173.95 401.649 173.973L401.613 174.021C401.601 174.058 401.601 174.098 401.613 174.135V174.195C401.624 174.232 401.645 174.265 401.673 174.291L401.709 174.327C401.726 174.352 401.752 174.369 401.781 174.376C401.795 174.381 401.809 174.384 401.823 174.384C401.838 174.384 401.852 174.381 401.866 174.376C401.896 174.376 401.926 174.37 401.954 174.359C401.982 174.347 402.007 174.331 402.028 174.309L402.065 174.267C402.074 174.23 402.074 174.191 402.065 174.153V174.093C402.053 174.055 402.032 174.02 402.004 173.991V174.009Z" fill="#263238"/>
<path d="M327.176 86.4526L333.939 118.1C334.009 118.424 333.985 118.762 333.871 119.073C333.757 119.385 333.557 119.658 333.294 119.861C333.031 120.065 332.715 120.19 332.384 120.223C332.052 120.257 331.718 120.196 331.419 120.049L307.802 108.507C307.564 108.386 307.355 108.215 307.191 108.004C307.027 107.794 306.913 107.55 306.855 107.29C306.797 107.03 306.798 106.761 306.858 106.502C306.917 106.242 307.034 105.999 307.2 105.79L324.047 85.6851C324.265 85.4343 324.549 85.2483 324.867 85.1478C325.184 85.0473 325.524 85.0361 325.848 85.1156C326.171 85.195 326.467 85.3619 326.701 85.5979C326.935 85.8338 327.1 86.1297 327.176 86.4526Z" fill="#407BFF"/>
<path opacity="0.3" d="M327.176 86.4526L333.939 118.1C334.009 118.424 333.985 118.762 333.871 119.073C333.757 119.385 333.557 119.658 333.294 119.861C333.031 120.065 332.715 120.19 332.384 120.223C332.052 120.257 331.718 120.196 331.419 120.049L307.802 108.507C307.564 108.386 307.355 108.215 307.191 108.004C307.027 107.794 306.913 107.55 306.855 107.29C306.797 107.03 306.798 106.761 306.858 106.502C306.917 106.242 307.034 105.999 307.2 105.79L324.047 85.6851C324.265 85.4343 324.549 85.2483 324.867 85.1478C325.184 85.0473 325.524 85.0361 325.848 85.1156C326.171 85.195 326.467 85.3619 326.701 85.5979C326.935 85.8338 327.1 86.1297 327.176 86.4526Z" fill="black"/>
<path d="M328.646 112.776L326.024 94.7153C332.903 93.7378 339.321 90.7061 344.43 86.0213C349.539 81.3365 353.098 75.2194 354.636 68.4789C356.174 61.7384 355.619 54.6923 353.044 48.2724C350.469 41.8526 345.996 36.3615 340.216 32.5256C334.435 28.6896 327.621 26.6895 320.673 26.7898C313.726 26.8901 306.972 29.086 301.306 33.0872C295.641 37.0883 291.329 42.7062 288.943 49.1976C286.556 55.6891 286.207 62.7483 287.941 69.4415L270.147 74.0106C267.483 63.7351 268.018 52.8973 271.68 42.9306C275.343 32.9639 281.96 24.3378 290.657 18.193C299.354 12.0482 309.721 8.67431 320.388 8.51742C331.054 8.36053 341.517 11.4281 350.393 17.3143C359.269 23.2006 366.14 31.6284 370.097 41.483C374.054 51.3376 374.91 62.1549 372.553 72.5043C370.197 82.8537 364.737 92.2477 356.897 99.4438C349.057 106.64 339.206 111.299 328.646 112.806V112.776Z" fill="#407BFF"/>
<g opacity="0.3">
<path d="M328.646 112.776L326.024 94.7153C332.903 93.7378 339.321 90.7061 344.43 86.0213C349.539 81.3365 353.098 75.2194 354.636 68.4789C356.174 61.7384 355.619 54.6923 353.044 48.2724C350.469 41.8526 345.996 36.3615 340.216 32.5256C334.435 28.6896 327.621 26.6895 320.673 26.7898C313.726 26.8901 306.972 29.086 301.306 33.0872C295.641 37.0883 291.329 42.7062 288.943 49.1976C286.556 55.6891 286.207 62.7483 287.941 69.4415L270.147 74.0106C267.483 63.7351 268.018 52.8973 271.68 42.9306C275.343 32.9639 281.96 24.3378 290.657 18.193C299.354 12.0482 309.721 8.67431 320.388 8.51742C331.054 8.36053 341.517 11.4281 350.393 17.3143C359.269 23.2006 366.14 31.6284 370.097 41.483C374.054 51.3376 374.91 62.1549 372.553 72.5043C370.197 82.8537 364.737 92.2477 356.897 99.4438C349.057 106.64 339.206 111.299 328.646 112.806V112.776Z" fill="black"/>
</g>
<path d="M329.209 78.3745C340.534 75.2145 347.138 63.5206 343.962 52.2556C340.785 40.9907 329.03 34.4203 317.705 37.5804C306.381 40.7405 299.776 52.4343 302.953 63.6993C306.129 74.9643 317.885 81.5346 329.209 78.3745Z" fill="#407BFF"/>
<path opacity="0.3" d="M329.209 78.3745C340.534 75.2145 347.138 63.5206 343.962 52.2556C340.785 40.9907 329.03 34.4203 317.705 37.5804C306.381 40.7405 299.776 52.4343 302.953 63.6993C306.129 74.9643 317.885 81.5346 329.209 78.3745Z" fill="black"/>
<path d="M335.593 73.3951C344.797 66.1102 346.321 52.7829 338.997 43.6278C331.674 34.4727 318.277 32.9566 309.073 40.2415C299.87 47.5264 298.346 60.8537 305.669 70.0088C312.992 79.164 326.39 80.6801 335.593 73.3951Z" fill="#407BFF"/>
<path d="M337.53 65.8714C342.549 57.5323 339.822 46.7247 331.439 41.7318C323.056 36.739 312.192 39.4517 307.172 47.7908C302.153 56.1299 304.88 66.9376 313.263 71.9304C321.646 76.9232 332.511 74.2105 337.53 65.8714Z" fill="white"/>
<path d="M313.842 69.3036L316.193 65.8378L316.404 65.9758L314.137 69.4955L313.842 69.3036ZM309.152 64.2549C309.092 64.1529 309.038 64.051 308.984 63.9431L312.685 61.9763L312.805 62.1922L309.152 64.2549ZM320.678 71.798L321.142 67.6487H321.401L321.015 71.81L320.678 71.798ZM307.218 57.3113C307.218 57.1914 307.218 57.0775 307.218 56.9635L311.437 56.9216V57.1734L307.218 57.3113ZM327.869 70.8626L326.338 66.9711L326.573 66.8752L328.248 70.7127L328.152 70.7487L327.869 70.8626ZM308.718 50.2598L308.875 49.942L312.618 51.8428L312.504 52.0647L308.718 50.2598ZM330.66 63.9431C330.708 63.8831 330.762 63.8231 330.81 63.7572L334.053 66.4135C333.981 66.5094 333.902 66.5994 333.824 66.6893L330.66 63.9431ZM315.843 48.0592L313.348 44.6954L313.625 44.4975L316.036 47.9033L315.843 48.0592ZM333.034 59.302L333.089 59.0502L337.2 59.9256C337.2 60.0396 337.145 60.1475 337.121 60.2614L333.034 59.302ZM320.678 46.0445L320.033 41.9132L320.364 41.8652L320.937 46.0085L320.678 46.0445ZM332.968 54.0854C332.968 54.0074 332.926 53.9295 332.902 53.8515L336.94 52.7063C336.977 52.8202 337.007 52.9341 337.037 53.048L332.968 54.0854ZM325.898 46.5002L327.254 42.5488L327.597 42.6687L326.103 46.5842L325.898 46.5002ZM330.485 49.4983L330.31 49.3124L333.36 46.4403L333.601 46.6921L330.485 49.4983Z" fill="black"/>
<path d="M322.106 57.797H322.064C322.019 57.7907 321.977 57.7745 321.939 57.7496C321.901 57.7247 321.87 57.6917 321.847 57.6531L317.628 50.4217C317.607 50.388 317.594 50.3506 317.588 50.3116C317.583 50.2727 317.585 50.233 317.595 50.195C317.605 50.157 317.623 50.1213 317.647 50.0903C317.671 50.0592 317.702 50.0332 317.736 50.014C317.806 49.9743 317.888 49.9634 317.966 49.9836C318.044 50.0038 318.111 50.0534 318.152 50.1219L322.178 57.0175L328.737 50.6735C328.795 50.6254 328.87 50.6011 328.946 50.6055C329.022 50.6099 329.093 50.6427 329.146 50.6973C329.199 50.752 329.229 50.8244 329.23 50.9C329.231 50.9757 329.203 51.049 329.153 51.1053L322.323 57.701C322.266 57.7601 322.188 57.7945 322.106 57.797Z" fill="black"/>
<path d="M323.336 57.8328C323.164 58.0285 322.937 58.1688 322.685 58.236C322.432 58.3033 322.166 58.2944 321.919 58.2105C321.671 58.1266 321.455 57.9715 321.296 57.7648C321.137 57.558 321.043 57.309 321.027 57.0491C321.01 56.7892 321.07 56.5302 321.201 56.3047C321.332 56.0793 321.527 55.8976 321.761 55.7826C321.995 55.6677 322.259 55.6246 322.517 55.6588C322.776 55.6931 323.019 55.8031 323.215 55.975C323.478 56.2055 323.639 56.5306 323.661 56.879C323.684 57.2274 323.567 57.5704 323.336 57.8328Z" fill="black"/>
<path opacity="0.3" d="M310.527 45.4869C312.194 43.8766 314.164 42.6088 316.324 41.756C318.484 40.9032 320.791 40.482 323.115 40.5165C325.438 40.5511 327.732 41.0406 329.866 41.9572C331.999 42.8738 333.93 44.1995 335.548 45.8586C337.171 47.5143 338.446 49.4753 339.297 51.6269C338.617 49.3454 337.478 47.2249 335.95 45.3937C334.422 43.5625 332.537 42.0585 330.408 40.9728C328.279 39.887 325.951 39.2421 323.564 39.077C321.178 38.9119 318.782 39.23 316.523 40.0121C314.263 40.7941 312.187 42.024 310.419 43.6272C308.651 45.2304 307.228 47.1736 306.236 49.3394C305.245 51.5052 304.705 53.8486 304.65 56.2278C304.595 58.607 305.025 60.9726 305.916 63.1815C304.981 60.0949 304.917 56.8123 305.731 53.6919C306.544 50.5716 308.203 47.7333 310.527 45.4869Z" fill="black"/>
<path d="M144.811 182.553C134.173 170.807 126.749 156.538 123.252 141.116C119.755 125.694 120.303 109.636 124.842 94.4847C129.382 79.3335 137.76 65.5976 149.174 54.5958C160.588 43.5941 174.653 35.6959 190.02 31.6597L183.184 40.1862L195.155 51.0753C183.137 54.2356 172.137 60.4158 163.212 69.0225C154.286 77.6293 147.734 88.3737 144.184 100.225C140.635 112.076 140.207 124.635 142.942 136.698C145.677 148.761 151.483 159.922 159.802 169.11L144.811 182.553Z" fill="#407BFF"/>
<path d="M146.806 183.704C147.554 183.518 172.256 183.704 172.256 183.704L159.802 169.11L144.811 182.553L146.806 183.704Z" fill="#407BFF"/>
<g opacity="0.3">
<path d="M144.811 182.553C134.173 170.807 126.749 156.538 123.252 141.116C119.755 125.694 120.303 109.636 124.842 94.4847C129.382 79.3335 137.76 65.5976 149.174 54.5958C160.588 43.5941 174.653 35.6959 190.02 31.6597L183.184 40.1862L195.155 51.0753C183.137 54.2356 172.137 60.4158 163.212 69.0225C154.286 77.6293 147.734 88.3737 144.184 100.225C140.635 112.076 140.207 124.635 142.942 136.698C145.677 148.761 151.483 159.922 159.802 169.11L144.811 182.553Z" fill="black"/>
<path d="M146.806 183.704C147.554 183.518 172.256 183.704 172.256 183.704L159.802 169.11L144.811 182.553L146.806 183.704Z" fill="black"/>
</g>
<path d="M329.195 216.371V183.992C329.207 183.666 329.308 183.349 329.488 183.075C329.667 182.802 329.918 182.582 330.214 182.44C330.509 182.297 330.838 182.238 331.165 182.267C331.492 182.297 331.805 182.414 332.07 182.607L352.745 198.797C352.957 198.962 353.128 199.172 353.246 199.413C353.364 199.653 353.425 199.917 353.425 200.185C353.425 200.452 353.364 200.716 353.246 200.957C353.128 201.197 352.957 201.408 352.745 201.573L332.07 217.763C331.805 217.956 331.491 218.073 331.164 218.103C330.836 218.132 330.507 218.072 330.211 217.929C329.916 217.785 329.665 217.565 329.486 217.29C329.306 217.016 329.206 216.698 329.195 216.371Z" fill="#407BFF"/>
<path d="M332.552 190.57H217.609V209.812H332.552V190.57Z" fill="#407BFF"/>
<path opacity="0.3" d="M352.565 198.803L331.889 182.613C331.624 182.42 331.312 182.303 330.985 182.273C330.657 182.244 330.329 182.303 330.033 182.446C329.737 182.588 329.486 182.808 329.307 183.081C329.127 183.355 329.026 183.672 329.014 183.998V190.564H212.714V209.842H329.014V216.401C329.013 216.734 329.106 217.059 329.283 217.341C329.46 217.622 329.713 217.849 330.014 217.993C330.314 218.138 330.65 218.196 330.982 218.159C331.313 218.122 331.628 217.993 331.889 217.787L352.565 201.597C352.78 201.432 352.954 201.221 353.074 200.978C353.194 200.736 353.256 200.47 353.256 200.2C353.256 199.93 353.194 199.663 353.074 199.421C352.954 199.179 352.78 198.967 352.565 198.803Z" fill="black"/>
<path d="M212.69 28.6796V48.401C231.469 48.5728 249.42 56.114 262.638 69.3841C275.855 82.6542 283.271 100.58 283.271 119.261C283.271 137.942 275.855 155.867 262.638 169.137C249.42 182.407 231.469 189.948 212.69 190.12H85.4316V209.842H212.69C262.901 209.842 303.752 169.206 303.752 119.264C303.752 69.3216 262.901 28.6796 212.69 28.6796Z" fill="#407BFF"/>
<path d="M216.542 22.4256L216.475 54.8049C216.474 55.1354 216.38 55.459 216.203 55.7387C216.026 56.0184 215.774 56.243 215.474 56.3868C215.175 56.5306 214.841 56.5879 214.511 56.552C214.181 56.5161 213.867 56.3886 213.606 56.184L192.955 39.9584C192.744 39.7934 192.574 39.583 192.457 39.3431C192.34 39.1032 192.279 38.84 192.279 38.5733C192.279 38.3066 192.34 38.0434 192.457 37.8034C192.574 37.5635 192.744 37.3531 192.955 37.1882L213.667 21.0465C213.927 20.8401 214.242 20.7111 214.573 20.6743C214.904 20.6374 215.239 20.6943 215.539 20.8383C215.84 20.9823 216.093 21.2077 216.27 21.4884C216.448 21.7692 216.542 22.094 216.542 22.4256Z" fill="#407BFF"/>
<path opacity="0.3" d="M216.53 190.684C216.922 190.684 208.453 196.02 202.726 195.978L202.184 210.369H198.398L191.165 191.128L216.53 190.684Z" fill="black"/>
<path d="M209.544 91.0637C212.196 95.261 213.16 97.7614 213.588 101.857C214.07 106.654 214.052 110.899 213.028 112.182C211.689 113.861 196.475 116.08 187.898 116.134C187.584 116.134 187.205 113.441 187.205 113.441C187.205 113.441 186.114 116.14 185.71 116.14C183.365 116.14 181.864 116.14 181.864 116.14C181.864 116.14 183.618 112.086 185.324 97.6654C186.156 90.626 193.094 87.508 197.235 86.7884C204.137 85.5832 209.544 91.0637 209.544 91.0637Z" fill="#263238"/>
<path d="M189.803 105.508C187.391 101.755 184.673 91.4654 193.865 87.8257C205.318 83.2867 210.9 90.4461 212.25 97.7314C213.6 105.017 209.694 110.743 201.967 110.545C194.239 110.347 191.478 108.099 189.803 105.508Z" fill="#263238"/>
<path d="M208.989 119.342C208.989 119.342 206.409 121.314 203.082 124.138C202.388 124.732 201.63 125.247 200.821 125.673C198.645 126.825 196.656 127.472 196.12 126.441C195.999 126.205 195.906 125.955 195.842 125.697C195.384 123.953 195.571 121.5 196.994 120.367C198.597 119.096 199.369 118.01 199.079 116.295C198.894 115.276 198.584 114.284 198.157 113.339L199.423 111.87L206.017 105.275C205.849 109.706 205.547 116.943 208.989 119.342Z" fill="#EBB373"/>
<path opacity="0.2" d="M199.134 116.697C200.942 115.624 202.937 113.765 202.696 111.642C202.618 110.863 202.446 110.096 202.184 109.358L198.501 114.215C198.798 115.018 199.01 115.85 199.134 116.697Z" fill="black"/>
<path d="M207.88 98.1751C207.277 104.915 207.144 107.769 203.66 111.307C198.398 116.625 190.303 114.832 188.91 108.153C187.657 102.157 188.91 92.125 195.541 89.2948C202.081 86.5006 208.501 91.4294 207.88 98.1751Z" fill="#EBB373"/>
<path d="M199.387 100.619C199.351 101.298 198.929 101.857 198.452 101.869C197.976 101.881 197.615 101.334 197.651 100.667C197.687 99.9995 198.109 99.4284 198.585 99.4163C199.061 99.4043 199.423 99.9394 199.387 100.619Z" fill="#263238"/>
<path d="M192.34 100.493C192.304 101.142 191.894 101.695 191.424 101.695C190.954 101.695 190.598 101.184 190.634 100.535C190.671 99.8854 191.087 99.3323 191.557 99.3323C192.027 99.3323 192.382 99.8434 192.34 100.493Z" fill="#263238"/>
<path d="M200.345 98.1304C200.3 98.1398 200.253 98.1398 200.207 98.1305C200.161 98.1212 200.118 98.1028 200.08 98.0763C199.727 97.8261 199.321 97.6606 198.893 97.5928C198.465 97.525 198.028 97.5567 197.615 97.6855C197.574 97.703 197.529 97.7121 197.485 97.7121C197.44 97.7122 197.396 97.7032 197.355 97.6858C197.314 97.6684 197.277 97.6429 197.246 97.6108C197.215 97.5787 197.19 97.5408 197.175 97.4992C197.151 97.4091 197.162 97.3135 197.206 97.2312C197.249 97.1489 197.322 97.0858 197.41 97.0543C197.931 96.8841 198.484 96.8378 199.027 96.9193C199.569 97.0007 200.084 97.2075 200.532 97.5232C200.567 97.55 200.597 97.5839 200.618 97.6227C200.64 97.6614 200.653 97.7043 200.657 97.7484C200.661 97.7925 200.656 97.837 200.641 97.879C200.627 97.9209 200.604 97.9595 200.574 97.9922C200.515 98.0622 200.435 98.1108 200.345 98.1304Z" fill="#263238"/>
<path d="M189.947 97.2238C189.908 97.2077 189.874 97.1832 189.846 97.152C189.817 97.1208 189.797 97.0837 189.785 97.0435C189.772 97.0024 189.767 96.9592 189.771 96.9163C189.775 96.8735 189.787 96.8318 189.807 96.7938C189.827 96.7557 189.855 96.7221 189.888 96.6947C189.922 96.6674 189.96 96.647 190.002 96.6347C190.504 96.4442 191.045 96.3722 191.58 96.4243C192.115 96.4765 192.631 96.6513 193.088 96.9353C193.122 96.9599 193.151 96.9915 193.172 97.028C193.193 97.0645 193.207 97.105 193.211 97.147C193.216 97.1889 193.212 97.2314 193.199 97.2716C193.186 97.3117 193.164 97.3487 193.136 97.3802C193.08 97.4498 193 97.4955 192.911 97.5078C192.822 97.5201 192.733 97.4981 192.66 97.4463C192.295 97.2269 191.885 97.0939 191.461 97.0574C191.036 97.0209 190.609 97.082 190.213 97.2359C190.126 97.2655 190.031 97.2612 189.947 97.2238Z" fill="#263238"/>
<path d="M202.22 92.1789C200.068 94.4335 201.135 102.936 207.187 104.051C214.161 102.42 208.657 85.4572 202.22 92.1789Z" fill="#263238"/>
<path d="M194.131 106.786C194.591 107.584 194.994 108.413 195.336 109.268C195.499 109.238 195.656 109.202 195.812 109.16C197.97 108.662 198.826 107.715 199.073 106.828C199.199 106.388 199.216 105.925 199.122 105.478C199.075 105.225 198.994 104.979 198.88 104.747C197.898 105.694 195.921 106.318 194.854 106.606C194.414 106.708 194.131 106.786 194.131 106.786Z" fill="#263238"/>
<path d="M194.86 106.611L195.24 107.332C197.271 106.857 198.633 106.244 199.128 105.48C199.081 105.226 199 104.979 198.886 104.747C197.904 105.697 195.903 106.322 194.86 106.611Z" fill="white"/>
<path d="M195.818 109.166C197.976 108.667 198.832 107.717 199.079 106.828C198.265 107.033 197.493 107.381 196.801 107.856C196.344 108.179 196 108.638 195.818 109.166Z" fill="#DC5753"/>
<path d="M194.239 100.016C194.239 100.016 192.967 103.056 191.635 104.543C192.497 105.377 194.046 104.939 194.046 104.939L194.239 100.016Z" fill="#E4873E"/>
<path d="M197.235 99.0805L198.79 99.4472C198.085 100.241 197.235 99.0805 197.235 99.0805Z" fill="#263238"/>
<path d="M190.285 99.0146L191.84 99.3813C191.135 100.175 190.285 99.0146 190.285 99.0146Z" fill="#263238"/>
<path d="M195.571 87.8497C192.895 88.7491 190.056 93.3601 189.58 95.129C193.383 95.7286 203.642 92.2029 203.642 92.2029C203.642 92.2029 210.49 94.0857 207.018 90.6319C203.546 87.1781 195.571 87.8497 195.571 87.8497Z" fill="#263238"/>
<path d="M209.935 103.668C209.217 104.916 208.032 105.832 206.638 106.216C204.83 106.66 203.92 103.817 204.534 102.019C204.824 101.215 205.39 100.54 206.133 100.114C206.876 99.688 207.747 99.5384 208.591 99.6921C210.309 100.028 210.846 102.085 209.935 103.668Z" fill="#EBB373"/>
<path d="M179.025 115.558L178.862 115.312C181.34 113.663 183.401 107.871 184.396 105.119C185.39 102.366 185.788 99.2844 186.162 96.3702L186.463 96.4062C186.083 99.3383 185.698 102.372 184.655 105.221C183.612 108.069 181.569 113.861 179.025 115.558Z" fill="#263238"/>
<path d="M207.362 107.302C208.061 107.302 208.627 106.737 208.627 106.039C208.627 105.342 208.061 104.777 207.362 104.777C206.662 104.777 206.096 105.342 206.096 106.039C206.096 106.737 206.662 107.302 207.362 107.302Z" fill="#407BFF"/>
<path opacity="0.1" d="M205.897 103.8C205.856 103.798 205.818 103.781 205.79 103.752C205.762 103.723 205.746 103.684 205.746 103.643C205.759 103.31 205.848 102.984 206.005 102.69C206.163 102.395 206.385 102.14 206.655 101.944C206.925 101.747 207.236 101.614 207.565 101.554C207.894 101.495 208.233 101.51 208.555 101.599C208.574 101.605 208.592 101.614 208.607 101.626C208.623 101.639 208.635 101.654 208.645 101.671C208.654 101.688 208.66 101.707 208.663 101.727C208.665 101.747 208.663 101.767 208.657 101.785C208.652 101.804 208.643 101.822 208.63 101.837C208.618 101.853 208.603 101.866 208.585 101.875C208.568 101.885 208.549 101.891 208.529 101.893C208.509 101.895 208.49 101.893 208.471 101.888C208.193 101.812 207.901 101.8 207.618 101.851C207.334 101.902 207.065 102.015 206.831 102.182C206.6 102.355 206.409 102.577 206.274 102.831C206.138 103.086 206.061 103.367 206.047 103.655C206.046 103.694 206.029 103.731 206.001 103.758C205.973 103.785 205.936 103.8 205.897 103.8Z" fill="black"/>
<path d="M155.679 162.742C156.011 161.812 158.422 158.706 159.706 157.543C160.99 156.38 165.529 153.843 165.529 153.843L169.362 157.441C169.362 157.441 169.007 159.51 167.464 160.271C166.578 160.709 165.655 161.063 165.655 161.063C165.649 161.62 165.58 162.175 165.45 162.718C165.221 163.659 164.733 164.774 163.962 164.517C163.19 164.259 163.546 161.722 163.594 161.357C163.54 161.728 163.106 164.355 162.045 164.157C160.984 163.959 161.532 161.291 161.532 161.291C161.532 161.291 161.165 162.49 160.972 163.137C160.779 163.785 159.995 164.157 159.585 163.305C159.308 162.537 159.248 161.707 159.411 160.907C158.685 161.619 158.01 162.38 157.391 163.185C156.481 164.361 155.39 163.527 155.679 162.742Z" fill="#EBB373"/>
<path opacity="0.1" d="M163.509 162.036H163.479C163.44 162.027 163.405 162.004 163.383 161.97C163.36 161.936 163.352 161.895 163.359 161.855C163.448 161.358 163.581 160.869 163.757 160.395C163.937 159.9 164.257 159.467 164.679 159.15C164.712 159.127 164.752 159.118 164.792 159.125C164.831 159.131 164.867 159.153 164.89 159.186C164.913 159.219 164.922 159.259 164.915 159.299C164.909 159.338 164.886 159.373 164.854 159.397C164.48 159.682 164.195 160.068 164.034 160.509C163.866 160.966 163.739 161.436 163.654 161.916C163.648 161.95 163.631 161.98 163.604 162.002C163.578 162.024 163.544 162.036 163.509 162.036Z" fill="black"/>
<path opacity="0.1" d="M161.388 161.88H161.358C161.338 161.876 161.32 161.869 161.304 161.858C161.288 161.847 161.274 161.834 161.263 161.817C161.252 161.801 161.245 161.783 161.242 161.763C161.238 161.744 161.239 161.725 161.243 161.706C161.327 161.207 161.458 160.718 161.635 160.245C161.816 159.75 162.136 159.318 162.557 159C162.572 158.985 162.591 158.973 162.611 158.966C162.632 158.958 162.654 158.955 162.675 158.957C162.697 158.959 162.718 158.965 162.737 158.976C162.756 158.987 162.772 159.001 162.785 159.019C162.798 159.036 162.807 159.056 162.811 159.078C162.815 159.099 162.815 159.121 162.81 159.142C162.805 159.163 162.795 159.183 162.782 159.2C162.768 159.217 162.751 159.231 162.732 159.241C162.359 159.53 162.075 159.917 161.912 160.359C161.745 160.816 161.619 161.286 161.538 161.766C161.529 161.799 161.509 161.828 161.482 161.848C161.455 161.869 161.422 161.88 161.388 161.88Z" fill="black"/>
<path opacity="0.1" d="M159.411 161.172C159.391 161.169 159.372 161.161 159.355 161.15C159.338 161.139 159.323 161.125 159.312 161.108C159.3 161.091 159.293 161.072 159.289 161.052C159.285 161.032 159.286 161.012 159.29 160.992C159.374 160.496 159.505 160.009 159.682 159.537C159.867 159.043 160.186 158.61 160.604 158.287C160.637 158.263 160.678 158.253 160.718 158.259C160.758 158.265 160.794 158.287 160.818 158.32C160.842 158.352 160.852 158.393 160.846 158.433C160.84 158.473 160.818 158.509 160.785 158.533C160.411 158.818 160.127 159.204 159.965 159.645C159.794 160.101 159.667 160.572 159.585 161.052C159.578 161.091 159.556 161.126 159.523 161.148C159.49 161.171 159.45 161.179 159.411 161.172Z" fill="black"/>
<path d="M185.655 129.337C185.655 129.763 184.45 145.059 184.45 145.059C183.594 146.654 165.987 152.734 163.732 154.959L167.837 159.156C167.837 159.156 188.79 154.959 192.178 152.5C195.059 150.414 194.818 146.756 194.818 141.755C194.818 136.754 196.572 129.763 196.572 129.763L185.655 129.337Z" fill="#EBB373"/>
<path d="M193.63 120.301C185.324 121.716 184.179 133.948 184.179 133.948L182.919 143.662L178.205 147.08L182.642 156.44C182.642 156.44 192.051 152.878 196.186 150.444C200.321 148.009 200.405 129.349 200.405 129.349L193.63 120.301Z" fill="#407BFF"/>
<path opacity="0.2" d="M192.135 151.925C192.292 151.997 188.657 154.011 188.657 154.011C188.657 154.011 187.343 148.681 187.301 148.681C186.094 143.379 185.873 137.902 186.65 132.521C188.169 135.675 191.756 149.28 192.135 151.925Z" fill="black"/>
<path d="M193.962 162.994C200.888 162.304 209.893 161.752 221.611 161.495C221.611 161.495 230.351 181.965 219.99 188.082C216.855 189.928 211.689 190.66 205.999 190.78C204.431 190.819 202.871 190.546 201.411 189.976C199.951 189.407 198.62 188.552 197.496 187.463C196.373 186.374 195.48 185.073 194.87 183.635C194.26 182.198 193.945 180.654 193.944 179.093L193.962 162.994Z" fill="#263238"/>
<path d="M216.596 179.861V189.455C207.976 191.931 190.074 190.99 179.459 190.126C177.149 189.938 174.996 188.892 173.425 187.197C171.855 185.502 170.984 183.281 170.984 180.976V173.103C170.982 171.825 171.374 170.578 172.105 169.527C172.837 168.477 173.874 167.674 175.077 167.227C180.23 165.296 189.61 162.43 199.423 162.574C203.995 162.632 208.36 164.479 211.574 167.714C214.787 170.949 216.592 175.313 216.596 179.861Z" fill="#263238"/>
<path d="M223.172 161.489C221.834 159.732 218.73 155.528 218.35 151.103V151.079C218.35 150.797 218.308 150.48 218.308 150.228C218.242 148.345 218.254 146.114 218.374 143.44C218.374 143.026 218.416 142.583 218.441 142.139C218.519 140.736 218.627 139.225 218.76 137.582C219.013 134.632 219.363 131.268 219.863 127.442C219.972 126.561 220.809 125.188 220.936 124.252C221.497 120.055 217.681 117.057 213.558 117.243C212.461 117.285 211.292 117.357 210.11 117.477C205.925 117.78 201.767 118.381 197.669 119.276C196.337 119.587 194.956 119.965 193.642 120.337C188.904 121.692 186.722 127.718 186.662 132.569C186.608 137.09 189.791 146.318 191.979 154.425C192.298 159.072 189.748 161.62 190.514 163.227C191.279 164.834 213.878 160.445 223.184 165.968C223.172 165.932 224.601 163.365 223.172 161.489Z" fill="#407BFF"/>
<path opacity="0.3" d="M223.172 161.489C221.834 159.732 218.73 155.528 218.35 151.103V151.079C218.35 150.797 218.308 150.48 218.308 150.228C218.242 148.345 218.254 146.114 218.374 143.44C218.374 143.026 218.416 142.583 218.441 142.139C218.519 140.736 218.627 139.225 218.76 137.582C219.013 134.632 219.363 131.268 219.863 127.442C219.972 126.561 220.809 125.188 220.936 124.252C221.497 120.055 217.681 117.057 213.558 117.243C212.461 117.285 211.292 117.357 210.11 117.477C205.925 117.78 201.767 118.381 197.669 119.276C196.337 119.587 194.956 119.965 193.642 120.337C188.904 121.692 186.722 127.718 186.662 132.569C186.608 137.09 189.791 146.318 191.979 154.425C192.298 159.072 189.748 161.62 190.514 163.227C191.279 164.834 213.878 160.445 223.184 165.968C223.172 165.932 224.601 163.365 223.172 161.489Z" fill="white"/>
<path opacity="0.2" d="M219.574 155.618C219.574 155.618 211.599 157.357 207.892 157.525C204.185 157.693 196.156 160.211 196.156 160.211L193.299 161.974L192.286 159.63L197.108 155.307L218.205 151.049C218.507 152.614 218.965 154.145 219.574 155.618Z" fill="black"/>
<path opacity="0.2" d="M210.442 129.493L209.435 143.056L204.914 147.464L208.079 149.91L212.383 147.326L214.607 139.698L210.442 129.493Z" fill="black"/>
<path d="M176.349 253.278L186.933 248.637L190.279 244.919L191.316 246.316L192.575 245.771C193.178 241.1 190.888 238.911 189.688 237.922C189.604 237.844 189.477 237.76 189.338 237.646C189.293 237.608 189.245 237.574 189.194 237.544L189.14 237.502C189.091 237.466 189.031 237.43 188.977 237.382C188.923 237.334 188.977 237.382 188.935 237.382L188.844 237.328L183.033 239.822C183.033 239.822 182.937 240.128 182.756 240.62C182.153 242.245 180.743 245.95 179.139 247.929L178.935 248.175C178.755 248.395 178.553 248.596 178.332 248.775C173.919 252.342 176.349 253.278 176.349 253.278Z" fill="#263238"/>
<path d="M178.935 248.169C180.586 248.817 182.925 247.186 184.703 245.057C185.772 243.584 186.71 242.021 187.506 240.386C187.903 239.571 188.405 238.811 189.001 238.125C189.248 237.91 189.477 237.814 189.676 237.91C189.592 237.832 189.471 237.748 189.326 237.634C189.281 237.596 189.233 237.562 189.182 237.532L189.127 237.496L188.965 237.37H188.929L188.832 237.316C188.229 236.86 187.548 236.399 187.548 236.399L182.087 237.76L182.509 239.84C181.906 241.987 180.616 246.07 179.145 247.971C179.067 248.007 179.025 248.097 178.935 248.169Z" fill="#EBB373"/>
<path d="M170.038 207.695C173.413 216.03 178.651 226.649 182.515 239.966C182.587 240.206 182.66 240.452 182.726 240.692C182.792 240.932 182.877 241.201 182.949 241.459L186.945 240.494L187.12 239.804C187.12 239.804 188.495 238.737 188.259 238.497C188.024 238.257 188.211 238.042 188.187 237.79C187.108 228.502 182.967 194.413 178.856 187.332C178.856 187.332 183.516 188.195 187.042 187.602C189.592 187.176 192.672 169.661 192.672 169.661C188.384 168.512 183.971 167.89 179.531 167.809H179.441C179.441 167.809 166.355 171.658 163.033 174.572C159.905 177.312 159.417 181.804 161.171 187.164C162.75 192.021 165.86 197.37 170.038 207.695Z" fill="#EBB373"/>
<path opacity="0.1" d="M166.3 178.775C167.072 175.747 172.678 172.779 178.47 171.202C179.411 170.003 177.006 168.558 177.006 168.558L188.404 167.533L190.393 168.954L193.793 169.667L190.779 183.213L178.332 185.383L186.204 221.738L187.138 228.933C187.138 228.933 173.793 200.452 171.002 194.395C168.211 188.339 164.956 184.058 166.3 178.775Z" fill="black"/>
<path d="M192.678 169.667C192.678 169.667 174.89 173.415 171.412 176.143C168.458 178.47 168.398 181.504 169.332 184.37C171.984 192.291 181.496 205.5 192.382 243.414L198.621 241.465C198.018 241.465 196.457 221.678 195.993 205.77C195.776 198.275 191.906 191.805 190.393 189.197C190.393 189.197 196.753 190.048 200.279 189.461C204.812 188.699 207.681 173.649 192.678 169.667Z" fill="#EBB373"/>
<path opacity="0.2" d="M190.761 189.898C190.761 189.898 188.404 186.007 185.457 184.364C185.457 184.364 189.073 184.598 191.346 189.299L190.393 189.191L190.761 189.898Z" fill="black"/>
<path d="M200.725 249.626L199.429 249.908L198.344 248.109C198.314 248.06 198.273 248.018 198.224 247.986C198.176 247.954 198.121 247.933 198.064 247.924C198.006 247.916 197.948 247.92 197.892 247.936C197.836 247.953 197.785 247.981 197.741 248.019L194.046 251.425L183.956 253.614C183.956 253.614 181.707 251.251 186.722 249.746C186.973 249.643 187.202 249.495 187.398 249.308C189.875 247.438 192.889 242.221 192.889 242.221L198.868 240.92C199.109 241.155 199.335 241.405 199.544 241.669C200.454 242.821 202.19 245.327 200.725 249.626Z" fill="#263238"/>
<path d="M199.519 241.663C198.537 240.962 195.794 245.591 193.449 247.473C191.358 249.146 188.832 250.238 187.422 249.314C189.905 247.419 193.015 240.836 193.015 240.836L197.838 239.786C197.838 239.786 199.109 241.165 199.519 241.663Z" fill="#EBB373"/>
<path d="M181.195 172.222L198.73 165.59C198.813 165.554 198.882 165.492 198.925 165.413C198.969 165.334 198.985 165.243 198.972 165.154C198.958 165.065 198.915 164.983 198.849 164.921C198.784 164.859 198.699 164.82 198.609 164.81L170.465 164.475C170.396 164.474 170.329 164.495 170.273 164.535L159.423 171.502C159.353 171.549 159.299 171.616 159.269 171.694C159.239 171.772 159.234 171.858 159.254 171.939C159.275 172.02 159.32 172.093 159.383 172.148C159.447 172.203 159.526 172.237 159.609 172.246H181.038C181.092 172.251 181.146 172.243 181.195 172.222Z" fill="#263238"/>
<path opacity="0.7" d="M181.195 172.222L198.73 165.59C198.813 165.554 198.882 165.492 198.925 165.413C198.969 165.334 198.985 165.243 198.972 165.154C198.958 165.065 198.915 164.983 198.849 164.921C198.784 164.859 198.699 164.82 198.609 164.81L170.465 164.475C170.396 164.474 170.329 164.495 170.273 164.535L159.423 171.502C159.353 171.549 159.299 171.616 159.269 171.694C159.239 171.772 159.234 171.858 159.254 171.939C159.275 172.02 159.32 172.093 159.383 172.148C159.447 172.203 159.526 172.237 159.609 172.246H181.038C181.092 172.251 181.146 172.243 181.195 172.222Z" fill="white"/>
<path opacity="0.7" d="M181.255 170.243L192.563 166.1L179.314 165.824L181.255 170.243Z" fill="white"/>
<path opacity="0.3" d="M198.73 165.59L181.195 172.222C181.153 172.23 181.11 172.23 181.068 172.222H180.797L180.466 171.262L198.609 164.786C198.712 164.78 198.812 164.812 198.892 164.876C198.972 164.941 199.024 165.032 199.04 165.133C199.055 165.234 199.031 165.337 198.974 165.421C198.917 165.506 198.829 165.566 198.73 165.59Z" fill="black"/>
<path d="M158.301 172.246H181.135C181.221 172.254 181.308 172.245 181.39 172.219C181.473 172.193 181.549 172.151 181.615 172.095C181.681 172.039 181.735 171.97 181.773 171.893C181.812 171.816 181.835 171.732 181.84 171.646C181.84 171.586 181.827 171.527 181.804 171.472L171.647 148.309C171.478 147.958 171.209 147.666 170.873 147.467C170.538 147.269 170.15 147.173 169.76 147.194H146.915C146.832 147.185 146.749 147.192 146.669 147.215C146.589 147.238 146.514 147.276 146.449 147.328C146.384 147.38 146.33 147.444 146.29 147.517C146.25 147.589 146.225 147.669 146.216 147.751C146.216 147.817 146.228 147.882 146.252 147.943L156.415 171.106C156.581 171.46 156.849 171.757 157.185 171.96C157.52 172.163 157.909 172.262 158.301 172.246Z" fill="#263238"/>
<path opacity="0.7" d="M146.915 147.218H169.76C170.15 147.197 170.538 147.293 170.873 147.491C171.209 147.689 171.478 147.982 171.647 148.333L181.804 171.496C181.827 171.551 181.84 171.61 181.84 171.67C181.835 171.756 181.812 171.84 181.773 171.917C181.735 171.994 181.681 172.063 181.615 172.119C181.549 172.175 181.473 172.217 181.39 172.243C181.308 172.269 181.221 172.278 181.135 172.27H158.301C157.911 172.287 157.524 172.191 157.188 171.993C156.852 171.795 156.581 171.503 156.409 171.154L146.252 147.991C146.228 147.93 146.216 147.865 146.216 147.799C146.222 147.715 146.245 147.633 146.284 147.557C146.322 147.482 146.376 147.415 146.441 147.361C146.506 147.306 146.582 147.266 146.663 147.241C146.745 147.217 146.83 147.209 146.915 147.218Z" fill="white"/>
<path d="M161.062 160.247C161.556 161.357 162.557 162.124 163.298 161.968C164.04 161.812 164.245 160.769 163.769 159.684C163.292 158.598 162.274 157.825 161.532 157.981C160.791 158.137 160.562 159.108 161.062 160.247Z" fill="white"/>
<path opacity="0.3" d="M169.622 147.218H169.76C170.15 147.197 170.538 147.293 170.873 147.491C171.209 147.689 171.478 147.982 171.647 148.333L181.804 171.496C181.827 171.551 181.84 171.61 181.84 171.67C181.835 171.756 181.812 171.84 181.773 171.917C181.735 171.994 181.681 172.063 181.615 172.119C181.549 172.175 181.473 172.217 181.39 172.243C181.308 172.269 181.221 172.278 181.135 172.27H180.399L169.622 147.218Z" fill="black"/>
<path d="M210.882 128.216C210.882 128.642 212.256 143.806 212.256 143.806C211.4 145.401 193.793 151.481 191.539 153.712L195.643 157.909C195.643 157.909 216.596 153.712 219.978 151.259C222.865 149.172 222.624 145.509 222.624 140.508C222.502 136.397 222.136 132.296 221.527 128.228L210.882 128.216Z" fill="#EBB373"/>
<path d="M212.66 118.868C208.332 120.667 211.635 143.704 211.635 143.704L207.38 145.503L209.996 155.313C209.996 155.313 215.24 154.323 220.478 153.256C226.018 152.135 226.831 139.417 224.058 129.115C221.286 118.814 217.723 116.763 212.66 118.868Z" fill="#407BFF"/>
<path d="M184.185 164.72C184.281 163.737 185.848 160.133 186.807 158.724C187.765 157.315 191.539 153.718 191.539 153.718L196.15 156.278C196.15 156.278 196.307 158.371 195.005 159.486C194.251 160.127 193.443 160.685 193.443 160.685C193.579 161.227 193.651 161.782 193.66 162.34C193.66 163.311 193.467 164.505 192.666 164.469C191.864 164.433 191.569 161.866 191.527 161.471C191.569 161.842 191.786 164.469 190.713 164.565C189.64 164.661 189.507 161.914 189.507 161.914C189.507 161.914 189.453 163.191 189.423 163.845C189.393 164.499 188.73 165.044 188.121 164.337C187.658 163.656 187.393 162.861 187.355 162.04C186.827 162.908 186.362 163.811 185.963 164.744C185.36 166.07 184.1 165.554 184.185 164.72Z" fill="#EBB373"/>
<path opacity="0.1" d="M191.563 162.124C191.524 162.123 191.488 162.107 191.46 162.081C191.432 162.054 191.415 162.018 191.412 161.98C191.364 161.478 191.364 160.972 191.412 160.469C191.472 159.946 191.681 159.451 192.015 159.042C192.042 159.017 192.077 159.002 192.114 159.001C192.151 159 192.187 159.013 192.215 159.036C192.244 159.06 192.262 159.093 192.267 159.13C192.273 159.166 192.264 159.203 192.244 159.234C191.954 159.603 191.774 160.045 191.725 160.511C191.68 160.994 191.68 161.48 191.725 161.962C191.727 162.003 191.713 162.042 191.686 162.072C191.659 162.102 191.621 162.121 191.581 162.124H191.563Z" fill="black"/>
<path opacity="0.1" d="M189.465 162.472C189.427 162.47 189.39 162.455 189.362 162.429C189.334 162.402 189.317 162.366 189.314 162.328C189.269 161.825 189.269 161.32 189.314 160.817C189.377 160.294 189.586 159.8 189.917 159.39C189.944 159.365 189.979 159.35 190.016 159.349C190.053 159.348 190.089 159.36 190.118 159.384C190.146 159.408 190.165 159.441 190.17 159.477C190.175 159.514 190.167 159.551 190.146 159.582C189.856 159.951 189.677 160.393 189.628 160.859C189.583 161.342 189.583 161.827 189.628 162.31C189.629 162.35 189.615 162.39 189.588 162.42C189.561 162.45 189.524 162.469 189.483 162.472H189.465Z" fill="black"/>
<path opacity="0.1" d="M187.373 162.286C187.335 162.286 187.299 162.272 187.271 162.246C187.243 162.221 187.226 162.186 187.223 162.148C187.175 161.646 187.175 161.14 187.223 160.637C187.283 160.112 187.492 159.615 187.825 159.204C187.837 159.184 187.852 159.167 187.871 159.153C187.89 159.14 187.912 159.131 187.934 159.127C187.957 159.123 187.98 159.124 188.003 159.13C188.025 159.136 188.046 159.147 188.063 159.162C188.081 159.177 188.095 159.195 188.104 159.216C188.114 159.237 188.119 159.259 188.119 159.282C188.118 159.305 188.113 159.328 188.103 159.349C188.093 159.369 188.078 159.387 188.061 159.402C187.767 159.769 187.585 160.212 187.536 160.679C187.491 161.162 187.491 161.647 187.536 162.13C187.538 162.149 187.535 162.169 187.529 162.187C187.523 162.206 187.513 162.223 187.5 162.238C187.487 162.252 187.472 162.264 187.454 162.272C187.436 162.281 187.417 162.285 187.398 162.286H187.373Z" fill="black"/>
<path d="M64.4911 227.153C83.4967 227.153 98.9037 211.827 98.9037 192.921C98.9037 174.015 83.4967 158.689 64.4911 158.689C45.4856 158.689 30.0786 174.015 30.0786 192.921C30.0786 211.827 45.4856 227.153 64.4911 227.153Z" fill="white"/>
<path d="M64.4972 227.458C57.6302 227.458 50.9174 225.433 45.2078 221.638C39.4981 217.843 35.048 212.449 32.4201 206.138C29.7922 199.827 29.1046 192.882 30.4443 186.182C31.784 179.483 35.0908 173.329 39.9464 168.499C44.8021 163.668 50.9886 160.379 57.7236 159.046C64.4586 157.714 71.4397 158.398 77.7839 161.012C84.1282 163.626 89.5507 168.053 93.3658 173.732C97.1809 179.412 99.2172 186.09 99.2172 192.92C99.2076 202.078 95.5465 210.857 89.0373 217.332C82.5281 223.807 73.7025 227.449 64.4972 227.458ZM64.4972 158.988C57.7492 158.988 51.1527 160.979 45.542 164.708C39.9314 168.438 35.5585 173.738 32.9764 179.94C30.3943 186.142 29.719 192.966 31.0359 199.55C32.3529 206.133 35.6028 212.18 40.3748 216.927C45.1468 221.673 51.2264 224.905 57.8449 226.213C64.4634 227.522 71.3234 226.849 77.5574 224.28C83.7914 221.71 89.1194 217.359 92.8675 211.777C96.6156 206.195 98.6156 199.633 98.6144 192.92C98.6032 183.923 95.0049 175.298 88.609 168.937C82.213 162.576 73.5416 158.998 64.4972 158.988Z" fill="#263238"/>
<path d="M71.0131 214.8C71.0131 217.037 67.8908 218.83 64.0872 218.77C60.2837 218.71 57.2638 216.881 57.2638 214.638C57.2638 212.396 60.3862 210.609 64.1837 210.681C67.9812 210.753 71.0433 212.57 71.0131 214.8Z" fill="#263238"/>
<path d="M73.9848 207.443C74.3487 207.087 74.564 206.607 74.5876 206.1C74.5876 203.905 69.9523 202.071 64.1716 202.017C58.391 201.963 53.6893 203.672 53.6592 205.86C53.6828 206.367 53.898 206.847 54.262 207.203C54.1544 207.412 54.0927 207.641 54.0811 207.875C54.0855 208.128 54.1411 208.377 54.2447 208.608C54.3483 208.838 54.4977 209.046 54.6839 209.218C54.5589 209.436 54.4905 209.681 54.485 209.932C54.49 210.184 54.546 210.433 54.6495 210.664C54.7531 210.895 54.9021 211.102 55.0878 211.275C54.9518 211.493 54.8788 211.744 54.8768 212C54.8913 212.252 54.9589 212.498 55.0752 212.722C55.1915 212.946 55.354 213.144 55.5519 213.301C55.4088 213.519 55.3295 213.773 55.3228 214.033C55.3228 215.832 59.1746 217.391 63.9787 217.433C68.7829 217.475 72.6949 216.09 72.713 214.231C72.7145 213.97 72.6413 213.714 72.502 213.493C72.6969 213.335 72.8573 213.14 72.9734 212.918C73.0895 212.696 73.1588 212.453 73.1771 212.204C73.1726 211.95 73.1042 211.7 72.9782 211.479C73.1718 211.316 73.3311 211.116 73.447 210.892C73.5629 210.668 73.633 210.423 73.6533 210.171C73.6514 209.923 73.5893 209.678 73.4725 209.458C73.8628 209.126 74.1055 208.654 74.1476 208.145C74.1444 207.902 74.0889 207.663 73.9848 207.443Z" fill="#263238"/>
<path d="M82.6528 188.088C82.69 184.981 81.9369 181.916 80.4633 179.177C78.9897 176.437 76.8437 174.114 74.2248 172.421C71.6058 170.729 68.5991 169.722 65.4843 169.496C62.3696 169.27 59.2479 169.832 56.4097 171.128C53.5716 172.424 51.1091 174.414 49.2515 176.911C47.3938 179.408 46.2013 182.333 45.7848 185.411C45.3684 188.49 45.7415 191.624 46.8696 194.521C47.9976 197.418 49.8439 199.984 52.2366 201.981C52.6203 202.298 52.9202 202.703 53.1104 203.162C53.3005 203.621 53.3751 204.119 53.3277 204.613C53.3214 204.663 53.3214 204.713 53.3277 204.763C53.3277 206.987 58.0534 208.846 63.9124 208.912C69.7714 208.978 74.5575 207.227 74.5816 204.997V204.859C74.5374 204.353 74.62 203.845 74.822 203.379C75.024 202.914 75.3391 202.505 75.7389 202.19C77.8663 200.493 79.5895 198.348 80.7849 195.91C81.9803 193.472 82.6182 190.8 82.6528 188.088Z" fill="#407BFF"/>
<path d="M50.0305 195.175C49.977 195.175 49.9244 195.161 49.8779 195.135C49.8314 195.109 49.7925 195.071 49.7653 195.025C48.1082 192.188 47.4705 188.875 47.9569 185.63C48.4432 182.385 50.0248 179.401 52.4416 177.169C52.4696 177.14 52.503 177.118 52.5397 177.103C52.5764 177.088 52.6158 177.08 52.6556 177.08C52.6954 177.08 52.7348 177.088 52.7715 177.103C52.8082 177.118 52.8416 177.14 52.8696 177.169C52.9248 177.225 52.9557 177.3 52.9557 177.378C52.9557 177.457 52.9248 177.532 52.8696 177.588C50.5567 179.732 49.0455 182.594 48.5843 185.705C48.1232 188.816 48.7394 191.991 50.3319 194.707C50.3523 194.741 50.3657 194.778 50.3712 194.817C50.3768 194.856 50.3745 194.896 50.3644 194.934C50.3542 194.972 50.3365 195.008 50.3123 195.039C50.2881 195.07 50.2579 195.096 50.2234 195.115C50.1687 195.158 50.1 195.179 50.0305 195.175Z" fill="white"/>
<path d="M55.582 213.331C60.9833 215.579 67.0477 215.653 72.502 213.536C69.8216 214.674 66.9333 215.243 64.0205 215.208C61.1076 215.173 58.234 214.534 55.582 213.331Z" fill="#263238"/>
<path d="M55.4555 211.359C60.8559 213.601 66.9162 213.674 72.3694 211.563C69.6894 212.698 66.8024 213.266 63.891 213.231C60.9796 213.195 58.1072 212.558 55.4555 211.359Z" fill="#263238"/>
<path d="M55.335 209.38C60.7347 211.625 66.7962 211.698 72.2489 209.584C69.5692 210.721 66.682 211.289 63.7704 211.254C60.8588 211.219 57.9863 210.581 55.335 209.38Z" fill="#263238"/>
<path d="M69.5123 205.099C68.5657 202.613 67.7805 200.069 67.1614 197.483C66.3559 198.264 65.2721 198.695 64.1475 198.683C63.2365 198.605 62.3724 198.247 61.6762 197.657C61.5508 200.174 61.128 202.668 60.4164 205.087L59.8136 204.919C60.5562 202.395 60.9774 199.788 61.0673 197.16C60.9347 197.034 60.7961 196.902 60.6635 196.758C58.5899 194.611 57.6496 191.961 58.0715 189.641C58.2403 188.765 58.7587 187.896 59.5845 187.908C60.3199 187.908 60.8624 188.645 61.1095 189.934C61.5526 192.229 61.7446 194.566 61.6822 196.902C62.3428 197.569 63.2125 197.992 64.1475 198.101C64.6802 198.084 65.2042 197.963 65.6894 197.744C66.1746 197.524 66.6114 197.212 66.9746 196.824C66.5225 194.845 66.1608 192.83 65.9016 190.828C65.775 190.118 65.775 189.391 65.9016 188.681C65.9577 188.303 66.1198 187.948 66.3693 187.658C66.6188 187.367 66.9455 187.152 67.3121 187.038C68.4574 186.798 69.3857 188.01 69.7232 189.335C70.0216 190.678 69.9934 192.073 69.6412 193.404C69.289 194.735 68.6228 195.963 67.6979 196.986L67.6497 197.034C68.2768 199.714 69.0823 202.35 70.0608 204.925L69.5123 205.099ZM59.5845 188.513C59.1565 188.513 58.813 189.113 58.6924 189.76C58.2765 191.877 59.1867 194.336 61.1035 196.356C61.1255 194.248 60.9357 192.143 60.5369 190.072C60.4706 189.718 60.1933 188.549 59.5845 188.531V188.513ZM67.6256 187.572H67.4688C67.2169 187.669 66.9957 187.831 66.8282 188.042C66.6608 188.253 66.5531 188.505 66.5165 188.771C66.4051 189.412 66.4051 190.067 66.5165 190.708C66.7576 192.583 67.0811 194.437 67.4869 196.272C68.2557 195.33 68.8038 194.229 69.0916 193.05C69.3793 191.871 69.3995 190.643 69.1506 189.455C68.9215 188.477 68.3007 187.572 67.6256 187.572Z" fill="#263238"/>
<path d="M254.692 220.131C254.692 220.131 314.143 206.28 316.97 218.596C321.009 236.183 278.109 247.977 255.264 247.288C232.419 246.598 254.692 220.131 254.692 220.131Z" fill="#263238"/>
<path opacity="0.2" d="M254.692 220.131C254.692 220.131 314.143 206.28 316.97 218.596C321.009 236.183 278.109 247.977 255.264 247.288C232.419 246.598 254.692 220.131 254.692 220.131Z" fill="black"/>
<path opacity="0.7" d="M297.465 222.398L269.544 240.05L273.269 245.315C273.269 245.315 271.304 248.211 267.567 239.319L284.842 227.962C284.842 227.962 279.417 227.422 279.574 226.583C279.803 225.198 291.684 222.571 297.097 221.39C297.164 221.365 297.235 221.354 297.306 221.357C297.377 221.36 297.447 221.377 297.512 221.407C297.576 221.437 297.634 221.48 297.682 221.533C297.73 221.585 297.767 221.647 297.79 221.714C297.837 221.848 297.829 221.994 297.768 222.122C297.707 222.25 297.598 222.349 297.465 222.398Z" fill="black"/>
<path opacity="0.7" d="M268.531 238.06L273.354 245.855C267.384 246.89 261.329 247.365 255.27 247.276C253.278 247.263 251.304 246.906 249.435 246.22L247.742 243.138L251.4 235.805L268.531 238.06Z" fill="black"/>
<path d="M277.772 234.954L265.355 242.79L267.579 248.787L282.16 242.269L277.772 234.954Z" fill="#B97964"/>
<path d="M258.519 244.799L259.725 249.11C260.002 249.178 260.258 249.314 260.469 249.505C260.68 249.697 260.838 249.939 260.93 250.208C260.971 250.855 260.898 251.504 260.713 252.126L264.017 264.005C264.414 263.908 264.798 263.759 265.156 263.561C265.505 263.312 265.825 263.025 266.108 262.704C266.988 261.69 267.085 260.221 267.121 259.106C267.175 257.307 268.23 251.959 268.23 251.959C268.599 250.931 269.248 250.026 270.105 249.344C270.44 249.108 270.716 248.798 270.911 248.438C271.105 248.078 271.213 247.678 271.226 247.27C271.075 246.184 270.285 245.777 269.267 245.896L268.061 246.04C267.644 245.741 267.353 245.297 267.248 244.795C267.142 244.294 267.228 243.772 267.489 243.33C267.489 243.33 268.194 240.74 267.103 241.177C266.5 241.423 263.739 242.641 261.539 243.534L260.123 244.134L258.519 244.799Z" fill="#263238"/>
<path d="M267.742 254.815C267.756 254.781 267.76 254.744 267.752 254.709C267.745 254.673 267.726 254.641 267.699 254.616C267.438 254.377 267.118 254.211 266.771 254.135C266.578 254.099 266.494 254.4 266.687 254.442C266.992 254.504 267.276 254.648 267.507 254.857C267.523 254.872 267.542 254.884 267.564 254.891C267.585 254.898 267.608 254.899 267.63 254.896C267.652 254.892 267.674 254.884 267.692 254.871C267.71 254.858 267.725 254.84 267.736 254.821L267.742 254.815Z" fill="#407BFF"/>
<path d="M267.983 253.777C268 253.743 268.005 253.705 267.997 253.668C267.99 253.631 267.97 253.597 267.941 253.573C267.681 253.332 267.36 253.168 267.012 253.098C266.825 253.056 266.735 253.356 266.928 253.398C267.234 253.462 267.518 253.607 267.748 253.819C267.765 253.835 267.785 253.846 267.807 253.852C267.83 253.859 267.853 253.86 267.876 253.856C267.898 253.852 267.92 253.843 267.938 253.829C267.957 253.815 267.972 253.798 267.983 253.777Z" fill="#407BFF"/>
<path d="M268.188 252.704C268.202 252.671 268.206 252.634 268.199 252.598C268.191 252.562 268.172 252.53 268.146 252.506C267.885 252.266 267.564 252.1 267.217 252.025C267.024 251.988 266.94 252.289 267.133 252.325C267.439 252.39 267.722 252.535 267.953 252.746C267.969 252.762 267.989 252.773 268.011 252.78C268.033 252.787 268.056 252.789 268.079 252.785C268.102 252.782 268.123 252.773 268.142 252.76C268.161 252.747 268.177 252.73 268.188 252.71V252.704Z" fill="#407BFF"/>
<path opacity="0.2" d="M260.111 244.146L258.519 244.799L259.725 249.11C260.002 249.178 260.258 249.314 260.469 249.505C260.68 249.697 260.838 249.939 260.93 250.208C260.971 250.855 260.898 251.504 260.713 252.126L264.017 264.005C264.414 263.908 264.798 263.759 265.156 263.561C265.331 263.429 265.487 263.303 265.638 263.171L260.376 244.05L260.111 244.146Z" fill="white"/>
<path d="M269.845 253.569C269.73 253.569 269.615 253.557 269.502 253.533C268.951 253.332 268.435 253.048 267.971 252.692L267.856 252.613L267.989 252.559L268.019 252.631V252.559C268.423 252.397 268.84 252.272 269.267 252.187C269.703 252.093 270.157 252.118 270.581 252.259C270.691 252.285 270.793 252.341 270.875 252.419C270.958 252.497 271.018 252.595 271.051 252.704C271.066 252.823 271.045 252.944 270.99 253.051C270.935 253.158 270.849 253.247 270.744 253.305C270.481 253.487 270.166 253.58 269.845 253.569ZM268.176 252.655C268.587 252.968 269.045 253.215 269.532 253.389C269.72 253.43 269.915 253.432 270.104 253.397C270.293 253.362 270.474 253.29 270.635 253.185C270.714 253.139 270.779 253.073 270.822 252.994C270.866 252.914 270.887 252.824 270.882 252.734C270.84 252.547 270.629 252.445 270.502 252.397C270.103 252.268 269.677 252.245 269.267 252.331C268.894 252.407 268.529 252.515 268.176 252.655Z" fill="#407BFF"/>
<path d="M267.941 252.734V252.595C267.877 252.014 267.901 251.426 268.013 250.852C268.083 250.651 268.193 250.466 268.336 250.308C268.479 250.15 268.652 250.022 268.845 249.932C268.951 249.877 269.071 249.853 269.19 249.863C269.309 249.872 269.424 249.915 269.52 249.986C269.593 250.072 269.644 250.174 269.668 250.284C269.693 250.395 269.689 250.509 269.659 250.617C269.562 251.05 269.354 251.45 269.056 251.778C268.757 252.097 268.43 252.388 268.079 252.65L267.941 252.734ZM269.146 250.016C269.053 250.018 268.961 250.036 268.875 250.07C268.7 250.152 268.544 250.269 268.416 250.412C268.287 250.556 268.189 250.724 268.127 250.906C268.026 251.41 267.999 251.927 268.049 252.439C268.351 252.211 268.634 251.957 268.893 251.682C269.187 251.379 269.396 251.003 269.496 250.593C269.521 250.509 269.526 250.42 269.51 250.333C269.494 250.247 269.458 250.165 269.405 250.094C269.338 250.039 269.252 250.011 269.164 250.016H269.146Z" fill="#407BFF"/>
<path d="M279.255 182.505C279.255 182.505 281.425 201.735 282.003 202.766C283.969 206.244 296.964 212.24 296.964 212.24L303.595 210.861L308.345 214.806L305.21 217.247L301.539 215.838C299.534 216.195 297.501 216.374 295.463 216.371C292.04 216.371 275.53 212.21 272.775 207.629C270.02 203.048 268.754 181.846 268.754 181.846L279.255 182.505Z" fill="#B97964"/>
<path d="M268.471 190.054C268.471 190.054 263.378 173.169 269.725 168.468C276.072 163.767 281.117 186.996 281.117 186.996L268.471 190.054Z" fill="#407BFF"/>
<path opacity="0.5" d="M268.471 190.054C268.471 190.054 263.378 173.169 269.725 168.468C276.072 163.767 281.117 186.996 281.117 186.996L268.471 190.054Z" fill="white"/>
<path d="M272.492 220.952L272.455 198.569L271.967 167.922L258.676 165.05L247.109 164.547L233.938 170.543L233.618 178.062C233.618 178.062 235.125 212.594 235.041 213.637C234.939 214.908 231.207 222.919 231.207 222.919C247.838 226.685 272.751 222.092 272.492 220.952Z" fill="#407BFF"/>
<path opacity="0.5" d="M272.492 220.952L272.455 198.569L271.967 167.922L258.676 165.05L247.109 164.547L233.938 170.543L233.618 178.062C233.618 178.062 235.125 212.594 235.041 213.637C234.939 214.908 231.207 222.919 231.207 222.919C247.838 226.685 272.751 222.092 272.492 220.952Z" fill="white"/>
<path d="M271.25 146.51C271.602 146.458 271.926 146.286 272.165 146.023C272.404 145.76 272.544 145.422 272.56 145.068C272.576 144.714 272.469 144.365 272.255 144.081C272.041 143.797 271.735 143.596 271.388 143.512L267.977 143.17L268.465 149.7C269.122 149.895 269.821 149.895 270.478 149.7C270.804 149.598 271.101 149.421 271.345 149.184C271.589 148.946 271.773 148.655 271.883 148.333C271.993 148.002 271.99 147.645 271.876 147.315C271.762 146.986 271.542 146.703 271.25 146.51Z" fill="#263238"/>
<path d="M258.242 159.066L250.918 149.88C250.918 149.88 250.918 149.88 250.918 149.91C250.918 150.779 250.888 151.769 250.816 152.824C250.816 152.824 250.032 152.452 250.026 152.458C249.713 157.219 247.82 165.344 247.904 166.052L255.578 169.871H257.127L257.253 165.38C256.494 163.437 257.223 161.177 258.242 159.066Z" fill="#B97964"/>
<path opacity="0.2" d="M257.145 162.154L252.509 158.514C252.395 160.367 253.371 163.311 257.085 164.792C256.885 163.922 256.906 163.015 257.145 162.154Z" fill="black"/>
<path d="M252.479 145.353C250.96 151.523 250.394 154.485 252.51 158.514C255.698 164.577 263.48 164.631 266.825 159.018C269.839 153.969 271.816 144.729 266.578 140.532C265.419 139.603 264.041 138.981 262.574 138.725C261.107 138.469 259.599 138.588 258.19 139.069C256.782 139.551 255.519 140.38 254.521 141.479C253.522 142.578 252.82 143.911 252.479 145.353Z" fill="#B97964"/>
<path d="M253.769 136.976C255.644 133.9 260.557 133.379 262.377 135.831C262.648 136.197 259.713 136.281 260.05 136.263L258.326 141.126C257.989 140.934 257.151 141.126 256.434 142.139C256.434 142.139 255.33 148.825 251.846 150.695C248.447 146 248.833 136.988 253.769 136.976Z" fill="#263238"/>
<path d="M248.501 149.658C248.51 150.442 248.674 151.216 248.984 151.936C249.294 152.657 249.745 153.309 250.309 153.855C251.846 155.313 253.625 154.185 254.053 152.224C254.432 150.462 254.089 147.571 252.142 146.858C250.195 146.144 248.501 147.703 248.501 149.658Z" fill="#B97964"/>
<path d="M260.876 150.524C260.683 151.125 260.876 151.726 261.268 151.871C261.66 152.015 262.166 151.588 262.359 150.969C262.552 150.35 262.359 149.767 261.967 149.622C261.575 149.478 261.069 149.881 260.876 150.524Z" fill="#263238"/>
<path d="M266.982 152.497C266.789 153.098 266.982 153.699 267.374 153.843C267.766 153.988 268.272 153.561 268.465 152.942C268.658 152.322 268.465 151.739 268.073 151.595C267.681 151.451 267.175 151.878 266.982 152.497Z" fill="#263238"/>
<path d="M264.836 150.839C264.836 150.839 265.608 153.664 265.963 155.337C265.984 155.429 265.983 155.525 265.963 155.618C265.943 155.711 265.903 155.798 265.846 155.874C265.788 155.951 265.716 156.014 265.632 156.059C265.548 156.105 265.456 156.133 265.361 156.14C264.749 156.131 264.15 155.968 263.619 155.666L264.836 150.839Z" fill="#A24E3F"/>
<path d="M260.225 146.806C260.268 146.84 260.318 146.862 260.372 146.871C260.426 146.879 260.481 146.873 260.532 146.854C260.888 146.709 261.273 146.649 261.656 146.68C262.039 146.71 262.41 146.829 262.739 147.028C262.805 147.074 262.886 147.093 262.966 147.081C263.046 147.069 263.117 147.026 263.167 146.962C263.191 146.93 263.209 146.893 263.218 146.854C263.228 146.815 263.23 146.775 263.224 146.735C263.218 146.695 263.204 146.657 263.182 146.623C263.161 146.588 263.133 146.559 263.1 146.535C262.688 146.278 262.222 146.122 261.738 146.079C261.254 146.036 260.766 146.108 260.315 146.289C260.278 146.302 260.243 146.323 260.213 146.35C260.183 146.377 260.159 146.41 260.142 146.446C260.126 146.483 260.116 146.522 260.115 146.562C260.114 146.602 260.12 146.642 260.135 146.68C260.152 146.729 260.184 146.773 260.225 146.806Z" fill="#263238"/>
<path d="M270.225 149.68C270.286 149.674 270.343 149.649 270.388 149.608C270.445 149.551 270.478 149.473 270.478 149.392C270.478 149.311 270.445 149.233 270.388 149.175C270.075 148.809 269.679 148.522 269.232 148.34C268.785 148.158 268.301 148.086 267.82 148.129C267.741 148.144 267.671 148.188 267.624 148.253C267.577 148.318 267.556 148.398 267.567 148.478C267.572 148.517 267.585 148.556 267.605 148.59C267.625 148.625 267.652 148.655 267.684 148.679C267.716 148.703 267.753 148.721 267.792 148.73C267.83 148.74 267.871 148.742 267.91 148.736C268.291 148.701 268.674 148.76 269.026 148.908C269.379 149.056 269.689 149.288 269.93 149.584C269.965 149.626 270.012 149.657 270.064 149.674C270.116 149.691 270.172 149.693 270.225 149.68Z" fill="#263238"/>
<path d="M260.364 156.931C260.576 157.104 260.804 157.257 261.045 157.387C261.083 157.407 261.126 157.414 261.168 157.405C261.21 157.396 261.248 157.373 261.274 157.339C261.29 157.298 261.291 157.253 261.277 157.211C261.262 157.169 261.234 157.134 261.196 157.111C260.583 156.784 260.056 156.317 259.658 155.75C259.26 155.182 259.002 154.529 258.905 153.843C258.902 153.802 258.883 153.763 258.851 153.735C258.82 153.707 258.778 153.692 258.736 153.694C258.718 153.692 258.699 153.694 258.681 153.7C258.663 153.706 258.647 153.715 258.632 153.727C258.618 153.74 258.607 153.755 258.599 153.772C258.591 153.788 258.586 153.807 258.586 153.825V153.867C258.658 154.471 258.853 155.054 259.159 155.581C259.465 156.107 259.874 156.567 260.364 156.931Z" fill="#263238"/>
<path d="M274.336 141.911C273.92 140.676 272.443 140.16 271.141 140.07C271.548 140.024 271.924 139.829 272.194 139.524C272.465 139.218 272.612 138.823 272.606 138.415C272.582 138.008 272.465 137.611 272.266 137.254C272.067 136.897 271.79 136.589 271.455 136.353C270.874 135.907 270.188 135.618 269.463 135.513C268.738 135.408 267.998 135.491 267.314 135.753C267.438 135.682 267.533 135.57 267.582 135.436C267.63 135.302 267.629 135.155 267.579 135.022C267.478 134.753 267.294 134.522 267.055 134.362C266.348 133.856 265.489 133.604 264.619 133.648C263.75 133.692 262.921 134.028 262.268 134.602C262.02 133.862 261.505 133.24 260.823 132.855C260.14 132.471 259.339 132.352 258.573 132.521C257.097 132.905 254.312 133.199 253.884 136.958C253.559 136.71 253.188 136.529 252.792 136.426C252.396 136.322 251.984 136.299 251.578 136.357C251.173 136.415 250.784 136.553 250.433 136.762C250.082 136.972 249.777 137.25 249.536 137.579C249.294 137.907 249.122 138.281 249.028 138.677C248.934 139.074 248.92 139.485 248.989 139.886C249.057 140.288 249.205 140.672 249.425 141.015C249.644 141.359 249.931 141.655 250.267 141.887C249.917 141.767 249.533 141.786 249.196 141.94C248.859 142.094 248.595 142.372 248.459 142.715C248.339 143.06 248.314 143.431 248.386 143.789C248.458 144.148 248.624 144.48 248.869 144.753C249.368 145.293 250.015 145.675 250.731 145.851C251.391 146.064 252.098 146.085 252.769 145.911C253.103 145.819 253.406 145.64 253.649 145.394C253.891 145.147 254.064 144.842 254.149 144.507C254.223 144.859 254.424 145.171 254.714 145.384C255.004 145.597 255.363 145.697 255.722 145.665C256.078 145.61 256.408 145.446 256.665 145.195C256.922 144.945 257.094 144.62 257.157 144.268C257.204 143.912 257.155 143.55 257.015 143.219C256.875 142.888 256.65 142.6 256.361 142.385C256.573 142.564 256.823 142.692 257.092 142.762C257.362 142.831 257.643 142.84 257.916 142.786C258.189 142.733 258.446 142.619 258.668 142.452C258.89 142.286 259.072 142.073 259.2 141.827C259.748 143.018 260.685 143.988 261.859 144.579C263.064 145.089 264.637 144.873 265.403 143.824C265.774 144.282 266.208 144.686 266.693 145.023C266.939 145.193 267.22 145.309 267.515 145.361C267.811 145.414 268.114 145.403 268.405 145.329C268.691 145.243 268.938 145.06 269.101 144.811C269.264 144.562 269.334 144.263 269.297 143.968C269.756 144.375 270.311 144.661 270.91 144.799C271.509 144.938 272.134 144.924 272.727 144.759C273.307 144.575 273.796 144.178 274.094 143.65C274.393 143.122 274.479 142.5 274.336 141.911Z" fill="#263238"/>
<path d="M253.655 169.505C253.655 169.505 256.88 172.366 258.531 168.666L259.393 169.338C259.393 169.338 259.309 172.084 257.742 173.001C258.127 174.53 264.68 196.728 265.849 207.917L264.041 212.456L259.285 208.72C259.285 208.72 256.97 189.533 256.18 173.211C255.251 172.905 254.401 172.399 253.691 171.73C252.981 171.061 252.427 170.244 252.069 169.338L253.655 169.505Z" fill="#407BFF"/>
<path opacity="0.2" d="M257.814 169.877L260.617 172.042L261.075 165.548L260.183 165.356L259.447 169.733L258.115 168.966L257.814 169.877Z" fill="black"/>
<path opacity="0.2" d="M244.336 165.8C244.288 165.8 250.924 173.871 250.924 173.871L253.179 172.162L254.728 170.861L255.126 170.369L246.343 164.301C245.94 164.73 245.507 165.131 245.047 165.5C244.801 165.578 244.563 165.678 244.336 165.8Z" fill="black"/>
<path d="M244.806 165.662L248.019 162.814L256.801 170.992L254.505 170.183L251.159 172.743L244.806 165.662Z" fill="#407BFF"/>
<path d="M256.783 170.992C256.59 170.621 256.97 163.335 256.97 163.335L260.587 165.308C260.418 165.272 260.309 171.448 260.207 171.448C260.105 171.448 258.146 169.344 258.146 169.344L256.783 170.992Z" fill="#407BFF"/>
<path opacity="0.2" d="M272.257 189.149L271.575 174.716L274.818 188.531L272.257 189.149Z" fill="black"/>
<path opacity="0.2" d="M244.125 191.253C244.529 191.176 246.602 190.498 246.602 190.498L241.997 177.744L248.344 191.853L244.541 193.358L244.125 191.253Z" fill="black"/>
<path opacity="0.5" d="M244.806 165.662L248.019 162.814L256.801 170.992L254.505 170.183L251.159 172.743L244.806 165.662Z" fill="white"/>
<path opacity="0.5" d="M256.783 170.992C256.59 170.621 256.97 163.335 256.97 163.335L260.587 165.308C260.418 165.272 260.309 171.448 260.207 171.448C260.105 171.448 258.146 169.344 258.146 169.344L256.783 170.992Z" fill="white"/>
<path opacity="0.3" d="M261.78 182.931L263.257 190.132L267.549 191.673L270.448 189.155L269.918 182.355L261.78 182.931Z" fill="white"/>
<path d="M257.32 170.369L255.963 170.699C256.018 170.615 255.222 173.259 255.222 173.259C255.439 173.451 256.168 174.704 256.253 174.686C256.337 174.668 258.145 174.5 258.145 174.5L258.796 172.599C258.796 172.599 257.314 170.351 257.32 170.369Z" fill="#407BFF"/>
<path opacity="0.2" d="M257.32 170.369L255.963 170.699C256.018 170.615 255.222 173.259 255.222 173.259C255.439 173.451 256.168 174.704 256.253 174.686C256.337 174.668 258.145 174.5 258.145 174.5L258.796 172.599C258.796 172.599 257.314 170.351 257.32 170.369Z" fill="black"/>
<path d="M242.317 180.676C242.317 180.676 245.541 202.023 247.404 204.019C250.55 207.395 266.144 216.341 266.144 216.341L273.932 213.625C274.199 213.537 274.483 213.515 274.76 213.56C275.037 213.605 275.299 213.716 275.524 213.883L280.846 217.924L280.34 218.35C280.229 218.441 280.095 218.498 279.953 218.515C279.811 218.532 279.667 218.508 279.538 218.446L278.712 218.032L279.641 218.938L279.345 219.184C279.198 219.302 279.024 219.385 278.839 219.424C278.654 219.464 278.462 219.46 278.278 219.411L275.897 218.812L278.091 220.263C277.844 220.469 277.55 220.611 277.235 220.676C276.919 220.742 276.592 220.73 276.283 220.641L272.799 219.651C270.421 220.193 268.001 220.538 265.566 220.683C261.467 220.934 242.112 214.207 238.501 209.29C234.89 204.373 231.177 183.914 231.177 183.914L242.317 180.676Z" fill="#B97964"/>
<path d="M232.027 194.881C232.027 194.881 227.205 175.532 233.552 170.843C239.899 166.154 246.21 190.63 246.21 190.63L232.027 194.881Z" fill="#407BFF"/>
<path opacity="0.5" d="M232.027 194.881C232.027 194.881 227.205 175.532 233.552 170.843C239.899 166.154 246.21 190.63 246.21 190.63L232.027 194.881Z" fill="white"/>
<path d="M283.974 219.471H259.303C259.303 220.415 260.358 221.173 261.648 221.167H301.841C303.125 221.167 304.155 220.397 304.149 219.465L283.974 219.471Z" fill="#263238"/>
<path d="M302.208 221.072H279.689C279.603 221.08 279.517 221.07 279.435 221.044C279.353 221.017 279.277 220.975 279.212 220.919C279.147 220.863 279.094 220.795 279.055 220.718C279.017 220.642 278.995 220.558 278.99 220.473C278.99 220.415 279.002 220.358 279.026 220.305L289.056 197.436C289.223 197.09 289.488 196.801 289.82 196.604C290.151 196.408 290.533 196.313 290.918 196.332H313.444C313.526 196.32 313.61 196.326 313.69 196.348C313.77 196.369 313.844 196.407 313.909 196.459C313.973 196.511 314.026 196.575 314.065 196.648C314.103 196.721 314.126 196.802 314.131 196.884C314.133 196.948 314.118 197.012 314.089 197.07L304.065 219.939C303.901 220.288 303.638 220.582 303.308 220.783C302.978 220.984 302.596 221.085 302.208 221.072Z" fill="#263238"/>
<path opacity="0.7" d="M313.444 196.362H290.9C290.515 196.343 290.133 196.438 289.802 196.634C289.47 196.83 289.205 197.12 289.038 197.465L279.393 219.471H259.303C259.303 220.413 260.358 221.168 261.648 221.162H301.841C302.223 221.159 302.602 221.084 302.956 220.94C303.202 220.866 303.429 220.741 303.622 220.572C303.816 220.404 303.971 220.196 304.077 219.963L314.101 197.094C314.13 197.036 314.145 196.972 314.143 196.908C314.137 196.825 314.113 196.744 314.074 196.671C314.035 196.598 313.98 196.533 313.915 196.482C313.849 196.431 313.773 196.394 313.692 196.373C313.611 196.352 313.527 196.349 313.444 196.362Z" fill="white"/>
<path d="M299.906 208.54C299.424 209.638 298.435 210.387 297.7 210.237C296.964 210.087 296.765 209.08 297.236 207.983C297.706 206.885 298.712 206.142 299.448 206.298C300.183 206.454 300.4 207.443 299.906 208.54Z" fill="white"/>
<g opacity="0.3">
<path d="M289.038 197.466L279.393 219.471H280.436L290.906 196.362C290.52 196.342 290.137 196.436 289.804 196.633C289.472 196.829 289.205 197.119 289.038 197.466Z" fill="black"/>
</g>
<path d="M290.201 244.835L304.716 247.162L307.049 241.201L291.786 236.465L290.201 244.835Z" fill="#B97964"/>
<path d="M311.172 250.166L313.137 246.13C312.975 245.897 312.874 245.627 312.845 245.345C312.815 245.063 312.858 244.779 312.968 244.517C313.371 244.009 313.858 243.573 314.409 243.228L319.882 232.177C319.518 231.994 319.134 231.855 318.737 231.764C318.31 231.712 317.879 231.712 317.453 231.764C316.115 231.937 315.042 232.963 314.312 233.766C313.059 235.097 308.719 238.389 308.719 238.389C307.758 238.911 306.671 239.16 305.578 239.109C305.17 239.062 304.756 239.111 304.37 239.252C303.983 239.392 303.636 239.62 303.354 239.918C302.751 240.836 303.058 241.657 303.902 242.239L304.891 242.916C305.001 243.416 304.92 243.939 304.664 244.382C304.407 244.826 303.994 245.158 303.505 245.315C303.505 245.315 301.256 246.79 302.365 247.186C302.998 247.408 305.861 248.307 308.098 249.08L309.55 249.584L311.172 250.166Z" fill="#263238"/>
<path d="M310.955 236.579C310.92 236.591 310.89 236.615 310.872 236.647C310.853 236.679 310.846 236.716 310.852 236.753C310.886 237.106 311.018 237.443 311.232 237.727C311.347 237.883 311.612 237.727 311.491 237.558C311.306 237.307 311.191 237.01 311.16 236.699C311.159 236.676 311.152 236.653 311.14 236.634C311.129 236.614 311.112 236.597 311.093 236.584C311.074 236.572 311.051 236.565 311.028 236.562C311.005 236.56 310.982 236.564 310.961 236.572L310.955 236.579Z" fill="#407BFF"/>
<path d="M310.069 237.202C310.035 237.218 310.007 237.244 309.989 237.276C309.971 237.308 309.963 237.345 309.966 237.382C310.004 237.735 310.135 238.071 310.346 238.356C310.461 238.507 310.726 238.356 310.611 238.182C310.423 237.933 310.307 237.638 310.274 237.328C310.272 237.305 310.266 237.283 310.254 237.263C310.243 237.243 310.226 237.226 310.207 237.214C310.187 237.202 310.165 237.194 310.142 237.192C310.119 237.19 310.096 237.193 310.075 237.202H310.069Z" fill="#407BFF"/>
<path d="M309.225 237.874C309.19 237.886 309.16 237.91 309.141 237.942C309.123 237.974 309.116 238.012 309.122 238.048C309.157 238.4 309.286 238.737 309.496 239.022C309.611 239.178 309.882 239.022 309.761 238.854C309.576 238.601 309.46 238.305 309.424 237.994C309.423 237.971 309.416 237.949 309.404 237.929C309.393 237.909 309.376 237.892 309.357 237.88C309.337 237.867 309.315 237.86 309.292 237.858C309.269 237.856 309.246 237.859 309.225 237.868V237.874Z" fill="#407BFF"/>
<path opacity="0.2" d="M312.968 244.517C313.371 244.009 313.858 243.573 314.409 243.228L319.882 232.177C319.518 231.994 319.134 231.855 318.737 231.764C318.536 231.743 318.335 231.733 318.134 231.734L309.333 249.518L309.574 249.602L311.196 250.166L313.161 246.13C312.995 245.899 312.89 245.63 312.856 245.348C312.823 245.066 312.861 244.781 312.968 244.517Z" fill="white"/>
<path d="M309.388 238.162L309.255 238.114C308.838 237.968 308.435 237.787 308.049 237.573C307.663 237.349 307.342 237.03 307.115 236.647C307.053 236.551 307.015 236.443 307.005 236.33C306.994 236.216 307.012 236.102 307.055 235.997C307.127 235.902 307.224 235.828 307.336 235.784C307.448 235.741 307.57 235.729 307.688 235.751C307.899 235.78 308.103 235.851 308.286 235.961C308.47 236.07 308.629 236.216 308.755 236.388C309.037 236.9 309.241 237.451 309.357 238.024L309.388 238.162ZM307.609 235.895C307.532 235.888 307.455 235.901 307.384 235.933C307.313 235.964 307.252 236.014 307.206 236.076C307.179 236.158 307.17 236.246 307.181 236.332C307.191 236.418 307.22 236.501 307.266 236.575C307.479 236.935 307.782 237.233 308.146 237.44C308.475 237.63 308.82 237.791 309.177 237.921C309.078 237.416 308.901 236.929 308.652 236.478C308.542 236.319 308.4 236.183 308.235 236.08C308.07 235.976 307.886 235.907 307.694 235.877L307.609 235.895Z" fill="#407BFF"/>
<path d="M307.308 239.587C307.161 239.589 307.014 239.567 306.874 239.521C306.758 239.492 306.652 239.431 306.569 239.344C306.486 239.258 306.428 239.151 306.404 239.034C306.405 238.921 306.435 238.811 306.491 238.713C306.547 238.615 306.627 238.533 306.723 238.475C307.078 238.218 307.493 238.059 307.929 238.012C308.364 237.973 308.802 237.973 309.237 238.012H309.375L309.291 238.12C308.955 238.597 308.549 239.021 308.086 239.376C307.847 239.507 307.58 239.58 307.308 239.587ZM308.544 238.132C308.354 238.13 308.165 238.14 307.977 238.162C307.555 238.211 307.154 238.371 306.814 238.625C306.711 238.703 306.536 238.865 306.555 239.052C306.573 239.238 306.753 239.352 306.922 239.406C307.108 239.45 307.301 239.457 307.489 239.426C307.677 239.395 307.857 239.327 308.019 239.226C308.433 238.916 308.797 238.545 309.098 238.126C308.923 238.138 308.737 238.132 308.544 238.132Z" fill="#407BFF"/>
<path d="M235.644 238.251C232.509 233.293 225.433 219.843 239.797 217.229C254.161 214.615 302.142 237.292 302.142 237.292L299.128 246.4L254.463 239.397C254.463 239.397 260.575 247.515 253.161 247.144C242.359 246.082 239.767 243.516 235.644 238.251Z" fill="#263238"/>
<path opacity="0.7" d="M255.499 239.643L243.245 235.805C243.245 235.805 253.492 242.065 257.296 242.808L255.499 239.643Z" fill="black"/>
</svg>
