<svg xmlns="http://www.w3.org/2000/svg" viewBox="0 0 500 500"><g id="freepik--background-complete--inject-1"><path d="M444.71,349.14H264a5.87,5.87,0,0,1-5.86-5.86V80A5.87,5.87,0,0,1,264,74.15H444.71A5.87,5.87,0,0,1,450.57,80V343.28A5.87,5.87,0,0,1,444.71,349.14ZM264,74.4A5.61,5.61,0,0,0,258.35,80V343.28a5.61,5.61,0,0,0,5.61,5.61H444.71a5.61,5.61,0,0,0,5.61-5.61V80a5.61,5.61,0,0,0-5.61-5.61Z" style="fill:#f0f0f0"></path><path d="M236.28,349.14H55.53a5.87,5.87,0,0,1-5.86-5.86V80a5.87,5.87,0,0,1,5.86-5.86H236.28A5.87,5.87,0,0,1,242.14,80V343.28A5.87,5.87,0,0,1,236.28,349.14ZM55.53,74.4A5.61,5.61,0,0,0,49.92,80V343.28a5.61,5.61,0,0,0,5.61,5.61H236.28a5.61,5.61,0,0,0,5.61-5.61V80a5.61,5.61,0,0,0-5.61-5.61Z" style="fill:#f0f0f0"></path><rect y="410.21" width="500" height="0.25" style="fill:#f0f0f0"></rect><rect x="63.15" y="89.34" width="64.62" height="156.81" style="fill:#f0f0f0"></rect><rect x="24.33" y="142.71" width="142.25" height="50.06" transform="translate(263.2 72.29) rotate(90)" style="fill:#fff"></rect><rect x="77.76" y="105.47" width="35.63" height="124.55" style="fill:#f5f5f5"></rect><circle cx="92.46" cy="165.35" r="13.35" style="fill:#fff"></circle><path d="M87.67,167.74s11.33-16.8,25.71-18V213S83.64,180.8,87.67,167.74Z" style="fill:#e0e0e0"></path><path d="M77.76,163.89s6.92-1.94,20.16,13.84c12.43,14.79,15.46,33.81,15.46,33.81V230H77.76Z" style="fill:#e6e6e6"></path><rect x="397.89" y="89.45" width="45.51" height="45.51" style="fill:#f0f0f0"></rect><rect x="401.78" y="93.34" width="37.73" height="37.73" style="fill:#fff"></rect><rect x="405.83" y="97.96" width="29.62" height="28.49" style="fill:#f5f5f5"></rect><circle cx="420.64" cy="111.3" r="9.17" style="fill:#fff"></circle><path d="M418.59,111.68s7-7,16.85-6.56v21.33Z" style="fill:#e0e0e0"></path><path d="M405.83,107.32a21.22,21.22,0,0,1,16.57,4.88,80.08,80.08,0,0,1,13.05,14.25H405.83Z" style="fill:#e6e6e6"></path><polygon points="448.17 398.74 454.56 303.39 380.99 303.39 387.38 398.74 448.17 398.74" style="fill:#f0f0f0"></polygon><polygon points="453.95 312.36 381.89 316.52 381.37 308.96 454.18 308.96 453.95 312.36" style="fill:#e0e0e0"></polygon><rect x="376.58" y="300.61" width="82.4" height="8.35" rx="3.65" style="fill:#f0f0f0"></rect><polygon points="446.32 324.3 444.51 356.17 391.04 356.17 389.23 324.3 446.32 324.3" style="fill:#e0e0e0"></polygon><path d="M420.45,341.55a2.67,2.67,0,1,1-2.67-2.67A2.67,2.67,0,0,1,420.45,341.55Z" style="fill:#f0f0f0"></path><polygon points="443.81 363.64 442.16 392.7 393.4 392.7 391.75 363.64 443.81 363.64" style="fill:#e0e0e0"></polygon><path d="M420.45,379.22a2.67,2.67,0,1,1-2.67-2.66A2.67,2.67,0,0,1,420.45,379.22Z" style="fill:#f0f0f0"></path><path d="M394.36,410.21a15.94,15.94,0,0,1,15.15-11.47H387.43l.45,11.47Z" style="fill:#e0e0e0"></path><path d="M441.22,410.21h6.46l.46-11.47H426.07A16,16,0,0,1,441.22,410.21Z" style="fill:#e0e0e0"></path><path d="M421.31,291.2v-7.78a5.18,5.18,0,0,1,5.17-5.17h6.59a5.18,5.18,0,0,1,5.17,5.17v7.78a5.18,5.18,0,0,1-5.17,5.17h-6.59A5.18,5.18,0,0,1,421.31,291.2Zm5.17-10.29a2.51,2.51,0,0,0-2.51,2.51v7.78a2.52,2.52,0,0,0,2.51,2.52h6.59a2.52,2.52,0,0,0,2.52-2.52v-7.78a2.51,2.51,0,0,0-2.52-2.51Z" style="fill:#e0e0e0"></path><path d="M427.26,300.78a172.76,172.76,0,0,0,19.31,0V274.34a138.27,138.27,0,0,0-19.31,0Z" style="fill:#e0e0e0"></path><rect x="283.9" y="405.11" width="12.6" height="5.11" style="fill:#e0e0e0"></rect><path d="M312.12,393.08h0c0,.24-.05.48-.08.72a17.13,17.13,0,0,1-.72,3.11,15.72,15.72,0,0,1-2.73,5.07c-.14.18-.29.36-.45.53a16.9,16.9,0,0,1-7.1,4.63c-.22.09-.45.16-.67.24a30.19,30.19,0,0,1-10.17,1.28c-3.06.12-9-.1-13.91-2.92l-.6-.36a15.15,15.15,0,0,1-5.56-6c-.11-.21-.22-.44-.33-.67a17.67,17.67,0,0,1-.71-1.82,16.55,16.55,0,0,1-.85-6.19c0-.25,0-.51.07-.75,1.09-9.89,11.52-15.51,11.52-15.51h20.75s.33.18.87.53c.2.12.42.26.66.43C305.44,377.68,313,383.85,312.12,393.08Z" style="fill:#e0e0e0"></path><path d="M274,353.91s7.29-2.66,9.17,5.06,7.29,5.73,8.31,4c2-3.33,2.3-15.39-1.17-16.11C286.14,346,275.41,350.39,274,353.91Z" style="fill:#e0e0e0"></path><path d="M290.27,346.89c-8.54.12-10.81,7.63-12.18,14.24L275.31,356l2,9.2c-.21,1-.43,1.94-.68,2.75a13.82,13.82,0,0,1-8.41,8.5s-.38-2.65-.72-6.36h0l3.11-4.89-3.38,1.42c-.38-5.83-.43-12.85,1-16.84,2.74-7.72,10.11-5.35,10.11-5.35Z" style="fill:#f0f0f0"></path><path d="M311.57,338.78s-4.48-1.35-9.18,5.06c-4.52,6.18-6.33,6.9-9.39,4.5s-1.22-15.86,2.25-16.58C299.39,330.89,310.11,335.26,311.57,338.78Z" style="fill:#e0e0e0"></path><path d="M326,373.84a20.51,20.51,0,0,1-9.39-7l4.94-11.6-6.78,8.44a18.68,18.68,0,0,1-.76-2c-2.94-9.3-2.34-29.5-19.23-29.75l16.79-3.83s10.52-3.39,14.43,7.63a39,39,0,0,1,1.67,10.82l-6.12-5.67s4.24,6.16,6.19,8.73A185.5,185.5,0,0,1,326,373.84Z" style="fill:#f0f0f0"></path><path d="M268.84,320.89s7.29-2.66,9.17,5.06,11.38,10.67,12.36,6.89c1-4-1.26-18.36-4.73-19.09C281.5,312.89,270.29,317.37,268.84,320.89Z" style="fill:#e0e0e0"></path><path d="M286,313.82c-13.81.2-16.12,13.89-18.12,24l-7-10.15c.09.29,3.82,12.4,5.26,17.2-3.25,8.48-11.63,11.11-11.63,11.11s-2.35-16.21-1.59-28.65c2.06-1.7,5.69-4.75,5.69-4.75l-5.39,1.33a28.15,28.15,0,0,1,1.29-6c3.92-11,14.43-7.63,14.43-7.63Z" style="fill:#f0f0f0"></path><path d="M289.67,374.46h1.82a156.51,156.51,0,0,0-1-49.94A107.63,107.63,0,0,0,284.85,304a.9.9,0,0,0-1.66.71,106.54,106.54,0,0,1,5.52,20.11A154.36,154.36,0,0,1,289.67,374.46Z" style="fill:#e0e0e0"></path><rect x="156.37" y="295.33" width="24.03" height="7.33" rx="0.58" style="fill:#f5f5f5"></rect><rect x="183.26" y="295.33" width="24.03" height="7.33" rx="0.58" style="fill:#f5f5f5"></rect><rect x="169.81" y="304.31" width="24.03" height="7.34" rx="0.58" style="fill:#f5f5f5"></rect><rect x="416.02" y="148.06" width="24.03" height="7.34" rx="0.58" style="fill:#f5f5f5"></rect><rect x="402.57" y="157.04" width="24.03" height="7.34" rx="0.58" style="fill:#f5f5f5"></rect></g><g id="freepik--Shadow--inject-1"><path d="M459.67,454.19c0,3.84-91.73,7-204.88,7s-204.87-3.12-204.87-7,91.73-7,204.87-7S459.67,450.34,459.67,454.19Z" style="fill:#f0f0f0"></path></g><g id="freepik--Board--inject-1"><rect x="136.15" y="114.43" width="250.11" height="159.95" style="fill:#407BFF"></rect><rect x="136.15" y="114.43" width="250.11" height="159.95" style="fill:#fff;opacity:0.6000000000000001"></rect><rect x="187.05" y="74.66" width="148.32" height="239.48" transform="translate(455.61 -66.81) rotate(90)" style="fill:#fff;opacity:0.7000000000000001"></rect></g><g id="freepik--board-elements--inject-1"><path d="M170.65,153.19c-2.44-1.36-18.4-10.67-12-19.21,3.23-4.33,10.38-2.22,12,1.42,1.62-3.64,8.77-5.75,12-1.42C189.06,142.52,173.1,151.83,170.65,153.19Z" style="fill:#407BFF"></path><path d="M173,134.78a2.39,2.39,0,1,1-2.39-2.38A2.39,2.39,0,0,1,173,134.78Z" style="fill:#407BFF"></path><path d="M173,134.78a2.39,2.39,0,1,1-2.39-2.38A2.39,2.39,0,0,1,173,134.78Z" style="opacity:0.30000000000000004"></path><path d="M291.27,223.13c-2.45-1.36-18.41-10.67-12-19.21,3.23-4.34,10.38-2.22,12,1.42,1.61-3.64,8.76-5.76,12-1.42C309.67,212.46,293.71,221.77,291.27,223.13Z" style="fill:#407BFF"></path><path d="M291.27,223.13c-2.45-1.36-18.41-10.67-12-19.21,3.23-4.34,10.38-2.22,12,1.42,1.61-3.64,8.76-5.76,12-1.42C309.67,212.46,293.71,221.77,291.27,223.13Z" style="fill:#fff;opacity:0.5"></path><path d="M293.65,204.72a2.38,2.38,0,1,1-2.38-2.39A2.39,2.39,0,0,1,293.65,204.72Z" style="fill:#407BFF"></path><path d="M293.65,204.72a2.38,2.38,0,1,1-2.38-2.39A2.39,2.39,0,0,1,293.65,204.72Z" style="opacity:0.30000000000000004"></path><rect x="152.1" y="166.87" width="32.77" height="32.77" style="fill:#407BFF"></rect><rect x="155.19" y="169.96" width="26.59" height="26.59" transform="translate(351.74 14.78) rotate(90)" style="fill:#407BFF"></rect><rect x="155.19" y="169.97" width="26.59" height="26.58" style="fill:#fff;opacity:0.2"></rect><path d="M176.71,180.06a4.23,4.23,0,1,1-4.22-4.22A4.22,4.22,0,0,1,176.71,180.06Z" style="fill:#fff;opacity:0.8"></path><path d="M217.44,143.51v15.6h-15.6V146.4a5.49,5.49,0,0,1,3.47-2.89Z" style="fill:#407BFF"></path><path d="M205.31,143.51v3.31l-3.47-.42A5.49,5.49,0,0,1,205.31,143.51Z" style="opacity:0.30000000000000004"></path><polygon points="211.11 145.85 211.82 141.08 208.57 141.08 208.9 145.85 211.11 145.85" style="fill:#fff;opacity:0.5"></polygon><path d="M248.17,140.72v15.6h-15.6V143.61a5.49,5.49,0,0,1,3.47-2.89Z" style="fill:#407BFF"></path><path d="M248.17,140.72v15.6h-15.6V143.61a5.49,5.49,0,0,1,3.47-2.89Z" style="fill:#fff;opacity:0.5"></path><path d="M236,140.72V144l-3.47-.42A5.49,5.49,0,0,1,236,140.72Z" style="fill:#407BFF"></path><polygon points="241.83 143.06 242.55 138.3 239.3 138.3 239.63 143.06 241.83 143.06" style="fill:#fff;opacity:0.5"></polygon><path d="M234,166.53v15.6h-15.6V169.42a5.49,5.49,0,0,1,3.47-2.89Z" style="fill:#407BFF"></path><path d="M234,166.53v15.6h-15.6V169.42a5.49,5.49,0,0,1,3.47-2.89Z" style="fill:#fff;opacity:0.30000000000000004"></path><path d="M221.83,166.53v3.31l-3.47-.42A5.49,5.49,0,0,1,221.83,166.53Z" style="fill:#407BFF"></path><polygon points="227.63 168.87 228.34 164.1 225.09 164.1 225.42 168.87 227.63 168.87" style="fill:#fff;opacity:0.5"></polygon><path d="M170.65,166.45a2.38,2.38,0,1,1-2.38-2.38A2.38,2.38,0,0,1,170.65,166.45Z" style="fill:#407BFF"></path><path d="M170.65,166.45a2.38,2.38,0,1,1-2.38-2.38A2.38,2.38,0,0,1,170.65,166.45Z" style="opacity:0.30000000000000004"></path><polygon points="260.04 255.81 240.37 254.24 241.79 230.52 259.79 227.97 260.04 255.81" style="fill:#407BFF"></polygon><polygon points="281.88 255.81 262.51 254.24 265.65 229.96 282.71 231.7 281.88 255.81" style="fill:#407BFF"></polygon><g style="opacity:0.1"><polygon points="281.88 255.81 262.51 254.24 265.65 229.96 282.71 231.7 281.88 255.81" style="fill:#fff"></polygon></g><polygon points="304.8 254.24 286.81 255.81 284.57 231.7 303.02 229.3 304.8 254.24" style="fill:#407BFF"></polygon><polygon points="307.04 254.42 326.52 257.77 329.58 231.88 311.47 229.48 307.04 254.42" style="fill:#407BFF"></polygon><g style="opacity:0.2"><polygon points="307.04 254.42 326.52 257.77 329.58 231.88 311.47 229.48 307.04 254.42"></polygon></g><path d="M255.92,242a6.35,6.35,0,0,1-6.4,5.29h-4.39L247,236.74h4.38C254.74,236.74,256.46,238.94,255.92,242Zm-6.18,2.35a2.7,2.7,0,0,0,2.84-2.35,1.81,1.81,0,0,0-2-2.35h-.79l-.83,4.7Z" style="fill:#fff"></path><path d="M273.94,236.74c2.65,0,4,1.51,4,3.45a3.09,3.09,0,0,1-2.27,3l2.29,4h-3.63l-2-3.77h0v3.77H269V236.74Zm-.3,2.76h-1.3v1.79h1.3c.63,0,1-.27,1-.9A.85.85,0,0,0,273.64,239.5Z" style="fill:#263238"></path><path d="M297.29,238.56h-3.94v2.61h3.49v1.65h-3.49v2.75h3.94v1.69h-6V236.87h6Z" style="fill:#fff"></path><polygon points="353.93 254.32 334.31 255.89 331.87 231.78 351.99 229.38 353.93 254.32" style="fill:#407BFF"></polygon><path d="M337.91,237h3l1.67,7.23,4.16-7.23h3l-1.84,10.44h-2.55l1.12-6.26L343,247.44H341l-1.25-6.29-1.1,6.29h-2.54Z" style="fill:#407BFF"></path><g style="opacity:0.6000000000000001"><path d="M337.91,237h3l1.67,7.23,4.16-7.23h3l-1.84,10.44h-2.55l1.12-6.26L343,247.44H341l-1.25-6.29-1.1,6.29h-2.54Z"></path></g><path d="M319.72,245.85h-3.51l-.81,1.59h-3.46l5.71-10.53h3.8l2,10.53H320Zm-.79-5.41-1.48,2.93h1.91Z" style="fill:#407BFF"></path><g style="opacity:0.6000000000000001"><path d="M319.72,245.85h-3.51l-.81,1.59h-3.46l5.71-10.53h3.8l2,10.53H320Zm-.79-5.41-1.48,2.93h1.91Z" style="fill:#fff"></path></g><polygon points="181.78 179.51 181.78 196.55 155.19 196.55 155.19 191.41 163.82 182.44 172.49 190.14 181.78 179.51" style="fill:#407BFF"></polygon><polygon points="181.78 179.51 181.78 196.55 155.19 196.55 155.19 191.41 163.82 182.44 172.49 190.14 181.78 179.51" style="fill:#fff;opacity:0.5"></polygon><path d="M347.86,173.83v30.95H322.41V173.83h2.25a1.35,1.35,0,0,0-.32.89,1.48,1.48,0,1,0,3,0,1.4,1.4,0,0,0-.31-.89h1.5a1.45,1.45,0,0,0-.3.89,1.47,1.47,0,1,0,2.93,0,1.45,1.45,0,0,0-.3-.89h1.5a1.45,1.45,0,0,0-.3.89,1.47,1.47,0,1,0,2.94,0,1.4,1.4,0,0,0-.31-.89h1.5a1.4,1.4,0,0,0-.31.89,1.48,1.48,0,1,0,2.95,0,1.35,1.35,0,0,0-.32-.89H340a1.4,1.4,0,0,0-.31.89,1.47,1.47,0,1,0,2.94,0,1.4,1.4,0,0,0-.31-.89h1.51a1.4,1.4,0,0,0-.31.89,1.47,1.47,0,1,0,2.94,0,1.4,1.4,0,0,0-.31-.89Z" style="fill:#407BFF"></path><path d="M347.86,173.83v30.95H322.41V173.83h2.25a1.35,1.35,0,0,0-.32.89,1.48,1.48,0,1,0,3,0,1.4,1.4,0,0,0-.31-.89h1.5a1.45,1.45,0,0,0-.3.89,1.47,1.47,0,1,0,2.93,0,1.45,1.45,0,0,0-.3-.89h1.5a1.45,1.45,0,0,0-.3.89,1.47,1.47,0,1,0,2.94,0,1.4,1.4,0,0,0-.31-.89h1.5a1.4,1.4,0,0,0-.31.89,1.48,1.48,0,1,0,2.95,0,1.35,1.35,0,0,0-.32-.89H340a1.4,1.4,0,0,0-.31.89,1.47,1.47,0,1,0,2.94,0,1.4,1.4,0,0,0-.31-.89h1.51a1.4,1.4,0,0,0-.31.89,1.47,1.47,0,1,0,2.94,0,1.4,1.4,0,0,0-.31-.89Z" style="fill:#fff;opacity:0.5"></path><circle cx="335.45" cy="174.49" r="2.07" style="fill:#407BFF"></circle><circle cx="335.45" cy="174.49" r="2.07" style="opacity:0.30000000000000004"></circle><rect x="324.74" y="180.77" width="20.79" height="0.44" style="fill:#407BFF"></rect><rect x="324.74" y="183.36" width="20.79" height="0.44" style="fill:#407BFF"></rect><rect x="324.74" y="185.96" width="20.79" height="0.44" style="fill:#407BFF"></rect><rect x="324.74" y="188.55" width="20.79" height="0.44" style="fill:#407BFF"></rect><rect x="324.74" y="191.14" width="20.79" height="0.44" style="fill:#407BFF"></rect><rect x="324.74" y="193.73" width="20.79" height="0.44" style="fill:#407BFF"></rect><rect x="324.74" y="196.32" width="20.79" height="0.44" style="fill:#407BFF"></rect><rect x="324.74" y="198.91" width="20.79" height="0.44" style="fill:#407BFF"></rect><path d="M261.68,187.24v30.94H236.22V187.24h2.25a1.38,1.38,0,0,0-.31.89,1.47,1.47,0,0,0,2.94,0,1.43,1.43,0,0,0-.3-.89h1.5a1.38,1.38,0,0,0-.31.89,1.47,1.47,0,1,0,2.94,0,1.38,1.38,0,0,0-.31-.89h1.51a1.38,1.38,0,0,0-.31.89,1.47,1.47,0,1,0,2.94,0,1.38,1.38,0,0,0-.31-.89H250a1.43,1.43,0,0,0-.3.89,1.47,1.47,0,0,0,2.94,0,1.38,1.38,0,0,0-.31-.89h1.51a1.33,1.33,0,0,0-.32.89,1.48,1.48,0,0,0,3,0,1.33,1.33,0,0,0-.32-.89h1.52a1.33,1.33,0,0,0-.32.89,1.48,1.48,0,0,0,2.95,0,1.33,1.33,0,0,0-.32-.89Z" style="fill:#407BFF"></path><path d="M261.68,187.24v30.94H236.22V187.24h2.25a1.38,1.38,0,0,0-.31.89,1.47,1.47,0,0,0,2.94,0,1.43,1.43,0,0,0-.3-.89h1.5a1.38,1.38,0,0,0-.31.89,1.47,1.47,0,1,0,2.94,0,1.38,1.38,0,0,0-.31-.89h1.51a1.38,1.38,0,0,0-.31.89,1.47,1.47,0,1,0,2.94,0,1.38,1.38,0,0,0-.31-.89H250a1.43,1.43,0,0,0-.3.89,1.47,1.47,0,0,0,2.94,0,1.38,1.38,0,0,0-.31-.89h1.51a1.33,1.33,0,0,0-.32.89,1.48,1.48,0,0,0,3,0,1.33,1.33,0,0,0-.32-.89h1.52a1.33,1.33,0,0,0-.32.89,1.48,1.48,0,0,0,2.95,0,1.33,1.33,0,0,0-.32-.89Z" style="fill:#fff;opacity:0.5"></path><path d="M251.33,187.89a2.07,2.07,0,1,1-2.07-2.06A2.06,2.06,0,0,1,251.33,187.89Z" style="fill:#407BFF"></path><path d="M251.33,187.89a2.07,2.07,0,1,1-2.07-2.06A2.06,2.06,0,0,1,251.33,187.89Z" style="opacity:0.30000000000000004"></path><rect x="238.56" y="194.18" width="20.79" height="0.44" style="fill:#407BFF"></rect><rect x="238.56" y="196.77" width="20.79" height="0.44" style="fill:#407BFF"></rect><rect x="238.56" y="199.36" width="20.79" height="0.44" style="fill:#407BFF"></rect><rect x="238.56" y="201.95" width="20.79" height="0.44" style="fill:#407BFF"></rect><rect x="238.56" y="204.54" width="20.79" height="0.44" style="fill:#407BFF"></rect><rect x="238.56" y="207.13" width="20.79" height="0.44" style="fill:#407BFF"></rect><rect x="238.56" y="209.72" width="20.79" height="0.44" style="fill:#407BFF"></rect><rect x="238.56" y="212.31" width="20.79" height="0.44" style="fill:#407BFF"></rect><path d="M198.19,221.52H151.65a1.29,1.29,0,0,1-1.29-1.29h0a1.29,1.29,0,0,1,1.29-1.29h46.54a1.3,1.3,0,0,1,1.3,1.29h0A1.3,1.3,0,0,1,198.19,221.52Z" style="fill:#407BFF"></path><path d="M198.19,226H151.65a1.29,1.29,0,0,1-1.29-1.29h0a1.29,1.29,0,0,1,1.29-1.29h46.54a1.3,1.3,0,0,1,1.3,1.29h0A1.29,1.29,0,0,1,198.19,226Z" style="fill:#407BFF"></path><path d="M198.19,245.49H151.65a1.3,1.3,0,0,1-1.29-1.3h0a1.29,1.29,0,0,1,1.29-1.29h46.54a1.3,1.3,0,0,1,1.3,1.29h0A1.3,1.3,0,0,1,198.19,245.49Z" style="fill:#407BFF"></path><path d="M198.19,249.56H151.65a1.29,1.29,0,0,1-1.29-1.29h0a1.29,1.29,0,0,1,1.29-1.29h46.54a1.3,1.3,0,0,1,1.3,1.29h0A1.3,1.3,0,0,1,198.19,249.56Z" style="fill:#407BFF"></path><path d="M220.69,253.69H207.84a1.78,1.78,0,0,1-1.78-1.78V239.06a1.78,1.78,0,0,1,1.78-1.77h12.85a1.78,1.78,0,0,1,1.78,1.77v12.85A1.78,1.78,0,0,1,220.69,253.69Zm-12.85-15a.38.38,0,0,0-.38.37v12.85a.38.38,0,0,0,.38.38h12.85a.38.38,0,0,0,.37-.38V239.06a.38.38,0,0,0-.37-.37Z" style="fill:#407BFF"></path><path d="M220.69,229.73H207.84a1.78,1.78,0,0,1-1.78-1.78V215.1a1.78,1.78,0,0,1,1.78-1.78h12.85a1.78,1.78,0,0,1,1.78,1.78V228A1.78,1.78,0,0,1,220.69,229.73Zm-12.85-15a.38.38,0,0,0-.38.38V228a.37.37,0,0,0,.38.37h12.85a.37.37,0,0,0,.37-.37V215.1a.38.38,0,0,0-.37-.38Z" style="fill:#407BFF"></path><path d="M212.7,225.93h-.12a1.15,1.15,0,0,1-.91-.59,25.56,25.56,0,0,0-3-4,1.19,1.19,0,0,1,1.73-1.62,27.23,27.23,0,0,1,2.44,3.08c2.1-2.24,7-7,11.82-9.15a1.18,1.18,0,1,1,.95,2.17c-5.81,2.52-12,9.63-12,9.71A1.21,1.21,0,0,1,212.7,225.93Z" style="fill:#407BFF"></path><g style="opacity:0.5"><path d="M212.7,225.93h-.12a1.15,1.15,0,0,1-.91-.59,25.56,25.56,0,0,0-3-4,1.19,1.19,0,0,1,1.73-1.62,27.23,27.23,0,0,1,2.44,3.08c2.1-2.24,7-7,11.82-9.15a1.18,1.18,0,1,1,.95,2.17c-5.81,2.52-12,9.63-12,9.71A1.21,1.21,0,0,1,212.7,225.93Z" style="fill:#fff"></path></g><g style="opacity:0.30000000000000004"><path d="M198.19,221.52H151.65a1.29,1.29,0,0,1-1.29-1.29h0a1.29,1.29,0,0,1,1.29-1.29h46.54a1.3,1.3,0,0,1,1.3,1.29h0A1.3,1.3,0,0,1,198.19,221.52Z" style="fill:#fff"></path><path d="M198.19,226H151.65a1.29,1.29,0,0,1-1.29-1.29h0a1.29,1.29,0,0,1,1.29-1.29h46.54a1.3,1.3,0,0,1,1.3,1.29h0A1.29,1.29,0,0,1,198.19,226Z" style="fill:#fff"></path></g><g style="opacity:0.30000000000000004"><path d="M198.19,245.49H151.65a1.3,1.3,0,0,1-1.29-1.3h0a1.29,1.29,0,0,1,1.29-1.29h46.54a1.3,1.3,0,0,1,1.3,1.29h0A1.3,1.3,0,0,1,198.19,245.49Z" style="fill:#fff"></path><path d="M198.19,249.56H151.65a1.29,1.29,0,0,1-1.29-1.29h0a1.29,1.29,0,0,1,1.29-1.29h46.54a1.3,1.3,0,0,1,1.3,1.29h0A1.3,1.3,0,0,1,198.19,249.56Z" style="fill:#fff"></path></g><path d="M358.2,140.59a20.51,20.51,0,1,1-25.29-14.21A20.51,20.51,0,0,1,358.2,140.59Z" style="fill:#407BFF"></path><path d="M342.83,161.74a16.21,16.21,0,1,1,11.23-20A16.22,16.22,0,0,1,342.83,161.74Z" style="fill:#fcf7f6"></path><path d="M341.67,157.6a11.91,11.91,0,1,1,8.25-14.69A11.92,11.92,0,0,1,341.67,157.6Z" style="fill:#407BFF"></path><path d="M340.51,153.46a7.61,7.61,0,1,1,5.27-9.39A7.62,7.62,0,0,1,340.51,153.46Z" style="fill:#fcf7f6"></path><path d="M339.35,149.32a3.31,3.31,0,1,1,2.29-4.08A3.33,3.33,0,0,1,339.35,149.32Z" style="fill:#407BFF"></path><path d="M361.41,133.49l-5-.75.75-5a.52.52,0,0,0-.44-.6.53.53,0,0,0-.6.44l-.81,5.35-1.9,1.4.65-4.31a.52.52,0,1,0-1-.16l-.82,5.35-2.4,1.77.66-4.32a.53.53,0,0,0-.44-.59.52.52,0,0,0-.6.44l-.82,5.35-10.13,7.45a1.6,1.6,0,0,0,0,1.3l10.86-8,5.17.79a.53.53,0,0,0,.15-1l-4.12-.63L353,136l5.16.78a.53.53,0,0,0,.16-1l-4.12-.62,1.9-1.4,5.16.78a.52.52,0,0,0,.6-.44A.53.53,0,0,0,361.41,133.49Z" style="fill:#407BFF"></path><path d="M361.41,133.49l-5-.75.75-5a.52.52,0,0,0-.44-.6.53.53,0,0,0-.6.44l-.81,5.35-1.9,1.4.65-4.31a.52.52,0,1,0-1-.16l-.82,5.35-2.4,1.77.66-4.32a.53.53,0,0,0-.44-.59.52.52,0,0,0-.6.44l-.82,5.35-10.13,7.45a1.6,1.6,0,0,0,0,1.3l10.86-8,5.17.79a.53.53,0,0,0,.15-1l-4.12-.63L353,136l5.16.78a.53.53,0,0,0,.16-1l-4.12-.62,1.9-1.4,5.16.78a.52.52,0,0,0,.6-.44A.53.53,0,0,0,361.41,133.49Z" style="opacity:0.30000000000000004"></path></g><g id="freepik--Character--inject-1"><path d="M366.17,188.86c-6.14,4.92-12.37,9.67-18.78,14.27-3.2,2.31-6.44,4.55-9.78,6.8-1.71,1.12-3.34,2.19-5.35,3.35-.28.16-.49.29-.83.46L331,214l-.25.13-.39.18-.41.17-.21.08-.26.11A9,9,0,0,1,328,215a5.47,5.47,0,0,1-1.58,0,7.33,7.33,0,0,1-1.74-.4l-.42-.15-.2-.09-.12-.06-.2-.1-.77-.45a18.68,18.68,0,0,1-1.69-1.25c-.48-.38-.86-.72-1.28-1.08-3.14-2.8-5.94-5.52-8.75-8.33s-5.54-5.61-8.24-8.47q-8.16-8.52-15.89-17.42l4.81-5Q301,179.61,310,187.13l9,7.45c3,2.44,6,5,8.89,7.12l1,.74a7.63,7.63,0,0,0,.7.45.42.42,0,0,0-.14-.09l0,0-.24-.11-.33-.13a4.71,4.71,0,0,0-1.39-.28,8.26,8.26,0,0,0-1.23,0,5.14,5.14,0,0,0-1.11.27l-.07,0H325l-.08,0-.05,0,.07-.05.16-.09.44-.29c1.31-.88,2.89-2.06,4.38-3.18,3-2.27,6.09-4.67,9.16-7,6.11-4.76,12.3-9.52,18.51-14.17Z" style="fill:#7f3e3b"></path><path d="M358.18,174.75,341,187.92l10.76,16,12.51-7.39S361.56,178.38,358.18,174.75Z" style="fill:#263238"></path><polygon points="365.74 434.71 363.23 446.72 356.91 446.72 356.22 434.71 365.74 434.71" style="fill:#7f3e3b"></polygon><path d="M338.84,455.21c.21-3.91,1.89-5.08,4-5.21s10-2.78,10-2.78,1.56-2.49,3-3,2.89,1,2.89,1l3.95-.48s1.13-1.79,2-.22c1.35,2.42,1.42,9.14,1.36,10.71Z" style="fill:#263238"></path><path d="M339.32,454.19l4.93,0,21.56-.12c.27,0,.2-.42-.07-.41h-1.46a.09.09,0,0,0,0-.06,3.92,3.92,0,0,1,1.28-5.68c.22-.13-.06-.5-.27-.36a4.28,4.28,0,0,0-1.42,6.1h-3l-21.55.11C339,453.77,339.05,454.19,339.32,454.19Z" style="fill:#407BFF"></path><path d="M354.09,448.91c-1.17-1.32-2.82-1.69-4-.7-.19.16-.46-.2-.27-.36,1.33-1.14,3.25-.64,4.57.85.19.22-.13.43-.32.21Z" style="fill:#fff"></path><path d="M351.88,449.61c-1.16-1.32-2.81-1.69-4-.7-.19.16-.46-.2-.28-.36,1.33-1.14,3.26-.64,4.58.85.19.22-.14.43-.33.21Z" style="fill:#fff"></path><path d="M349.6,450.31c-1.16-1.31-2.82-1.69-4-.7-.18.17-.45-.2-.27-.36,1.33-1.14,3.25-.64,4.57.85.2.22-.13.43-.32.21Z" style="fill:#fff"></path><polygon points="432.58 425.01 436.37 437.11 430.23 440.18 424.58 428.52 432.58 425.01" style="fill:#7f3e3b"></polygon><path d="M418.58,456.41c-1.72-3.52-.83-5.35,1-6.5s7.37-7.3,7.37-7.3.15-2.93,1.15-4.07,3-.55,3-.55l4-2.59s0-2.6,1.27-1.17c1.82,2.1,4.58,7.8,5.29,9.2Z" style="fill:#263238"></path><path d="M418.25,455l4.24-2.31L441,442.51c.24-.12,0-.48-.25-.35l-1.26.69,0,0a4.23,4.23,0,0,1-1.53-5.84c.13-.22-.28-.42-.4-.2a4.62,4.62,0,0,0,1.6,6.28c-.87.48-1.73,1-2.61,1.43L418,454.62C417.76,454.75,418,455.11,418.25,455Z" style="fill:#407BFF"></path><path d="M428.82,443.48c-1.66-.58-3.28-.1-3.81,1.33-.09.23-.5.05-.41-.18.6-1.64,2.52-2.15,4.4-1.49.28.1.09.44-.18.34Z" style="fill:#fff"></path><path d="M427.24,445.17c-1.66-.58-3.29-.11-3.81,1.33-.09.23-.5.05-.42-.18.61-1.65,2.53-2.15,4.41-1.49.27.09.09.43-.18.34Z" style="fill:#fff"></path><path d="M425.59,446.89c-1.66-.58-3.29-.1-3.81,1.33-.09.23-.5,0-.42-.18.61-1.65,2.53-2.15,4.41-1.49.27.1.09.44-.18.34Z" style="fill:#fff"></path><path d="M386.58,277.41a409.37,409.37,0,0,1-6.77,47.9c-1.13,5.86-2.43,12.09-3.9,18.73,2.46,40.12-10.39,94-10.39,94l-9.76-.22s-3.31-62.06-3.26-94.55c.08-53.23,4.85-103.93,4.85-103.93l26.56-.11S388.77,247.21,386.58,277.41Z" style="fill:#407BFF"></path><path d="M386.58,277.41a409.37,409.37,0,0,1-6.77,47.9c-6.31-21.29,2.27-66.72,2.27-66.72Z" style="opacity:0.2"></path><path d="M378.4,247.66s5.32,78.34,10.32,105l36.56,79.94,8.92-5S418,354.44,408.05,341.72c0,0,9.32-66.72,0-96.72Z" style="fill:#407BFF"></path><polygon points="425.94 435.87 423.63 432.36 435.2 426.42 436.58 430.41 425.94 435.87" style="fill:#263238"></polygon><polygon points="354.72 440.09 354.27 435.91 367.28 435.91 366.69 440.09 354.72 440.09" style="fill:#263238"></polygon><path d="M353.05,186.7c.39,10.42-7.73,16.39,2,23.85.84,8.69-3.17,25-.48,39.21a3.19,3.19,0,0,0,2.11,2.44c7.24,2.37,32.15,1.26,51-3.34a3.43,3.43,0,0,0,2.54-4.05c-2.85-13-4.35-34.11-.89-60.89a11.43,11.43,0,0,0-10-12.84c-1.78-.21-3.67-.39-5.61-.51a141.74,141.74,0,0,0-20.47-.32c-2.22.16-4.51.41-6.69.68a15.42,15.42,0,0,0-13.55,15.77" style="fill:#263238"></path><path d="M409.94,184.38a189.6,189.6,0,0,1,13.2,14.28c2.11,2.49,4.12,5.09,6.1,7.81,1,1.38,1.94,2.8,2.88,4.32.47.77.94,1.57,1.4,2.42l.34.67.17.34.08.17.18.38a8.35,8.35,0,0,1,.72,4.52,7.77,7.77,0,0,1-.79,2.62c-.1.19-.2.39-.31.57l-.32.48a7.23,7.23,0,0,1-.68.84,9.26,9.26,0,0,1-2.48,1.91,15,15,0,0,1-3.62,1.37,32.82,32.82,0,0,1-5.65.81,82.76,82.76,0,0,1-10.1,0,153.38,153.38,0,0,1-19.31-2.38l.56-6.9c6.22-.25,12.53-.56,18.62-1.06,3-.28,6.07-.58,8.85-1.11a25.91,25.91,0,0,0,3.67-.94c.46-.17.83-.39.76-.41s-.2.05-.61.46c-.07.08-.2.22-.32.38l-.15.23a2.29,2.29,0,0,0-.18.31,4.82,4.82,0,0,0-.46,1.49,4.59,4.59,0,0,0,.27,2.22l.06.12-.06-.1-.12-.18-.23-.37c-.34-.52-.71-1-1.12-1.61-.81-1.1-1.72-2.24-2.67-3.37-1.87-2.29-3.92-4.55-6-6.83s-4.17-4.53-6.3-6.78-4.28-4.53-6.34-6.75Z" style="fill:#7f3e3b"></path><path d="M406.89,175.24l11.36,14.2-14.1,12.67-10.94-11.86a10.13,10.13,0,0,1-1.92-10.4,9.86,9.86,0,0,1,2.71-3.77C399.13,171.63,406.89,175.24,406.89,175.24Z" style="fill:#263238"></path><path d="M360.15,143.32c.35-.59-4.36-7.3,2.78-12.08,0,0,1.52-4.32,5.39-6a9,9,0,0,1,7.27.21s1.54-4.35,8.14-3.51a7.37,7.37,0,0,1,6.77,6.93s5.57,2.34,5.68,8.22a7.7,7.7,0,0,1-2.84,5.83s2.68,5.51.84,8.65a6.88,6.88,0,0,1-4.45,3s-.13,4.3-4.28,5.14-10.59-6.3-10.59-6.3Z" style="fill:#263238"></path><path d="M390.24,127.64s-4.05-3.18-.82-5.79c0,0-.47-3.93,3.17-4.49s4.3,2.38,4.3,2.38.9-3.39,5.79-2.19,2.76,7.21,2.76,7.21,3.2,1.88,1.95,5.26a4.05,4.05,0,0,1-4.58,2.7s1.13,3.57-1.76,4.26a6.27,6.27,0,0,1-4.86-.73Z" style="fill:#263238"></path><path d="M390.5,129.14a9.85,9.85,0,0,1,5.69,7.11s1.72-2.29-.24-5.56c-2.36-3.93-5.71-3-5.71-3Z" style="fill:#407BFF"></path><path d="M371.64,170.58a2.1,2.1,0,0,0-.15.3c-1.86,8.33,9.44,6.22,14-1-3-4.06-3.64-11.14-2.93-16.25l-9.22,7.61L371.58,163a16.7,16.7,0,0,1,.79,3.89A6.47,6.47,0,0,1,371.64,170.58Z" style="fill:#7f3e3b"></path><g style="opacity:0.2"><path d="M372.37,166.85a16.7,16.7,0,0,0-.79-3.89l1.79-1.71,4.78-.11S375.9,165.76,372.37,166.85Z"></path></g><path d="M386.06,144.08c-1.26,9.24-1.67,11.6-6.62,16-7.46,6.64-18.24,4.66-19.71-4.77-1.33-8.49.95-22.17,10.13-25.19s17.45,4.7,16.2,13.94" style="fill:#7f3e3b"></path><path d="M367.58,155.17a3.52,3.52,0,0,1-1.57-.31.27.27,0,0,1-.08-.35.25.25,0,0,1,.34-.08,3.85,3.85,0,0,0,2.81-.06,3.1,3.1,0,0,0,1.76-2.4.24.24,0,0,1,.29-.2.25.25,0,0,1,.2.29,3.59,3.59,0,0,1-2.05,2.77A4.16,4.16,0,0,1,367.58,155.17Z" style="fill:#263238"></path><path d="M381.94,139.15s-3,4.35-1.81,8.36,6.91,0,6.91,0S391.75,137.37,381.94,139.15Z" style="fill:#263238"></path><path d="M362.24,134.66s.51,1.65,3.26.38a8.85,8.85,0,0,0,2.55-1.69,2.6,2.6,0,0,0,2.62.93A5.22,5.22,0,0,0,373,133s.68,3.24,2.5,3.22a8.31,8.31,0,0,0,2.87-.46s-1.43,2.39.64,3.67,3.45.6,3.45.6.81,3.36,3.57,4,1.82-7.44,1.82-7.44S373.52,119.74,362.24,134.66Z" style="fill:#263238"></path><path d="M372.12,145.35c-.05.76-.5,1.34-1,1.3s-.85-.68-.8-1.43.51-1.34,1-1.3.85.68.79,1.43" style="fill:#263238"></path><path d="M364.23,145c-.06.75-.51,1.34-1,1.3s-.85-.68-.79-1.44.5-1.33,1-1.3.84.68.79,1.44" style="fill:#263238"></path><path d="M363.65,143.58l-1.77-.66s.82,1.49,1.77.66" style="fill:#263238"></path><path d="M366.68,145.31s-1.46,1.91-3,3.54a1.13,1.13,0,0,0,.23,1.76,10.91,10.91,0,0,0,2.29,1Z" style="fill:#630f0f"></path><path d="M373.62,143.69a.42.42,0,0,1-.24-.25,3.56,3.56,0,0,0-2.35-2.2.44.44,0,1,1,.18-.87,4.41,4.41,0,0,1,3,2.74.45.45,0,0,1-.25.58.47.47,0,0,1-.33,0" style="fill:#263238"></path><path d="M361.11,141.3a.44.44,0,0,1-.29-.17.43.43,0,0,1,.06-.62,4.43,4.43,0,0,1,4-.91.45.45,0,0,1-.27.85,3.54,3.54,0,0,0-3.13.75.46.46,0,0,1-.33.1" style="fill:#263238"></path><path d="M371.55,144l-1.78-.66s.83,1.48,1.78.66" style="fill:#263238"></path><path d="M388.87,150.76a6,6,0,0,1-3.9,3c-2.11.42-3-1.92-2.21-4.17.68-2,2.59-4.69,4.62-4.09s2.59,3.3,1.49,5.26" style="fill:#7f3e3b"></path><path d="M384.56,154.69a1.53,1.53,0,1,0-.35-2.13A1.53,1.53,0,0,0,384.56,154.69Z" style="fill:#fff"></path><rect x="257.1" y="148.41" width="33.54" height="33.54" transform="translate(56.13 -69.08) rotate(16)" style="fill:#407BFF"></rect><rect x="260.26" y="151.57" width="27.22" height="27.22" transform="translate(508.13 -52.56) rotate(106)" style="fill:#407BFF"></rect><rect x="260.26" y="151.57" width="27.22" height="27.22" transform="translate(508.13 -52.56) rotate(106)" style="fill:#fff;opacity:0.2"></rect><path d="M286,164.88a5.67,5.67,0,1,1-3.9-7A5.67,5.67,0,0,1,286,164.88Z" style="fill:#fff;opacity:0.8"></path><path d="M288.19,164.62l-5,17.39-14.77-4.23,1.43-5S277.48,162.61,288.19,164.62Z" style="fill:#407BFF"></path><path d="M288.19,164.62l-5,17.39-14.77-4.23,1.43-5S277.48,162.61,288.19,164.62Z" style="fill:#fff;opacity:0.5"></path><path d="M272.09,178.83l-15-4.32,4.71-16.43C265.05,160.16,272.61,166.28,272.09,178.83Z" style="fill:#407BFF"></path><path d="M272.09,178.83l-15-4.32,4.71-16.43C265.05,160.16,272.61,166.28,272.09,178.83Z" style="fill:#fff;opacity:0.6000000000000001"></path><path d="M293.54,173.88s1.25-7.26.63-8.76-5.25-3.87-5.75-3.93-.38,2.71,2.06,4.67a27.56,27.56,0,0,0-2.48,7,13.36,13.36,0,0,0-.14,4.69Z" style="fill:#7f3e3b"></path><rect x="359.54" y="204.81" width="26.69" height="26.69" transform="translate(-36.83 81.16) rotate(-11.84)" style="fill:#407BFF"></rect><rect x="359.54" y="204.81" width="26.69" height="26.69" transform="translate(-36.83 81.16) rotate(-11.84)" style="fill:#fff;opacity:0.5"></rect><path d="M385.58,213.66l-.48-2.27a15.33,15.33,0,0,1,4.5,2.4,39.76,39.76,0,0,1,3.11,4.73l-.64,6.76a38.83,38.83,0,0,1-7.54-.41c-3.42-.63-6.42-5.74-6.6-6.91s-3.71-2.58-2.64-3.39,10.29-.91,10.29-.91Z" style="fill:#7f3e3b"></path></g></svg>
