<?xml version="1.0" encoding="UTF-8"?>
<!DOCTYPE svg PUBLIC "-//W3C//DTD SVG 1.1//EN" "http://www.w3.org/Graphics/SVG/1.1/DTD/svg11.dtd">
<!-- Creator: CorelDRAW 2021 (64 Bit) -->
<svg xmlns="http://www.w3.org/2000/svg" xml:space="preserve" width="90.0892mm" height="30.9009mm" version="1.1" style="shape-rendering:geometricPrecision; text-rendering:geometricPrecision; image-rendering:optimizeQuality; fill-rule:evenodd; clip-rule:evenodd"
viewBox="0 0 4095.54 1404.78"
 xmlns:xlink="http://www.w3.org/1999/xlink"
 xmlns:xodm="http://www.corel.com/coreldraw/odm/2003">
 <defs>
  <style type="text/css">
   <![CDATA[
    .fil1 {fill:black}
    .fil2 {fill:#535455}
    .fil5 {fill:#744E3A}
    .fil4 {fill:#BC530E}
    .fil3 {fill:#FEFEFE}
    .fil0 {fill:#004AAD;fill-rule:nonzero}
   ]]>
  </style>
 </defs>
 <g id="Camada_x0020_1">
  <metadata id="CorelCorpID_0Corel-Layer"/>
  <path class="fil0" d="M2266.18 471.54c34.52,0 63.41,4.35 86.68,13.04 23.27,8.69 45.38,21.48 66.35,38.35l-37.2 43.34c-16.62,-14.06 -34.14,-24.04 -52.67,-30.17 -18.54,-5.88 -37.97,-8.95 -58.17,-8.95 -28.89,0 -55.61,6.91 -80.16,20.45 -24.54,13.81 -44.23,36.44 -59.19,67.88 -15.08,31.58 -22.5,74.41 -22.5,128.35 0,52.41 7.03,94.47 21.35,126.18 14.19,31.7 33.37,54.58 57.66,68.65 24.29,14.07 51.39,21.09 81.3,21.09 29.66,0 54.08,-4.47 73.12,-13.42 19.05,-8.95 35.54,-19.18 49.6,-30.68l34.52 43.72c-16.11,15.6 -37.07,29.15 -62.9,40.4 -25.82,11.38 -57.53,17.13 -95.11,17.13 -42.7,0 -81.43,-10.48 -115.95,-31.45 -34.77,-20.97 -62.13,-51.78 -82.33,-92.3 -20.2,-40.53 -30.3,-90.26 -30.3,-149.32 0,-59.32 10.36,-109.17 30.94,-149.58 20.45,-40.4 47.94,-70.95 82.46,-91.66 34.26,-20.71 71.85,-31.06 112.5,-31.06z"/>
  <path class="fil0" d="M2805.08 741.73c0,-46.02 -4.86,-82.84 -14.57,-110.45 -9.72,-27.61 -22.5,-48.32 -38.36,-62.13 -15.85,-13.81 -33.11,-23.01 -51.9,-27.61 -18.92,-4.61 -37.33,-6.91 -55.48,-6.91l-62.13 0 0 420.34 62.9 0c18.92,0 37.71,-2.94 56.63,-9.08 18.79,-6.01 35.92,-16.75 51.52,-32.21 15.6,-15.34 28.13,-37.07 37.46,-64.82 9.33,-27.61 13.93,-63.41 13.93,-107.13zm70.96 0c0,43.98 -4.73,81.56 -13.94,112.5 -9.46,31.2 -22.12,56.76 -38.22,76.96 -16.11,20.2 -34.39,35.8 -54.97,46.92 -20.58,11.12 -42.19,19.05 -64.81,23.4 -22.75,4.47 -44.87,6.77 -66.6,6.77l-121.19 0 0 -528.11 112.75 0c30.94,0 60.98,3.45 90.39,10.36 29.27,6.9 55.74,19.68 79.39,38.1 23.65,18.66 42.44,45 56.38,79.26 13.81,34.26 20.84,78.87 20.84,133.85z"/>
  <path class="fil0" d="M3235.09 859.85c0,-26.59 -5.11,-47.17 -15.47,-61.62 -10.36,-14.32 -24.16,-24.42 -41.29,-30.04 -17.13,-5.62 -35.92,-8.44 -56.38,-8.44l-90.13 0 0 193.68 87.06 0c13.04,0 26.34,-1.28 39.89,-3.83 13.55,-2.56 26.2,-7.16 37.84,-13.81 11.63,-6.65 20.97,-16.11 28,-28.25 7.03,-12.02 10.48,-28 10.48,-47.68zm-21.09 -243.15c0,-29.91 -9.21,-51.13 -27.74,-63.92 -18.54,-12.52 -43.85,-18.92 -75.81,-18.92l-78.62 0 0 171.05 85.14 0c31.2,0 55.23,-7.03 71.97,-20.97 16.75,-13.93 25.06,-36.31 25.06,-67.24zm91.28 240.85c0,28.64 -5.75,52.67 -17,72.1 -11.38,19.43 -26.59,34.9 -45.64,46.41 -19.05,11.5 -40.27,19.81 -63.66,24.67 -23.39,4.99 -47.3,7.54 -71.59,7.54l-141.9 0 0 -528.11 130.01 0c23.27,0 45.89,2.05 68.14,6.26 22.12,4.35 42.06,11.51 59.83,21.48 17.77,10.23 31.96,23.78 42.7,40.91 10.74,17.13 16.11,38.61 16.11,64.43 0,22.75 -4.6,41.93 -13.93,57.65 -9.33,15.72 -21.48,28.38 -36.43,37.84 -14.96,9.46 -30.94,16.11 -47.81,19.94 19.68,3.07 38.86,8.95 57.4,17.77 18.53,8.95 33.75,22.24 45.77,39.88 12.02,17.77 18.03,41.55 18.03,71.21z"/>
  <path class="fil1" d="M911.84 831.96c31.1,241.8 248.07,418.73 527.76,389.72 232.19,-24.09 432.09,-258.98 389.99,-533.09 -88.54,-576.32 -997.92,-479.69 -917.74,143.37z"/>
  <path class="fil2" d="M3467.38 1402.9c53.25,-9.51 276.76,-256.24 327.77,-307.69 55.24,-55.73 102.6,-103.96 158.19,-159.31 104.42,-103.99 136.57,-117.64 141.6,-177.58 3.03,-36.15 -0.01,-41.48 -143.56,-179.21 -491.36,-468.56 -433.62,-450.79 -491.36,-459.53 -95.91,-14.53 -149.67,85.27 -99.11,162.15 34.33,52.22 433.05,414.91 475.03,476.61 -42.62,65.52 -436.29,432.33 -468.23,483.39 -50.38,80.52 6.36,177.87 99.67,161.19z"/>
  <path class="fil2" d="M256.26 726.46c33.64,-67.32 423.61,-417.45 469.46,-483.72 56.75,-82.04 -16.31,-178.33 -108.64,-159.78 -41.93,8.44 -291.34,275.65 -324.95,310.32 -280.6,289.39 -363.11,302.08 -229.9,434.15l240.76 235.67c48.1,46.51 278.76,292.04 322.65,302.27 88.79,20.68 169.81,-82.49 100.31,-165.88 -76.53,-91.82 -438.29,-409.55 -469.69,-473.04z"/>
  <path class="fil2" d="M911.84 831.96c-80.18,-623.06 829.2,-719.69 917.74,-143.37 42.11,274.11 -157.79,508.99 -389.99,533.09 -279.69,29.01 -496.65,-147.92 -527.76,-389.72zm934.86 -624.08c-55.49,26.75 -25.56,15.01 -54.87,-37.46 -21.28,89.1 -29.02,102.3 -103.96,146.94 -763.65,-337.02 -1088.69,503.37 -656.35,868.75 226.1,191.1 593.42,129.11 749.09,-70.79 185.35,-238.02 168.49,-526.08 -36.31,-742.23 43.67,-59.1 69.4,-54.36 102.39,-165.21z"/>
  <path class="fil3" d="M1192.87 451.9c-205.19,161.15 -61.71,201.16 -33.94,183.96 31.65,-7.36 53.17,-30.56 76.65,-49.3 26.02,-20.72 44.16,-35.21 69.36,-57.09 96.37,-83.61 10.99,-191.49 -112.07,-77.58z"/>
  <path class="fil4" d="M1780.92 143.14c7.84,16.58 84.98,8.23 92.11,-56.24 -28.35,-18.82 -3.62,-48.87 -22.89,-86.9 -17.69,16.76 -52.23,43.35 -70.41,83.62 -8.91,19.73 -10.99,40.33 1.19,59.52z"/>
  <path class="fil5" d="M1777.72 137.4c5.02,10.17 11.58,20.76 14.11,33.02 33.82,69.75 -28.83,79.39 54.87,37.46 13.45,-45.34 33.68,-85.1 26.32,-120.98 -16.54,37.48 -46.07,72.82 -95.3,50.5z"/>
 </g>
</svg>
