<?xml version="1.0" encoding="UTF-8"?>
<!DOCTYPE svg PUBLIC "-//W3C//DTD SVG 1.1//EN" "http://www.w3.org/Graphics/SVG/1.1/DTD/svg11.dtd">
<!-- Creator: CorelDRAW 2021 (64 Bit) -->
<svg xmlns="http://www.w3.org/2000/svg" xml:space="preserve" width="63.6185mm" height="30.2135mm" version="1.1" style="shape-rendering:geometricPrecision; text-rendering:geometricPrecision; image-rendering:optimizeQuality; fill-rule:evenodd; clip-rule:evenodd"
viewBox="0 0 2368.49 1124.84"
 xmlns:xlink="http://www.w3.org/1999/xlink"
 xmlns:xodm="http://www.corel.com/coreldraw/odm/2003">
 <defs>
  <style type="text/css">
   <![CDATA[
    .fil0 {fill:black}
    .fil1 {fill:#535455}
    .fil4 {fill:#744E3A}
    .fil3 {fill:#BC530E}
    .fil2 {fill:#FEFEFE}
   ]]>
  </style>
 </defs>
 <g id="Camada_x0020_1">
  <metadata id="CorelCorpID_0Corel-Layer"/>
  <path class="fil0" d="M777.53 681.33c25.47,198.02 203.15,342.91 432.2,319.15 190.15,-19.73 353.86,-212.08 319.37,-436.56 -72.51,-471.97 -817.23,-392.84 -751.57,117.41z"/>
  <path class="fil1" d="M1854.07 1123.29c43.61,-7.78 226.65,-209.84 268.42,-251.97 45.24,-45.64 84.02,-85.13 129.55,-130.46 85.52,-85.16 111.84,-96.34 115.96,-145.43 2.48,-29.6 -0.01,-33.97 -117.57,-146.77 -402.4,-383.72 -355.11,-369.17 -402.39,-376.32 -78.54,-11.9 -122.57,69.83 -81.16,132.78 28.11,42.77 354.64,339.78 389.02,390.31 -34.91,53.66 -357.29,354.05 -383.45,395.87 -41.26,65.94 5.2,145.66 81.62,132z"/>
  <path class="fil1" d="M211.38 594.35c27.75,-55.53 349.42,-344.34 387.24,-399 46.81,-67.67 -13.45,-147.1 -89.61,-131.8 -34.59,6.96 -240.31,227.38 -268.04,255.97 -231.46,238.71 -299.52,249.17 -189.63,358.11l198.59 194.4c39.67,38.36 229.94,240.89 266.15,249.33 73.24,17.05 140.07,-68.04 82.74,-136.83 -63.13,-75.73 -361.53,-337.82 -387.43,-390.19z"/>
  <path class="fil1" d="M777.53 681.33c-65.66,-510.25 679.06,-589.38 751.57,-117.41 34.48,224.48 -129.22,416.83 -319.37,436.56 -229.05,23.76 -406.73,-121.13 -432.2,-319.15zm765.59 -511.08c-45.45,21.91 -20.93,12.29 -44.93,-30.68 -17.42,72.96 -23.77,83.77 -85.13,120.34 -625.38,-276 -891.57,412.22 -537.51,711.45 185.16,156.5 485.98,105.74 613.45,-57.97 151.79,-194.92 137.98,-430.83 -29.74,-607.84 35.76,-48.41 56.83,-44.52 83.85,-135.3z"/>
  <path class="fil2" d="M1007.67 370.08c-168.04,131.97 -50.54,164.74 -27.79,150.65 25.92,-6.03 43.54,-25.03 62.77,-40.37 21.31,-16.97 36.16,-28.83 56.8,-46.75 78.92,-68.47 9,-156.81 -91.78,-63.53z"/>
  <path class="fil3" d="M1489.25 117.22c6.42,13.58 69.59,6.74 75.43,-46.05 -23.22,-15.42 -2.96,-40.02 -18.74,-71.17 -14.49,13.73 -42.77,35.5 -57.66,68.48 -7.29,16.16 -9,33.03 0.98,48.74z"/>
  <path class="fil4" d="M1486.63 112.52c4.11,8.33 9.48,17 11.56,27.04 27.7,57.12 -23.61,65.01 44.93,30.68 11.01,-37.13 27.58,-69.69 21.56,-99.08 -13.54,30.7 -37.73,59.64 -78.04,41.36z"/>
 </g>
</svg>
