<?xml version="1.0" encoding="UTF-8"?>
<!DOCTYPE svg PUBLIC "-//W3C//DTD SVG 1.1//EN" "http://www.w3.org/Graphics/SVG/1.1/DTD/svg11.dtd">
<!-- Creator: CorelDRAW 2021 (64 Bit) -->
<svg xmlns="http://www.w3.org/2000/svg" xml:space="preserve" width="63.6185mm" height="30.2135mm" version="1.1" style="shape-rendering:geometricPrecision; text-rendering:geometricPrecision; image-rendering:optimizeQuality; fill-rule:evenodd; clip-rule:evenodd"
viewBox="0 0 2536.72 1204.73"
 xmlns:xlink="http://www.w3.org/1999/xlink"
 xmlns:xodm="http://www.corel.com/coreldraw/odm/2003">
 <defs>
  <style type="text/css">
   <![CDATA[
    .fil1 {fill:black}
    .fil3 {fill:#DE4924}
    .fil2 {fill:#ED702D}
    .fil0 {fill:white}
   ]]>
  </style>
 </defs>
 <g id="Camada_x0020_1">
  <metadata id="CorelCorpID_0Corel-Layer"/>
  <path class="fil0" d="M816.35 735.64c28.95,226.39 230.89,392.04 491.23,364.88 216.12,-22.56 402.18,-242.47 362.99,-499.11 -82.41,-539.59 -928.85,-449.12 -854.22,134.23z"/>
  <path class="fil0" d="M1985.75 1203.08c46.71,-8.34 242.74,-224.75 287.49,-269.87 48.45,-48.88 89.99,-91.18 138.75,-139.73 91.59,-91.21 119.79,-103.19 124.2,-155.76 2.66,-31.71 -0.01,-36.38 -125.92,-157.19 -430.98,-410.97 -380.33,-395.39 -430.97,-403.06 -84.12,-12.74 -131.28,74.79 -86.93,142.22 30.11,45.8 379.83,363.92 416.65,418.03 -37.39,57.47 -382.67,379.2 -410.69,423.98 -44.19,70.63 5.57,156.01 87.42,141.38z"/>
  <path class="fil0" d="M226.39 636.56c29.72,-59.47 374.24,-368.79 414.74,-427.34 50.14,-72.48 -14.41,-157.55 -95.97,-141.15 -37.04,7.45 -257.39,243.52 -287.08,274.15 -247.9,255.66 -320.79,266.87 -203.1,383.55l212.7 208.21c42.49,41.09 246.27,258.01 285.05,267.04 78.44,18.27 150.03,-72.88 88.62,-146.54 -67.61,-81.12 -387.21,-361.82 -414.95,-417.91z"/>
  <path class="fil0" d="M832.75 729.71c-70.33,-546.48 727.3,-631.24 804.95,-125.75 36.93,240.42 -138.4,446.44 -342.06,467.57 -245.32,25.45 -435.61,-129.74 -462.9,-341.82zm819.97 -547.38c-48.67,23.46 -22.42,13.17 -48.12,-32.86 -18.66,78.15 -25.46,89.72 -91.18,128.88 -669.79,-295.6 -954.89,441.5 -575.69,761.98 198.31,167.62 520.5,113.25 657.03,-62.08 162.57,-208.76 147.78,-461.43 -31.85,-651.01 38.3,-51.84 60.87,-47.68 89.81,-144.91z"/>
  <path class="fil1" d="M1079.24 396.36c-179.97,141.35 -54.13,176.44 -29.77,161.36 27.76,-6.46 46.63,-26.81 67.23,-43.24 22.82,-18.17 38.73,-30.88 60.84,-50.07 84.52,-73.34 9.64,-167.95 -98.3,-68.04z"/>
  <path class="fil2" d="M1595.02 125.54c6.88,14.54 74.53,7.22 80.79,-49.32 -24.87,-16.51 -3.18,-42.86 -20.08,-76.22 -15.52,14.7 -45.81,38.02 -61.76,73.34 -7.81,17.31 -9.64,35.38 1.04,52.2z"/>
  <path class="fil3" d="M1592.22 120.51c4.41,8.92 10.16,18.21 12.38,28.96 29.67,61.18 -25.29,69.64 48.12,32.86 11.79,-39.77 29.54,-74.64 23.09,-106.11 -14.51,32.88 -40.42,63.87 -83.59,44.29z"/>
 </g>
</svg>
