<?xml version="1.0" encoding="UTF-8"?>
<!DOCTYPE svg PUBLIC "-//W3C//DTD SVG 1.1//EN" "http://www.w3.org/Graphics/SVG/1.1/DTD/svg11.dtd">
<!-- Creator: CorelDRAW 2021 (64 Bit) -->
<svg xmlns="http://www.w3.org/2000/svg" xml:space="preserve" width="48.7115mm" height="28.6469mm" version="1.1" style="shape-rendering:geometricPrecision; text-rendering:geometricPrecision; image-rendering:optimizeQuality; fill-rule:evenodd; clip-rule:evenodd"
viewBox="0 0 4871.14 2864.68"
 xmlns:xlink="http://www.w3.org/1999/xlink"
 xmlns:xodm="http://www.corel.com/coreldraw/odm/2003">
 <defs>
  <style type="text/css">
   <![CDATA[
    .fil0 {fill:white}
    .fil1 {fill:white;fill-rule:nonzero}
   ]]>
  </style>
 </defs>
 <g id="Camada_x0020_1">
  <metadata id="CorelCorpID_0Corel-Layer"/>
  <g id="_2611013811280">
   <path class="fil0" d="M573.24 1491.66c43.83,-357.76 338.51,-662.06 680.43,-755.15 372.48,-101.4 787.99,40.41 1008.86,360.22 417.39,687.63 -91.32,1461.58 -681,1462.3l-362.96 0.45 49.47 71.04 -49.47 56.57c362.96,-0.42 238.13,1.47 362.96,-0.42 301.73,0.65 643.35,-270.12 772.87,-468.27 240.12,-367.38 244.89,-839.89 -23.92,-1194.94 -263.51,-348.03 -703.82,-497.82 -1126.11,-374.53 -202.18,59.02 -352.05,164.24 -481.56,308.76 -140.19,156.46 -209.02,323.87 -248.95,533.88l-162.04 0 208.96 288.62 214.2 -288.49 -161.76 -0.05 0.02 0.01z"/>
   <path class="fil0" d="M4504.9 2686.95c4.92,155.48 -17.21,242.47 160.45,119.49 49.22,-34.08 205.79,-149.69 205.79,-203.01 0,-48.64 -160.16,-150.03 -205.79,-181.04 -161.77,-109.98 -161.42,-17.78 -160.45,135.49 -541.84,0.81 -1897.05,0.76 -2407.34,0.89l-238.96 128.35c882.07,0 1764.28,-5.73 2646.3,-0.16l-0.01 -0.01z"/>
   <path class="fil0" d="M2059.32 1579.84c-20.32,103 -113.11,157.6 -218.26,139.56 -98.08,-16.83 -155.99,-123.3 -134.35,-219.72 50.44,-224.79 398.75,-153.8 352.6,80.18l0.01 -0.02zm-778 -4.92c-37.79,232.13 -401.29,177.81 -353.73,-69.88 22.32,-116.24 191.94,-202.38 321.49,-70.51 29.67,33.06 39.78,94.07 32.23,140.39l0.01 0zm-29.51 -227.58c-287.73,-168.21 -519.35,166.7 -313.42,376.22 125.55,127.75 398.62,59.19 407.09,-160.67 4.92,-127.94 -17.1,-134.45 -38.04,-158.08 81.79,-44 128.21,-79.16 176.88,-79.07 49.08,0.1 100.49,34.54 192.83,78.97 -14.25,22.96 -25.01,47.53 -33.15,81.81 -22.38,94.4 14.19,189.62 87.06,250.81 91.32,76.71 260.92,63.19 334.37,-31.14 80.18,-102.95 86.81,-245.46 -10.29,-336.66 -45.12,-42.4 -88.34,-61.89 -165.79,-67.52 -85.46,-1.01 -83.46,4.35 -174.44,45.32 -230.86,-93.63 -230.07,-100.62 -463.09,0l-0.01 0.01z"/>
   <path class="fil0" d="M1005.85 163.03c15.16,15.5 81.58,34.99 105.22,42.01 -14.66,41.87 -26.07,43.78 -34.25,98.47 -7.88,52.77 -51.72,47.11 -14.27,97.59 15.74,21.22 11.3,22.37 3.84,49.98 -4.38,16.2 -9.41,33.93 -16.78,48.93 -15.45,31.37 -46.84,57.77 -56.94,77.8 37.26,52.3 132.2,47.16 133.48,-71.86 0.23,-20.9 -1.13,-42.08 -3.39,-62.81 -8.94,-81.79 38.21,-43.15 0.97,-103.56 -12.07,-19.59 -7.96,-32.38 -2.56,-56.4 18.12,-80.65 84.36,-89.6 154.37,-118.72 32.28,-13.43 65.31,-25.69 98.1,-38.13 34.26,-13 72.49,-38.88 90.21,-1.96 -19.84,46.36 -218.93,76.55 -246.53,114.45 21.39,15.84 131.67,47.01 166.55,58.67 83.28,27.84 88.85,8.19 169.51,-18.73 54.44,-18.17 111.27,-37.56 166.81,-56.41 33.15,-11.27 146.39,-37.04 157.91,-65.51 -12.53,-29.38 -172.28,-69.88 -210.73,-83.02 -35.38,-12.1 -202.02,-73.51 -225.14,-73.81 -19.96,-0.26 -192.85,61.62 -225.25,73.1 -36.27,12.86 -73.03,25.22 -109.67,37.53 -30.71,10.33 -95.23,17.96 -101.47,52.4l0.01 -0.01z"/>
   <polygon class="fil0" points="-0,2686.51 1137.84,2687.09 1196.95,2630.51 1137.84,2559.48 0.11,2557.76 0.05,2620.52 "/>
   <path class="fil0" d="M1182.68 438.53c86.73,83.56 376.33,95.27 501.13,14.38 54.03,-35.05 37.41,-115.75 38.18,-178.3 -73.12,7.49 -207.86,80.46 -274.25,85.82 -49.18,3.97 -234.41,-85.32 -276.24,-81.76 -20.52,54.92 2.95,37.18 19.16,76.11 18.02,43.37 -8.79,54.51 -7.97,83.75l-0.01 0z"/>
   <path class="fil1" d="M3054.05 1138.1c-6.63,-6.88 -14.35,-13.06 -23.15,-18.53 -8.82,-5.47 -18.75,-10.23 -29.78,-14.28 -11.03,-4.06 -22.82,-7.31 -35.38,-9.74 -12.58,-2.43 -25.92,-3.64 -40.03,-3.64 -41.01,0 -71.1,7.19 -90.3,21.58 -19.18,14.28 -28.77,33.83 -28.77,58.56 0,17.02 4.52,30.28 13.57,40.02 9.04,9.72 23.28,17.62 42.66,23.7 19.41,6.07 44.1,12.36 74.09,18.84 33.52,6.39 62.4,14.08 86.66,22.99 24.26,8.9 43,20.97 56.23,36.16 13.24,15.09 19.84,35.64 19.84,61.59 0,19.75 -4.18,36.97 -12.56,51.55 -8.38,14.59 -20.06,26.74 -35.05,36.36 -15,9.74 -32.86,16.92 -53.59,21.58 -20.72,4.66 -43.43,6.99 -68.13,6.99 -24.25,0 -47.51,-2.33 -69.78,-6.99 -22.27,-4.66 -43.33,-11.55 -63.17,-20.66 -19.84,-9.12 -38.37,-20.77 -55.56,-34.95l23.15 -34.64c8.38,8.1 18.4,15.69 30.09,22.78 11.69,7.09 24.7,13.46 39.03,19.14 14.35,5.68 29.78,10.03 46.3,13.07 16.54,3.04 33.63,4.56 51.28,4.56 37.48,0 66.7,-6.29 87.64,-18.84 20.95,-12.46 31.43,-31.1 31.43,-55.81 0,-17.73 -5.29,-32 -15.87,-42.75 -10.59,-10.73 -26.46,-19.55 -47.64,-26.42 -21.17,-6.79 -47.18,-13.46 -78.05,-19.96 -32.63,-6.88 -60.21,-14.59 -82.68,-23.09 -22.5,-8.51 -39.36,-19.75 -50.6,-33.63 -11.26,-13.98 -16.87,-32.51 -16.87,-55.61 0,-26.64 7.15,-49.22 21.49,-67.66 14.35,-18.33 34.07,-32.31 59.2,-41.83 25.14,-9.52 54.03,-14.28 86.66,-14.28 20.72,0 40.02,1.91 57.88,5.77 17.86,3.85 34.4,9.42 49.61,16.71 15.22,7.31 29.44,16.41 42.66,27.34l-22.48 34.03 -0.03 -0.01z"/>
   <path class="fil1" d="M3321.29 1494.84c-25.13,0 -48.16,-4.36 -69.12,-12.97 -20.95,-8.72 -39.25,-20.66 -54.9,-35.96 -15.66,-15.29 -27.79,-32.91 -36.39,-52.57 -8.6,-19.75 -12.88,-40.71 -12.88,-62.9 0,-29.78 7.28,-57.02 21.83,-81.53 14.55,-24.62 34.83,-44.17 60.85,-58.66 26.01,-14.48 56,-21.78 89.96,-21.78 32.19,0 60.63,6.79 85.33,20.35 24.69,13.57 42.99,31.9 54.9,55l-43.66 12.76c-9.7,-16.2 -23.26,-28.86 -40.67,-37.97 -17.43,-9.12 -36.72,-13.67 -57.88,-13.67 -22.94,0 -43.88,5.47 -62.85,16.3 -18.96,10.84 -34.06,25.73 -45.31,44.68 -11.23,18.84 -16.87,40.42 -16.87,64.53 0,23.7 5.73,45.28 17.21,64.53 11.46,19.33 26.68,34.74 45.65,46.17 18.96,11.45 39.91,17.22 62.84,17.22 14.99,0 29.44,-2.43 43.32,-7.29 13.91,-4.86 26.02,-11.45 36.38,-19.75 10.37,-8.31 17.31,-17.32 20.85,-27.05l44.32 12.15c-6.18,14.99 -16.42,28.47 -30.76,40.41 -14.35,11.97 -31.09,21.27 -50.28,27.96 -19.17,6.68 -39.79,10.03 -61.84,10.03l-0.03 0.01z"/>
   <path class="fil1" d="M3706.92 1208.59c-29.99,0.81 -56.34,8.51 -79.04,23.1 -22.72,14.59 -38.69,34.64 -47.96,60.16l0 196.91 -44.98 0 0 -315.42 42.35 0 0 74.75c11.92,-22.28 27.67,-40.3 47.3,-54.08 19.62,-13.78 40.46,-21.47 62.51,-23.1 4.4,-0.4 8.28,-0.6 11.58,-0.6 3.29,0 6.06,0.21 8.26,0.6l0 37.69 -0.02 -0.01z"/>
   <path class="fil1" d="M3763.81 1358.6l0 -185.26 44.98 0 0 177.87c0,35.96 6.73,62.8 20.17,80.52 13.46,17.73 33.42,26.64 59.87,26.64 17.65,0 34.74,-3.54 51.28,-10.53 16.54,-7.09 31.2,-17.22 44,-30.29 12.78,-13.06 22.5,-28.26 29.1,-45.58l0 -198.63 44.99 0 0 265.68c0,5.67 1.32,9.72 3.95,12.36 2.65,2.65 6.63,4.16 11.92,4.56l0 32.82c-5.29,0.42 -9.48,0.71 -12.57,0.91 -3.09,0.2 -5.94,0.31 -8.6,0.31 -8.82,-0.81 -16.42,-4.06 -22.82,-9.74 -6.39,-5.57 -9.81,-12.46 -10.25,-20.56l-1.34 -42.35c-14.98,24.21 -35.38,43.15 -61.18,56.93 -25.81,13.67 -53.71,20.56 -83.68,20.56 -36.17,0 -63.51,-11.55 -82.02,-34.54 -18.53,-23 -27.79,-56.93 -27.79,-101.69l-0.01 0.01z"/>
   <path class="fil1" d="M4672.67 1488.76l-44.99 0 0 -175.74c0,-36.56 -6.39,-63.61 -19.18,-80.92 -12.78,-17.32 -31.74,-25.93 -56.89,-25.93 -26.01,0 -49.27,8.41 -69.77,25.32 -20.51,16.92 -34.95,38.71 -43.33,65.23l0 192.05 -44.99 0 0 -175.74c0,-36.97 -6.17,-64.11 -18.52,-81.23 -12.36,-17.12 -31.31,-25.63 -56.89,-25.63 -25.58,0 -48.73,8.21 -69.45,24.72 -20.72,16.51 -35.29,38.18 -43.66,65.13l0 192.75 -44.98 0 0 -315.42 41.01 0 0 71.92c14.55,-24.61 33.19,-43.55 55.89,-56.82 22.71,-13.28 47.98,-19.96 75.74,-19.96 28.67,0 51.82,7.49 69.45,22.39 17.65,14.89 28.45,34.44 32.41,58.54 15.88,-26.54 34.95,-46.69 57.22,-60.37 22.27,-13.67 47.52,-20.56 75.74,-20.56 19.41,0 35.83,3.24 49.29,9.62 13.45,6.49 24.26,15.69 32.41,27.55 8.16,11.86 14.11,26.14 17.86,42.85 3.75,16.81 5.63,35.46 5.63,55.91l0 184.34z"/>
   <polygon class="fil1" points="3276.88,1836.67 3099.66,1836.67 3098.94,2246.87 3050.43,2246.87 3051.13,1836.67 2872.49,1836.67 2873.19,1797.42 3277.58,1797.42 "/>
   <path class="fil1" d="M3279.69 2111.29l0 -192.97 47.82 0 0 185.26c0,37.45 7.15,65.41 21.45,83.87 14.31,18.46 35.51,27.75 63.64,27.75 18.75,0 36.93,-3.69 54.51,-10.97 17.6,-7.39 33.18,-17.94 46.77,-31.55 13.6,-13.62 23.91,-29.44 30.93,-47.48l0 -206.89 47.82 0 0 276.74c0,5.91 1.4,10.13 4.21,12.87 2.82,2.75 7.03,4.32 12.67,4.75l0 34.18c-5.64,0.42 -10.09,0.74 -13.38,0.94 -3.27,0.21 -6.34,0.31 -9.14,0.31 -9.38,-0.84 -17.47,-4.22 -24.27,-10.13 -6.8,-5.79 -10.43,-12.99 -10.89,-21.42l-1.41 -44.1c-15.93,25.22 -37.61,44.94 -65.04,59.29 -27.43,14.25 -57.09,21.42 -88.97,21.42 -38.44,0 -67.52,-12.03 -87.2,-35.98 -19.7,-23.96 -29.54,-59.29 -29.54,-105.93l0.02 0.04z"/>
   <path class="fil1" d="M3876.77 2233.58c-3.74,1.26 -9.61,3.58 -17.57,6.97 -7.99,3.38 -17.6,6.34 -28.86,8.85 -11.25,2.53 -23.44,3.8 -36.56,3.8 -13.6,0 -26.37,-2.32 -38.33,-6.97 -11.97,-4.65 -21.45,-11.81 -28.48,-21.31 -7.03,-9.61 -10.55,-21.32 -10.55,-35.35l0 -237.06 -50.62 0 0 -34.2 50.62 0 0 -111.41 47.82 0 0 111.41 84.39 0 0 34.2 -84.39 0 0 225.14c0.93,11.92 5.76,20.78 14.42,26.8 8.67,5.91 18.63,8.85 29.89,8.85 13.12,0 25.08,-2 35.86,-6.01 10.79,-4.01 17.36,-6.86 19.7,-8.55l12.65 34.83 0.01 0.01z"/>
   <path class="fil1" d="M4086.33 2253.19c-26.26,0 -50.52,-4.53 -72.79,-13.62 -22.27,-8.97 -41.49,-21.42 -57.67,-37.14 -16.17,-15.82 -28.72,-33.86 -37.62,-54.24 -8.9,-20.45 -13.36,-41.99 -13.36,-64.66 0,-23.1 4.45,-44.94 13.36,-65.62 8.9,-20.58 21.58,-38.72 37.97,-54.55 16.41,-15.72 35.75,-28.18 58.01,-37.13 22.28,-9.08 46.31,-13.4 72.1,-12.99 26.71,-0.42 51.11,3.9 73.14,12.99 22.04,8.96 41.26,21.41 57.67,37.13 16.41,15.83 29.06,33.97 37.97,54.55 8.9,20.68 13.38,42.52 13.38,65.62 0,22.68 -4.46,44.21 -13.38,64.66 -8.9,20.37 -21.45,38.42 -37.61,54.24 -16.18,15.72 -35.41,28.18 -57.67,37.14 -22.28,9.07 -46.78,13.62 -73.51,13.62l0.01 0zm-132.91 -169.01c0,24.38 5.97,46.53 17.94,66.47 11.95,19.94 28.01,35.66 48.16,47.27 20.17,11.5 42.19,17.51 66.1,17.94 24.86,-0.42 47.36,-6.54 67.52,-18.25 20.17,-11.81 36.34,-27.85 48.53,-48.21 12.18,-20.35 18.28,-42.51 18.28,-66.47 0,-24.37 -6.1,-46.63 -18.28,-66.79 -12.19,-20.15 -28.25,-36.19 -48.18,-48.21 -19.93,-11.92 -42.31,-17.73 -67.16,-17.31 -24.38,0 -46.65,6.01 -66.81,17.94 -20.17,12.03 -36.22,28.07 -48.16,48.21 -11.97,20.15 -17.94,42.62 -17.94,67.41z"/>
   <path class="fil1" d="M4531.51 1955.05c-31.88,0.84 -59.89,8.85 -84.04,24.04 -24.15,15.2 -41.15,36.09 -50.99,62.67l0 205.1 -47.82 0 0 -328.54 45 0 0 77.86c12.66,-23.21 29.42,-41.99 50.29,-56.33 20.86,-14.35 43.01,-22.37 66.47,-24.06 4.69,-0.42 8.78,-0.63 12.31,-0.63 3.51,0 6.44,0.21 8.78,0.63l0 39.25 0 0.01z"/>
  </g>
 </g>
</svg>
