<?xml version="1.0" encoding="UTF-8"?>
<!DOCTYPE svg PUBLIC "-//W3C//DTD SVG 1.1//EN" "http://www.w3.org/Graphics/SVG/1.1/DTD/svg11.dtd">
<!-- Creator: CorelDRAW 2021 (64 Bit) -->
<svg xmlns="http://www.w3.org/2000/svg" xml:space="preserve" width="48.7116mm" height="28.6471mm" version="1.1" style="shape-rendering:geometricPrecision; text-rendering:geometricPrecision; image-rendering:optimizeQuality; fill-rule:evenodd; clip-rule:evenodd"
viewBox="0 0 3867.45 2274.43"
 xmlns:xlink="http://www.w3.org/1999/xlink"
 xmlns:xodm="http://www.corel.com/coreldraw/odm/2003">
 <defs>
  <style type="text/css">
   <![CDATA[
    .fil2 {fill:#0D3C79}
    .fil3 {fill:#103E7A}
    .fil0 {fill:#113D76}
    .fil1 {fill:#E8D60B}
    .fil4 {fill:#133F7B;fill-rule:nonzero}
    .fil5 {fill:#E6D60A;fill-rule:nonzero}
   ]]>
  </style>
 </defs>
 <g id="Camada_x0020_1">
  <metadata id="CorelCorpID_0Corel-Layer"/>
  <g id="_2611013811280">
   <path class="fil0" d="M455.12 1184.31c34.8,-284.04 268.76,-525.64 540.23,-599.55 295.73,-80.51 625.62,32.08 800.98,286 331.39,545.94 -72.5,1160.42 -540.68,1160.99l-288.17 0.36 39.28 56.4 -39.28 44.91c288.17,-0.33 189.06,1.17 288.17,-0.33 239.56,0.52 510.79,-214.46 613.62,-371.78 190.64,-291.68 194.43,-666.83 -18.99,-948.72 -209.21,-276.32 -558.8,-395.24 -894.07,-297.36 -160.52,46.86 -279.51,130.4 -382.33,245.14 -111.3,124.22 -165.95,257.14 -197.65,423.87l-128.65 0 165.9 229.15 170.06 -229.05 -128.43 -0.04z"/>
   <path class="fil1" d="M3576.67 2133.32c3.91,123.44 -13.66,192.51 127.39,94.87 39.08,-27.06 163.39,-118.85 163.39,-161.18 0,-38.62 -127.16,-119.12 -163.39,-143.74 -128.44,-87.32 -128.16,-14.12 -127.39,107.57 -430.19,0.64 -1506.16,0.6 -1911.3,0.71l-189.72 101.9c700.32,0 1400.75,-4.55 2101.03,-0.13z"/>
   <path class="fil2" d="M1634.99 1254.32c-16.13,81.78 -89.8,125.13 -173.29,110.8 -77.87,-13.36 -123.85,-97.89 -106.67,-174.45 40.05,-178.47 316.59,-122.11 279.95,63.66zm-617.69 -3.9c-30,184.3 -318.6,141.17 -280.84,-55.48 17.72,-92.29 152.39,-160.68 255.25,-55.98 23.56,26.25 31.58,74.69 25.59,111.46zm-23.43 -180.69c-228.44,-133.55 -412.34,132.35 -248.84,298.7 99.68,101.43 316.48,46.99 323.21,-127.56 3.91,-101.58 -13.58,-106.75 -30.2,-125.51 64.94,-34.93 101.79,-62.85 140.43,-62.78 38.97,0.08 79.78,27.42 153.1,62.7 -11.31,18.23 -19.86,37.74 -26.32,64.95 -17.77,74.95 11.27,150.55 69.12,199.13 72.5,60.9 207.16,50.17 265.47,-24.72 63.66,-81.74 68.92,-194.88 -8.17,-267.29 -35.82,-33.66 -70.14,-49.14 -131.63,-53.61 -67.85,-0.8 -66.26,3.45 -138.5,35.98 -183.29,-74.34 -182.66,-79.89 -367.67,0z"/>
   <path class="fil3" d="M798.59 129.45c12.04,12.31 64.77,27.78 83.54,33.35 -11.64,33.24 -20.7,34.76 -27.19,78.18 -6.26,41.9 -41.06,37.4 -11.33,77.48 12.5,16.85 8.97,17.76 3.05,39.68 -3.48,12.86 -7.47,26.94 -13.32,38.85 -12.27,24.91 -37.19,45.87 -45.21,61.77 29.58,41.52 104.96,37.44 105.98,-57.05 0.18,-16.59 -0.9,-33.41 -2.69,-49.87 -7.1,-64.94 30.34,-34.26 0.77,-82.22 -9.58,-15.55 -6.32,-25.71 -2.03,-44.78 14.39,-64.03 66.98,-71.14 122.56,-94.26 25.63,-10.66 51.85,-20.4 77.89,-30.27 27.2,-10.32 57.55,-30.87 71.62,-1.56 -15.75,36.81 -173.82,60.78 -195.73,90.87 16.98,12.58 104.54,37.32 132.23,46.58 66.12,22.1 70.54,6.5 134.58,-14.87 43.22,-14.43 88.34,-29.82 132.44,-44.79 26.32,-8.95 116.23,-29.41 125.37,-52.01 -9.95,-23.33 -136.78,-55.48 -167.31,-65.91 -28.09,-9.61 -160.39,-58.36 -178.75,-58.6 -15.85,-0.21 -153.11,48.92 -178.84,58.04 -28.8,10.21 -57.98,20.02 -87.07,29.8 -24.38,8.2 -75.61,14.26 -80.56,41.6z"/>
   <polygon class="fil3" points="-0,2132.97 903.39,2133.43 950.32,2088.51 903.39,2032.11 0.09,2030.75 0.04,2080.58 "/>
   <path class="fil3" d="M938.99 348.18c68.86,66.34 298.79,75.64 397.87,11.42 42.9,-27.83 29.7,-91.9 30.31,-141.56 -58.05,5.95 -165.03,63.88 -217.74,68.14 -39.05,3.15 -186.11,-67.74 -219.32,-64.91 -16.29,43.6 2.34,29.52 15.21,60.43 14.31,34.43 -6.98,43.28 -6.33,66.49z"/>
   <path class="fil4" d="M2424.77 903.6c-5.26,-5.46 -11.39,-10.37 -18.38,-14.71 -7,-4.34 -14.89,-8.12 -23.64,-11.34 -8.76,-3.22 -18.12,-5.8 -28.09,-7.73 -9.99,-1.93 -20.58,-2.89 -31.78,-2.89 -32.56,0 -56.45,5.71 -71.69,17.13 -15.23,11.34 -22.84,26.86 -22.84,46.49 0,13.51 3.59,24.04 10.77,31.77 7.18,7.72 18.48,13.99 33.87,18.82 15.41,4.82 35.01,9.81 58.82,14.96 26.61,5.07 49.54,11.18 68.8,18.25 19.26,7.07 34.14,16.65 44.64,28.71 10.51,11.98 15.75,28.3 15.75,48.9 0,15.68 -3.32,29.35 -9.97,40.93 -6.65,11.58 -15.93,21.23 -27.83,28.87 -11.91,7.73 -26.09,13.43 -42.55,17.13 -16.45,3.7 -34.48,5.55 -54.09,5.55 -19.25,0 -37.72,-1.85 -55.4,-5.55 -17.68,-3.7 -34.4,-9.17 -50.15,-16.4 -15.75,-7.24 -30.46,-16.49 -44.11,-27.75l18.38 -27.5c6.65,6.43 14.61,12.46 23.89,18.09 9.28,5.63 19.61,10.69 30.99,15.2 11.39,4.51 23.64,7.96 36.76,10.38 13.13,2.41 26.7,3.62 40.71,3.62 29.76,0 52.96,-4.99 69.58,-14.96 16.63,-9.89 24.95,-24.69 24.95,-44.31 0,-14.08 -4.2,-25.41 -12.6,-33.94 -8.41,-8.52 -21.01,-15.52 -37.82,-20.98 -16.81,-5.39 -37.46,-10.69 -61.97,-15.85 -25.91,-5.46 -47.8,-11.58 -65.64,-18.33 -17.86,-6.76 -31.25,-15.68 -40.17,-26.7 -8.94,-11.1 -13.39,-25.81 -13.39,-44.15 0,-21.15 5.68,-39.08 17.06,-53.72 11.39,-14.55 27.05,-25.65 47,-33.21 19.96,-7.56 42.9,-11.34 68.8,-11.34 16.45,0 31.77,1.52 45.95,4.58 14.18,3.06 27.31,7.48 39.39,13.27 12.08,5.8 23.37,13.03 33.87,21.71l-17.85 27.02z"/>
   <path class="fil4" d="M2636.94 1186.84c-19.95,0 -38.24,-3.46 -54.88,-10.3 -16.63,-6.92 -31.16,-16.4 -43.59,-28.55 -12.43,-12.14 -22.06,-26.13 -28.89,-41.74 -6.83,-15.68 -10.23,-32.32 -10.23,-49.94 0,-23.64 5.78,-45.27 17.33,-64.73 11.55,-19.55 27.65,-35.07 48.31,-46.57 20.65,-11.5 44.46,-17.29 71.42,-17.29 25.56,0 48.14,5.39 67.75,16.16 19.6,10.77 34.13,25.33 43.59,43.67l-34.66 10.13c-7.7,-12.86 -18.47,-22.91 -32.29,-30.15 -13.84,-7.24 -29.15,-10.85 -45.95,-10.85 -18.21,0 -34.84,4.34 -49.9,12.94 -15.05,8.61 -27.04,20.43 -35.97,35.47 -8.92,14.96 -13.39,32.09 -13.39,51.23 0,18.82 4.55,35.95 13.66,51.23 9.1,15.35 21.18,27.58 36.24,36.66 15.05,9.09 31.69,13.67 49.89,13.67 11.9,0 23.37,-1.93 34.39,-5.79 11.04,-3.86 20.66,-9.09 28.88,-15.68 8.23,-6.6 13.74,-13.75 16.55,-21.48l35.19 9.65c-4.91,11.9 -13.04,22.6 -24.42,32.08 -11.39,9.5 -24.68,16.89 -39.92,22.2 -15.22,5.3 -31.59,7.96 -49.1,7.96z"/>
   <path class="fil4" d="M2943.11 959.57c-23.81,0.64 -44.73,6.76 -62.75,18.34 -18.04,11.58 -30.72,27.5 -38.08,47.76l0 156.34 -35.71 0 0 -250.43 33.62 0 0 59.35c9.46,-17.69 21.97,-32 37.55,-42.94 15.58,-10.94 32.12,-17.05 49.63,-18.34 3.49,-0.32 6.57,-0.48 9.19,-0.48 2.61,0 4.81,0.17 6.56,0.48l0 29.92z"/>
   <path class="fil4" d="M2988.28 1078.67l0 -147.09 35.71 0 0 141.22c0,28.55 5.34,49.86 16.01,63.93 10.69,14.08 26.53,21.15 47.53,21.15 14.01,0 27.58,-2.81 40.71,-8.36 13.13,-5.63 24.77,-13.67 34.93,-24.05 10.15,-10.37 17.86,-22.44 23.1,-36.19l0 -157.7 35.72 0 0 210.94c0,4.5 1.05,7.72 3.14,9.81 2.1,2.1 5.26,3.3 9.46,3.62l0 26.06c-4.2,0.33 -7.53,0.56 -9.98,0.72 -2.45,0.16 -4.72,0.25 -6.83,0.25 -7,-0.64 -13.04,-3.22 -18.12,-7.73 -5.07,-4.42 -7.79,-9.89 -8.14,-16.32l-1.06 -33.62c-11.89,19.22 -28.09,34.26 -48.57,45.2 -20.49,10.85 -42.64,16.32 -66.44,16.32 -28.72,0 -50.42,-9.17 -65.12,-27.42 -14.71,-18.26 -22.06,-45.2 -22.06,-80.74z"/>
   <path class="fil4" d="M3709.87 1182.01l-35.72 0 0 -139.53c0,-29.03 -5.07,-50.5 -15.23,-64.25 -10.15,-13.75 -25.2,-20.59 -45.17,-20.59 -20.65,0 -39.12,6.68 -55.39,20.1 -16.28,13.43 -27.75,30.73 -34.4,51.79l0 152.48 -35.72 0 0 -139.53c0,-29.35 -4.9,-50.9 -14.7,-64.49 -9.81,-13.59 -24.86,-20.35 -45.17,-20.35 -20.31,0 -38.69,6.52 -55.14,19.63 -16.45,13.11 -28.02,30.31 -34.66,51.71l0 153.03 -35.71 0 0 -250.43 32.56 0 0 57.1c11.55,-19.54 26.35,-34.58 44.37,-45.11 18.03,-10.54 38.09,-15.85 60.13,-15.85 22.76,0 41.14,5.95 55.14,17.78 14.01,11.82 22.59,27.34 25.73,46.48 12.61,-21.07 27.75,-37.07 45.43,-47.93 17.68,-10.85 37.73,-16.32 60.13,-16.32 15.41,0 28.45,2.57 39.13,7.64 10.68,5.15 19.26,12.46 25.73,21.87 6.48,9.42 11.2,20.75 14.18,34.02 2.98,13.35 4.47,28.15 4.47,44.39l0 146.36z"/>
   <polygon class="fil5" points="2601.68,1458.23 2460.98,1458.23 2460.41,1783.91 2421.89,1783.91 2422.45,1458.23 2280.62,1458.23 2281.17,1427.07 2602.24,1427.07 "/>
   <path class="fil5" d="M2603.91 1676.27l0 -153.21 37.97 0 0 147.09c0,29.73 5.68,51.93 17.03,66.59 11.36,14.66 28.19,22.03 50.53,22.03 14.89,0 29.32,-2.93 43.28,-8.71 13.97,-5.87 26.34,-14.24 37.13,-25.05 10.8,-10.81 18.98,-23.37 24.56,-37.7l0 -164.26 37.97 0 0 219.72c0,4.69 1.11,8.04 3.34,10.22 2.24,2.18 5.58,3.43 10.06,3.77l0 27.14c-4.48,0.33 -8.01,0.59 -10.62,0.75 -2.6,0.17 -5.03,0.25 -7.26,0.25 -7.45,-0.67 -13.87,-3.35 -19.27,-8.04 -5.4,-4.6 -8.28,-10.31 -8.65,-17.01l-1.12 -35.01c-12.65,20.02 -29.86,35.68 -51.64,47.07 -21.78,11.31 -45.33,17.01 -70.64,17.01 -30.52,0 -53.61,-9.55 -69.23,-28.57 -15.64,-19.02 -23.45,-47.07 -23.45,-84.1z"/>
   <path class="fil5" d="M3077.96 1773.36c-2.97,1 -7.63,2.84 -13.95,5.53 -6.34,2.68 -13.97,5.03 -22.91,7.03 -8.93,2.01 -18.61,3.02 -29.03,3.02 -10.8,0 -20.94,-1.84 -30.43,-5.53 -9.5,-3.69 -17.03,-9.38 -22.61,-16.92 -5.58,-7.63 -8.38,-16.93 -8.38,-28.07l0 -188.21 -40.19 0 0 -27.15 40.19 0 0 -88.45 37.97 0 0 88.45 67 0 0 27.15 -67 0 0 178.75c0.74,9.46 4.57,16.5 11.45,21.28 6.88,4.69 14.79,7.03 23.73,7.03 10.42,0 19.91,-1.59 28.47,-4.77 8.57,-3.18 13.78,-5.45 15.64,-6.79l10.04 27.65z"/>
   <path class="fil5" d="M3244.34 1788.93c-20.85,0 -40.11,-3.6 -57.79,-10.81 -17.68,-7.12 -32.94,-17.01 -45.79,-29.49 -12.84,-12.56 -22.8,-26.88 -29.87,-43.06 -7.07,-16.24 -10.61,-33.34 -10.61,-51.34 0,-18.34 3.53,-35.68 10.61,-52.1 7.07,-16.34 17.13,-30.74 30.15,-43.31 13.03,-12.48 28.38,-22.37 46.06,-29.48 17.69,-7.21 36.77,-10.64 57.24,-10.31 21.21,-0.33 40.58,3.1 58.07,10.31 17.5,7.11 32.76,17 45.79,29.48 13.03,12.57 23.07,26.97 30.15,43.31 7.07,16.42 10.62,33.76 10.62,52.1 0,18.01 -3.54,35.1 -10.62,51.34 -7.07,16.17 -17.03,30.5 -29.86,43.06 -12.85,12.48 -28.11,22.37 -45.79,29.49 -17.69,7.2 -37.14,10.81 -58.36,10.81zm-105.52 -134.19c0,19.36 4.74,36.94 14.24,52.77 9.49,15.83 22.24,28.31 38.24,37.53 16.01,9.13 33.5,13.9 52.48,14.24 19.74,-0.33 37.6,-5.19 53.61,-14.49 16.01,-9.38 28.85,-22.11 38.53,-38.28 9.67,-16.16 14.51,-33.75 14.51,-52.77 0,-19.35 -4.84,-37.02 -14.51,-53.03 -9.68,-16 -22.43,-28.73 -38.25,-38.28 -15.82,-9.46 -33.59,-14.08 -53.32,-13.74 -19.36,0 -37.04,4.77 -53.04,14.24 -16.01,9.55 -28.76,22.29 -38.24,38.28 -9.5,16 -14.24,33.84 -14.24,53.52z"/>
   <path class="fil5" d="M3597.79 1552.22c-25.31,0.67 -47.55,7.03 -66.72,19.09 -19.17,12.07 -32.67,28.65 -40.48,49.76l0 162.84 -37.97 0 0 -260.84 35.73 0 0 61.82c10.05,-18.43 23.36,-33.34 39.93,-44.72 16.56,-11.39 34.15,-17.76 52.77,-19.1 3.72,-0.33 6.97,-0.5 9.77,-0.5 2.79,0 5.11,0.17 6.97,0.5l0 31.16z"/>
  </g>
 </g>
</svg>
