<svg xmlns="http://www.w3.org/2000/svg" xmlns:xlink="http://www.w3.org/1999/xlink" width="100" zoomAndPan="magnify" viewBox="0 0 75 74.999997" height="100" preserveAspectRatio="xMidYMid meet" version="1.0"><defs><clipPath id="79b18b21e8"><path d="M 12.789062 12.789062 L 62.289062 12.789062 L 62.289062 62.289062 L 12.789062 62.289062 Z M 12.789062 12.789062 " clip-rule="nonzero"/></clipPath></defs><path fill="#ffffff" d="M 72.867188 30.269531 L 65.992188 29.558594 C 65.359375 27.265625 64.410156 25.050781 63.304688 22.996094 L 67.648438 17.625 C 68.441406 16.675781 68.363281 15.253906 67.492188 14.382812 L 60.617188 7.507812 C 59.746094 6.636719 58.324219 6.558594 57.375 7.351562 L 52.003906 11.695312 C 49.949219 10.511719 47.8125 9.640625 45.441406 9.007812 L 44.730469 2.132812 C 44.574219 0.949219 43.546875 0 42.359375 0 L 32.640625 0 C 31.375 0 30.347656 0.949219 30.269531 2.132812 L 29.558594 9.007812 C 27.265625 9.640625 25.050781 10.589844 22.996094 11.695312 L 17.625 7.351562 C 16.675781 6.558594 15.253906 6.636719 14.382812 7.507812 L 7.507812 14.382812 C 6.636719 15.253906 6.558594 16.675781 7.351562 17.625 L 11.695312 22.996094 C 10.511719 25.050781 9.640625 27.1875 9.007812 29.558594 L 2.132812 30.269531 C 0.871094 30.425781 0 31.453125 0 32.640625 L 0 42.359375 C 0 43.625 0.949219 44.652344 2.132812 44.730469 L 9.007812 45.441406 C 9.640625 47.734375 10.589844 49.949219 11.695312 52.003906 L 7.351562 57.375 C 6.558594 58.324219 6.636719 59.746094 7.507812 60.617188 L 14.382812 67.492188 C 15.253906 68.363281 16.675781 68.441406 17.625 67.648438 L 22.996094 63.304688 C 25.050781 64.488281 27.1875 65.359375 29.558594 65.992188 L 30.269531 72.867188 C 30.425781 74.128906 31.453125 75 32.640625 75 L 42.359375 75 C 43.625 75 44.652344 74.050781 44.730469 72.867188 L 45.441406 65.992188 C 47.734375 65.359375 49.949219 64.410156 52.003906 63.304688 L 57.375 67.648438 C 58.324219 68.441406 59.746094 68.363281 60.617188 67.492188 L 67.492188 60.617188 C 68.363281 59.746094 68.441406 58.324219 67.648438 57.375 L 63.304688 52.003906 C 64.488281 49.949219 65.359375 47.8125 65.992188 45.441406 L 72.867188 44.730469 C 74.128906 44.574219 75 43.546875 75 42.359375 L 75 32.71875 C 75 31.453125 74.050781 30.425781 72.867188 30.269531 Z M 37.460938 18.492188 C 42.125 18.492188 45.835938 22.207031 45.835938 26.871094 C 45.835938 31.453125 42.042969 35.167969 37.460938 35.167969 C 32.875 35.167969 29.082031 31.453125 29.082031 26.792969 C 29.082031 22.207031 32.796875 18.492188 37.460938 18.492188 Z M 50.5 53.820312 L 24.421875 53.820312 C 23.234375 53.820312 22.207031 52.792969 22.367188 51.605469 C 22.523438 49 23.15625 46.390625 24.023438 43.863281 C 25.289062 40.382812 27.898438 37.777344 31.21875 36.433594 C 33.035156 37.617188 35.246094 38.328125 37.539062 38.328125 C 39.910156 38.328125 42.042969 37.617188 43.863281 36.433594 C 47.101562 37.699219 49.789062 40.382812 51.054688 43.863281 C 51.921875 46.3125 52.476562 48.917969 52.714844 51.605469 C 52.714844 52.792969 51.6875 53.820312 50.5 53.820312 Z M 50.5 53.820312 " fill-opacity="1" fill-rule="nonzero"/><g clip-path="url(#79b18b21e8)"><path fill="#000000" d="M 55.039062 20.035156 C 50.363281 15.363281 44.148438 12.789062 37.539062 12.789062 C 30.925781 12.789062 24.710938 15.363281 20.035156 20.035156 C 15.363281 24.710938 12.789062 30.925781 12.789062 37.539062 C 12.789062 44.148438 15.363281 50.363281 20.035156 55.039062 C 24.710938 59.714844 30.925781 62.289062 37.539062 62.289062 C 44.148438 62.289062 50.363281 59.714844 55.039062 55.039062 C 59.714844 50.363281 62.289062 44.148438 62.289062 37.539062 C 62.289062 30.925781 59.714844 24.710938 55.039062 20.035156 Z M 55.039062 20.035156 " fill-opacity="1" fill-rule="nonzero"/></g><path fill="#ffffff" d="M 43.449219 25.78125 C 43.835938 26.171875 44.183594 26.59375 44.488281 27.046875 C 44.792969 27.503906 45.050781 27.988281 45.261719 28.492188 C 45.46875 29 45.628906 29.523438 45.734375 30.0625 C 45.84375 30.601562 45.898438 31.144531 45.898438 31.691406 C 45.898438 32.242188 45.84375 32.785156 45.734375 33.324219 C 45.628906 33.863281 45.46875 34.382812 45.261719 34.890625 C 45.050781 35.398438 44.792969 35.878906 44.488281 36.335938 C 44.183594 36.792969 43.835938 37.214844 43.449219 37.601562 C 43.058594 37.992188 42.636719 38.339844 42.183594 38.644531 C 41.726562 38.949219 41.242188 39.207031 40.738281 39.414062 C 40.230469 39.625 39.707031 39.785156 39.167969 39.890625 C 38.628906 40 38.085938 40.050781 37.539062 40.050781 C 36.988281 40.050781 36.445312 40 35.90625 39.890625 C 35.367188 39.785156 34.847656 39.625 34.339844 39.414062 C 33.832031 39.207031 33.351562 38.949219 32.894531 38.644531 C 32.4375 38.339844 32.015625 37.992188 31.628906 37.601562 C 31.238281 37.214844 30.890625 36.792969 30.585938 36.335938 C 30.28125 35.878906 30.023438 35.398438 29.816406 34.890625 C 29.605469 34.382812 29.445312 33.863281 29.339844 33.324219 C 29.230469 32.785156 29.179688 32.242188 29.179688 31.691406 C 29.179688 31.144531 29.230469 30.601562 29.339844 30.0625 C 29.445312 29.523438 29.605469 29 29.816406 28.492188 C 30.023438 27.988281 30.28125 27.503906 30.585938 27.046875 C 30.890625 26.59375 31.238281 26.171875 31.628906 25.78125 C 32.015625 25.394531 32.4375 25.046875 32.894531 24.742188 C 33.351562 24.4375 33.832031 24.179688 34.339844 23.96875 C 34.847656 23.761719 35.367188 23.601562 35.90625 23.496094 C 36.445312 23.386719 36.988281 23.332031 37.539062 23.332031 C 38.085938 23.332031 38.628906 23.386719 39.167969 23.496094 C 39.707031 23.601562 40.230469 23.761719 40.738281 23.96875 C 41.242188 24.179688 41.726562 24.4375 42.183594 24.742188 C 42.636719 25.046875 43.058594 25.394531 43.449219 25.78125 Z M 43.449219 25.78125 " fill-opacity="1" fill-rule="nonzero"/><path fill="#ffffff" d="M 37.777344 43.765625 L 37.296875 43.765625 C 30.464844 43.765625 24.714844 48.378906 22.980469 54.65625 C 26.90625 58 31.988281 60.019531 37.539062 60.019531 C 43.085938 60.019531 48.167969 58 52.09375 54.65625 C 50.359375 48.378906 44.609375 43.765625 37.777344 43.765625 Z M 37.777344 43.765625 " fill-opacity="1" fill-rule="nonzero"/></svg>