<svg xmlns="http://www.w3.org/2000/svg" xmlns:xlink="http://www.w3.org/1999/xlink" width="100" zoomAndPan="magnify" viewBox="0 0 75 74.999997" height="100" preserveAspectRatio="xMidYMid meet" version="1.0"><defs><clipPath id="c2efc27866"><path d="M 12.789062 12.789062 L 62.289062 12.789062 L 62.289062 62.289062 L 12.789062 62.289062 Z M 12.789062 12.789062 " clip-rule="nonzero"/></clipPath></defs><path fill="#ffffff" d="M 72.867188 30.269531 L 65.992188 29.558594 C 65.359375 27.265625 64.410156 25.050781 63.304688 22.996094 L 67.648438 17.625 C 68.441406 16.675781 68.363281 15.253906 67.492188 14.382812 L 60.617188 7.507812 C 59.746094 6.636719 58.324219 6.558594 57.375 7.351562 L 52.003906 11.695312 C 49.949219 10.511719 47.8125 9.640625 45.441406 9.007812 L 44.730469 2.132812 C 44.574219 0.949219 43.546875 0 42.359375 0 L 32.640625 0 C 31.375 0 30.347656 0.949219 30.269531 2.132812 L 29.558594 9.007812 C 27.265625 9.640625 25.050781 10.589844 22.996094 11.695312 L 17.625 7.351562 C 16.675781 6.558594 15.253906 6.636719 14.382812 7.507812 L 7.507812 14.382812 C 6.636719 15.253906 6.558594 16.675781 7.351562 17.625 L 11.695312 22.996094 C 10.511719 25.050781 9.640625 27.1875 9.007812 29.558594 L 2.132812 30.269531 C 0.871094 30.425781 0 31.453125 0 32.640625 L 0 42.359375 C 0 43.625 0.949219 44.652344 2.132812 44.730469 L 9.007812 45.441406 C 9.640625 47.734375 10.589844 49.949219 11.695312 52.003906 L 7.351562 57.375 C 6.558594 58.324219 6.636719 59.746094 7.507812 60.617188 L 14.382812 67.492188 C 15.253906 68.363281 16.675781 68.441406 17.625 67.648438 L 22.996094 63.304688 C 25.050781 64.488281 27.1875 65.359375 29.558594 65.992188 L 30.269531 72.867188 C 30.425781 74.128906 31.453125 75 32.640625 75 L 42.359375 75 C 43.625 75 44.652344 74.050781 44.730469 72.867188 L 45.441406 65.992188 C 47.734375 65.359375 49.949219 64.410156 52.003906 63.304688 L 57.375 67.648438 C 58.324219 68.441406 59.746094 68.363281 60.617188 67.492188 L 67.492188 60.617188 C 68.363281 59.746094 68.441406 58.324219 67.648438 57.375 L 63.304688 52.003906 C 64.488281 49.949219 65.359375 47.8125 65.992188 45.441406 L 72.867188 44.730469 C 74.128906 44.574219 75 43.546875 75 42.359375 L 75 32.71875 C 75 31.453125 74.050781 30.425781 72.867188 30.269531 Z M 37.460938 18.492188 C 42.125 18.492188 45.835938 22.207031 45.835938 26.871094 C 45.835938 31.453125 42.042969 35.167969 37.460938 35.167969 C 32.875 35.167969 29.082031 31.453125 29.082031 26.792969 C 29.082031 22.207031 32.796875 18.492188 37.460938 18.492188 Z M 50.5 53.820312 L 24.421875 53.820312 C 23.234375 53.820312 22.207031 52.792969 22.367188 51.605469 C 22.523438 49 23.15625 46.390625 24.023438 43.863281 C 25.289062 40.382812 27.898438 37.777344 31.21875 36.433594 C 33.035156 37.617188 35.246094 38.328125 37.539062 38.328125 C 39.910156 38.328125 42.042969 37.617188 43.863281 36.433594 C 47.101562 37.699219 49.789062 40.382812 51.054688 43.863281 C 51.921875 46.3125 52.476562 48.917969 52.714844 51.605469 C 52.714844 52.792969 51.6875 53.820312 50.5 53.820312 Z M 50.5 53.820312 " fill-opacity="1" fill-rule="nonzero"/><g clip-path="url(#c2efc27866)"><path fill="#ffffff" d="M 54.96875 20.023438 C 50.300781 15.359375 44.097656 12.789062 37.496094 12.789062 C 30.894531 12.789062 24.691406 15.359375 20.023438 20.023438 C 15.359375 24.691406 12.789062 30.898438 12.789062 37.496094 C 12.789062 44.097656 15.359375 50.300781 20.023438 54.96875 C 24.691406 59.636719 30.894531 62.207031 37.496094 62.207031 C 44.097656 62.207031 50.300781 59.636719 54.96875 54.96875 C 59.636719 50.300781 62.207031 44.097656 62.207031 37.496094 C 62.207031 30.894531 59.636719 24.691406 54.96875 20.023438 Z M 54.96875 20.023438 " fill-opacity="1" fill-rule="nonzero"/></g><path fill="#000000" d="M 43.398438 25.761719 C 43.785156 26.148438 44.132812 26.570312 44.433594 27.023438 C 44.738281 27.480469 44.996094 27.960938 45.207031 28.46875 C 45.417969 28.972656 45.574219 29.496094 45.679688 30.035156 C 45.789062 30.570312 45.839844 31.113281 45.839844 31.660156 C 45.839844 32.210938 45.789062 32.753906 45.679688 33.289062 C 45.574219 33.828125 45.417969 34.347656 45.207031 34.855469 C 44.996094 35.359375 44.738281 35.84375 44.433594 36.296875 C 44.132812 36.753906 43.785156 37.175781 43.398438 37.5625 C 43.011719 37.949219 42.589844 38.296875 42.132812 38.601562 C 41.675781 38.90625 41.195312 39.160156 40.691406 39.371094 C 40.183594 39.582031 39.664062 39.738281 39.125 39.847656 C 38.585938 39.953125 38.042969 40.007812 37.496094 40.007812 C 36.949219 40.007812 36.40625 39.953125 35.867188 39.847656 C 35.332031 39.738281 34.808594 39.582031 34.304688 39.371094 C 33.796875 39.160156 33.316406 38.90625 32.859375 38.601562 C 32.40625 38.296875 31.984375 37.949219 31.597656 37.5625 C 31.207031 37.175781 30.863281 36.753906 30.558594 36.296875 C 30.253906 35.84375 29.996094 35.359375 29.785156 34.855469 C 29.578125 34.347656 29.417969 33.828125 29.3125 33.289062 C 29.203125 32.753906 29.152344 32.210938 29.152344 31.660156 C 29.152344 31.113281 29.203125 30.570312 29.3125 30.035156 C 29.417969 29.496094 29.578125 28.972656 29.785156 28.46875 C 29.996094 27.960938 30.253906 27.480469 30.558594 27.023438 C 30.863281 26.570312 31.207031 26.148438 31.597656 25.761719 C 31.984375 25.375 32.40625 25.027344 32.859375 24.722656 C 33.316406 24.417969 33.796875 24.160156 34.304688 23.953125 C 34.808594 23.742188 35.332031 23.582031 35.867188 23.476562 C 36.40625 23.371094 36.949219 23.316406 37.496094 23.316406 C 38.042969 23.316406 38.585938 23.371094 39.125 23.476562 C 39.664062 23.582031 40.183594 23.742188 40.691406 23.953125 C 41.195312 24.160156 41.675781 24.417969 42.132812 24.722656 C 42.589844 25.027344 43.011719 25.375 43.398438 25.761719 Z M 43.398438 25.761719 " fill-opacity="1" fill-rule="nonzero"/><path fill="#000000" d="M 37.738281 43.714844 L 37.253906 43.714844 C 30.4375 43.714844 24.695312 48.316406 22.964844 54.585938 C 26.882812 57.925781 31.957031 59.941406 37.496094 59.941406 C 43.035156 59.941406 48.109375 57.925781 52.027344 54.585938 C 50.296875 48.320312 44.554688 43.714844 37.738281 43.714844 Z M 37.738281 43.714844 " fill-opacity="1" fill-rule="nonzero"/></svg>