<svg width="40" height="44" viewBox="0 0 40 44" fill="none" xmlns="http://www.w3.org/2000/svg">
<path d="M18 8.81952H12L20 0.651123L28 8.81952H22V17.866C20.5 18.8054 19.16 19.9694 18 21.3172V8.81952ZM40 21.0721L32 12.9037V19.03C24.78 18.7237 18.62 24.2782 18 31.6298C14.88 32.7529 13.24 36.2653 14.34 39.451C15.44 42.6367 18.88 44.3112 22 43.188C25.12 42.0445 26.76 38.5525 25.66 35.3668C25.06 33.6106 23.7 32.2424 22 31.6298C22.94 23.4614 30.94 23.0529 31.9 23.0529V29.1792L40 21.0721ZM17.26 22.2769C14.6 20.194 11.34 19.03 8 19.03V12.9037L0 21.0721L8 29.2405V23.1142C10.68 23.1755 13.26 24.1353 15.28 25.9731C15.78 24.6662 16.44 23.4205 17.26 22.2769Z" fill="#4141DD"/>
</svg>
