<svg width="53" height="28" viewBox="0 0 53 28" fill="none" xmlns="http://www.w3.org/2000/svg">
<path d="M33.8821 2.15546L38.8868 6.87665L49.577 6.56931C49.8798 6.55982 50.1816 6.61023 50.4649 6.71762C50.7482 6.82501 51.0074 6.98726 51.2277 7.19501C51.4479 7.40276 51.6247 7.6519 51.748 7.92806C51.8713 8.20422 51.9385 8.50192 51.9459 8.80401L52.1674 17.1691C52.1828 17.7736 51.9577 18.3594 51.5413 18.7985C51.1249 19.2376 50.5509 19.4943 49.9449 19.5126L42.4992 19.7316L29.1533 7.14175L26.0008 10.4659C25.5827 10.9068 25.006 11.1637 24.3976 11.1803C23.7891 11.1969 23.1987 10.9717 22.7563 10.5543C22.3138 10.1369 22.0556 9.56153 22.0383 8.9547C22.0211 8.34786 22.2462 7.7593 22.6643 7.31848L27.3931 2.33219C28.2292 1.45056 29.3825 0.936648 30.5995 0.903505C31.8164 0.870361 32.9972 1.3207 33.8821 2.15546ZM15.9913 1.02356L9.68628 7.67194L2.25637 7.8743C1.65033 7.89261 1.07642 8.14935 0.659996 8.58845C0.24357 9.02755 0.0184655 9.61334 0.0338465 10.2179L0.255408 18.5829C0.262752 18.885 0.329998 19.1827 0.453264 19.4589C0.57653 19.735 0.75338 19.9842 0.973607 20.1919C1.19384 20.3997 1.45308 20.5619 1.7364 20.6693C2.01972 20.7767 2.32149 20.8271 2.62431 20.8176L16.5432 20.4385L23.2162 26.7334C23.6586 27.1508 24.249 27.376 24.8575 27.3594C25.466 27.3428 26.0426 27.0859 26.4607 26.6451L28.037 24.983L29.7052 26.5567C30.1476 26.9741 30.738 27.1993 31.3465 27.1827C31.955 27.1661 32.5316 26.9092 32.9497 26.4683L34.526 24.8062L36.1942 26.38C36.6366 26.7974 37.227 27.0225 37.8355 27.006C38.444 26.9894 39.0207 26.7324 39.4387 26.2916L41.015 24.6295L29.3373 13.6134L27.761 15.2755C26.9249 16.1571 25.7715 16.671 24.5546 16.7042C23.3377 16.7373 22.1569 16.287 21.272 15.4522L17.9355 12.3048C17.0506 11.47 16.5341 10.3192 16.4996 9.10554C16.4651 7.89187 16.9154 6.71475 17.7515 5.83312L22.4803 0.846829L15.9913 1.02356Z" fill="#4141DD"/>
</svg>
