<svg width="35" height="46" viewBox="0 0 35 46" fill="none" xmlns="http://www.w3.org/2000/svg">
<path d="M17.5 0.653809C27.1559 0.653809 35 10.7112 35 23.0943C35 35.4978 27.1559 45.5348 17.5 45.5348C7.84412 45.5348 0 35.4978 0 23.0943C0 10.7112 7.84412 0.653809 17.5 0.653809ZM17.5 4.7339C10.1088 4.7339 4.11765 12.9553 4.11765 23.0943C4.11765 33.2333 10.1088 41.4547 17.5 41.4547C24.8912 41.4547 30.8824 33.2333 30.8824 23.0943C30.8824 12.9553 24.8912 4.7339 17.5 4.7339ZM9.86176 19.5854L16.5324 12.9553L18.7147 15.1177L12.0441 21.7479L9.86176 19.5854ZM10.7059 28.4188L22.3588 16.8722L24.5412 19.0142L12.8882 30.5813L10.7059 28.4188Z" fill="#4141DD"/>
</svg>
