<svg width="80" height="80" viewBox="0 0 80 80" fill="none" xmlns="http://www.w3.org/2000/svg">
<path d="M62.64 29.92L34.36 58.2L17.4 41.24L23.04 35.6L34.36 46.92L57 24.28L62.64 29.92ZM8 39.8C8 30.48 12.08 22.12 18.48 16.28L28 25.8V1.8H4L12.8 10.6C4.96 17.88 0 28.24 0 39.8C0 60.56 15.8 77.6 36 79.6V71.52C20.24 69.56 8 56.08 8 39.8ZM80 39.8C80 19.04 64.2 2 44 0V8.08C59.76 10.04 72 23.52 72 39.8C72 49.12 67.92 57.48 61.52 63.32L52 53.8V77.8H76L67.2 69C75.04 61.72 80 51.36 80 39.8Z" fill="#4141DD"/>
</svg>
