<svg width="53" height="25" viewBox="0 0 53 25" fill="none" xmlns="http://www.w3.org/2000/svg">
<path d="M12.0455 0H40.9545C42.5364 0 44.1027 0.323322 45.5641 0.951506C47.0256 1.57969 48.3534 2.50043 49.472 3.66117C50.5905 4.8219 51.4778 6.19989 52.0831 7.71646C52.6884 9.23303 53 10.8585 53 12.5C53 14.1415 52.6884 15.767 52.0831 17.2835C51.4778 18.8001 50.5905 20.1781 49.472 21.3388C48.3534 22.4996 47.0256 23.4203 45.5641 24.0485C44.1027 24.6767 42.5364 25 40.9545 25C37.0036 25 33.5105 23.025 31.3182 20H21.6818C19.4895 23.025 15.9964 25 12.0455 25C10.4636 25 8.89728 24.6767 7.43586 24.0485C5.97444 23.4203 4.64656 22.4996 3.52803 21.3388C1.26907 18.9946 0 15.8152 0 12.5C0 9.18479 1.26907 6.00537 3.52803 3.66117C5.78699 1.31696 8.8508 0 12.0455 0ZM45.1705 6.25C44.3718 6.25 43.6058 6.57924 43.0411 7.16529C42.4764 7.75134 42.1591 8.5462 42.1591 9.375C42.1591 9.78538 42.237 10.1917 42.3883 10.5709C42.5397 10.95 42.7615 11.2945 43.0411 11.5847C43.3207 11.8749 43.6527 12.1051 44.0181 12.2621C44.3834 12.4192 44.775 12.5 45.1705 12.5C45.5659 12.5 45.9575 12.4192 46.3229 12.2621C46.6882 12.1051 47.0202 11.8749 47.2998 11.5847C47.5794 11.2945 47.8013 10.95 47.9526 10.5709C48.1039 10.1917 48.1818 9.78538 48.1818 9.375C48.1818 8.5462 47.8646 7.75134 47.2998 7.16529C46.7351 6.57924 45.9691 6.25 45.1705 6.25ZM39.1477 12.5C38.3491 12.5 37.5831 12.8292 37.0184 13.4153C36.4536 14.0013 36.1364 14.7962 36.1364 15.625C36.1364 16.4538 36.4536 17.2487 37.0184 17.8347C37.5831 18.4208 38.3491 18.75 39.1477 18.75C39.9464 18.75 40.7123 18.4208 41.2771 17.8347C41.8418 17.2487 42.1591 16.4538 42.1591 15.625C42.1591 14.7962 41.8418 14.0013 41.2771 13.4153C40.7123 12.8292 39.9464 12.5 39.1477 12.5ZM9.63636 5V10H4.81818V15H9.63636V20H14.4545V15H19.2727V10H14.4545V5H9.63636Z" fill="#E3E3E6"/>
</svg>
