<svg width="1440" height="536" viewBox="0 0 1440 536" fill="none" xmlns="http://www.w3.org/2000/svg">
<g clip-path="url(#clip0_531_756)">
<rect width="1440" height="536" fill="url(#paint0_linear_531_756)"/>
<path fill-rule="evenodd" clip-rule="evenodd" d="M-502.86 768.605C-578.652 668.826 -553.162 536.509 -520.752 422.144C-492.528 322.548 -427.448 240.562 -337.333 184.508C-249.937 130.144 -142.495 91.5397 -38.9438 122.443C57.767 151.305 86.9677 261.413 157.24 332.106C250.295 425.719 424.176 471.025 432.21 596.422C440.434 724.776 308.604 816.964 192.156 877.07C87.4104 931.136 -36.0647 919.597 -157.256 900.683C-283.456 880.989 -426.958 868.53 -502.86 768.605Z" fill="#1D106D"/>
<path fill-rule="evenodd" clip-rule="evenodd" d="M-134.908 353.983C-31.243 303.205 84.343 350.99 182.445 401.775C267.878 446.001 330.937 520.642 366.127 613.356C400.256 703.273 416.609 808.588 370.593 897.48C327.618 980.5 222.676 986.796 146.351 1037.92C45.2794 1105.61 -26.0151 1256.09 -141.147 1240.22C-258.995 1223.97 -319.714 1086.45 -354.005 968.93C-384.851 863.216 -370.007 704.543 -331.803 597.314C-292.02 485.653 -238.726 404.835 -134.908 353.983Z" fill="#2A209F"/>
<path fill-rule="evenodd" clip-rule="evenodd" d="M-360.4 1035.87C-450.622 963.868 -456.839 838.948 -452.87 728.551C-449.413 632.413 -408.897 543.496 -340.127 472.047C-273.432 402.753 -185.218 342.945 -85.1868 346.541C8.23699 349.898 58.7934 442.074 137.636 489.219C242.041 551.648 408.56 551.763 443.431 662.629C479.125 776.111 380.766 889.792 289.184 971.036C206.806 1044.12 93.1059 1062.58 -20.1635 1073.89C-138.114 1085.66 -270.045 1107.98 -360.4 1035.87Z" fill="#3527D0"/>
<path fill-rule="evenodd" clip-rule="evenodd" d="M874.916 -263.421C871.206 -378.795 962.255 -464.548 1048.86 -533.128C1124.27 -592.851 1218.23 -619.682 1317.22 -613.679C1413.22 -607.858 1515.95 -579.504 1578.1 -501.034C1636.13 -427.748 1598.76 -329.483 1614.02 -238.896C1634.21 -118.938 1742.13 7.88167 1680.36 106.33C1617.13 207.101 1466.81 205.967 1345.58 188.953C1236.52 173.649 1148.72 99.0865 1066.65 20.205C981.19 -61.9362 878.632 -147.878 874.916 -263.421Z" fill="#1D106D" stroke="#1D106D" stroke-width="4"/>
<path fill-rule="evenodd" clip-rule="evenodd" d="M1659.41 5.72468C1592.28 97.169 1470.09 108.411 1361.75 109.066C1267.4 109.636 1178.71 73.5644 1106.07 9.06737C1035.62 -53.4843 973.648 -137.53 973.362 -235.776C973.095 -327.532 1061.51 -380.908 1104.71 -460.168C1161.91 -565.126 1155.68 -728.432 1263.01 -767.195C1372.86 -806.873 1488.02 -715.098 1571.13 -628.632C1645.89 -550.856 1668.32 -440.115 1683.71 -329.501C1699.74 -214.315 1726.64 -85.8536 1659.41 5.72468Z" fill="#2A209F" stroke="#2A209F" stroke-width="4"/>
<path fill-rule="evenodd" clip-rule="evenodd" d="M1635.59 -671.366C1743.05 -659.138 1810.02 -562.133 1861.68 -471.633C1906.66 -392.821 1918.61 -301.111 1899.43 -209.157C1880.82 -119.977 1840.4 -27.5499 1759.11 20.0099C1683.18 64.428 1597.23 16.0295 1511.16 17.9939C1397.18 20.5952 1264.77 104.472 1182 33.1808C1097.29 -39.7917 1119.02 -180.521 1151.47 -291.831C1180.67 -391.954 1261.87 -464.094 1346.28 -530.275C1434.19 -599.19 1527.97 -683.611 1635.59 -671.366Z" fill="#3527D0" stroke="#3527D0" stroke-width="4"/>
<circle cx="1367.5" cy="579.546" r="203" stroke="#3C3C98" stroke-width="25"/>
<circle cx="1367.5" cy="579.546" r="168" stroke="#2F2F77" stroke-width="25" stroke-dasharray="50 50"/>
<path d="M126.045 154.4C127.468 154.703 128.612 155.415 129.475 156.535C130.338 157.632 130.77 158.892 130.77 160.315C130.77 162.368 130.047 164.002 128.6 165.215C127.177 166.405 125.182 167 122.615 167H111.17V142.43H122.23C124.727 142.43 126.675 143.002 128.075 144.145C129.498 145.288 130.21 146.84 130.21 148.8C130.21 150.247 129.825 151.448 129.055 152.405C128.308 153.362 127.305 154.027 126.045 154.4ZM117.155 152.37H121.075C122.055 152.37 122.802 152.16 123.315 151.74C123.852 151.297 124.12 150.655 124.12 149.815C124.12 148.975 123.852 148.333 123.315 147.89C122.802 147.447 122.055 147.225 121.075 147.225H117.155V152.37ZM121.565 162.17C122.568 162.17 123.338 161.948 123.875 161.505C124.435 161.038 124.715 160.373 124.715 159.51C124.715 158.647 124.423 157.97 123.84 157.48C123.28 156.99 122.498 156.745 121.495 156.745H117.155V162.17H121.565ZM152.651 156.92C152.651 157.48 152.616 158.063 152.546 158.67H139.001C139.095 159.883 139.48 160.817 140.156 161.47C140.856 162.1 141.708 162.415 142.711 162.415C144.205 162.415 145.243 161.785 145.826 160.525H152.196C151.87 161.808 151.275 162.963 150.411 163.99C149.571 165.017 148.51 165.822 147.226 166.405C145.943 166.988 144.508 167.28 142.921 167.28C141.008 167.28 139.305 166.872 137.811 166.055C136.318 165.238 135.151 164.072 134.311 162.555C133.471 161.038 133.051 159.265 133.051 157.235C133.051 155.205 133.46 153.432 134.276 151.915C135.116 150.398 136.283 149.232 137.776 148.415C139.27 147.598 140.985 147.19 142.921 147.19C144.811 147.19 146.491 147.587 147.961 148.38C149.431 149.173 150.575 150.305 151.391 151.775C152.231 153.245 152.651 154.96 152.651 156.92ZM146.526 155.345C146.526 154.318 146.176 153.502 145.476 152.895C144.776 152.288 143.901 151.985 142.851 151.985C141.848 151.985 140.996 152.277 140.296 152.86C139.62 153.443 139.2 154.272 139.036 155.345H146.526ZM180.729 147.26C183.155 147.26 185.08 147.995 186.504 149.465C187.95 150.935 188.674 152.977 188.674 155.59V167H182.724V156.395C182.724 155.135 182.385 154.167 181.709 153.49C181.055 152.79 180.145 152.44 178.979 152.44C177.812 152.44 176.89 152.79 176.214 153.49C175.56 154.167 175.234 155.135 175.234 156.395V167H169.284V156.395C169.284 155.135 168.945 154.167 168.269 153.49C167.615 152.79 166.705 152.44 165.539 152.44C164.372 152.44 163.45 152.79 162.774 153.49C162.12 154.167 161.794 155.135 161.794 156.395V167H155.809V147.47H161.794V149.92C162.4 149.103 163.194 148.462 164.174 147.995C165.154 147.505 166.262 147.26 167.499 147.26C168.969 147.26 170.275 147.575 171.419 148.205C172.585 148.835 173.495 149.733 174.149 150.9C174.825 149.827 175.747 148.952 176.914 148.275C178.08 147.598 179.352 147.26 180.729 147.26ZM223.341 142.43L214.626 167H207.136L198.421 142.43H204.791L210.881 160.98L217.006 142.43H223.341ZM228.853 145.44C227.803 145.44 226.94 145.137 226.263 144.53C225.61 143.9 225.283 143.13 225.283 142.22C225.283 141.287 225.61 140.517 226.263 139.91C226.94 139.28 227.803 138.965 228.853 138.965C229.88 138.965 230.72 139.28 231.373 139.91C232.05 140.517 232.388 141.287 232.388 142.22C232.388 143.13 232.05 143.9 231.373 144.53C230.72 145.137 229.88 145.44 228.853 145.44ZM231.828 147.47V167H225.843V147.47H231.828ZM248.065 147.26C250.352 147.26 252.172 148.007 253.525 149.5C254.902 150.97 255.59 153 255.59 155.59V167H249.64V156.395C249.64 155.088 249.302 154.073 248.625 153.35C247.948 152.627 247.038 152.265 245.895 152.265C244.752 152.265 243.842 152.627 243.165 153.35C242.488 154.073 242.15 155.088 242.15 156.395V167H236.165V147.47H242.15V150.06C242.757 149.197 243.573 148.52 244.6 148.03C245.627 147.517 246.782 147.26 248.065 147.26ZM258.559 157.2C258.559 155.193 258.932 153.432 259.679 151.915C260.449 150.398 261.487 149.232 262.794 148.415C264.101 147.598 265.559 147.19 267.169 147.19C268.452 147.19 269.619 147.458 270.669 147.995C271.742 148.532 272.582 149.255 273.189 150.165V141.1H279.174V167H273.189V164.2C272.629 165.133 271.824 165.88 270.774 166.44C269.747 167 268.546 167.28 267.169 167.28C265.559 167.28 264.101 166.872 262.794 166.055C261.487 165.215 260.449 164.037 259.679 162.52C258.932 160.98 258.559 159.207 258.559 157.2ZM273.189 157.235C273.189 155.742 272.769 154.563 271.929 153.7C271.112 152.837 270.109 152.405 268.919 152.405C267.729 152.405 266.714 152.837 265.874 153.7C265.057 154.54 264.649 155.707 264.649 157.2C264.649 158.693 265.057 159.883 265.874 160.77C266.714 161.633 267.729 162.065 268.919 162.065C270.109 162.065 271.112 161.633 271.929 160.77C272.769 159.907 273.189 158.728 273.189 157.235ZM292.394 167.28C290.481 167.28 288.754 166.872 287.214 166.055C285.697 165.238 284.496 164.072 283.609 162.555C282.746 161.038 282.314 159.265 282.314 157.235C282.314 155.228 282.757 153.467 283.644 151.95C284.531 150.41 285.744 149.232 287.284 148.415C288.824 147.598 290.551 147.19 292.464 147.19C294.377 147.19 296.104 147.598 297.644 148.415C299.184 149.232 300.397 150.41 301.284 151.95C302.171 153.467 302.614 155.228 302.614 157.235C302.614 159.242 302.159 161.015 301.249 162.555C300.362 164.072 299.137 165.238 297.574 166.055C296.034 166.872 294.307 167.28 292.394 167.28ZM292.394 162.1C293.537 162.1 294.506 161.68 295.299 160.84C296.116 160 296.524 158.798 296.524 157.235C296.524 155.672 296.127 154.47 295.334 153.63C294.564 152.79 293.607 152.37 292.464 152.37C291.297 152.37 290.329 152.79 289.559 153.63C288.789 154.447 288.404 155.648 288.404 157.235C288.404 158.798 288.777 160 289.524 160.84C290.294 161.68 291.251 162.1 292.394 162.1ZM312.016 157.2C312.016 155.193 312.389 153.432 313.136 151.915C313.906 150.398 314.944 149.232 316.251 148.415C317.558 147.598 319.016 147.19 320.626 147.19C322.003 147.19 323.204 147.47 324.231 148.03C325.281 148.59 326.086 149.325 326.646 150.235V147.47H332.631V167H326.646V164.235C326.063 165.145 325.246 165.88 324.196 166.44C323.169 167 321.968 167.28 320.591 167.28C319.004 167.28 317.558 166.872 316.251 166.055C314.944 165.215 313.906 164.037 313.136 162.52C312.389 160.98 312.016 159.207 312.016 157.2ZM326.646 157.235C326.646 155.742 326.226 154.563 325.386 153.7C324.569 152.837 323.566 152.405 322.376 152.405C321.186 152.405 320.171 152.837 319.331 153.7C318.514 154.54 318.106 155.707 318.106 157.2C318.106 158.693 318.514 159.883 319.331 160.77C320.171 161.633 321.186 162.065 322.376 162.065C323.566 162.065 324.569 161.633 325.386 160.77C326.226 159.907 326.646 158.728 326.646 157.235ZM345.851 167.28C343.938 167.28 342.211 166.872 340.671 166.055C339.154 165.238 337.953 164.072 337.066 162.555C336.203 161.038 335.771 159.265 335.771 157.235C335.771 155.228 336.214 153.467 337.101 151.95C337.988 150.41 339.201 149.232 340.741 148.415C342.281 147.598 344.008 147.19 345.921 147.19C347.834 147.19 349.561 147.598 351.101 148.415C352.641 149.232 353.854 150.41 354.741 151.95C355.628 153.467 356.071 155.228 356.071 157.235C356.071 159.242 355.616 161.015 354.706 162.555C353.819 164.072 352.594 165.238 351.031 166.055C349.491 166.872 347.764 167.28 345.851 167.28ZM345.851 162.1C346.994 162.1 347.963 161.68 348.756 160.84C349.573 160 349.981 158.798 349.981 157.235C349.981 155.672 349.584 154.47 348.791 153.63C348.021 152.79 347.064 152.37 345.921 152.37C344.754 152.37 343.786 152.79 343.016 153.63C342.246 154.447 341.861 155.648 341.861 157.235C341.861 158.798 342.234 160 342.981 160.84C343.751 161.68 344.708 162.1 345.851 162.1ZM375.553 167.245C373.756 167.245 372.146 166.953 370.723 166.37C369.3 165.787 368.156 164.923 367.293 163.78C366.453 162.637 366.01 161.26 365.963 159.65H372.333C372.426 160.56 372.741 161.26 373.278 161.75C373.815 162.217 374.515 162.45 375.378 162.45C376.265 162.45 376.965 162.252 377.478 161.855C377.991 161.435 378.248 160.863 378.248 160.14C378.248 159.533 378.038 159.032 377.618 158.635C377.221 158.238 376.72 157.912 376.113 157.655C375.53 157.398 374.69 157.107 373.593 156.78C372.006 156.29 370.711 155.8 369.708 155.31C368.705 154.82 367.841 154.097 367.118 153.14C366.395 152.183 366.033 150.935 366.033 149.395C366.033 147.108 366.861 145.323 368.518 144.04C370.175 142.733 372.333 142.08 374.993 142.08C377.7 142.08 379.881 142.733 381.538 144.04C383.195 145.323 384.081 147.12 384.198 149.43H377.723C377.676 148.637 377.385 148.018 376.848 147.575C376.311 147.108 375.623 146.875 374.783 146.875C374.06 146.875 373.476 147.073 373.033 147.47C372.59 147.843 372.368 148.392 372.368 149.115C372.368 149.908 372.741 150.527 373.488 150.97C374.235 151.413 375.401 151.892 376.988 152.405C378.575 152.942 379.858 153.455 380.838 153.945C381.841 154.435 382.705 155.147 383.428 156.08C384.151 157.013 384.513 158.215 384.513 159.685C384.513 161.085 384.151 162.357 383.428 163.5C382.728 164.643 381.701 165.553 380.348 166.23C378.995 166.907 377.396 167.245 375.553 167.245ZM387.006 157.235C387.006 155.205 387.415 153.432 388.231 151.915C389.071 150.398 390.226 149.232 391.696 148.415C393.19 147.598 394.893 147.19 396.806 147.19C399.256 147.19 401.298 147.832 402.931 149.115C404.588 150.398 405.673 152.207 406.186 154.54H399.816C399.28 153.047 398.241 152.3 396.701 152.3C395.605 152.3 394.73 152.732 394.076 153.595C393.423 154.435 393.096 155.648 393.096 157.235C393.096 158.822 393.423 160.047 394.076 160.91C394.73 161.75 395.605 162.17 396.701 162.17C398.241 162.17 399.28 161.423 399.816 159.93H406.186C405.673 162.217 404.588 164.013 402.931 165.32C401.275 166.627 399.233 167.28 396.806 167.28C394.893 167.28 393.19 166.872 391.696 166.055C390.226 165.238 389.071 164.072 388.231 162.555C387.415 161.038 387.006 159.265 387.006 157.235ZM415.373 150.725C416.073 149.652 416.948 148.812 417.998 148.205C419.048 147.575 420.214 147.26 421.498 147.26V153.595H419.853C418.359 153.595 417.239 153.922 416.493 154.575C415.746 155.205 415.373 156.325 415.373 157.935V167H409.388V147.47H415.373V150.725ZM443.643 147.47V167H437.658V164.34C437.052 165.203 436.223 165.903 435.173 166.44C434.147 166.953 433.003 167.21 431.743 167.21C430.25 167.21 428.932 166.883 427.788 166.23C426.645 165.553 425.758 164.585 425.128 163.325C424.498 162.065 424.183 160.583 424.183 158.88V147.47H430.133V158.075C430.133 159.382 430.472 160.397 431.148 161.12C431.825 161.843 432.735 162.205 433.878 162.205C435.045 162.205 435.967 161.843 436.643 161.12C437.32 160.397 437.658 159.382 437.658 158.075V147.47H443.643ZM472.862 147.26C475.289 147.26 477.214 147.995 478.637 149.465C480.084 150.935 480.807 152.977 480.807 155.59V167H474.857V156.395C474.857 155.135 474.519 154.167 473.842 153.49C473.189 152.79 472.279 152.44 471.112 152.44C469.946 152.44 469.024 152.79 468.347 153.49C467.694 154.167 467.367 155.135 467.367 156.395V167H461.417V156.395C461.417 155.135 461.079 154.167 460.402 153.49C459.749 152.79 458.839 152.44 457.672 152.44C456.506 152.44 455.584 152.79 454.907 153.49C454.254 154.167 453.927 155.135 453.927 156.395V167H447.942V147.47H453.927V149.92C454.534 149.103 455.327 148.462 456.307 147.995C457.287 147.505 458.396 147.26 459.632 147.26C461.102 147.26 462.409 147.575 463.552 148.205C464.719 148.835 465.629 149.733 466.282 150.9C466.959 149.827 467.881 148.952 469.047 148.275C470.214 147.598 471.486 147.26 472.862 147.26ZM510.085 142.43V147.225H503.575V167H497.59V147.225H491.08V142.43H510.085ZM532.374 147.47V167H526.389V164.34C525.782 165.203 524.954 165.903 523.904 166.44C522.877 166.953 521.734 167.21 520.474 167.21C518.981 167.21 517.662 166.883 516.519 166.23C515.376 165.553 514.489 164.585 513.859 163.325C513.229 162.065 512.914 160.583 512.914 158.88V147.47H518.864V158.075C518.864 159.382 519.202 160.397 519.879 161.12C520.556 161.843 521.466 162.205 522.609 162.205C523.776 162.205 524.697 161.843 525.374 161.12C526.051 160.397 526.389 159.382 526.389 158.075V147.47H532.374ZM547.558 161.925V167H544.513C542.343 167 540.651 166.475 539.438 165.425C538.225 164.352 537.618 162.613 537.618 160.21V152.44H535.238V147.47H537.618V142.71H543.603V147.47H547.523V152.44H543.603V160.28C543.603 160.863 543.743 161.283 544.023 161.54C544.303 161.797 544.77 161.925 545.423 161.925H547.558ZM559.782 167.28C557.868 167.28 556.142 166.872 554.602 166.055C553.085 165.238 551.883 164.072 550.997 162.555C550.133 161.038 549.702 159.265 549.702 157.235C549.702 155.228 550.145 153.467 551.032 151.95C551.918 150.41 553.132 149.232 554.672 148.415C556.212 147.598 557.938 147.19 559.852 147.19C561.765 147.19 563.492 147.598 565.032 148.415C566.572 149.232 567.785 150.41 568.672 151.95C569.558 153.467 570.002 155.228 570.002 157.235C570.002 159.242 569.547 161.015 568.637 162.555C567.75 164.072 566.525 165.238 564.962 166.055C563.422 166.872 561.695 167.28 559.782 167.28ZM559.782 162.1C560.925 162.1 561.893 161.68 562.687 160.84C563.503 160 563.912 158.798 563.912 157.235C563.912 155.672 563.515 154.47 562.722 153.63C561.952 152.79 560.995 152.37 559.852 152.37C558.685 152.37 557.717 152.79 556.947 153.63C556.177 154.447 555.792 155.648 555.792 157.235C555.792 158.798 556.165 160 556.912 160.84C557.682 161.68 558.638 162.1 559.782 162.1ZM579.162 150.725C579.862 149.652 580.737 148.812 581.787 148.205C582.837 147.575 584.004 147.26 585.287 147.26V153.595H583.642C582.149 153.595 581.029 153.922 580.282 154.575C579.535 155.205 579.162 156.325 579.162 157.935V167H573.177V147.47H579.162V150.725ZM596.023 141.555L595.323 158.32H590.248L589.548 141.555H596.023ZM592.873 167.28C591.823 167.28 590.959 166.977 590.283 166.37C589.629 165.74 589.303 164.97 589.303 164.06C589.303 163.127 589.629 162.345 590.283 161.715C590.959 161.085 591.823 160.77 592.873 160.77C593.899 160.77 594.739 161.085 595.393 161.715C596.069 162.345 596.408 163.127 596.408 164.06C596.408 164.97 596.069 165.74 595.393 166.37C594.739 166.977 593.899 167.28 592.873 167.28Z" fill="white"/>
<path d="M107.853 242.345H98.1225L96.5125 247H91.3675L100.153 222.535H105.858L114.643 247H109.463L107.853 242.345ZM106.523 238.425L102.988 228.205L99.4525 238.425H106.523ZM133.686 247.315C132.099 247.315 130.676 247.035 129.416 246.475C128.156 245.892 127.153 245.11 126.406 244.13C125.683 243.15 125.286 242.065 125.216 240.875H130.151C130.244 241.622 130.606 242.24 131.236 242.73C131.889 243.22 132.694 243.465 133.651 243.465C134.584 243.465 135.308 243.278 135.821 242.905C136.358 242.532 136.626 242.053 136.626 241.47C136.626 240.84 136.299 240.373 135.646 240.07C135.016 239.743 134.001 239.393 132.601 239.02C131.154 238.67 129.964 238.308 129.031 237.935C128.121 237.562 127.328 236.99 126.651 236.22C125.998 235.45 125.671 234.412 125.671 233.105C125.671 232.032 125.974 231.052 126.581 230.165C127.211 229.278 128.098 228.578 129.241 228.065C130.408 227.552 131.773 227.295 133.336 227.295C135.646 227.295 137.489 227.878 138.866 229.045C140.243 230.188 141.001 231.74 141.141 233.7H136.451C136.381 232.93 136.054 232.323 135.471 231.88C134.911 231.413 134.153 231.18 133.196 231.18C132.309 231.18 131.621 231.343 131.131 231.67C130.664 231.997 130.431 232.452 130.431 233.035C130.431 233.688 130.758 234.19 131.411 234.54C132.064 234.867 133.079 235.205 134.456 235.555C135.856 235.905 137.011 236.267 137.921 236.64C138.831 237.013 139.613 237.597 140.266 238.39C140.943 239.16 141.293 240.187 141.316 241.47C141.316 242.59 141.001 243.593 140.371 244.48C139.764 245.367 138.878 246.067 137.711 246.58C136.568 247.07 135.226 247.315 133.686 247.315ZM163.643 227.61V247H158.708V244.55C158.078 245.39 157.25 246.055 156.223 246.545C155.22 247.012 154.123 247.245 152.933 247.245C151.417 247.245 150.075 246.93 148.908 246.3C147.742 245.647 146.82 244.702 146.143 243.465C145.49 242.205 145.163 240.712 145.163 238.985V227.61H150.063V238.285C150.063 239.825 150.448 241.015 151.218 241.855C151.988 242.672 153.038 243.08 154.368 243.08C155.722 243.08 156.783 242.672 157.553 241.855C158.323 241.015 158.708 239.825 158.708 238.285V227.61H163.643ZM167.218 237.235C167.218 235.275 167.603 233.537 168.373 232.02C169.166 230.503 170.228 229.337 171.558 228.52C172.911 227.703 174.416 227.295 176.073 227.295C177.52 227.295 178.78 227.587 179.853 228.17C180.95 228.753 181.825 229.488 182.478 230.375V227.61H187.413V247H182.478V244.165C181.848 245.075 180.973 245.833 179.853 246.44C178.756 247.023 177.485 247.315 176.038 247.315C174.405 247.315 172.911 246.895 171.558 246.055C170.228 245.215 169.166 244.037 168.373 242.52C167.603 240.98 167.218 239.218 167.218 237.235ZM182.478 237.305C182.478 236.115 182.245 235.1 181.778 234.26C181.311 233.397 180.681 232.743 179.888 232.3C179.095 231.833 178.243 231.6 177.333 231.6C176.423 231.6 175.583 231.822 174.813 232.265C174.043 232.708 173.413 233.362 172.923 234.225C172.456 235.065 172.223 236.068 172.223 237.235C172.223 238.402 172.456 239.428 172.923 240.315C173.413 241.178 174.043 241.843 174.813 242.31C175.606 242.777 176.446 243.01 177.333 243.01C178.243 243.01 179.095 242.788 179.888 242.345C180.681 241.878 181.311 241.225 181.778 240.385C182.245 239.522 182.478 238.495 182.478 237.305ZM205.439 230.41C206.069 229.523 206.932 228.788 208.029 228.205C209.149 227.598 210.42 227.295 211.844 227.295C213.5 227.295 214.994 227.703 216.324 228.52C217.677 229.337 218.739 230.503 219.509 232.02C220.302 233.513 220.699 235.252 220.699 237.235C220.699 239.218 220.302 240.98 219.509 242.52C218.739 244.037 217.677 245.215 216.324 246.055C214.994 246.895 213.5 247.315 211.844 247.315C210.42 247.315 209.16 247.023 208.064 246.44C206.99 245.857 206.115 245.122 205.439 244.235V256.24H200.539V227.61H205.439V230.41ZM215.694 237.235C215.694 236.068 215.449 235.065 214.959 234.225C214.492 233.362 213.862 232.708 213.069 232.265C212.299 231.822 211.459 231.6 210.549 231.6C209.662 231.6 208.822 231.833 208.029 232.3C207.259 232.743 206.629 233.397 206.139 234.26C205.672 235.123 205.439 236.138 205.439 237.305C205.439 238.472 205.672 239.487 206.139 240.35C206.629 241.213 207.259 241.878 208.029 242.345C208.822 242.788 209.662 243.01 210.549 243.01C211.459 243.01 212.299 242.777 213.069 242.31C213.862 241.843 214.492 241.178 214.959 240.315C215.449 239.452 215.694 238.425 215.694 237.235ZM229.159 221.1V247H224.259V221.1H229.159ZM232.74 237.235C232.74 235.275 233.125 233.537 233.895 232.02C234.689 230.503 235.75 229.337 237.08 228.52C238.434 227.703 239.939 227.295 241.595 227.295C243.042 227.295 244.302 227.587 245.375 228.17C246.472 228.753 247.347 229.488 248 230.375V227.61H252.935V247H248V244.165C247.37 245.075 246.495 245.833 245.375 246.44C244.279 247.023 243.007 247.315 241.56 247.315C239.927 247.315 238.434 246.895 237.08 246.055C235.75 245.215 234.689 244.037 233.895 242.52C233.125 240.98 232.74 239.218 232.74 237.235ZM248 237.305C248 236.115 247.767 235.1 247.3 234.26C246.834 233.397 246.204 232.743 245.41 232.3C244.617 231.833 243.765 231.6 242.855 231.6C241.945 231.6 241.105 231.822 240.335 232.265C239.565 232.708 238.935 233.362 238.445 234.225C237.979 235.065 237.745 236.068 237.745 237.235C237.745 238.402 237.979 239.428 238.445 240.315C238.935 241.178 239.565 241.843 240.335 242.31C241.129 242.777 241.969 243.01 242.855 243.01C243.765 243.01 244.617 242.788 245.41 242.345C246.204 241.878 246.834 241.225 247.3 240.385C247.767 239.522 248 238.495 248 237.305ZM263.426 231.635V241.015C263.426 241.668 263.578 242.147 263.881 242.45C264.208 242.73 264.744 242.87 265.491 242.87H267.766V247H264.686C260.556 247 258.491 244.993 258.491 240.98V231.635H256.181V227.61H258.491V222.815H263.426V227.61H267.766V231.635H263.426ZM270.03 237.235C270.03 235.275 270.415 233.537 271.185 232.02C271.979 230.503 273.04 229.337 274.37 228.52C275.724 227.703 277.229 227.295 278.885 227.295C280.332 227.295 281.592 227.587 282.665 228.17C283.762 228.753 284.637 229.488 285.29 230.375V227.61H290.225V247H285.29V244.165C284.66 245.075 283.785 245.833 282.665 246.44C281.569 247.023 280.297 247.315 278.85 247.315C277.217 247.315 275.724 246.895 274.37 246.055C273.04 245.215 271.979 244.037 271.185 242.52C270.415 240.98 270.03 239.218 270.03 237.235ZM285.29 237.305C285.29 236.115 285.057 235.1 284.59 234.26C284.124 233.397 283.494 232.743 282.7 232.3C281.907 231.833 281.055 231.6 280.145 231.6C279.235 231.6 278.395 231.822 277.625 232.265C276.855 232.708 276.225 233.362 275.735 234.225C275.269 235.065 275.035 236.068 275.035 237.235C275.035 238.402 275.269 239.428 275.735 240.315C276.225 241.178 276.855 241.843 277.625 242.31C278.419 242.777 279.259 243.01 280.145 243.01C281.055 243.01 281.907 242.788 282.7 242.345C283.494 241.878 284.124 241.225 284.59 240.385C285.057 239.522 285.29 238.495 285.29 237.305ZM303.901 231.635H300.506V247H295.536V231.635H293.331V227.61H295.536V226.63C295.536 224.25 296.213 222.5 297.566 221.38C298.92 220.26 300.961 219.735 303.691 219.805V223.935C302.501 223.912 301.673 224.11 301.206 224.53C300.74 224.95 300.506 225.708 300.506 226.805V227.61H303.901V231.635ZM315.687 247.315C313.82 247.315 312.14 246.907 310.647 246.09C309.153 245.25 307.975 244.072 307.112 242.555C306.272 241.038 305.852 239.288 305.852 237.305C305.852 235.322 306.283 233.572 307.147 232.055C308.033 230.538 309.235 229.372 310.752 228.555C312.268 227.715 313.96 227.295 315.827 227.295C317.693 227.295 319.385 227.715 320.902 228.555C322.418 229.372 323.608 230.538 324.472 232.055C325.358 233.572 325.802 235.322 325.802 237.305C325.802 239.288 325.347 241.038 324.437 242.555C323.55 244.072 322.337 245.25 320.797 246.09C319.28 246.907 317.577 247.315 315.687 247.315ZM315.687 243.045C316.573 243.045 317.402 242.835 318.172 242.415C318.965 241.972 319.595 241.318 320.062 240.455C320.528 239.592 320.762 238.542 320.762 237.305C320.762 235.462 320.272 234.05 319.292 233.07C318.335 232.067 317.157 231.565 315.757 231.565C314.357 231.565 313.178 232.067 312.222 233.07C311.288 234.05 310.822 235.462 310.822 237.305C310.822 239.148 311.277 240.572 312.187 241.575C313.12 242.555 314.287 243.045 315.687 243.045ZM334.296 230.62C334.926 229.593 335.743 228.788 336.746 228.205C337.773 227.622 338.939 227.33 340.246 227.33V232.475H338.951C337.411 232.475 336.244 232.837 335.451 233.56C334.681 234.283 334.296 235.543 334.296 237.34V247H329.396V227.61H334.296V230.62ZM367.626 227.33C370.006 227.33 371.92 228.065 373.366 229.535C374.836 230.982 375.571 233.012 375.571 235.625V247H370.671V236.29C370.671 234.773 370.286 233.618 369.516 232.825C368.746 232.008 367.696 231.6 366.366 231.6C365.036 231.6 363.975 232.008 363.181 232.825C362.411 233.618 362.026 234.773 362.026 236.29V247H357.126V236.29C357.126 234.773 356.741 233.618 355.971 232.825C355.201 232.008 354.151 231.6 352.821 231.6C351.468 231.6 350.395 232.008 349.601 232.825C348.831 233.618 348.446 234.773 348.446 236.29V247H343.546V227.61H348.446V229.955C349.076 229.138 349.881 228.497 350.861 228.03C351.865 227.563 352.961 227.33 354.151 227.33C355.668 227.33 357.021 227.657 358.211 228.31C359.401 228.94 360.323 229.85 360.976 231.04C361.606 229.92 362.516 229.022 363.706 228.345C364.92 227.668 366.226 227.33 367.626 227.33ZM378.961 237.235C378.961 235.275 379.346 233.537 380.116 232.02C380.909 230.503 381.971 229.337 383.301 228.52C384.654 227.703 386.159 227.295 387.816 227.295C389.263 227.295 390.523 227.587 391.596 228.17C392.693 228.753 393.568 229.488 394.221 230.375V227.61H399.156V247H394.221V244.165C393.591 245.075 392.716 245.833 391.596 246.44C390.499 247.023 389.228 247.315 387.781 247.315C386.148 247.315 384.654 246.895 383.301 246.055C381.971 245.215 380.909 244.037 380.116 242.52C379.346 240.98 378.961 239.218 378.961 237.235ZM394.221 237.305C394.221 236.115 393.988 235.1 393.521 234.26C393.054 233.397 392.424 232.743 391.631 232.3C390.838 231.833 389.986 231.6 389.076 231.6C388.166 231.6 387.326 231.822 386.556 232.265C385.786 232.708 385.156 233.362 384.666 234.225C384.199 235.065 383.966 236.068 383.966 237.235C383.966 238.402 384.199 239.428 384.666 240.315C385.156 241.178 385.786 241.843 386.556 242.31C387.349 242.777 388.189 243.01 389.076 243.01C389.986 243.01 390.838 242.788 391.631 242.345C392.424 241.878 393.054 241.225 393.521 240.385C393.988 239.522 394.221 238.495 394.221 237.305ZM411.022 237.235C411.022 235.275 411.407 233.537 412.177 232.02C412.97 230.503 414.043 229.337 415.397 228.52C416.75 227.703 418.255 227.295 419.912 227.295C421.172 227.295 422.373 227.575 423.517 228.135C424.66 228.672 425.57 229.395 426.247 230.305V221.1H431.217V247H426.247V244.13C425.64 245.087 424.788 245.857 423.692 246.44C422.595 247.023 421.323 247.315 419.877 247.315C418.243 247.315 416.75 246.895 415.397 246.055C414.043 245.215 412.97 244.037 412.177 242.52C411.407 240.98 411.022 239.218 411.022 237.235ZM426.282 237.305C426.282 236.115 426.048 235.1 425.582 234.26C425.115 233.397 424.485 232.743 423.692 232.3C422.898 231.833 422.047 231.6 421.137 231.6C420.227 231.6 419.387 231.822 418.617 232.265C417.847 232.708 417.217 233.362 416.727 234.225C416.26 235.065 416.027 236.068 416.027 237.235C416.027 238.402 416.26 239.428 416.727 240.315C417.217 241.178 417.847 241.843 418.617 242.31C419.41 242.777 420.25 243.01 421.137 243.01C422.047 243.01 422.898 242.788 423.692 242.345C424.485 241.878 425.115 241.225 425.582 240.385C426.048 239.522 426.282 238.495 426.282 237.305ZM454.027 236.885C454.027 237.585 453.981 238.215 453.887 238.775H439.712C439.829 240.175 440.319 241.272 441.182 242.065C442.046 242.858 443.107 243.255 444.367 243.255C446.187 243.255 447.482 242.473 448.252 240.91H453.537C452.977 242.777 451.904 244.317 450.317 245.53C448.731 246.72 446.782 247.315 444.472 247.315C442.606 247.315 440.926 246.907 439.432 246.09C437.962 245.25 436.807 244.072 435.967 242.555C435.151 241.038 434.742 239.288 434.742 237.305C434.742 235.298 435.151 233.537 435.967 232.02C436.784 230.503 437.927 229.337 439.397 228.52C440.867 227.703 442.559 227.295 444.472 227.295C446.316 227.295 447.961 227.692 449.407 228.485C450.877 229.278 452.009 230.41 452.802 231.88C453.619 233.327 454.027 234.995 454.027 236.885ZM448.952 235.485C448.929 234.225 448.474 233.222 447.587 232.475C446.701 231.705 445.616 231.32 444.332 231.32C443.119 231.32 442.092 231.693 441.252 232.44C440.436 233.163 439.934 234.178 439.747 235.485H448.952ZM483.969 236.885C483.969 237.585 483.922 238.215 483.829 238.775H469.654C469.77 240.175 470.26 241.272 471.124 242.065C471.987 242.858 473.049 243.255 474.309 243.255C476.129 243.255 477.424 242.473 478.194 240.91H483.479C482.919 242.777 481.845 244.317 480.259 245.53C478.672 246.72 476.724 247.315 474.414 247.315C472.547 247.315 470.867 246.907 469.374 246.09C467.904 245.25 466.749 244.072 465.909 242.555C465.092 241.038 464.684 239.288 464.684 237.305C464.684 235.298 465.092 233.537 465.909 232.02C466.725 230.503 467.869 229.337 469.339 228.52C470.809 227.703 472.5 227.295 474.414 227.295C476.257 227.295 477.902 227.692 479.349 228.485C480.819 229.278 481.95 230.41 482.744 231.88C483.56 233.327 483.969 234.995 483.969 236.885ZM478.894 235.485C478.87 234.225 478.415 233.222 477.529 232.475C476.642 231.705 475.557 231.32 474.274 231.32C473.06 231.32 472.034 231.693 471.194 232.44C470.377 233.163 469.875 234.178 469.689 235.485H478.894ZM498.29 227.33C500.6 227.33 502.467 228.065 503.89 229.535C505.314 230.982 506.025 233.012 506.025 235.625V247H501.125V236.29C501.125 234.75 500.74 233.572 499.97 232.755C499.2 231.915 498.15 231.495 496.82 231.495C495.467 231.495 494.394 231.915 493.6 232.755C492.83 233.572 492.445 234.75 492.445 236.29V247H487.545V227.61H492.445V230.025C493.099 229.185 493.927 228.532 494.93 228.065C495.957 227.575 497.077 227.33 498.29 227.33ZM518.105 247.315C516.518 247.315 515.095 247.035 513.835 246.475C512.575 245.892 511.572 245.11 510.825 244.13C510.102 243.15 509.705 242.065 509.635 240.875H514.57C514.663 241.622 515.025 242.24 515.655 242.73C516.308 243.22 517.113 243.465 518.07 243.465C519.003 243.465 519.727 243.278 520.24 242.905C520.777 242.532 521.045 242.053 521.045 241.47C521.045 240.84 520.718 240.373 520.065 240.07C519.435 239.743 518.42 239.393 517.02 239.02C515.573 238.67 514.383 238.308 513.45 237.935C512.54 237.562 511.747 236.99 511.07 236.22C510.417 235.45 510.09 234.412 510.09 233.105C510.09 232.032 510.393 231.052 511 230.165C511.63 229.278 512.517 228.578 513.66 228.065C514.827 227.552 516.192 227.295 517.755 227.295C520.065 227.295 521.908 227.878 523.285 229.045C524.662 230.188 525.42 231.74 525.56 233.7H520.87C520.8 232.93 520.473 232.323 519.89 231.88C519.33 231.413 518.572 231.18 517.615 231.18C516.728 231.18 516.04 231.343 515.55 231.67C515.083 231.997 514.85 232.452 514.85 233.035C514.85 233.688 515.177 234.19 515.83 234.54C516.483 234.867 517.498 235.205 518.875 235.555C520.275 235.905 521.43 236.267 522.34 236.64C523.25 237.013 524.032 237.597 524.685 238.39C525.362 239.16 525.712 240.187 525.735 241.47C525.735 242.59 525.42 243.593 524.79 244.48C524.183 245.367 523.297 246.067 522.13 246.58C520.987 247.07 519.645 247.315 518.105 247.315ZM532.242 225.3C531.379 225.3 530.656 225.032 530.072 224.495C529.512 223.935 529.232 223.247 529.232 222.43C529.232 221.613 529.512 220.937 530.072 220.4C530.656 219.84 531.379 219.56 532.242 219.56C533.106 219.56 533.817 219.84 534.377 220.4C534.961 220.937 535.252 221.613 535.252 222.43C535.252 223.247 534.961 223.935 534.377 224.495C533.817 225.032 533.106 225.3 532.242 225.3ZM534.657 227.61V247H529.757V227.61H534.657ZM550.243 227.33C552.553 227.33 554.42 228.065 555.843 229.535C557.267 230.982 557.978 233.012 557.978 235.625V247H553.078V236.29C553.078 234.75 552.693 233.572 551.923 232.755C551.153 231.915 550.103 231.495 548.773 231.495C547.42 231.495 546.347 231.915 545.553 232.755C544.783 233.572 544.398 234.75 544.398 236.29V247H539.498V227.61H544.398V230.025C545.052 229.185 545.88 228.532 546.883 228.065C547.91 227.575 549.03 227.33 550.243 227.33ZM571.248 247.315C569.381 247.315 567.701 246.907 566.208 246.09C564.715 245.25 563.536 244.072 562.673 242.555C561.833 241.038 561.413 239.288 561.413 237.305C561.413 235.322 561.845 233.572 562.708 232.055C563.595 230.538 564.796 229.372 566.313 228.555C567.83 227.715 569.521 227.295 571.388 227.295C573.255 227.295 574.946 227.715 576.463 228.555C577.98 229.372 579.17 230.538 580.033 232.055C580.92 233.572 581.363 235.322 581.363 237.305C581.363 239.288 580.908 241.038 579.998 242.555C579.111 244.072 577.898 245.25 576.358 246.09C574.841 246.907 573.138 247.315 571.248 247.315ZM571.248 243.045C572.135 243.045 572.963 242.835 573.733 242.415C574.526 241.972 575.156 241.318 575.623 240.455C576.09 239.592 576.323 238.542 576.323 237.305C576.323 235.462 575.833 234.05 574.853 233.07C573.896 232.067 572.718 231.565 571.318 231.565C569.918 231.565 568.74 232.067 567.783 233.07C566.85 234.05 566.383 235.462 566.383 237.305C566.383 239.148 566.838 240.572 567.748 241.575C568.681 242.555 569.848 243.045 571.248 243.045ZM180.616 290.235C180.616 288.275 181.001 286.537 181.771 285.02C182.565 283.503 183.638 282.337 184.991 281.52C186.345 280.703 187.85 280.295 189.506 280.295C190.766 280.295 191.968 280.575 193.111 281.135C194.255 281.672 195.165 282.395 195.841 283.305V274.1H200.811V300H195.841V297.13C195.235 298.087 194.383 298.857 193.286 299.44C192.19 300.023 190.918 300.315 189.471 300.315C187.838 300.315 186.345 299.895 184.991 299.055C183.638 298.215 182.565 297.037 181.771 295.52C181.001 293.98 180.616 292.218 180.616 290.235ZM195.876 290.305C195.876 289.115 195.643 288.1 195.176 287.26C194.71 286.397 194.08 285.743 193.286 285.3C192.493 284.833 191.641 284.6 190.731 284.6C189.821 284.6 188.981 284.822 188.211 285.265C187.441 285.708 186.811 286.362 186.321 287.225C185.855 288.065 185.621 289.068 185.621 290.235C185.621 291.402 185.855 292.428 186.321 293.315C186.811 294.178 187.441 294.843 188.211 295.31C189.005 295.777 189.845 296.01 190.731 296.01C191.641 296.01 192.493 295.788 193.286 295.345C194.08 294.878 194.71 294.225 195.176 293.385C195.643 292.522 195.876 291.495 195.876 290.305ZM214.207 300.315C212.34 300.315 210.66 299.907 209.167 299.09C207.674 298.25 206.495 297.072 205.632 295.555C204.792 294.038 204.372 292.288 204.372 290.305C204.372 288.322 204.804 286.572 205.667 285.055C206.554 283.538 207.755 282.372 209.272 281.555C210.789 280.715 212.48 280.295 214.347 280.295C216.214 280.295 217.905 280.715 219.422 281.555C220.939 282.372 222.129 283.538 222.992 285.055C223.879 286.572 224.322 288.322 224.322 290.305C224.322 292.288 223.867 294.038 222.957 295.555C222.07 297.072 220.857 298.25 219.317 299.09C217.8 299.907 216.097 300.315 214.207 300.315ZM214.207 296.045C215.094 296.045 215.922 295.835 216.692 295.415C217.485 294.972 218.115 294.318 218.582 293.455C219.049 292.592 219.282 291.542 219.282 290.305C219.282 288.462 218.792 287.05 217.812 286.07C216.855 285.067 215.677 284.565 214.277 284.565C212.877 284.565 211.699 285.067 210.742 286.07C209.809 287.05 209.342 288.462 209.342 290.305C209.342 292.148 209.797 293.572 210.707 294.575C211.64 295.555 212.807 296.045 214.207 296.045ZM262.891 275.57V300H257.991V284.11L251.446 300H247.736L241.156 284.11V300H236.256V275.57H241.821L249.591 293.735L257.361 275.57H262.891ZM285.761 289.885C285.761 290.585 285.714 291.215 285.621 291.775H271.446C271.562 293.175 272.052 294.272 272.916 295.065C273.779 295.858 274.841 296.255 276.101 296.255C277.921 296.255 279.216 295.473 279.986 293.91H285.271C284.711 295.777 283.637 297.317 282.051 298.53C280.464 299.72 278.516 300.315 276.206 300.315C274.339 300.315 272.659 299.907 271.166 299.09C269.696 298.25 268.541 297.072 267.701 295.555C266.884 294.038 266.476 292.288 266.476 290.305C266.476 288.298 266.884 286.537 267.701 285.02C268.517 283.503 269.661 282.337 271.131 281.52C272.601 280.703 274.292 280.295 276.206 280.295C278.049 280.295 279.694 280.692 281.141 281.485C282.611 282.278 283.742 283.41 284.536 284.88C285.352 286.327 285.761 287.995 285.761 289.885ZM280.686 288.485C280.662 287.225 280.207 286.222 279.321 285.475C278.434 284.705 277.349 284.32 276.066 284.32C274.852 284.32 273.826 284.693 272.986 285.44C272.169 286.163 271.667 287.178 271.481 288.485H280.686ZM279.951 275.5L271.901 279.175V275.675L279.951 271.51V275.5ZM295.042 284.635V294.015C295.042 294.668 295.194 295.147 295.497 295.45C295.824 295.73 296.361 295.87 297.107 295.87H299.382V300H296.302C292.172 300 290.107 297.993 290.107 293.98V284.635H287.797V280.61H290.107V275.815H295.042V280.61H299.382V284.635H295.042ZM311.517 300.315C309.65 300.315 307.97 299.907 306.477 299.09C304.983 298.25 303.805 297.072 302.942 295.555C302.102 294.038 301.682 292.288 301.682 290.305C301.682 288.322 302.113 286.572 302.977 285.055C303.863 283.538 305.065 282.372 306.582 281.555C308.098 280.715 309.79 280.295 311.657 280.295C313.523 280.295 315.215 280.715 316.732 281.555C318.248 282.372 319.438 283.538 320.302 285.055C321.188 286.572 321.632 288.322 321.632 290.305C321.632 292.288 321.177 294.038 320.267 295.555C319.38 297.072 318.167 298.25 316.627 299.09C315.11 299.907 313.407 300.315 311.517 300.315ZM311.517 296.045C312.403 296.045 313.232 295.835 314.002 295.415C314.795 294.972 315.425 294.318 315.892 293.455C316.358 292.592 316.592 291.542 316.592 290.305C316.592 288.462 316.102 287.05 315.122 286.07C314.165 285.067 312.987 284.565 311.587 284.565C310.187 284.565 309.008 285.067 308.052 286.07C307.118 287.05 306.652 288.462 306.652 290.305C306.652 292.148 307.107 293.572 308.017 294.575C308.95 295.555 310.117 296.045 311.517 296.045ZM323.966 290.235C323.966 288.275 324.351 286.537 325.121 285.02C325.914 283.503 326.988 282.337 328.341 281.52C329.694 280.703 331.199 280.295 332.856 280.295C334.116 280.295 335.318 280.575 336.461 281.135C337.604 281.672 338.514 282.395 339.191 283.305V274.1H344.161V300H339.191V297.13C338.584 298.087 337.733 298.857 336.636 299.44C335.539 300.023 334.268 300.315 332.821 300.315C331.188 300.315 329.694 299.895 328.341 299.055C326.988 298.215 325.914 297.037 325.121 295.52C324.351 293.98 323.966 292.218 323.966 290.235ZM339.226 290.305C339.226 289.115 338.993 288.1 338.526 287.26C338.059 286.397 337.429 285.743 336.636 285.3C335.843 284.833 334.991 284.6 334.081 284.6C333.171 284.6 332.331 284.822 331.561 285.265C330.791 285.708 330.161 286.362 329.671 287.225C329.204 288.065 328.971 289.068 328.971 290.235C328.971 291.402 329.204 292.428 329.671 293.315C330.161 294.178 330.791 294.843 331.561 295.31C332.354 295.777 333.194 296.01 334.081 296.01C334.991 296.01 335.843 295.788 336.636 295.345C337.429 294.878 338.059 294.225 338.526 293.385C338.993 292.522 339.226 291.495 339.226 290.305ZM357.557 300.315C355.69 300.315 354.01 299.907 352.517 299.09C351.023 298.25 349.845 297.072 348.982 295.555C348.142 294.038 347.722 292.288 347.722 290.305C347.722 288.322 348.153 286.572 349.017 285.055C349.903 283.538 351.105 282.372 352.622 281.555C354.138 280.715 355.83 280.295 357.697 280.295C359.563 280.295 361.255 280.715 362.772 281.555C364.288 282.372 365.478 283.538 366.342 285.055C367.228 286.572 367.672 288.322 367.672 290.305C367.672 292.288 367.217 294.038 366.307 295.555C365.42 297.072 364.207 298.25 362.667 299.09C361.15 299.907 359.447 300.315 357.557 300.315ZM357.557 296.045C358.443 296.045 359.272 295.835 360.042 295.415C360.835 294.972 361.465 294.318 361.932 293.455C362.398 292.592 362.632 291.542 362.632 290.305C362.632 288.462 362.142 287.05 361.162 286.07C360.205 285.067 359.027 284.565 357.627 284.565C356.227 284.565 355.048 285.067 354.092 286.07C353.158 287.05 352.692 288.462 352.692 290.305C352.692 292.148 353.147 293.572 354.057 294.575C354.99 295.555 356.157 296.045 357.557 296.045ZM388.041 300.245C386.338 300.245 384.798 299.953 383.421 299.37C382.068 298.787 380.994 297.947 380.201 296.85C379.408 295.753 378.999 294.458 378.976 292.965H384.226C384.296 293.968 384.646 294.762 385.276 295.345C385.929 295.928 386.816 296.22 387.936 296.22C389.079 296.22 389.978 295.952 390.631 295.415C391.284 294.855 391.611 294.132 391.611 293.245C391.611 292.522 391.389 291.927 390.946 291.46C390.503 290.993 389.943 290.632 389.266 290.375C388.613 290.095 387.703 289.792 386.536 289.465C384.949 288.998 383.654 288.543 382.651 288.1C381.671 287.633 380.819 286.945 380.096 286.035C379.396 285.102 379.046 283.865 379.046 282.325C379.046 280.878 379.408 279.618 380.131 278.545C380.854 277.472 381.869 276.655 383.176 276.095C384.483 275.512 385.976 275.22 387.656 275.22C390.176 275.22 392.218 275.838 393.781 277.075C395.368 278.288 396.243 279.992 396.406 282.185H391.016C390.969 281.345 390.608 280.657 389.931 280.12C389.278 279.56 388.403 279.28 387.306 279.28C386.349 279.28 385.579 279.525 384.996 280.015C384.436 280.505 384.156 281.217 384.156 282.15C384.156 282.803 384.366 283.352 384.786 283.795C385.229 284.215 385.766 284.565 386.396 284.845C387.049 285.102 387.959 285.405 389.126 285.755C390.713 286.222 392.008 286.688 393.011 287.155C394.014 287.622 394.878 288.322 395.601 289.255C396.324 290.188 396.686 291.413 396.686 292.93C396.686 294.237 396.348 295.45 395.671 296.57C394.994 297.69 394.003 298.588 392.696 299.265C391.389 299.918 389.838 300.245 388.041 300.245ZM399.674 290.305C399.674 288.298 400.082 286.548 400.899 285.055C401.716 283.538 402.847 282.372 404.294 281.555C405.741 280.715 407.397 280.295 409.264 280.295C411.667 280.295 413.651 280.902 415.214 282.115C416.801 283.305 417.862 284.985 418.399 287.155H413.114C412.834 286.315 412.356 285.662 411.679 285.195C411.026 284.705 410.209 284.46 409.229 284.46C407.829 284.46 406.721 284.973 405.904 286C405.087 287.003 404.679 288.438 404.679 290.305C404.679 292.148 405.087 293.583 405.904 294.61C406.721 295.613 407.829 296.115 409.229 296.115C411.212 296.115 412.507 295.228 413.114 293.455H418.399C417.862 295.555 416.801 297.223 415.214 298.46C413.627 299.697 411.644 300.315 409.264 300.315C407.397 300.315 405.741 299.907 404.294 299.09C402.847 298.25 401.716 297.083 400.899 295.59C400.082 294.073 399.674 292.312 399.674 290.305ZM426.889 283.62C427.519 282.593 428.335 281.788 429.339 281.205C430.365 280.622 431.532 280.33 432.839 280.33V285.475H431.544C430.004 285.475 428.837 285.837 428.044 286.56C427.274 287.283 426.889 288.543 426.889 290.34V300H421.989V280.61H426.889V283.62ZM454.444 280.61V300H449.509V297.55C448.879 298.39 448.051 299.055 447.024 299.545C446.021 300.012 444.924 300.245 443.734 300.245C442.217 300.245 440.876 299.93 439.709 299.3C438.542 298.647 437.621 297.702 436.944 296.465C436.291 295.205 435.964 293.712 435.964 291.985V280.61H440.864V291.285C440.864 292.825 441.249 294.015 442.019 294.855C442.789 295.672 443.839 296.08 445.169 296.08C446.522 296.08 447.584 295.672 448.354 294.855C449.124 294.015 449.509 292.825 449.509 291.285V280.61H454.444ZM483.359 280.33C485.739 280.33 487.652 281.065 489.099 282.535C490.569 283.982 491.304 286.012 491.304 288.625V300H486.404V289.29C486.404 287.773 486.019 286.618 485.249 285.825C484.479 285.008 483.429 284.6 482.099 284.6C480.769 284.6 479.707 285.008 478.914 285.825C478.144 286.618 477.759 287.773 477.759 289.29V300H472.859V289.29C472.859 287.773 472.474 286.618 471.704 285.825C470.934 285.008 469.884 284.6 468.554 284.6C467.2 284.6 466.127 285.008 465.334 285.825C464.564 286.618 464.179 287.773 464.179 289.29V300H459.279V280.61H464.179V282.955C464.809 282.138 465.614 281.497 466.594 281.03C467.597 280.563 468.694 280.33 469.884 280.33C471.4 280.33 472.754 280.657 473.944 281.31C475.134 281.94 476.055 282.85 476.709 284.04C477.339 282.92 478.249 282.022 479.439 281.345C480.652 280.668 481.959 280.33 483.359 280.33Z" fill="white"/>
<g clip-path="url(#clip1_531_756)">
<path fill-rule="evenodd" clip-rule="evenodd" d="M771.432 226.247C776.893 182.538 813.614 145.359 856.221 133.986C902.636 121.597 954.413 138.922 981.936 177.997C1033.95 262.009 970.557 356.567 897.075 356.655L851.847 356.711L858.012 365.39L851.847 372.301C897.075 372.25 881.52 372.481 897.075 372.25C934.675 372.33 977.244 339.248 993.384 315.039C1023.3 270.154 1023.9 212.424 990.403 169.045C957.568 126.524 902.699 108.224 850.078 123.286C824.884 130.497 806.209 143.353 790.071 161.009C772.602 180.125 764.025 200.579 759.05 226.237H738.858L764.896 261.499L791.587 226.252L771.43 226.246L771.432 226.247Z" fill="white"/>
<path fill-rule="evenodd" clip-rule="evenodd" d="M1261.36 372.285C1261.98 391.281 1259.22 401.909 1281.36 386.884C1287.49 382.72 1307 368.595 1307 362.081C1307 356.138 1287.04 343.75 1281.36 339.962C1261.2 326.524 1261.24 337.789 1261.36 356.515C1193.84 356.614 1024.97 356.607 961.381 356.624L931.604 372.305C1041.52 372.305 1151.45 371.605 1261.36 372.285H1261.36Z" fill="white"/>
<path fill-rule="evenodd" clip-rule="evenodd" d="M956.613 237.021C954.082 249.605 942.519 256.276 929.415 254.071C917.194 252.015 909.977 239.007 912.673 227.226C918.959 199.762 962.363 208.435 956.612 237.022L956.613 237.021ZM859.666 236.421C854.958 264.782 809.662 258.145 815.588 227.883C818.37 213.681 839.506 203.157 855.65 219.269C859.348 223.308 860.607 230.762 859.666 236.421ZM855.989 208.615C820.135 188.064 791.272 228.982 816.933 254.581C832.578 270.189 866.605 261.812 867.662 234.951C868.275 219.319 865.53 218.524 862.922 215.637C873.114 210.262 878.898 205.965 884.962 205.976C891.079 205.988 897.484 210.196 908.991 215.625C907.216 218.43 905.874 221.432 904.86 225.619C902.071 237.153 906.629 248.787 915.709 256.262C927.088 265.634 948.223 263.983 957.375 252.458C967.366 239.88 968.192 222.469 956.092 211.327C950.47 206.147 945.084 203.765 935.433 203.077C924.784 202.954 925.033 203.608 913.695 208.614C884.928 197.174 885.027 196.32 855.989 208.614V208.615Z" fill="white"/>
<path fill-rule="evenodd" clip-rule="evenodd" d="M825.339 63.9206C827.229 65.8149 835.505 68.1955 838.451 69.0526C836.624 74.1677 835.202 74.4016 834.184 81.0833C833.201 87.5311 827.739 86.8386 832.405 93.0063C834.367 95.5992 833.813 95.7393 832.884 99.1124C832.338 101.091 831.712 103.258 830.794 105.091C828.868 108.924 824.957 112.15 823.698 114.596C828.34 120.986 840.171 120.358 840.331 105.817C840.36 103.264 840.19 100.676 839.909 98.1429C838.795 88.1497 844.671 92.8709 840.03 85.4906C838.526 83.0977 839.038 81.5342 839.711 78.5996C841.97 68.7464 850.224 67.6523 858.947 64.0944C862.97 62.454 867.085 60.9552 871.172 59.4364C875.441 57.8483 880.205 54.6859 882.413 59.1963C879.941 64.8608 855.132 68.5494 851.693 73.1798C854.358 75.1157 868.101 78.9228 872.447 80.3477C882.824 83.7486 883.518 81.348 893.569 78.0595C900.353 75.8389 907.434 73.4706 914.356 71.167C918.487 69.7897 932.598 66.6412 934.033 63.1634C932.471 59.5733 912.565 54.6259 907.773 53.0209C903.365 51.5421 882.6 44.0402 879.718 44.0033C877.231 43.971 855.687 51.5313 851.649 52.9347C847.129 54.5059 842.549 56.0155 837.983 57.5205C834.157 58.7824 826.116 59.7149 825.339 63.9221V63.9206Z" fill="white"/>
<path fill-rule="evenodd" clip-rule="evenodd" d="M700 372.231L841.788 372.302L849.154 365.39L841.788 356.711L700.014 356.501L700.006 364.169L700 372.231Z" fill="white"/>
<path fill-rule="evenodd" clip-rule="evenodd" d="M847.375 97.5798C858.183 107.788 894.271 109.22 909.821 99.3371C916.555 95.0545 914.483 85.1951 914.579 77.5532C905.468 78.4688 888.677 87.3834 880.404 88.0389C874.275 88.5237 851.194 77.6148 845.982 78.0503C843.425 84.7596 846.349 82.5929 848.369 87.3495C850.615 92.6478 847.273 94.0096 847.375 97.5813V97.5798Z" fill="white"/>
<path d="M1080.57 183.05C1079.74 182.21 1078.78 181.454 1077.69 180.787C1076.59 180.119 1075.35 179.537 1073.97 179.041C1072.6 178.546 1071.13 178.149 1069.57 177.852C1068 177.555 1066.34 177.407 1064.58 177.407C1059.47 177.407 1055.72 178.286 1053.33 180.043C1050.94 181.788 1049.74 184.177 1049.74 187.197C1049.74 189.276 1050.31 190.897 1051.43 192.086C1052.56 193.274 1054.33 194.239 1056.75 194.982C1059.17 195.724 1062.24 196.492 1065.98 197.284C1070.16 198.065 1073.76 199.005 1076.78 200.093C1079.8 201.181 1082.14 202.655 1083.78 204.511C1085.43 206.354 1086.26 208.866 1086.26 212.036C1086.26 214.449 1085.74 216.552 1084.69 218.334C1083.65 220.116 1082.19 221.601 1080.32 222.777C1078.45 223.967 1076.23 224.844 1073.65 225.413C1071.06 225.982 1068.23 226.267 1065.16 226.267C1062.13 226.267 1059.24 225.982 1056.46 225.413C1053.69 224.844 1051.06 224.002 1048.59 222.889C1046.12 221.775 1043.81 220.352 1041.67 218.619L1044.55 214.387C1045.6 215.377 1046.84 216.305 1048.3 217.171C1049.76 218.037 1051.38 218.816 1053.16 219.51C1054.95 220.204 1056.88 220.735 1058.93 221.107C1061 221.478 1063.12 221.664 1065.32 221.664C1069.99 221.664 1073.64 220.897 1076.24 219.362C1078.85 217.84 1080.16 215.563 1080.16 212.544C1080.16 210.377 1079.5 208.633 1078.18 207.321C1076.86 206.01 1074.89 204.933 1072.25 204.092C1069.61 203.263 1066.37 202.447 1062.52 201.653C1058.45 200.813 1055.02 199.871 1052.22 198.833C1049.42 197.792 1047.31 196.42 1045.91 194.724C1044.51 193.016 1043.81 190.752 1043.81 187.93C1043.81 184.675 1044.7 181.916 1046.49 179.663C1048.28 177.424 1050.74 175.716 1053.87 174.553C1057 173.389 1060.6 172.808 1064.66 172.808C1067.25 172.808 1069.65 173.042 1071.88 173.512C1074.1 173.983 1076.16 174.663 1078.06 175.554C1079.95 176.447 1081.73 177.56 1083.37 178.895L1080.57 183.053L1080.57 183.05Z" fill="white"/>
<path d="M1113.87 226.637C1110.74 226.637 1107.87 226.104 1105.26 225.052C1102.65 223.987 1100.37 222.528 1098.42 220.658C1096.46 218.79 1094.95 216.637 1093.88 214.235C1092.81 211.822 1092.28 209.261 1092.28 206.55C1092.28 202.912 1093.18 199.584 1095 196.589C1096.81 193.581 1099.34 191.192 1102.58 189.423C1105.82 187.653 1109.56 186.762 1113.79 186.762C1117.8 186.762 1121.34 187.591 1124.42 189.249C1127.5 190.906 1129.78 193.147 1131.26 195.969L1125.82 197.528C1124.61 195.549 1122.92 194.002 1120.75 192.888C1118.58 191.774 1116.18 191.218 1113.54 191.218C1110.68 191.218 1108.07 191.886 1105.71 193.21C1103.35 194.535 1101.47 196.354 1100.06 198.668C1098.66 200.97 1097.96 203.606 1097.96 206.552C1097.96 209.448 1098.68 212.084 1100.11 214.435C1101.54 216.797 1103.43 218.679 1105.8 220.076C1108.16 221.475 1110.77 222.18 1113.63 222.18C1115.49 222.18 1117.29 221.883 1119.02 221.289C1120.76 220.695 1122.27 219.89 1123.56 218.876C1124.85 217.861 1125.71 216.76 1126.15 215.571L1131.68 217.056C1130.91 218.887 1129.63 220.533 1127.84 221.992C1126.06 223.454 1123.97 224.591 1121.58 225.409C1119.19 226.224 1116.62 226.633 1113.87 226.633L1113.87 226.637Z" fill="white"/>
<path d="M1161.92 191.663C1158.19 191.762 1154.9 192.703 1152.08 194.485C1149.24 196.267 1147.25 198.717 1146.1 201.835V225.893H1140.49V187.356H1145.77V196.489C1147.26 193.767 1149.22 191.565 1151.66 189.881C1154.11 188.198 1156.71 187.257 1159.45 187.059C1160 187.01 1160.48 186.985 1160.9 186.985C1161.31 186.985 1161.65 187.011 1161.93 187.059V191.663H1161.92Z" fill="white"/>
<path d="M1169.01 209.991V187.356H1174.62V209.088C1174.62 213.481 1175.46 216.76 1177.13 218.925C1178.81 221.092 1181.29 222.18 1184.59 222.18C1186.79 222.18 1188.92 221.748 1190.98 220.894C1193.04 220.027 1194.87 218.79 1196.46 217.193C1198.06 215.597 1199.27 213.739 1200.09 211.624V187.356H1205.69V219.816C1205.69 220.509 1205.86 221.004 1206.19 221.326C1206.52 221.649 1207.01 221.834 1207.67 221.883V225.893C1207.01 225.944 1206.49 225.979 1206.11 226.004C1205.72 226.029 1205.36 226.043 1205.03 226.043C1203.93 225.944 1202.99 225.547 1202.19 224.853C1201.39 224.173 1200.97 223.331 1200.91 222.342L1200.75 217.168C1198.88 220.126 1196.34 222.44 1193.12 224.124C1189.91 225.793 1186.43 226.635 1182.69 226.635C1178.19 226.635 1174.78 225.224 1172.47 222.415C1170.17 219.606 1169.01 215.46 1169.01 209.991H1169.01Z" fill="white"/>
<path d="M1282.27 225.893H1276.66V204.422C1276.66 199.954 1275.87 196.651 1274.27 194.535C1272.68 192.419 1270.32 191.366 1267.18 191.366C1263.94 191.366 1261.04 192.394 1258.49 194.459C1255.93 196.526 1254.13 199.188 1253.09 202.429V225.893H1247.48V204.422C1247.48 199.905 1246.71 196.589 1245.18 194.498C1243.64 192.406 1241.27 191.366 1238.09 191.366C1234.9 191.366 1232.01 192.37 1229.43 194.387C1226.85 196.404 1225.03 199.051 1223.99 202.344V225.893H1218.39V187.356H1223.5V196.143C1225.31 193.136 1227.63 190.821 1230.46 189.201C1233.29 187.579 1236.44 186.762 1239.9 186.762C1243.47 186.762 1246.36 187.678 1248.55 189.498C1250.75 191.317 1252.1 193.705 1252.59 196.651C1254.57 193.408 1256.95 190.946 1259.72 189.275C1262.5 187.605 1265.64 186.764 1269.16 186.764C1271.58 186.764 1273.62 187.159 1275.3 187.939C1276.98 188.732 1278.32 189.857 1279.34 191.305C1280.36 192.754 1281.1 194.498 1281.56 196.54C1282.03 198.594 1282.27 200.872 1282.27 203.371V225.893H1282.27Z" fill="white"/>
<path d="M1108.34 268.399H1086.25L1086.16 318.516H1080.12L1080.21 268.399H1057.95L1058.03 263.604H1108.42L1108.34 268.399Z" fill="white"/>
<path d="M1108.69 301.952V278.376H1114.65V301.01C1114.65 305.585 1115.54 309.002 1117.32 311.258C1119.1 313.514 1121.74 314.648 1125.25 314.648C1127.59 314.648 1129.85 314.197 1132.04 313.307C1134.23 312.404 1136.18 311.116 1137.87 309.453C1139.56 307.789 1140.85 305.856 1141.72 303.651V278.374H1147.68V312.186C1147.68 312.907 1147.86 313.423 1148.21 313.758C1148.56 314.094 1149.08 314.286 1149.79 314.338V318.515C1149.08 318.566 1148.53 318.606 1148.12 318.63C1147.71 318.656 1147.33 318.669 1146.98 318.669C1145.81 318.566 1144.8 318.153 1143.96 317.431C1143.11 316.724 1142.66 315.845 1142.6 314.814L1142.42 309.426C1140.44 312.507 1137.74 314.917 1134.32 316.67C1130.9 318.41 1127.2 319.287 1123.23 319.287C1118.44 319.287 1114.82 317.818 1112.37 314.891C1109.91 311.964 1108.68 307.647 1108.68 301.949L1108.69 301.952Z" fill="white"/>
<path d="M1183.09 316.893C1182.62 317.047 1181.89 317.33 1180.9 317.744C1179.9 318.156 1178.71 318.518 1177.3 318.826C1175.9 319.135 1174.38 319.291 1172.75 319.291C1171.05 319.291 1169.46 319.007 1167.97 318.44C1166.48 317.872 1165.3 316.996 1164.42 315.836C1163.55 314.662 1163.11 313.231 1163.11 311.516V282.554H1156.8V278.376H1163.11V264.765H1169.07V278.376H1179.58V282.554H1169.07V310.061C1169.18 311.516 1169.78 312.6 1170.86 313.335C1171.94 314.057 1173.19 314.417 1174.59 314.417C1176.22 314.417 1177.71 314.172 1179.06 313.683C1180.4 313.194 1181.22 312.844 1181.51 312.638L1183.09 316.893H1183.09Z" fill="white"/>
<path d="M1209.2 319.289C1205.93 319.289 1202.91 318.735 1200.13 317.625C1197.36 316.53 1194.96 315.008 1192.95 313.087C1190.93 311.155 1189.37 308.951 1188.26 306.461C1187.15 303.962 1186.59 301.331 1186.59 298.561C1186.59 295.738 1187.15 293.07 1188.26 290.543C1189.37 288.029 1190.95 285.813 1192.99 283.879C1195.03 281.958 1197.44 280.436 1200.22 279.342C1202.99 278.233 1205.99 277.705 1209.2 277.756C1212.53 277.705 1215.57 278.233 1218.32 279.342C1221.06 280.436 1223.46 281.958 1225.5 283.879C1227.55 285.813 1229.12 288.029 1230.24 290.543C1231.34 293.07 1231.9 295.738 1231.9 298.561C1231.9 301.332 1231.35 303.962 1230.24 306.461C1229.13 308.949 1227.56 311.155 1225.55 313.087C1223.53 315.008 1221.14 316.53 1218.36 317.625C1215.59 318.733 1212.53 319.289 1209.2 319.289ZM1192.64 298.639C1192.64 301.618 1193.38 304.324 1194.88 306.76C1196.37 309.196 1198.37 311.116 1200.88 312.535C1203.39 313.94 1206.14 314.674 1209.11 314.726C1212.21 314.676 1215.02 313.928 1217.53 312.497C1220.04 311.053 1222.06 309.094 1223.58 306.606C1225.09 304.119 1225.85 301.412 1225.85 298.485C1225.85 295.508 1225.09 292.789 1223.58 290.325C1222.06 287.863 1220.06 285.904 1217.57 284.434C1215.09 282.978 1212.3 282.267 1209.2 282.32C1206.17 282.32 1203.39 283.054 1200.88 284.511C1198.37 285.981 1196.37 287.941 1194.88 290.402C1193.39 292.864 1192.64 295.609 1192.64 298.638L1192.64 298.639Z" fill="white"/>
<path d="M1264.68 282.863C1260.7 282.966 1257.21 283.945 1254.2 285.801C1251.2 287.658 1249.08 290.209 1247.85 293.458V318.516H1241.89V278.377H1247.5V287.89C1249.08 285.054 1251.17 282.76 1253.77 281.009C1256.37 279.256 1259.13 278.276 1262.05 278.069C1262.63 278.019 1263.14 277.992 1263.58 277.992C1264.02 277.992 1264.38 278.019 1264.68 278.069V282.864V282.863Z" fill="white"/>
</g>
</g>
<rect x="0.5" y="0.5" width="1439" height="535" stroke="black"/>
<defs>
<linearGradient id="paint0_linear_531_756" x1="0" y1="0" x2="1419" y2="536" gradientUnits="userSpaceOnUse">
<stop stop-color="#0E0E52"/>
<stop offset="1" stop-color="#2D2DA6"/>
</linearGradient>
<clipPath id="clip0_531_756">
<rect width="1440" height="536" fill="white"/>
</clipPath>
<clipPath id="clip1_531_756">
<rect width="607" height="350" fill="white" transform="translate(700 44)"/>
</clipPath>
</defs>
</svg>
